<?xml version="1.0" encoding="utf-8"?>
<!-- Generator: Adobe Illustrator 25.4.1, SVG Export Plug-In . SVG Version: 6.00 Build 0)  -->
<svg version="1.1" id="レイヤー_1" xmlns="http://www.w3.org/2000/svg" xmlns:xlink="http://www.w3.org/1999/xlink" x="0px"
	 y="0px" viewBox="0 0 180 180" style="enable-background:new 0 0 180 180;" xml:space="preserve">
<style type="text/css">
	.st0{clip-path:url(#SVGID_00000029032268273360231770000011151484402284106629_);}
	.st1{fill:#00003C;}
	.st2{fill:none;}
	.st3{fill:#FFFFFF;}
</style>
<g>
	<defs>
		<rect id="SVGID_1_" width="180" height="180"/>
	</defs>
	<clipPath id="SVGID_00000170960826390764892720000012439628353117394834_">
		<use xlink:href="#SVGID_1_"  style="overflow:visible;"/>
	</clipPath>
	
		<g id="マスクグループ_9" transform="translate(8965 12838)" style="clip-path:url(#SVGID_00000170960826390764892720000012439628353117394834_);">
		<g id="グループ_14546" transform="translate(-9050.306 347.694)">
			<rect id="長方形_14522" x="85.3" y="-13185.7" class="st1" width="180" height="180"/>
			<rect id="長方形_14521" x="85.3" y="-13147.7" class="st2" width="180" height="109"/>
			<g id="グループ_14546-2" transform="translate(95.837 -13144.995)">
				<g id="グループ_14546-3" transform="translate(95.593 30.713)">
					<path id="パス_7541" class="st3" d="M22.4,44.8C10,44.8,0,34.8,0,22.4C0,10,10,0,22.4,0c12.4,0,22.4,10,22.4,22.4
						S34.8,44.8,22.4,44.8L22.4,44.8z M22.4,10.7c-6.5,0-11.7,5.2-11.7,11.7c0,6.5,5.2,11.7,11.7,11.7c6.5,0,11.7-5.2,11.7-11.7
						C34.1,15.9,28.9,10.7,22.4,10.7C22.4,10.7,22.4,10.7,22.4,10.7z"/>
				</g>
				<path id="パス_7542" class="st3" d="M337,53.1C307.1,19.5,264.4,0.2,219.4,0c-49.2,0-80.6,21.3-96.4,36.1c0,0,8,2.1,11.5,12.6
					c23.2-19.2,52.3-29.8,82.4-30c44.4,0,70.2,15.5,92.1,32.5c0,0-8.9,18.1-66.6,33.3l-22.1,19.7C220.3,104.2,283.4,108.1,337,53.1z
					"/>
				<circle id="楕円形_325" class="st3" cx="279.7" cy="53.1" r="6.6"/>
				<g id="グループ_14547" transform="translate(196.538 30.764)">
					<path id="パス_7543" class="st3" d="M22.4,44.8C10,44.8,0,34.8,0,22.4S10,0,22.4,0c12.4,0,22.4,10,22.4,22.4
						S34.8,44.8,22.4,44.8C22.4,44.8,22.4,44.8,22.4,44.8z M22.4,10.7c-6.5,0-11.7,5.2-11.7,11.7s5.2,11.7,11.7,11.7
						s11.7-5.2,11.7-11.7v0C34.1,15.9,28.9,10.7,22.4,10.7z"/>
				</g>
				<path id="パス_7544" class="st3" d="M0,53.2c29.8,33.6,72.6,52.9,117.5,53.1c49.2,0,80.6-21.3,96.4-36.1c0,0-8-2.1-11.5-12.6
					c-23.2,19.2-52.3,29.8-82.4,30c-44.4,0-70.2-15.5-92.1-32.5c0,0,8.9-18.1,66.6-33.3l22.1-19.7C116.7,2.1,53.6-1.8,0,53.2z"/>
				<circle id="楕円形_326" class="st3" cx="57.3" cy="53.2" r="6.6"/>
				<g id="グループ_14548" transform="translate(135.071 47.777)">
					<rect id="長方形_14520" x="0" y="0" class="st3" width="66.8" height="10.7"/>
				</g>
			</g>
		</g>
	</g>
</g>
</svg>
