<svg xmlns="http://www.w3.org/2000/svg" width="200" height="200" viewBox="0 0 200 200">
  <g id="グループ_14389" data-name="グループ 14389" transform="translate(-325 -750)">
    <rect id="長方形_14474" data-name="長方形 14474" width="200" height="200" transform="translate(325 750)" fill="#ccc"/>
    <path id="パス_6280" data-name="パス 6280" d="M3737.074,985.3c0-.025,0-.05,0-.075,0-.083-.008-.166-.017-.248,0-.011,0-.022,0-.033a2.835,2.835,0,0,0-.052-.3c0-.02-.008-.04-.013-.06a2.915,2.915,0,0,0-.093-.3c-.006-.017-.013-.034-.02-.051a2.94,2.94,0,0,0-.12-.271l-.016-.034a3.034,3.034,0,0,0-.162-.271l-.039-.057a2.932,2.932,0,0,0-.2-.252l-.016-.018a2.92,2.92,0,0,0-.217-.219l-.044-.04a3.039,3.039,0,0,0-.254-.2l-.017-.013-.03-.018a2.938,2.938,0,0,0-.269-.163l-.021-.011a2.9,2.9,0,0,0-.292-.131l-.072-.027c-.025-.009-.049-.02-.074-.028l-57.026-18.872a2.972,2.972,0,0,0-1.869,0l-57.026,18.872c-.031.01-.062.023-.093.035l-.071.027a2.92,2.92,0,0,0-.291.133l-.042.024a2.976,2.976,0,0,0-.266.165l-.022.014-.009.007a3.017,3.017,0,0,0-.257.207l-.047.043a2.966,2.966,0,0,0-.226.235l-.02.025a3.023,3.023,0,0,0-.184.245c-.01.015-.021.03-.031.045a2.9,2.9,0,0,0-.159.277l-.025.053a2.9,2.9,0,0,0-.128.3h0a2.981,2.981,0,0,0-.091.318c0,.021-.01.041-.013.061a3.017,3.017,0,0,0-.05.323c0,.015,0,.029,0,.043,0,.055-.009.109-.011.165s0,.093,0,.139c0,.012,0,.024,0,.037l2.047,61.314a2.975,2.975,0,0,0,1.645,2.562l54.979,27.423c.025.012.051.021.077.033.045.021.09.039.135.058.076.031.152.058.23.082.045.014.09.028.136.04.085.022.17.039.256.053.039.007.078.016.117.021a3.022,3.022,0,0,0,.377.026h0a3.018,3.018,0,0,0,.377-.026c.04-.005.079-.014.119-.021.085-.015.17-.031.254-.053.046-.012.091-.026.136-.04q.116-.036.23-.083c.045-.018.09-.037.134-.057.026-.012.052-.021.078-.033l56.331-28.116a2.975,2.975,0,0,0,1.646-2.627l.7-60.62C3737.076,985.328,3737.074,985.317,3737.074,985.3Zm-11.753.229-48.245,18.784-17.926-6.979,46.074-18.455Zm-80.579,6.2-15.913-6.2,48.246-15.966,14.33,4.742Zm-19.136-1.067,14.43,5.618v15.266l2.141-1.54,2.1,3.43,2.594-1.163,2.326,3.13,2.415-1.431,2.952,3.13.1-15.128,19.439,7.569v59.694l-49.092-24.486-1.837-55.036Zm54.443,78.573v-59.692l51.028-19.867-.624,54.4Z" transform="translate(-3252.076 -170.46)" fill="#fff"/>
    <rect id="長方形_14475" data-name="長方形 14475" width="200" height="200" transform="translate(325 750)" fill="#09ce4d" opacity="0.308"/>
    <path id="パス_6289" data-name="パス 6289" d="M-4188.373-10392.606l30.767,30.767,60.278-60.278" transform="translate(4567.873 11241.618)" fill="none" stroke="#fff" stroke-width="14"/>
  </g>
</svg>
