<svg xmlns="http://www.w3.org/2000/svg" width="110" height="110" viewBox="0 0 110 110">
  <g id="コンポーネント_194" data-name="コンポーネント 194" transform="translate(-18 -20)">
    <g id="fact_check_black_24dp" transform="translate(19 16)">
      <g id="グループ_13883" data-name="グループ 13883" transform="translate(-1 4)">
        <rect id="長方形_14263" data-name="長方形 14263" width="110" height="110" transform="translate(0 0)" fill="none"/>
      </g>
      <g id="グループ_13885" data-name="グループ 13885" transform="translate(6.577 16.478)">
        <g id="グループ_13884" data-name="グループ 13884">
          <path id="パス_6222" data-name="パス 6222" d="M4,71.578H80.089V5H4ZM48.75,32.344,55.455,39.1,70.53,24.022l6.753,6.753L55.455,52.555,42.044,39.05ZM17.05,14.511H32.533v9.511H17.05Zm0,19.022H32.533v9.511H17.05Zm0,19.022H32.533v9.511H17.05Z" transform="translate(5.511 4.511)" fill="#c3ffd7"/>
          <path id="パス_6223" data-name="パス 6223" d="M87.6,3H11.511A9.539,9.539,0,0,0,2,12.511V79.089A9.539,9.539,0,0,0,11.511,88.6H87.6a9.539,9.539,0,0,0,9.511-9.511V12.511A9.539,9.539,0,0,0,87.6,3Zm0,76.089H11.511V12.511H87.6Z" transform="translate(-2 -3)" fill="#00c4e2"/>
          <path id="パス_6224" data-name="パス 6224" d="M47.239,15.753,40.486,9,25.411,24.075l-6.705-6.753L12,24.028,25.411,37.533Z" transform="translate(35.556 19.533)" fill="#00c4e2"/>
          <path id="パス_6228" data-name="パス 6228" d="M3,0H16.824V11.059H3Z" transform="translate(20.759 16.925)" fill="#00c4e2"/>
          <path id="パス_6229" data-name="パス 6229" d="M3,0H16.824V11.059H3Z" transform="translate(20.759 36.278)" fill="#00c4e2"/>
          <path id="パス_6230" data-name="パス 6230" d="M3,0H16.824V11.059H3Z" transform="translate(20.759 55.631)" fill="#00c4e2"/>
        </g>
      </g>
    </g>
  </g>
</svg>
