<svg xmlns="http://www.w3.org/2000/svg" width="40" height="40" viewBox="0 0 40 40">
  <g id="グループ_1258" data-name="グループ 1258" transform="translate(-551 -2352)">
    <g id="mark_as_unread_black_24dp" transform="translate(561 2362)">
      <path id="パス_9147" data-name="パス 9147" d="M0,0H20V20H0Z" fill="none"/>
      <path id="パス_9148" data-name="パス 9148" d="M16.531,6.365H14.287L9.339,3.746,3.727,6.714v8.38A1.742,1.742,0,0,1,2,13.348V6.513a1.369,1.369,0,0,1,.691-1.17L9.339,2l6.51,3.343a1.388,1.388,0,0,1,.682,1.021Zm1.01.873H6.317A1.742,1.742,0,0,0,4.59,8.983V16.84a1.742,1.742,0,0,0,1.727,1.746H17.542a1.742,1.742,0,0,0,1.727-1.746V8.983A1.742,1.742,0,0,0,17.542,7.238Zm0,3.2-5.612,2.907L6.317,10.441V8.983l5.612,2.907,5.612-2.907Z" transform="translate(-0.634 -0.634)" fill="#fff"/>
    </g>
    <rect id="長方形_14536" data-name="長方形 14536" width="40" height="40" transform="translate(551 2352)" fill="none"/>
  </g>
</svg>
