<svg id="ico_list_white" xmlns="http://www.w3.org/2000/svg" width="24" height="24" viewBox="0 0 24 24">
  <path id="パス_2708" data-name="パス 2708" d="M0,0H24V24H0Z" fill="none"/>
  <path id="パス_2709" data-name="パス 2709" d="M14.445,4.431V14.445H4.431V4.431H14.445M15.232,3H3.644A.641.641,0,0,0,3,3.644V15.232a.692.692,0,0,0,.644.644H15.232a.759.759,0,0,0,.644-.644V3.644A.692.692,0,0,0,15.232,3ZM8.722,5.861h4.292V7.292H8.722Zm0,2.861h4.292v1.431H8.722Zm0,2.861h4.292v1.431H8.722ZM5.861,5.861H7.292V7.292H5.861Zm0,2.861H7.292v1.431H5.861Zm0,2.861H7.292v1.431H5.861Z" transform="translate(2.562 2.562)" fill="#fff"/>
</svg>
