<svg xmlns="http://www.w3.org/2000/svg" width="96" height="96" viewBox="0 0 96 96">
  <g id="icon_box_close" transform="translate(-36 -20)">
    <g id="グループ_14524" data-name="グループ 14524" transform="translate(44.005 32)">
      <path id="パス_6280" data-name="パス 6280" d="M3697.1,978.028v-.05a.812.812,0,0,0-.011-.165v-.022a1.737,1.737,0,0,0-.035-.2.15.15,0,0,0-.009-.04,1.972,1.972,0,0,0-.062-.2.113.113,0,0,0-.013-.034c-.024-.062-.051-.122-.08-.181l-.011-.023a2,2,0,0,0-.108-.181l-.026-.038a2.037,2.037,0,0,0-.131-.168l-.01-.012a2.045,2.045,0,0,0-.145-.146l-.029-.027a1.929,1.929,0,0,0-.169-.133l-.011-.009-.021-.012a2.015,2.015,0,0,0-.18-.109l-.013-.008a2.078,2.078,0,0,0-.2-.087l-.048-.018-.05-.019-38.031-12.585a1.982,1.982,0,0,0-1.246,0l-38.03,12.585-.062.023-.047.018a1.9,1.9,0,0,0-.194.089l-.029.016q-.091.051-.177.11l-.014.009h-.006a2.127,2.127,0,0,0-.171.138l-.031.029a2.019,2.019,0,0,0-.152.157l-.013.016a1.88,1.88,0,0,0-.123.163l-.021.03a1.994,1.994,0,0,0-.106.185l-.017.036a2.04,2.04,0,0,0-.085.2h0a2.058,2.058,0,0,0-.061.212.234.234,0,0,1-.01.041,2,2,0,0,0-.032.215v.029c0,.037-.007.073-.008.11s0,.062,0,.093v.025l1.365,40.89a1.982,1.982,0,0,0,1.1,1.709l36.665,18.288.051.022.09.038c.051.02.1.039.153.055.031.009.06.019.091.027a1.627,1.627,0,0,0,.17.035.584.584,0,0,1,.08.014,2,2,0,0,0,.25.017h0a2,2,0,0,0,.252-.017.444.444,0,0,0,.079-.014c.057-.01.114-.021.169-.035.031-.008.061-.018.091-.027.052-.016.1-.035.154-.055l.089-.038.052-.022,37.567-18.75a1.984,1.984,0,0,0,1.1-1.752l.464-40.427S3697.1,978.036,3697.1,978.028Zm-7.838.152-32.175,12.527-11.955-4.654,30.727-12.308Zm-53.738,4.131-10.612-4.131,32.175-10.647,9.556,3.162Zm-12.761-.712,9.623,3.747v10.181l1.428-1.027,1.4,2.287,1.73-.776,1.551,2.088,1.611-.954,1.969,2.088.065-10.089,12.963,5.047V1034l-32.739-16.33-1.225-36.7Zm36.308,52.4V994.192l34.03-13.249-.416,36.28Z" transform="translate(-3617.076 -963.46)" fill="#00c4e2"/>
    </g>
    <rect id="長方形_14547" data-name="長方形 14547" width="96" height="96" transform="translate(36 20)" fill="none"/>
  </g>
</svg>
