<svg xmlns="http://www.w3.org/2000/svg" xmlns:xlink="http://www.w3.org/1999/xlink" width="120" height="120" viewBox="0 0 120 120">
  <defs>
    <clipPath id="clip-path">
      <rect id="長方形_14533" data-name="長方形 14533" width="114.191" height="87.162" fill="#07c5e2"/>
    </clipPath>
  </defs>
  <g id="グループ_2659" data-name="グループ 2659" transform="translate(-1766 -758)">
    <rect id="長方形_14534" data-name="長方形 14534" width="120" height="120" transform="translate(1766 758)" fill="none"/>
    <g id="グループ_2660" data-name="グループ 2660" transform="translate(1768.904 774.878)">
      <g id="グループ_2659-2" data-name="グループ 2659" clip-path="url(#clip-path)">
        <path id="パス_2687" data-name="パス 2687" d="M90.949,74.518A24.078,24.078,0,0,1,73.915,33.408L100.268,7.055a24.088,24.088,0,1,1,34.066,34.066L107.981,67.474a23.926,23.926,0,0,1-17.033,7.044M119.011,8.713a13.576,13.576,0,0,0-9.663,4L79.575,42.489A13.665,13.665,0,0,0,98.9,61.814l29.773-29.773a13.665,13.665,0,0,0-9.662-23.328" transform="translate(-27.199 0)" fill="#07c5e2"/>
        <path id="パス_2688" data-name="パス 2688" d="M94.559,80.428l8.853-8.853c6.336-6.336,9.5-16.735,5.609-25.352l-7.128,7.128c.789,4.48-2.326,9.373-4.829,11.875l-8.716,8.717a10.766,10.766,0,0,0,6.21,6.484" transform="translate(-35.934 -18.8)" fill="#07c5e2"/>
        <path id="パス_2689" data-name="パス 2689" d="M44.427,78.306A27.02,27.02,0,0,1,41.4,74.694l-7.819,7.82a14.422,14.422,0,0,1-20.4-20.4L40.735,34.572a14.375,14.375,0,0,1,10.2-4.218,7.672,7.672,0,0,1,1.556.082L60.129,22.8c-8.688-4.116-19.649-.665-25.742,5.429L6.841,55.77A23.4,23.4,0,0,0,39.933,88.861L47.7,81.094a27.255,27.255,0,0,1-3.274-2.788" transform="translate(0 -8.542)" fill="#07c5e2"/>
      </g>
    </g>
  </g>
</svg>
