<svg id="local_shipping_black_24dp" xmlns="http://www.w3.org/2000/svg" width="120" height="120" viewBox="0 0 120 120">
  <path id="パス_6260" data-name="パス 6260" d="M0,0H120V120H0Z" fill="none"/>
  <path id="パス_6290" data-name="パス 6290" d="M-.882-10.773a3.507,3.507,0,0,0,3.528-3.654c0-5.733,8.253-8.946,10.521-14.616a17.537,17.537,0,0,0,1.26-6.3c0-8.631-6.426-13.8-13.86-13.8-10.4,0-14.238,8.694-14.238,11.025,0,2.079,1.764,3.024,3.465,3.024,1.449,0,2.9-.63,3.213-1.89A8.022,8.022,0,0,1,.63-42.84c2.52,0,7.182,1.449,7.182,7.623a10.787,10.787,0,0,1-1.386,5.166C4.158-25.893-4.095-22.239-4.095-14.238A3.178,3.178,0,0,0-.882-10.773ZM3.654-1.89A4.066,4.066,0,0,0-.693-6.237,4.551,4.551,0,0,0-5.04-1.89,4.364,4.364,0,0,0-.693,2.268,4.19,4.19,0,0,0,3.654-1.89Z" transform="translate(59.5 84.5)" fill="#00c3e1" stroke="#00c3e1" stroke-width="1"/>
  <g id="楕円形_309" data-name="楕円形 309" transform="translate(11 11)" fill="none" stroke="#00c3e1" stroke-width="10">
    <circle cx="50" cy="50" r="50" stroke="none"/>
    <circle cx="50" cy="50" r="45" fill="none"/>
  </g>
</svg>
