<svg id="local_shipping_black_24dp" xmlns="http://www.w3.org/2000/svg" width="110" height="110" viewBox="0 0 110 110">
  <path id="パス_6260" data-name="パス 6260" d="M0,0H110V110H0Z" fill="none"/>
  <path id="パス_6261" data-name="パス 6261" d="M3,47.25H6.575a13.586,13.586,0,0,1,20.35,0H58V6H3Z" transform="translate(10.75 21.5)" fill="#e5e5e5"/>
  <path id="パス_6262" data-name="パス 6262" d="M74.333,22.333V4H10.167A9.194,9.194,0,0,0,1,13.167V63.583h9.167a13.75,13.75,0,1,0,27.5,0h27.5a13.75,13.75,0,1,0,27.5,0h9.167V40.667L88.083,22.333ZM23.917,68.167A4.583,4.583,0,1,1,28.5,63.583,4.6,4.6,0,0,1,23.917,68.167Zm41.25-13.75H34.092a13.586,13.586,0,0,0-20.35,0H10.167V13.167h55Zm13.75,13.75A4.583,4.583,0,1,1,83.5,63.583,4.6,4.6,0,0,1,78.917,68.167Zm-4.583-27.5V29.208H85.792l8.983,11.458Z" transform="translate(3.583 14.333)" fill="#00c3e1"/>
</svg>
