<svg xmlns="http://www.w3.org/2000/svg" width="110" height="110" viewBox="0 0 110 110">
  <g id="engineering_black_24dp" transform="translate(0 -0.19)">
    <g id="グループ_14232" data-name="グループ 14232" transform="translate(0 0.19)">
      <rect id="長方形_14407" data-name="長方形 14407" width="110" height="110" transform="translate(0 0)" fill="none"/>
    </g>
    <g id="グループ_14234" data-name="グループ 14234" transform="translate(18.378 13.706)">
      <g id="グループ_14233" data-name="グループ 14233">
        <path id="パス_6252" data-name="パス 6252" d="M16.156,20.444c5.036,0,9.156-5.15,9.156-11.444H7C7,15.294,11.12,20.444,16.156,20.444Z" transform="translate(20.467 16.178)" fill="#f3ffb4"/>
        <path id="パス_6253" data-name="パス 6253" d="M9.289,12.655a2.267,2.267,0,0,0,2.289-2.289V4.14A17.52,17.52,0,0,0,7,6.017v4.349A2.267,2.267,0,0,0,9.289,12.655Z" transform="translate(20.467 1.079)" fill="#f3ffb4"/>
        <path id="パス_6254" data-name="パス 6254" d="M12.289,12.655a2.267,2.267,0,0,0,2.289-2.289V6.017A17.52,17.52,0,0,0,10,4.14v6.226A2.267,2.267,0,0,0,12.289,12.655Z" transform="translate(31.2 1.079)" fill="#f3ffb4"/>
        <path id="パス_6255" data-name="パス 6255" d="M30.467,17C18.152,17,4.053,22.86,3,26.156H57.933C57.018,22.905,42.826,17,30.467,17Z" transform="translate(6.156 47.089)" fill="#f3ffb4"/>
        <path id="パス_6256" data-name="パス 6256" d="M37.622,15C25.4,15,1,21.134,1,33.311v9.156H74.244V33.311C74.244,21.134,49.845,15,37.622,15ZM10.156,33.311c1.007-3.3,15.152-9.156,27.467-9.156,12.36,0,26.551,5.905,27.467,9.156Z" transform="translate(-1 39.933)" fill="#00b1dc"/>
        <path id="パス_6257" data-name="パス 6257" d="M6.493,24.889h1.19c0,10.117,8.194,20.311,18.311,20.311S44.305,35.006,44.305,24.889H45.5a2.247,2.247,0,0,0,2.243-2.243v-.092A2.247,2.247,0,0,0,45.5,20.311h-1.19c0-6.775-3.708-10.589-9.156-13.793v4.349a2.289,2.289,0,1,1-4.578,0V4.641A18.726,18.726,0,0,0,25.994,4a18.726,18.726,0,0,0-4.578.641v6.226a2.289,2.289,0,0,1-4.578,0V6.518c-5.448,3.2-9.156,7.018-9.156,13.793H6.493A2.247,2.247,0,0,0,4.25,22.554v.137A2.238,2.238,0,0,0,6.493,24.889Zm28.657,0c0,5.036-4.12,11.156-9.156,11.156s-9.156-6.12-9.156-11.156Z" transform="translate(10.628 0.578)" fill="#00b1dc"/>
      </g>
    </g>
  </g>
</svg>
