<svg xmlns="http://www.w3.org/2000/svg" width="110" height="110" viewBox="0 0 110 110">
  <g id="グループ_14236" data-name="グループ 14236" transform="translate(-1290 -372)">
    <g id="グループ_14235" data-name="グループ 14235" transform="translate(-19.207 -20.492)">
      <path id="パス_6265" data-name="パス 6265" d="M11613.208-197.536,11637.5-186.3v37.384l-24.295-10.955Z" transform="translate(-10299.001 617.411)" fill="#c9f4ff" stroke="#00c4e2" stroke-linecap="round" stroke-linejoin="round" stroke-width="7"/>
      <path id="パス_6266" data-name="パス 6266" d="M11653.221-202.1l-40.016,15.522V-149.2l40.016-16.181Z" transform="translate(-10274.704 617.693)" fill="#c9f4ff" stroke="#00c4e2" stroke-linecap="round" stroke-linejoin="round" stroke-width="7"/>
      <path id="パス_6267" data-name="パス 6267" d="M11625.743-171.408l-38.355,13.015,24.226,11.088,40.017-15.242Z" transform="translate(-10273.111 578.266)" fill="#c9f4ff" stroke="#00c4e2" stroke-linecap="round" stroke-linejoin="round" stroke-width="7"/>
      <path id="パス_6269" data-name="パス 6269" d="M11613.208-197.536,11637.5-186.3v37.384l-24.295-10.955Z" transform="translate(-10262.519 635.294)" fill="#c9f4ff" stroke="#00c4e2" stroke-linecap="round" stroke-linejoin="round" stroke-width="7"/>
      <path id="パス_6268" data-name="パス 6268" d="M11653.221-202.1l-40.016,15.522V-149.2l40.016-16.181Z" transform="translate(-10238.223 635.575)" fill="#c9f4ff" stroke="#00c4e2" stroke-linecap="round" stroke-linejoin="round" stroke-width="7"/>
      <path id="パス_6270" data-name="パス 6270" d="M11625.743-171.408l-38.355,13.015,24.226,11.088,40.017-15.242Z" transform="translate(-10236.629 596.149)" fill="#c9f4ff" stroke="#00c4e2" stroke-linecap="round" stroke-linejoin="round" stroke-width="7"/>
    </g>
    <rect id="長方形_14409" data-name="長方形 14409" width="110" height="110" transform="translate(1290 372)" fill="none"/>
  </g>
</svg>
