<svg id="グループ_14488" data-name="グループ 14488" xmlns="http://www.w3.org/2000/svg" width="140" height="140" viewBox="0 0 140 140">
  <path id="パス_7537" data-name="パス 7537" d="M685.624,312.488a1.59,1.59,0,0,0-1.05-1.141l-31.511-9.268a1.589,1.589,0,0,0-1.686.459s-14.437,12.725-14.47,12.728a1.478,1.478,0,0,0-.327.067l-30.2,9.995-.049.019-.038.014c-.031.012-.06.027-.089.041l-18.817-1.136a1.589,1.589,0,0,0-.766,3.044l19,8.639.767,23.4a1.575,1.575,0,0,0,.871,1.357l29.117,14.523.041.017.071.031c.04.016.081.031.122.043l.072.021c.045.012.09.021.136.028.021,0,.041.008.062.011a1.455,1.455,0,0,0,.4,0c.021,0,.042-.007.063-.011.045-.008.09-.016.134-.028l.072-.021c.041-.013.082-.028.122-.044l.071-.03.041-.017,29.833-14.89a1.575,1.575,0,0,0,.872-1.391l.361-31.255L685.2,313.98A1.589,1.589,0,0,0,685.624,312.488Zm-78.237,16.155,22.408,8.311-17-1.21-20-8.49ZM635.5,371.274l-26-12.968-.683-20.895,2.987,1.365a1.588,1.588,0,0,0,.546.127l23.15,1.159Zm1.575-34.384-15.5-6.034-9.947-3.949,25.445-8.421,24.629,8.151.912.309Zm28.268,21.059L638.65,371.273V339.66l27.024-10.522Zm1.632-32.884-.7-.232-25.766-8.742,12.558-10.666,28.061,8.137Z" transform="translate(-565.662 -268.696)" fill="#fff"/>
  <rect id="長方形_14491" data-name="長方形 14491" width="140" height="140" fill="none"/>
</svg>
