<svg xmlns="http://www.w3.org/2000/svg" width="40" height="42" viewBox="0 0 40 42">
  <g id="fact_check_black_24dp" transform="translate(-0.402 0.097)">
    <g id="グループ_13883" data-name="グループ 13883" transform="translate(0 0)">
      <rect id="長方形_14263" data-name="長方形 14263" width="40" height="42" transform="translate(0.402 -0.097)" fill="none"/>
    </g>
    <g id="グループ_13885" data-name="グループ 13885" transform="translate(2.809 5.781)">
      <g id="グループ_13884" data-name="グループ 13884">
        <path id="パス_6223" data-name="パス 6223" d="M32.962,3H5.44A3.45,3.45,0,0,0,2,6.44V30.522a3.45,3.45,0,0,0,3.44,3.44H32.962a3.45,3.45,0,0,0,3.44-3.44V6.44A3.45,3.45,0,0,0,32.962,3Zm0,27.522H5.44V6.44H32.962Z" transform="translate(-2 -3)" fill="#00c4e2"/>
        <path id="パス_6228" data-name="パス 6228" d="M3,0H7V4H3Z" transform="translate(4.594 6.122)" fill="#00c4e2"/>
        <path id="パス_6250" data-name="パス 6250" d="M3,0H17V4H3Z" transform="translate(10.594 6.122)" fill="#00c4e2"/>
        <path id="パス_6229" data-name="パス 6229" d="M3,0H7V4H3Z" transform="translate(4.594 13.122)" fill="#00c4e2"/>
        <path id="パス_6249" data-name="パス 6249" d="M3,0H17V4H3Z" transform="translate(10.594 13.122)" fill="#00c4e2"/>
        <path id="パス_6230" data-name="パス 6230" d="M3,0H7V4H3Z" transform="translate(4.594 20.122)" fill="#00c4e2"/>
        <path id="パス_6251" data-name="パス 6251" d="M3,0H17V4H3Z" transform="translate(10.594 20.122)" fill="#00c4e2"/>
      </g>
    </g>
  </g>
</svg>
