<svg xmlns="http://www.w3.org/2000/svg" width="24" height="24" viewBox="0 0 24 24">
  <g id="person-24px" transform="translate(12.184 -34.64)">
    <path id="パス_946" data-name="パス 946" d="M0,0H24V24H0Z" transform="translate(-12.184 34.64)" fill="none"/>
    <path id="パス_947" data-name="パス 947" d="M11.247,1.164c1,0,1.423.463,1.423,1.459s-.427,2.139-1.423,2.139S9.693,3.62,9.693,2.623s.557-1.459,1.553-1.459m0,9.776c2.446,0,4.442,1.209,4.623,1.852l-1,6.669H7.623l-1-6.669c.208-.652,2.187-1.852,4.623-1.852m0-11.94A3.622,3.622,0,0,0,7.623,2.623c0,2,1.621,4.24,3.623,4.24s3.623-2.238,3.623-4.24A3.622,3.622,0,0,0,11.247-1Zm0,9.675C8.828,8.675,4,9.889,4,12.3l1.234,8.975H17.26L18.493,12.3C18.493,9.889,13.665,8.675,11.247,8.675Z" transform="translate(-11.384 36.583)"/>
  </g>
</svg>
