<svg xmlns="http://www.w3.org/2000/svg" width="24" height="24" viewBox="0 0 24 24">
  <g id="コンポーネント_213" data-name="コンポーネント 213" transform="translate(-18.002 -20.001)">
    <g id="fact_check_black_24dp" transform="translate(17.999 20)">
      <g id="グループ_13883" data-name="グループ 13883" transform="translate(0 0)">
        <rect id="長方形_14263" data-name="長方形 14263" width="24" height="24" transform="translate(0.001 0.001)" fill="none"/>
      </g>
      <g id="グループ_13885" data-name="グループ 13885" transform="translate(1.646 2.71)">
        <g id="グループ_13884" data-name="グループ 13884">
          <path id="パス_6223" data-name="パス 6223" d="M20.589,3H4.065A2.072,2.072,0,0,0,2,5.065V19.524a2.072,2.072,0,0,0,2.065,2.065H20.589a2.072,2.072,0,0,0,2.065-2.065V5.065A2.072,2.072,0,0,0,20.589,3Zm0,16.524H4.065V5.065H20.589Z" transform="translate(-2 -3)" fill="#00c4e2"/>
          <path id="パス_6228" data-name="パス 6228" d="M3,0H14.8V1.967H3Z" transform="translate(1.426 4.395)" fill="#00c4e2"/>
          <path id="パス_6241" data-name="パス 6241" d="M3,0H14.8V1.967H3Z" transform="translate(1.426 8.311)" fill="#00c4e2"/>
          <path id="パス_6242" data-name="パス 6242" d="M3,0H14.8V1.967H3Z" transform="translate(1.426 12.227)" fill="#00c4e2"/>
        </g>
      </g>
    </g>
  </g>
</svg>
