<svg xmlns="http://www.w3.org/2000/svg" width="230" height="230" viewBox="0 0 230 230">
  <g id="グループ_4183" data-name="グループ 4183" transform="translate(-1060 -280)">
    <g id="グループ_4182" data-name="グループ 4182" transform="translate(-1 0.549)">
      <g id="グループ_433" data-name="グループ 433" transform="translate(27 19.733)">
        <path id="パス_1704" data-name="パス 1704" d="M-99.983-18.564V0h3.822V-13.026h.052L-91.559,0h3.146l4.55-13.156h.052V0h3.822V-18.564h-5.746L-89.843-5.8H-89.9l-4.342-12.766Zm32.682,0V0h4.082V-18.564Zm16.77,0V0h4.082V-5.98l2.34-2.366L-38.519,0H-33.4l-7.956-11.232,7.254-7.332h-5.1l-7.254,7.7v-7.7Zm27.872,0V0h4.082V-18.564ZM11.791,0l4.992-18.564h-4L9.737-5.772H9.685L6.513-18.564H2.691L-.533-5.928H-.585L-3.523-18.564H-7.605L-2.691,0H1.443L4.537-12.636h.052L7.735,0Zm20.02-7.176,2.418-6.812h.052l2.34,6.812Zm.39-11.388L25.181,0h4.108l1.456-4.134h6.942L39.091,0h4.238L36.387-18.564Zm21.84,0V0h3.822V-13.026h.052L62.465,0h3.146l4.55-13.156h.052V0h3.822V-18.564H68.289L64.181-5.8h-.052L59.787-18.564Zm32.682,0V0h14.092V-3.432H90.805v-4.55h9v-3.172h-9v-3.978h9.8v-3.432Z" transform="translate(1150 469)" fill="#00506e"/>
        <g id="グループ_432" data-name="グループ 432" transform="translate(7 -205)">
          <path id="パス_252" data-name="パス 252" d="M-8216,1135.191l29.7-99.65,72.057,74.85,34.073-40.073" transform="translate(9257 -496.473)" fill="none" stroke="#0046a5" stroke-width="2"/>
          <path id="パス_253" data-name="パス 253" d="M-8046,1125.541l-26.557-100-71.625,85.226-39.727-41.509" transform="translate(9287 -486.473)" fill="none" stroke="#0046a5" stroke-width="2"/>
        </g>
      </g>
      <path id="パス_1703" data-name="パス 1703" d="M-72.394-7.392a18.385,18.385,0,0,0,2.688,1.484,4.893,4.893,0,0,1,.826-1.554,12.331,12.331,0,0,1-3.528-1.862,10.281,10.281,0,0,1-2.422-2.45h-1.736a8.4,8.4,0,0,1-2.114,2.31,12.941,12.941,0,0,1-3.612,2.072,5.036,5.036,0,0,1,.826,1.428A18.556,18.556,0,0,0-78.82-7.406v1.134a11.308,11.308,0,0,1,1.288-.056h3.766a13.117,13.117,0,0,1,1.372.056Zm-5.208-.28a7.216,7.216,0,0,1-.812-.028,12.5,12.5,0,0,0,2.758-2.674,11.445,11.445,0,0,0,2.814,2.688c-.21.014-.476.014-.826.014Zm6.5,2.632a7.877,7.877,0,0,1-1.442.07h-6.384a17.254,17.254,0,0,1-1.75-.084v1.582c.588-.056,1.162-.084,1.736-.084h6.3l-2.3,2.828A9.846,9.846,0,0,1-76.02.434l1.61.9c.294-.448.532-.784.882-1.246l2.7-3.43c.168-.21.476-.56.616-.7Zm8.946-3.43a1.547,1.547,0,0,1,.224-.014c.126,0,.126,0,.392.014.308,0,1.54.028,1.764.028,0,0,.182-.014.238-.014a.685.685,0,0,0-.112.182,18.543,18.543,0,0,1-1.68,2.394,8.577,8.577,0,0,1-1.26,1.246l1.274,1.26A6.3,6.3,0,0,1-60.1-4.648a4.733,4.733,0,0,1,2.87-1.442.768.768,0,0,1,.854.756,6.849,6.849,0,0,0-3.01,1.974A2.231,2.231,0,0,0-60-1.806,2.03,2.03,0,0,0-58.982,0,6.013,6.013,0,0,0-55.86.588,25.393,25.393,0,0,0-52.276.336,4.125,4.125,0,0,1-51.632.28l-.14-1.806a12.164,12.164,0,0,1-4.116.588c-1.694,0-2.366-.294-2.366-1.022a1.474,1.474,0,0,1,.728-1.148,8.509,8.509,0,0,1,1.344-.728V-3.5a11.083,11.083,0,0,1-.084,1.624l1.624-.042a5.748,5.748,0,0,1-.042-.742c0-.1,0-.224.014-.462v-.56c0-.2,0-.2-.014-.56V-4.4q1.806-.63,2.1-.714a12.358,12.358,0,0,1,1.554-.378l-.658-1.61a4.374,4.374,0,0,1-1.036.42q-.525.168-2.142.756a1.842,1.842,0,0,0-2-1.484,3.384,3.384,0,0,0-1.974.63c-.182.14-.182.14-.28.21l-.014-.028a7.245,7.245,0,0,0,1.288-1.862c1.414-.042,3.192-.154,4.214-.28.714-.084.714-.084,1.106-.112l-.1-1.6a18.913,18.913,0,0,1-3.668.476c-.77.042-.77.042-.882.056.028-.056.056-.1.126-.252a10.7,10.7,0,0,1,.56-1.26l-1.834-.2a5.545,5.545,0,0,1-.56,1.736,16.918,16.918,0,0,1-3.248-.182Zm21.994,5.5A2.8,2.8,0,0,1-41.5-.994a7,7,0,0,1-2.73.924A4.393,4.393,0,0,1-43.414,1.3a7.159,7.159,0,0,0,3.556-1.68,4.293,4.293,0,0,0,1.33-2.59h1.26v2.73c0,1.05.42,1.246,2.744,1.246,1.582,0,2.184-.112,2.576-.476.35-.336.49-.854.63-2.408a5.8,5.8,0,0,1-1.442-.588,4.446,4.446,0,0,1-.252,1.792c-.168.238-.448.294-1.526.294s-1.218-.042-1.218-.434V-2.968h1.2c.574,0,1.12.014,1.484.042a10.448,10.448,0,0,1-.07-1.484V-9.52a16.661,16.661,0,0,1,.07-1.75,10.814,10.814,0,0,1-1.484.07h-6.454a10.716,10.716,0,0,1-1.47-.07,17.056,17.056,0,0,1,.07,1.75v5.11a10.815,10.815,0,0,1-.07,1.484c.364-.028.84-.042,1.512-.042Zm-.77-6.832h6.314v.91h-6.314Zm0,2.226h6.314v.938h-6.314Zm0,2.254h6.314v.994h-6.314ZM-21.2-3.71a9.665,9.665,0,0,1-.042,1.064,4.6,4.6,0,0,1,.686-.042h1.568a6.644,6.644,0,0,1,.672.028c-.014-.252-.028-.42-.028-.616V-7.644h.784A33.4,33.4,0,0,1-17.78-3.4c-.154,1.148-.182,1.2-.6,1.2a8.1,8.1,0,0,1-1.274-.154,4.207,4.207,0,0,1,.322,1.358q.672.042.924.042c1.162,0,1.47-.224,1.736-1.218a4.141,4.141,0,0,1,.784,1.092,7.284,7.284,0,0,0,1.414-1.61,7.972,7.972,0,0,0,1.47,1.568,3.186,3.186,0,0,1,.728-1.246,6.347,6.347,0,0,1-1.5-1.526,14.334,14.334,0,0,0,1.134-3.892l-.546-.756a6.38,6.38,0,0,1-.77.042h-.994a6.117,6.117,0,0,1-.994-.056v1.372a4.6,4.6,0,0,1,.686-.042h1.176a9.564,9.564,0,0,1-.434,1.974,13.2,13.2,0,0,1-.6-1.834l-1.022.63a12.916,12.916,0,0,0,.952,2.576A5.243,5.243,0,0,1-16.66-2.24a26.9,26.9,0,0,0,.392-4.522c.056-1.652.056-1.652.084-2.156a7.3,7.3,0,0,1-1.008.042h-.392c.2-.42.28-.588.476-1.064h2.926a15.943,15.943,0,0,1,1.61.07v-1.47a10.992,10.992,0,0,1-1.61.084h-5.8a11.67,11.67,0,0,1-1.61-.084v1.47a15.128,15.128,0,0,1,1.582-.07h1.358a15.183,15.183,0,0,1-.882,1.89h-.98a5.831,5.831,0,0,1-.728-.042,5.958,5.958,0,0,1,.042.672v1.554a6.013,6.013,0,0,1-1.148-2.1,2.13,2.13,0,0,1,.826.07V-9.38a4.458,4.458,0,0,1-.84.056V-10.36a8.187,8.187,0,0,1,.084-1.456h-1.554a8.805,8.805,0,0,1,.084,1.456v1.036h-.56a5.906,5.906,0,0,1-.938-.056V-7.9a7.049,7.049,0,0,1,.938-.07h.462a14.948,14.948,0,0,1-.7,2.3,8.628,8.628,0,0,1-1.134,2.128A4.623,4.623,0,0,1-24.85-2.2a11.827,11.827,0,0,0,1.176-2.926c-.042.686-.07,1.274-.07,1.708V-.56a14.113,14.113,0,0,1-.084,1.708h1.554a11.76,11.76,0,0,1-.084-1.624V-4.34c0-.532-.014-.812-.056-1.372,0-.056-.014-.154-.014-.266a6.411,6.411,0,0,0,.77,1.512c.154-.49.238-.728.238-.728.056-.14.1-.224.224-.5ZM-20.1-6.846h.686v2.954H-20.1ZM-21.826.728a11.014,11.014,0,0,1,1.512-.07h6.244c.672,0,1.148.028,1.61.07V-.756a10.945,10.945,0,0,1-1.582.084H-20.3a10.869,10.869,0,0,1-1.526-.084Zm17.5-11.41a1.792,1.792,0,0,1,.14.476c.154.784.406,2,.476,2.212A5.244,5.244,0,0,0-5.95-3.7c0,1.89.966,3.15,2.408,3.15a2.343,2.343,0,0,0,1.3-.378A6.281,6.281,0,0,0-.574-2.464,16.818,16.818,0,0,0,1.974-7.686a3.3,3.3,0,0,1,1.26.6,2.563,2.563,0,0,1,1.022,2.17A3.355,3.355,0,0,1,3.78-3.192a4.077,4.077,0,0,1-1.96,1.5,6.357,6.357,0,0,1-2.282.546A4.065,4.065,0,0,1,.406.49,10.268,10.268,0,0,0,2.688-.182,4.914,4.914,0,0,0,5.964-4.788,4.13,4.13,0,0,0,4.256-8.26,4.837,4.837,0,0,0,2.38-9.1c.056-.2.238-.882.434-1.638a1.487,1.487,0,0,1,.14-.392L1.19-11.48A10.744,10.744,0,0,1,.784-9.31H.406a6.777,6.777,0,0,0-2.7.56A13.758,13.758,0,0,1-2.632-11ZM-3.29-6.328a15.04,15.04,0,0,0,1.148,3.22c-.476.6-.924.91-1.316.91-.56,0-.952-.63-.952-1.54A3.54,3.54,0,0,1-3.29-6.328Zm2.2,1.848a1.2,1.2,0,0,0-.07-.21A16.264,16.264,0,0,1-2-7.336,4.643,4.643,0,0,1,.406-7.9a15.405,15.405,0,0,1-1.4,3.234,1.133,1.133,0,0,0-.084.182ZM13.1-7.91a20.322,20.322,0,0,1,2.324-.28c3.038-.224,3.584-.266,4.718-.434a6.17,6.17,0,0,0-1.946,1.4,4.936,4.936,0,0,0-1.33,3.3,3.746,3.746,0,0,0,2,3.374,8.423,8.423,0,0,0,3.276.924,2.974,2.974,0,0,1,.476.084l.252-1.9c-.14.014-.266.014-.28.014a8.5,8.5,0,0,1-2.086-.364,2.351,2.351,0,0,1-1.862-2.282c0-1.414,1.05-2.814,2.828-3.738a6.261,6.261,0,0,1,2.772-.756,2.168,2.168,0,0,1,.294.014l-.1-1.792a7.9,7.9,0,0,1-1.61.14c-3.878.182-6.2.308-6.986.35-2.058.14-2.058.14-2.31.14-.07,0-.224,0-.532-.014ZM32.3-10.29a6.69,6.69,0,0,1,.056.9c.056,3.878.308,5.908.882,7.308.56,1.344,1.316,2.03,2.254,2.03,1.19,0,2-1.134,2.73-3.864a6.911,6.911,0,0,1-1.4-1.274,10.321,10.321,0,0,1-.742,2.534c-.168.392-.364.6-.574.6-.448,0-.9-.9-1.134-2.352A26.2,26.2,0,0,1,34.1-8.162a16.275,16.275,0,0,1,.112-2.128Zm7.07,1.33a12.22,12.22,0,0,1,1.988,3.444,14.193,14.193,0,0,1,.9,4.046l1.736-.658a13.958,13.958,0,0,0-3.15-7.532ZM58.31-11.62a6.94,6.94,0,0,1-1.022,1.162,31.379,31.379,0,0,1-3.234,2.73A8.585,8.585,0,0,0,52.822-6.72a1.636,1.636,0,0,0-.462,1.134c0,.644.252,1.022,1.176,1.736A44.4,44.4,0,0,1,57.148-.868a13.523,13.523,0,0,1,1.82,1.918L60.41-.406A3.491,3.491,0,0,1,60-.756a47.058,47.058,0,0,0-4.41-3.654c-1.232-.924-1.26-.952-1.26-1.162,0-.154.1-.266.532-.588C56.5-7.406,57.484-8.19,58.2-8.848a21.356,21.356,0,0,1,1.722-1.54ZM71.54-3.64a2.372,2.372,0,0,0-2.366,2.366,2.375,2.375,0,0,0,2.366,2.38,2.375,2.375,0,0,0,2.366-2.38A2.363,2.363,0,0,0,71.54-3.64Zm0,1.092a1.279,1.279,0,0,1,1.274,1.274A1.282,1.282,0,0,1,71.54.014a1.282,1.282,0,0,1-1.274-1.288A1.279,1.279,0,0,1,71.54-2.548Z" transform="translate(1177 311.267)" fill="#080808"/>
    </g>
    <rect id="長方形_14833" data-name="長方形 14833" width="230" height="230" transform="translate(1060 280)" fill="none"/>
  </g>
</svg>
