<svg xmlns="http://www.w3.org/2000/svg" width="150" height="90" viewBox="0 0 150 90">
  <g id="グループ_2344" data-name="グループ 2344" transform="translate(413 24)">
    <rect id="長方形_14521" data-name="長方形 14521" width="150" height="90" transform="translate(-413 -24)" fill="none"/>
    <g id="グループ_14546" data-name="グループ 14546" transform="translate(-366.834 0.218)">
      <path id="パス_7541" data-name="パス 7541" d="M208.106,373.082a8.771,8.771,0,1,1,8.771-8.771A8.771,8.771,0,0,1,208.106,373.082Zm0-13.359a4.586,4.586,0,1,0,4.586,4.587,4.586,4.586,0,0,0-4.586-4.587Z" transform="translate(-199.335 -355.539)" fill="#00c4e2"/>
    </g>
    <path id="パス_7542" data-name="パス 7542" d="M318.99,336.115a61.881,61.881,0,0,0-46-20.793c-19.261,0-31.533,8.333-37.727,14.11,0,0,3.119.816,4.482,4.945a50.965,50.965,0,0,1,32.238-11.749c17.39,0,27.473,6.049,36.042,12.728,0,0-3.483,7.09-26.051,13.036l-8.649,7.706S298.031,357.618,318.99,336.115Z" transform="translate(-591.358 -327.125)" fill="#00c4e2"/>
    <circle id="楕円形_325" data-name="楕円形 325" cx="2.568" cy="2.568" r="2.568" transform="translate(-297.356 6.422)" fill="#00c4e2"/>
    <g id="グループ_14547" data-name="グループ 14547" transform="translate(-327.326 0.238)">
      <path id="パス_7543" data-name="パス 7543" d="M340.276,373.15a8.771,8.771,0,1,1,8.771-8.771,8.771,8.771,0,0,1-8.771,8.771Zm0-13.358a4.586,4.586,0,1,0,4.586,4.586,4.586,4.586,0,0,0-4.586-4.586Z" transform="translate(-331.505 -355.607)" fill="#00c4e2"/>
    </g>
    <path id="パス_7544" data-name="パス 7544" d="M74.167,338.028a61.882,61.882,0,0,0,46,20.793c19.261,0,31.533-8.333,37.727-14.11,0,0-3.119-.816-4.482-4.945a50.965,50.965,0,0,1-32.238,11.748c-17.39,0-27.473-6.048-36.042-12.728,0,0,3.482-7.09,26.051-13.036l8.649-7.706S95.126,316.525,74.167,338.028Z" transform="translate(-478.415 -329.019)" fill="#00c4e2"/>
    <circle id="楕円形_326" data-name="楕円形 326" cx="2.568" cy="2.568" r="2.568" transform="translate(-384.395 6.442)" fill="#00c4e2"/>
    <g id="グループ_14548" data-name="グループ 14548" transform="translate(-351.383 6.896)">
      <rect id="長方形_14520" data-name="長方形 14520" width="26.149" height="4.185" fill="#00c4e2"/>
    </g>
    <path id="パス_2061" data-name="パス 2061" d="M5.27-2.2H3.355V-11.27H.288v-1.616H8.336v1.616H5.27Zm9.38-10.681a5.1,5.1,0,0,1,3.119.778,2.8,2.8,0,0,1,1.01,2.364,2.822,2.822,0,0,1-.292,1.331,2.805,2.805,0,0,1-.763.92,4.513,4.513,0,0,1-.995.591L19.8-2.2H17.642L15.083-6.423H13.528V-2.2H11.613V-12.885Zm-.12,1.6h-1v3.291H14.59a2.738,2.738,0,0,0,1.72-.426,1.534,1.534,0,0,0,.524-1.264,1.362,1.362,0,0,0-.561-1.234A3.251,3.251,0,0,0,14.53-11.285ZM29.52-2.2l-.972-2.827H24.523L23.566-2.2H21.531l3.92-10.726h2.184L31.554-2.2ZM28.054-6.677,27.126-9.43q-.06-.194-.18-.561t-.224-.748q-.1-.381-.18-.636-.075.314-.187.7t-.209.733q-.1.344-.157.509l-.942,2.753ZM43.687-2.2H41.308l-5.056-8.378h-.06q.03.673.067,1.444t.067,1.548V-2.2h-1.72V-12.885H36.97l5.042,8.318h.045q-.015-.6-.052-1.376t-.052-1.511v-5.43h1.735ZM54.323-5.121a2.715,2.715,0,0,1-1.032,2.244,4.47,4.47,0,0,1-2.857.823,6.78,6.78,0,0,1-2.992-.6v-1.8A12.808,12.808,0,0,0,48.93-3.9a5.626,5.626,0,0,0,1.638.247,2.14,2.14,0,0,0,1.414-.381,1.236,1.236,0,0,0,.441-.98,1.227,1.227,0,0,0-.568-1.055,9.511,9.511,0,0,0-1.661-.86A7.471,7.471,0,0,1,48.93-7.6a3.264,3.264,0,0,1-.987-1,2.8,2.8,0,0,1-.381-1.518,2.6,2.6,0,0,1,.965-2.139,3.991,3.991,0,0,1,2.581-.778,6.872,6.872,0,0,1,1.593.18,8.331,8.331,0,0,1,1.489.509l-.613,1.541a10.132,10.132,0,0,0-1.279-.449,4.744,4.744,0,0,0-1.249-.165,1.778,1.778,0,0,0-1.182.344,1.139,1.139,0,0,0-.4.913,1.22,1.22,0,0,0,.224.741,2.049,2.049,0,0,0,.7.561q.471.254,1.219.583a8.912,8.912,0,0,1,1.474.785A2.958,2.958,0,0,1,54-6.52,2.777,2.777,0,0,1,54.323-5.121Zm6.852-7.764a4.432,4.432,0,0,1,3.029.86,3.074,3.074,0,0,1,.95,2.4,3.82,3.82,0,0,1-.389,1.705,2.943,2.943,0,0,1-1.309,1.287,5.3,5.3,0,0,1-2.491.494H59.9V-2.2H57.988V-12.885Zm-.12,1.586H59.9v3.575h.868a3.222,3.222,0,0,0,1.8-.426,1.56,1.56,0,0,0,.636-1.4,1.611,1.611,0,0,0-.524-1.316A2.53,2.53,0,0,0,61.055-11.3ZM78.439-7.56a7.105,7.105,0,0,1-.546,2.895,4.184,4.184,0,0,1-1.668,1.922,5.294,5.294,0,0,1-2.812.688,5.277,5.277,0,0,1-2.827-.688,4.2,4.2,0,0,1-1.653-1.93,7.158,7.158,0,0,1-.546-2.9,7.065,7.065,0,0,1,.546-2.88,4.154,4.154,0,0,1,1.661-1.915,5.363,5.363,0,0,1,2.835-.681,5.3,5.3,0,0,1,2.8.681,4.154,4.154,0,0,1,1.661,1.915A7.105,7.105,0,0,1,78.439-7.56Zm-8.033,0a4.873,4.873,0,0,0,.726,2.842,2.6,2.6,0,0,0,2.281,1.032,2.585,2.585,0,0,0,2.3-1.032,4.992,4.992,0,0,0,.7-2.842,4.992,4.992,0,0,0-.7-2.842,2.569,2.569,0,0,0-2.289-1.032,2.611,2.611,0,0,0-2.3,1.032A4.873,4.873,0,0,0,70.405-7.56ZM85.4-12.885a5.1,5.1,0,0,1,3.119.778,2.8,2.8,0,0,1,1.01,2.364,2.822,2.822,0,0,1-.292,1.331,2.805,2.805,0,0,1-.763.92,4.513,4.513,0,0,1-.995.591l3.067,4.7H88.387L85.829-6.423H84.273V-2.2H82.358V-12.885Zm-.12,1.6h-1v3.291h1.062a2.738,2.738,0,0,0,1.72-.426,1.534,1.534,0,0,0,.524-1.264,1.362,1.362,0,0,0-.561-1.234A3.251,3.251,0,0,0,85.275-11.285ZM97.5-2.2H95.583V-11.27H92.516v-1.616h8.048v1.616H97.5Zm20.615-5.445A5.224,5.224,0,0,1,116.6-3.573,6.058,6.058,0,0,1,112.383-2.2h-3.007V-12.885H112.7a6.421,6.421,0,0,1,2.872.6,4.311,4.311,0,0,1,1.877,1.765A5.718,5.718,0,0,1,118.112-7.649Zm-2,.06a3.882,3.882,0,0,0-.883-2.812,3.388,3.388,0,0,0-2.528-.9h-1.406V-3.8h1.152Q116.108-3.8,116.108-7.59ZM129.841-2.2h-2.184l-2.618-4.264L122.406-2.2h-2.035l3.546-5.535L120.6-12.885h2.109l2.424,3.979,2.409-3.979h2.05l-3.336,5.221Z" transform="translate(-403.906 56.99)" fill="#00c4e2"/>
  </g>
</svg>
