<svg id="icon_box_white_close" xmlns="http://www.w3.org/2000/svg" width="140" height="140" viewBox="0 0 140 140">
  <circle id="楕円形_304" data-name="楕円形 304" cx="70" cy="70" r="70" fill="none"/>
  <g id="グループ_14524" data-name="グループ 14524" transform="translate(29.986 32.135)">
    <path id="パス_6280" data-name="パス 6280" d="M3697.1,978.028v-.05a.823.823,0,0,0-.011-.165v-.022a1.791,1.791,0,0,0-.035-.2.148.148,0,0,0-.009-.04,1.913,1.913,0,0,0-.062-.2.113.113,0,0,0-.013-.034,1.948,1.948,0,0,0-.08-.181l-.011-.023a2,2,0,0,0-.108-.181l-.026-.038a2.051,2.051,0,0,0-.131-.168l-.01-.012a2.045,2.045,0,0,0-.145-.146l-.029-.027a1.929,1.929,0,0,0-.169-.133l-.011-.009-.021-.012a1.991,1.991,0,0,0-.18-.109l-.013-.008a2.093,2.093,0,0,0-.2-.087l-.048-.018-.05-.019-38.031-12.585a1.982,1.982,0,0,0-1.246,0l-38.03,12.585-.062.023-.047.018a1.881,1.881,0,0,0-.194.089l-.029.016a2.081,2.081,0,0,0-.177.11l-.014.009h-.006a2.1,2.1,0,0,0-.171.138l-.031.029a1.987,1.987,0,0,0-.152.157l-.013.016a1.89,1.89,0,0,0-.123.163l-.021.03a2,2,0,0,0-.106.185l-.017.036a1.97,1.97,0,0,0-.085.2h0a2.06,2.06,0,0,0-.061.212.207.207,0,0,1-.009.041,1.881,1.881,0,0,0-.033.215v.029c0,.037-.007.073-.008.11s0,.062,0,.093v.025l1.365,40.89a1.983,1.983,0,0,0,1.1,1.709l36.665,18.288.051.022.09.038c.051.02.1.039.153.055.031.009.06.019.091.027a1.658,1.658,0,0,0,.17.035.574.574,0,0,1,.079.014,1.983,1.983,0,0,0,.251.017h0a2,2,0,0,0,.252-.017.437.437,0,0,0,.079-.014c.057-.01.114-.021.169-.035.031-.008.061-.018.091-.027.052-.016.1-.035.154-.055l.089-.038.052-.022,37.567-18.75a1.984,1.984,0,0,0,1.1-1.752l.464-40.427C3697.1,978.044,3697.1,978.036,3697.1,978.028Zm-7.838.152-32.175,12.527-11.955-4.654,30.727-12.308Zm-53.738,4.131-10.612-4.131,32.175-10.647,9.556,3.162Zm-12.761-.712,9.623,3.747v10.181l1.428-1.027,1.4,2.287,1.73-.776,1.551,2.088,1.611-.954,1.969,2.088.065-10.089,12.963,5.047V1034l-32.739-16.33-1.225-36.7Zm36.308,52.4V994.192l34.03-13.249-.416,36.28Z" transform="translate(-3617.076 -963.46)" fill="#00c4e2"/>
  </g>
</svg>
