<svg xmlns="http://www.w3.org/2000/svg" width="342" height="342" viewBox="0 0 342 342">
  <g id="person-24px" transform="translate(12.184 -34.64)">
    <path id="パス_946" data-name="パス 946" d="M0,0H342V342H0Z" transform="translate(-12.184 34.64)" fill="none"/>
    <path id="パス_947" data-name="パス 947" d="M73.754,16.438A17.49,17.49,0,0,1,91.192,33.877c0,9.591-7.847,23.375-17.438,23.375S56.315,43.468,56.315,33.877A17.49,17.49,0,0,1,73.754,16.438m0,93.129c23.542,0,50.571,11.248,52.315,17.438l-8.393,68.948H32.353L21.438,127.006c2.005-6.278,28.861-17.438,52.315-17.438M73.754-1A34.867,34.867,0,0,0,38.877,33.877c0,19.269,15.607,40.814,34.877,40.814s34.877-21.544,34.877-40.814A34.867,34.867,0,0,0,73.754-1Zm0,93.129C50.473,92.129,4,103.813,4,127.006l11.874,86.386H131.633l11.874-86.386C143.508,103.813,97.034,92.129,73.754,92.129Z" transform="translate(85.727 100.574)" fill="#fff"/>
  </g>
</svg>
