<svg xmlns="http://www.w3.org/2000/svg" width="210" height="210" viewBox="0 0 210 210">
  <g id="person-24px" transform="translate(12.184 -34.64)">
    <path id="パス_946" data-name="パス 946" d="M0,0H210V210H0Z" transform="translate(-12.184 34.64)" fill="none"/>
    <path id="パス_947" data-name="パス 947" d="M34.521,6.63a7.653,7.653,0,0,1,7.63,7.631c0,4.2-3.433,10.228-7.63,10.228s-7.631-6.031-7.631-10.228A7.653,7.653,0,0,1,34.521,6.63m0,40.749c10.3,0,22.128,4.922,22.891,7.63L53.739,85.178H16.406L11.63,55.01c.877-2.747,12.628-7.63,22.891-7.63M34.521-1A15.256,15.256,0,0,0,19.261,14.261c0,8.431,6.829,17.858,15.261,17.858s15.261-9.427,15.261-17.858A15.256,15.256,0,0,0,34.521-1Zm0,40.749C24.334,39.749,4,44.861,4,55.01l5.2,37.8H59.846l5.2-37.8C65.042,44.861,44.707,39.749,34.521,39.749Z" transform="translate(58.703 94.43)" fill="#fff"/>
  </g>
</svg>
