<svg xmlns="http://www.w3.org/2000/svg" width="160" height="160" viewBox="0 0 160 160">
  <g id="コンポーネント_194" data-name="コンポーネント 194" transform="translate(14 -40)">
    <g id="グループ_14489" data-name="グループ 14489" transform="translate(-34 20)">
      <path id="パス_7537" data-name="パス 7537" d="M733.925,317.555a2.358,2.358,0,0,0-1.558-1.692l-46.736-13.746a2.357,2.357,0,0,0-2.5.68s-21.413,18.873-21.462,18.878a2.19,2.19,0,0,0-.485.1L616.391,336.6c-.024.008-.049.018-.073.027l-.056.021c-.046.018-.089.04-.133.061l-27.909-1.685a2.357,2.357,0,0,0-1.136,4.514l28.178,12.814,1.137,34.7a2.336,2.336,0,0,0,1.292,2.012l43.185,21.54c.02.009.04.016.061.026s.071.031.106.046c.06.024.119.046.181.064.035.011.071.022.107.031.067.017.134.031.2.042.031.005.061.013.092.016a2.158,2.158,0,0,0,.592,0c.031,0,.062-.011.093-.016.067-.012.134-.024.2-.042.036-.009.072-.02.107-.031.061-.019.121-.041.181-.065.035-.014.071-.029.105-.045l.061-.026,44.247-22.085a2.336,2.336,0,0,0,1.293-2.063l.536-46.357L733.3,319.768A2.357,2.357,0,0,0,733.925,317.555ZM617.887,341.516l33.234,12.326-25.215-1.795-29.66-12.592Zm41.7,63.229-38.561-19.233-1.013-30.99,4.429,2.024a2.357,2.357,0,0,0,.81.188l34.335,1.719Zm2.335-51-22.987-8.95-14.753-5.857,37.739-12.489,36.528,12.089L699.8,339Zm41.927,31.233-39.591,19.762V357.856l40.081-15.605Zm2.421-48.773-1.041-.344L667.011,322.9l18.625-15.819,41.619,12.069Z" transform="translate(-559.822 -256.426)" fill="#00c4e2"/>
      <rect id="長方形_14491" data-name="長方形 14491" width="160" height="160" transform="translate(20 20)" fill="none"/>
    </g>
  </g>
</svg>
