<svg xmlns="http://www.w3.org/2000/svg" width="110" height="110" viewBox="0 0 110 110">
  <g id="set_meal_black_24dp" transform="translate(-0.46 -0.189)">
    <rect id="長方形_14408" data-name="長方形 14408" width="110" height="110" transform="translate(0.46 0.189)" fill="none"/>
    <path id="パス_6264" data-name="パス 6264" d="M86.792,18.324c-7.715,0-13.961,4.5-14.741,10.241-2.939-3.352-12.537-12.537-30.034-12.537-21.446,0-31,13.777-31,13.777s9.552,13.777,31,13.777c17.5,0,27.094-9.185,30.034-12.537.781,5.74,7.026,10.241,14.741,10.241Z" transform="translate(-2.785 9.203)" fill="#ffe0ee" stroke="#00c4e2" stroke-linecap="round" stroke-linejoin="round" stroke-width="7"/>
    <path id="パス_6271" data-name="パス 6271" d="M86.792,18.324c-7.715,0-13.961,4.5-14.741,10.241-2.939-3.352-12.537-12.537-30.034-12.537-21.446,0-31,13.777-31,13.777s9.552,13.777,31,13.777c17.5,0,27.094-9.185,30.034-12.537.781,5.74,7.026,10.241,14.741,10.241Z" transform="translate(4.089 25.385)" fill="#ffe0ee" stroke="#00c4e2" stroke-linecap="round" stroke-linejoin="round" stroke-width="7"/>
    <path id="パス_6272" data-name="パス 6272" d="M86.792,18.324c-7.715,0-13.961,4.5-14.741,10.241-2.939-3.352-12.537-12.537-30.034-12.537-21.446,0-31,13.777-31,13.777s9.552,13.777,31,13.777c17.5,0,27.094-9.185,30.034-12.537.781,5.74,7.026,10.241,14.741,10.241Z" transform="translate(15.895 43.645)" fill="#ffe0ee" stroke="#00c4e2" stroke-linecap="round" stroke-linejoin="round" stroke-width="7"/>
  </g>
</svg>
