<svg xmlns="http://www.w3.org/2000/svg" width="120" height="120" viewBox="0 0 120 120">
  <g id="グループ_14058" data-name="グループ 14058" transform="translate(-818.021 -507.424)">
    <g id="コンポーネント_134" data-name="コンポーネント 134" transform="translate(807.323 491.823)">
      <g id="fact_check_black_24dp" transform="translate(0 0)">
        <g id="グループ_13883" data-name="グループ 13883" transform="translate(10.698 15.601)">
          <rect id="長方形_14263" data-name="長方形 14263" width="120" height="120" fill="none"/>
        </g>
        <g id="photo_camera_white_24dp" transform="translate(20.627 25.65)">
          <path id="パス_6231" data-name="パス 6231" d="M0,0H100.75V100.75H0Z" fill="none"/>
          <circle id="楕円形_275" data-name="楕円形 275" cx="13.433" cy="13.433" r="13.433" transform="translate(36.941 36.941)" fill="#00c4e2"/>
          <path id="パス_6232" data-name="パス 6232" d="M31.385,2,23.7,10.4H10.4a8.42,8.42,0,0,0-8.4,8.4V69.166a8.42,8.42,0,0,0,8.4,8.4H77.562a8.42,8.42,0,0,0,8.4-8.4V18.792a8.42,8.42,0,0,0-8.4-8.4H64.255L56.573,2ZM43.979,64.968A20.989,20.989,0,1,1,64.968,43.979,21,21,0,0,1,43.979,64.968Z" transform="translate(6.396 6.396)" fill="#00c4e2"/>
        </g>
      </g>
    </g>
  </g>
</svg>
