<svg xmlns="http://www.w3.org/2000/svg" xmlns:xlink="http://www.w3.org/1999/xlink" width="180" height="180" viewBox="0 0 180 180">
  <defs>
    <clipPath id="clip-path">
      <rect id="長方形_14523" data-name="長方形 14523" width="180" height="180" transform="translate(-8965 -12838)" fill="#00c4e2"/>
    </clipPath>
  </defs>
  <g id="マスクグループ_9" data-name="マスクグループ 9" transform="translate(8965 12838)" clip-path="url(#clip-path)">
    <g id="グループ_14546" data-name="グループ 14546" transform="translate(-9050.306 347.694)">
      <rect id="長方形_14522" data-name="長方形 14522" width="180" height="180" transform="translate(85.306 -13185.694)" fill="#00c4e2"/>
      <rect id="長方形_14521" data-name="長方形 14521" width="180" height="109" transform="translate(85.306 -13147.694)" fill="none"/>
      <g id="グループ_14546-2" data-name="グループ 14546" transform="translate(95.837 -13144.995)">
        <g id="グループ_14546-3" data-name="グループ 14546" transform="translate(95.593 30.713)">
          <path id="パス_7541" data-name="パス 7541" d="M221.746,400.361a22.411,22.411,0,1,1,22.411-22.411A22.411,22.411,0,0,1,221.746,400.361Zm0-34.132a11.718,11.718,0,1,0,11.718,11.719,11.718,11.718,0,0,0-11.718-11.719Z" transform="translate(-199.335 -355.539)" fill="#fff"/>
        </g>
        <path id="パス_7542" data-name="パス 7542" d="M449.183,368.448a158.108,158.108,0,0,0-117.523-53.126c-49.212,0-80.566,21.291-96.393,36.052,0,0,7.97,2.084,11.452,12.633a130.216,130.216,0,0,1,82.369-30.02c44.433,0,70.193,15.456,92.088,32.521,0,0-8.9,18.115-66.56,33.308l-22.1,19.688S395.632,423.39,449.183,368.448Z" transform="translate(-112.228 -315.322)" fill="#fff"/>
        <circle id="楕円形_325" data-name="楕円形 325" cx="6.561" cy="6.561" r="6.561" transform="translate(273.11 46.565)" fill="#fff"/>
        <g id="グループ_14547" data-name="グループ 14547" transform="translate(196.538 30.764)">
          <path id="パス_7543" data-name="パス 7543" d="M353.916,400.429a22.411,22.411,0,1,1,22.411-22.411,22.411,22.411,0,0,1-22.411,22.411Zm0-34.129a11.718,11.718,0,1,0,11.718,11.718A11.718,11.718,0,0,0,353.916,366.3Z" transform="translate(-331.505 -355.607)" fill="#fff"/>
        </g>
        <path id="パス_7544" data-name="パス 7544" d="M74.167,369.139A158.111,158.111,0,0,0,191.69,422.266c49.212,0,80.567-21.291,96.393-36.052,0,0-7.97-2.084-11.452-12.633A130.218,130.218,0,0,1,194.262,403.6c-44.433,0-70.193-15.454-92.088-32.521,0,0,8.9-18.115,66.56-33.308l22.1-19.688S127.718,314.2,74.167,369.139Z" transform="translate(-74.167 -315.964)" fill="#fff"/>
        <circle id="楕円形_326" data-name="楕円形 326" cx="6.561" cy="6.561" r="6.561" transform="translate(50.723 46.616)" fill="#fff"/>
        <g id="グループ_14548" data-name="グループ 14548" transform="translate(135.071 47.777)">
          <rect id="長方形_14520" data-name="長方形 14520" width="66.811" height="10.693" fill="#fff"/>
        </g>
      </g>
    </g>
  </g>
</svg>
