<svg id="コンポーネント_201" data-name="コンポーネント 201" xmlns="http://www.w3.org/2000/svg" width="140" height="140" viewBox="0 0 140 140">
  <circle id="楕円形_304" data-name="楕円形 304" cx="70" cy="70" r="70" fill="none"/>
  <g id="グループ_14524" data-name="グループ 14524" transform="translate(29.986 32.135)">
    <path id="パス_6280" data-name="パス 6280" d="M3697.1,978.028c0-.017,0-.034,0-.05,0-.056,0-.111-.011-.165,0-.007,0-.014,0-.022a1.838,1.838,0,0,0-.035-.2c0-.013-.005-.027-.009-.04a1.906,1.906,0,0,0-.062-.2c0-.011-.009-.023-.013-.034a1.962,1.962,0,0,0-.08-.181l-.011-.023a1.988,1.988,0,0,0-.108-.181l-.026-.038a2.025,2.025,0,0,0-.131-.168l-.01-.012a2.045,2.045,0,0,0-.145-.146l-.029-.027a1.929,1.929,0,0,0-.169-.133l-.011-.009-.021-.012a2.023,2.023,0,0,0-.18-.109l-.013-.008a2.066,2.066,0,0,0-.195-.087l-.048-.018-.05-.019-38.031-12.585a1.982,1.982,0,0,0-1.246,0l-38.03,12.585-.062.023-.047.018a1.883,1.883,0,0,0-.194.089l-.029.016a2.076,2.076,0,0,0-.177.11l-.014.009-.006,0a2.128,2.128,0,0,0-.171.138l-.031.029a2.03,2.03,0,0,0-.152.157l-.013.016a1.925,1.925,0,0,0-.123.163c-.007.01-.014.02-.021.03a1.969,1.969,0,0,0-.106.185l-.017.036a1.869,1.869,0,0,0-.085.2h0a2.018,2.018,0,0,0-.061.212c0,.014-.006.027-.009.041a1.977,1.977,0,0,0-.033.215c0,.01,0,.019,0,.029,0,.037-.007.073-.008.11s0,.062,0,.093c0,.008,0,.016,0,.025l1.365,40.89a1.983,1.983,0,0,0,1.1,1.709l36.665,18.288c.017.008.034.014.051.022s.06.026.09.038c.051.02.1.039.153.055.031.009.06.019.091.027.056.015.113.026.17.035.026,0,.052.01.079.014a1.991,1.991,0,0,0,.251.017h0a2,2,0,0,0,.252-.017c.027,0,.052-.009.079-.014.057-.01.114-.021.169-.035.031-.008.061-.018.091-.027.052-.016.1-.035.154-.055l.089-.038c.017-.008.035-.014.052-.022l37.567-18.75a1.984,1.984,0,0,0,1.1-1.752l.464-40.427C3697.1,978.044,3697.1,978.036,3697.1,978.028Zm-7.838.152-32.175,12.527-11.955-4.654,30.727-12.308Zm-53.738,4.131-10.612-4.131,32.175-10.647,9.556,3.162Zm-12.761-.712,9.623,3.747v10.181l1.428-1.027,1.4,2.287,1.73-.776,1.551,2.088,1.611-.954,1.969,2.088.065-10.089,12.963,5.047V1034l-32.739-16.33-1.225-36.7Zm36.308,52.4V994.192l34.03-13.249-.416,36.28Z" transform="translate(-3617.076 -963.46)" fill="#fff"/>
  </g>
</svg>
