<svg xmlns="http://www.w3.org/2000/svg" viewBox="0 0 510.24 340.16"><defs><style>.cls-1{fill:#c2cdd4;}.cls-2{fill:none;}</style></defs><g id="レイヤー_2" data-name="レイヤー 2"><g id="レイヤー_2-2" data-name="レイヤー 2"><path class="cls-1" d="M420.53,17.52a2.83,2.83,0,1,1-2.13-3.4A2.83,2.83,0,0,1,420.53,17.52Z"/><path class="cls-1" d="M412.24,15.62a2.83,2.83,0,1,1-2.13-3.4A2.84,2.84,0,0,1,412.24,15.62Z"/><path class="cls-1" d="M426.92,27.71a2.84,2.84,0,1,1-2.13-3.4A2.83,2.83,0,0,1,426.92,27.71Z"/><path class="cls-1" d="M418.63,25.81a2.84,2.84,0,1,1-2.13-3.4A2.84,2.84,0,0,1,418.63,25.81Z"/><path class="cls-1" d="M410.34,23.91a2.84,2.84,0,1,1-2.13-3.4A2.83,2.83,0,0,1,410.34,23.91Z"/><path class="cls-1" d="M433.3,37.9a2.83,2.83,0,1,1-2.13-3.4A2.83,2.83,0,0,1,433.3,37.9Z"/><path class="cls-1" d="M425,36a2.83,2.83,0,1,1-2.12-3.4A2.83,2.83,0,0,1,425,36Z"/><path class="cls-1" d="M416.73,34.1a2.84,2.84,0,1,1-2.13-3.4A2.85,2.85,0,0,1,416.73,34.1Z"/><path class="cls-1" d="M408.44,32.19a2.84,2.84,0,1,1-2.13-3.39A2.83,2.83,0,0,1,408.44,32.19Z"/><path class="cls-1" d="M439.69,48.09a2.84,2.84,0,1,1-2.13-3.39A2.83,2.83,0,0,1,439.69,48.09Z"/><path class="cls-1" d="M431.4,46.19a2.84,2.84,0,1,1-2.13-3.4A2.83,2.83,0,0,1,431.4,46.19Z"/><path class="cls-1" d="M423.11,44.29a2.83,2.83,0,1,1-2.13-3.4A2.84,2.84,0,0,1,423.11,44.29Z"/><path class="cls-1" d="M414.82,42.38A2.83,2.83,0,1,1,412.69,39,2.83,2.83,0,0,1,414.82,42.38Z"/><path class="cls-1" d="M406.53,40.48a2.83,2.83,0,1,1-2.12-3.39A2.83,2.83,0,0,1,406.53,40.48Z"/><path class="cls-1" d="M398.25,38.58a2.84,2.84,0,1,1-2.13-3.4A2.83,2.83,0,0,1,398.25,38.58Z"/><path class="cls-1" d="M487.52,67.8a2.84,2.84,0,1,1-2.13-3.4A2.85,2.85,0,0,1,487.52,67.8Z"/><path class="cls-1" d="M479.23,65.89a2.84,2.84,0,1,1-2.13-3.39A2.83,2.83,0,0,1,479.23,65.89Z"/><path class="cls-1" d="M446.07,58.28A2.83,2.83,0,1,1,444,54.89,2.83,2.83,0,0,1,446.07,58.28Z"/><path class="cls-1" d="M437.79,56.38a2.84,2.84,0,1,1-2.13-3.4A2.84,2.84,0,0,1,437.79,56.38Z"/><path class="cls-1" d="M429.5,54.48a2.84,2.84,0,1,1-2.13-3.4A2.84,2.84,0,0,1,429.5,54.48Z"/><path class="cls-1" d="M421.21,52.58a2.84,2.84,0,1,1-2.13-3.4A2.83,2.83,0,0,1,421.21,52.58Z"/><path class="cls-1" d="M412.92,50.67a2.83,2.83,0,1,1-2.13-3.39A2.83,2.83,0,0,1,412.92,50.67Z"/><path class="cls-1" d="M404.63,48.77a2.83,2.83,0,1,1-2.13-3.4A2.83,2.83,0,0,1,404.63,48.77Z"/><path class="cls-1" d="M396.34,46.87a2.83,2.83,0,1,1-2.12-3.4A2.84,2.84,0,0,1,396.34,46.87Z"/><path class="cls-1" d="M477.32,74.18a2.83,2.83,0,1,1-2.12-3.39A2.83,2.83,0,0,1,477.32,74.18Z"/><path class="cls-1" d="M469,72.28a2.84,2.84,0,1,1-2.13-3.4A2.83,2.83,0,0,1,469,72.28Z"/><path class="cls-1" d="M460.75,70.38a2.84,2.84,0,1,1-2.13-3.4A2.84,2.84,0,0,1,460.75,70.38Z"/><path class="cls-1" d="M452.46,68.47a2.84,2.84,0,1,1-2.13-3.39A2.83,2.83,0,0,1,452.46,68.47Z"/><path class="cls-1" d="M444.17,66.57a2.83,2.83,0,1,1-2.13-3.4A2.83,2.83,0,0,1,444.17,66.57Z"/><path class="cls-1" d="M435.88,64.67a2.83,2.83,0,1,1-2.13-3.4A2.83,2.83,0,0,1,435.88,64.67Z"/><path class="cls-1" d="M427.59,62.77a2.83,2.83,0,1,1-2.12-3.4A2.84,2.84,0,0,1,427.59,62.77Z"/><path class="cls-1" d="M419.31,60.86a2.84,2.84,0,1,1-2.13-3.39A2.83,2.83,0,0,1,419.31,60.86Z"/><path class="cls-1" d="M411,59a2.84,2.84,0,1,1-2.13-3.4A2.83,2.83,0,0,1,411,59Z"/><path class="cls-1" d="M402.73,57.06a2.84,2.84,0,1,1-2.13-3.4A2.84,2.84,0,0,1,402.73,57.06Z"/><path class="cls-1" d="M394.44,55.16a2.83,2.83,0,1,1-2.13-3.4A2.84,2.84,0,0,1,394.44,55.16Z"/><path class="cls-1" d="M467.13,80.57a2.83,2.83,0,1,1-2.12-3.4A2.84,2.84,0,0,1,467.13,80.57Z"/><path class="cls-1" d="M458.85,78.67a2.84,2.84,0,1,1-2.13-3.4A2.84,2.84,0,0,1,458.85,78.67Z"/><path class="cls-1" d="M450.56,76.76a2.84,2.84,0,1,1-2.13-3.39A2.83,2.83,0,0,1,450.56,76.76Z"/><path class="cls-1" d="M442.27,74.86a2.84,2.84,0,1,1-2.13-3.4A2.83,2.83,0,0,1,442.27,74.86Z"/><path class="cls-1" d="M434,73a2.84,2.84,0,1,1-2.13-3.4A2.84,2.84,0,0,1,434,73Z"/><path class="cls-1" d="M425.69,71.05a2.83,2.83,0,1,1-2.13-3.39A2.83,2.83,0,0,1,425.69,71.05Z"/><path class="cls-1" d="M417.4,69.15a2.83,2.83,0,1,1-2.12-3.39A2.83,2.83,0,0,1,417.4,69.15Z"/><path class="cls-1" d="M409.12,67.25a2.84,2.84,0,1,1-2.13-3.4A2.84,2.84,0,0,1,409.12,67.25Z"/><path class="cls-1" d="M400.83,65.35A2.84,2.84,0,1,1,398.7,62,2.84,2.84,0,0,1,400.83,65.35Z"/><path class="cls-1" d="M392.54,63.44a2.84,2.84,0,1,1-2.13-3.39A2.83,2.83,0,0,1,392.54,63.44Z"/><path class="cls-1" d="M384.25,61.54a2.84,2.84,0,1,1-2.13-3.39A2.83,2.83,0,0,1,384.25,61.54Z"/><path class="cls-1" d="M359.39,55.83a2.84,2.84,0,1,1-2.13-3.39A2.84,2.84,0,0,1,359.39,55.83Z"/><path class="cls-1" d="M481.81,92.66a2.84,2.84,0,1,1-2.13-3.4A2.83,2.83,0,0,1,481.81,92.66Z"/><path class="cls-1" d="M473.52,90.76a2.84,2.84,0,1,1-2.13-3.4A2.84,2.84,0,0,1,473.52,90.76Z"/><path class="cls-1" d="M465.23,88.86a2.83,2.83,0,1,1-2.13-3.4A2.84,2.84,0,0,1,465.23,88.86Z"/><path class="cls-1" d="M456.94,87a2.83,2.83,0,1,1-2.13-3.39A2.83,2.83,0,0,1,456.94,87Z"/><path class="cls-1" d="M448.65,85.05a2.83,2.83,0,1,1-2.12-3.4A2.83,2.83,0,0,1,448.65,85.05Z"/><path class="cls-1" d="M440.37,83.15a2.84,2.84,0,1,1-2.13-3.4A2.84,2.84,0,0,1,440.37,83.15Z"/><path class="cls-1" d="M432.08,81.25a2.84,2.84,0,1,1-2.13-3.4A2.83,2.83,0,0,1,432.08,81.25Z"/><path class="cls-1" d="M423.79,79.34A2.84,2.84,0,1,1,421.66,76,2.83,2.83,0,0,1,423.79,79.34Z"/><path class="cls-1" d="M415.5,77.44a2.83,2.83,0,1,1-2.13-3.4A2.83,2.83,0,0,1,415.5,77.44Z"/><path class="cls-1" d="M407.21,75.54a2.83,2.83,0,1,1-2.13-3.4A2.84,2.84,0,0,1,407.21,75.54Z"/><path class="cls-1" d="M398.92,73.64a2.83,2.83,0,1,1-2.12-3.4A2.83,2.83,0,0,1,398.92,73.64Z"/><path class="cls-1" d="M390.64,71.73a2.84,2.84,0,1,1-2.13-3.39A2.83,2.83,0,0,1,390.64,71.73Z"/><path class="cls-1" d="M382.35,69.83a2.84,2.84,0,1,1-2.13-3.4A2.83,2.83,0,0,1,382.35,69.83Z"/><path class="cls-1" d="M365.77,66a2.83,2.83,0,1,1-2.13-3.4A2.83,2.83,0,0,1,365.77,66Z"/><path class="cls-1" d="M357.48,64.12a2.83,2.83,0,1,1-2.13-3.39A2.83,2.83,0,0,1,357.48,64.12Z"/><path class="cls-1" d="M463.33,97.14a2.84,2.84,0,1,1-2.13-3.39A2.83,2.83,0,0,1,463.33,97.14Z"/><path class="cls-1" d="M455,95.24a2.84,2.84,0,1,1-2.13-3.39A2.83,2.83,0,0,1,455,95.24Z"/><path class="cls-1" d="M446.75,93.34a2.83,2.83,0,1,1-2.13-3.4A2.83,2.83,0,0,1,446.75,93.34Z"/><path class="cls-1" d="M438.46,91.44a2.83,2.83,0,1,1-2.12-3.4A2.84,2.84,0,0,1,438.46,91.44Z"/><path class="cls-1" d="M430.18,89.53a2.84,2.84,0,1,1-2.13-3.39A2.84,2.84,0,0,1,430.18,89.53Z"/><path class="cls-1" d="M421.89,87.63a2.84,2.84,0,1,1-2.13-3.4A2.83,2.83,0,0,1,421.89,87.63Z"/><path class="cls-1" d="M413.6,85.73a2.84,2.84,0,1,1-2.13-3.4A2.83,2.83,0,0,1,413.6,85.73Z"/><path class="cls-1" d="M405.31,83.83a2.84,2.84,0,1,1-2.13-3.4A2.84,2.84,0,0,1,405.31,83.83Z"/><path class="cls-1" d="M397,81.92a2.83,2.83,0,1,1-2.13-3.39A2.83,2.83,0,0,1,397,81.92Z"/><path class="cls-1" d="M388.73,80a2.83,2.83,0,1,1-2.12-3.4A2.83,2.83,0,0,1,388.73,80Z"/><path class="cls-1" d="M380.44,78.12a2.83,2.83,0,1,1-2.12-3.4A2.84,2.84,0,0,1,380.44,78.12Z"/><path class="cls-1" d="M372.16,76.22a2.84,2.84,0,1,1-2.13-3.4A2.84,2.84,0,0,1,372.16,76.22Z"/><path class="cls-1" d="M363.87,74.31a2.84,2.84,0,1,1-2.13-3.39A2.83,2.83,0,0,1,363.87,74.31Z"/><path class="cls-1" d="M355.58,72.41a2.84,2.84,0,1,1-2.13-3.4A2.83,2.83,0,0,1,355.58,72.41Z"/><path class="cls-1" d="M436.56,99.73a2.83,2.83,0,1,1-2.13-3.4A2.83,2.83,0,0,1,436.56,99.73Z"/><path class="cls-1" d="M428.27,97.82a2.83,2.83,0,1,1-2.13-3.39A2.83,2.83,0,0,1,428.27,97.82Z"/><path class="cls-1" d="M420,95.92a2.83,2.83,0,1,1-2.12-3.4A2.83,2.83,0,0,1,420,95.92Z"/><path class="cls-1" d="M411.7,94a2.84,2.84,0,1,1-2.13-3.4A2.84,2.84,0,0,1,411.7,94Z"/><path class="cls-1" d="M403.41,92.11a2.84,2.84,0,1,1-2.13-3.39A2.83,2.83,0,0,1,403.41,92.11Z"/><path class="cls-1" d="M395.12,90.21A2.84,2.84,0,1,1,393,86.82,2.83,2.83,0,0,1,395.12,90.21Z"/><path class="cls-1" d="M386.83,88.31a2.83,2.83,0,1,1-2.13-3.4A2.83,2.83,0,0,1,386.83,88.31Z"/><path class="cls-1" d="M378.54,86.41a2.83,2.83,0,1,1-2.13-3.4A2.84,2.84,0,0,1,378.54,86.41Z"/><path class="cls-1" d="M370.25,84.5a2.83,2.83,0,1,1-2.12-3.39A2.83,2.83,0,0,1,370.25,84.5Z"/><path class="cls-1" d="M362,82.6a2.84,2.84,0,1,1-2.13-3.39A2.83,2.83,0,0,1,362,82.6Z"/><path class="cls-1" d="M353.68,80.7a2.84,2.84,0,1,1-2.13-3.4A2.83,2.83,0,0,1,353.68,80.7Z"/><path class="cls-1" d="M345.39,78.8a2.84,2.84,0,1,1-2.13-3.4A2.84,2.84,0,0,1,345.39,78.8Z"/><path class="cls-1" d="M426.37,106.11a2.84,2.84,0,1,1-2.13-3.4A2.83,2.83,0,0,1,426.37,106.11Z"/><path class="cls-1" d="M418.08,104.21a2.83,2.83,0,1,1-2.13-3.4A2.84,2.84,0,0,1,418.08,104.21Z"/><path class="cls-1" d="M409.79,102.31a2.83,2.83,0,1,1-2.12-3.4A2.83,2.83,0,0,1,409.79,102.31Z"/><path class="cls-1" d="M401.5,100.4A2.83,2.83,0,1,1,399.38,97,2.83,2.83,0,0,1,401.5,100.4Z"/><path class="cls-1" d="M351.77,89a2.83,2.83,0,1,1-2.12-3.4A2.84,2.84,0,0,1,351.77,89Z"/><path class="cls-1" d="M343.49,87.09a2.84,2.84,0,1,1-2.13-3.4A2.83,2.83,0,0,1,343.49,87.09Z"/><path class="cls-1" d="M424.47,114.4a2.84,2.84,0,1,1-2.13-3.4A2.83,2.83,0,0,1,424.47,114.4Z"/><path class="cls-1" d="M416.18,112.5a2.84,2.84,0,1,1-2.13-3.4A2.84,2.84,0,0,1,416.18,112.5Z"/><path class="cls-1" d="M407.89,110.59a2.83,2.83,0,1,1-2.13-3.39A2.83,2.83,0,0,1,407.89,110.59Z"/><path class="cls-1" d="M374.74,103a2.84,2.84,0,1,1-2.13-3.39A2.83,2.83,0,0,1,374.74,103Z"/><path class="cls-1" d="M366.45,101.08a2.84,2.84,0,1,1-2.13-3.4A2.83,2.83,0,0,1,366.45,101.08Z"/><path class="cls-1" d="M358.16,99.18a2.83,2.83,0,1,1-2.13-3.4A2.84,2.84,0,0,1,358.16,99.18Z"/><path class="cls-1" d="M349.87,97.28a2.83,2.83,0,1,1-2.13-3.4A2.84,2.84,0,0,1,349.87,97.28Z"/><path class="cls-1" d="M414.28,120.78a2.84,2.84,0,1,1-2.13-3.39A2.83,2.83,0,0,1,414.28,120.78Z"/><path class="cls-1" d="M372.83,111.27a2.83,2.83,0,1,1-2.12-3.39A2.83,2.83,0,0,1,372.83,111.27Z"/><path class="cls-1" d="M356.26,107.47a2.84,2.84,0,1,1-2.13-3.4A2.84,2.84,0,0,1,356.26,107.47Z"/><path class="cls-1" d="M348,105.56a2.84,2.84,0,1,1-2.13-3.39A2.83,2.83,0,0,1,348,105.56Z"/><path class="cls-1" d="M346.07,113.85a2.84,2.84,0,1,1-2.13-3.39A2.83,2.83,0,0,1,346.07,113.85Z"/><path class="cls-1" d="M369,127.85a2.84,2.84,0,1,1-2.13-3.4A2.84,2.84,0,0,1,369,127.85Z"/><path class="cls-1" d="M360.74,126a2.83,2.83,0,1,1-2.13-3.4A2.84,2.84,0,0,1,360.74,126Z"/><path class="cls-1" d="M367.13,136.14a2.84,2.84,0,1,1-2.13-3.4A2.84,2.84,0,0,1,367.13,136.14Z"/><path class="cls-1" d="M358.84,134.23a2.84,2.84,0,1,1-2.13-3.39A2.83,2.83,0,0,1,358.84,134.23Z"/><path class="cls-1" d="M350.55,132.33a2.83,2.83,0,1,1-2.13-3.39A2.83,2.83,0,0,1,350.55,132.33Z"/><path class="cls-1" d="M342.26,130.43a2.83,2.83,0,1,1-2.13-3.4A2.83,2.83,0,0,1,342.26,130.43Z"/><path class="cls-1" d="M373.51,146.33a2.83,2.83,0,1,1-2.13-3.4A2.84,2.84,0,0,1,373.51,146.33Z"/><path class="cls-1" d="M365.22,144.43a2.83,2.83,0,1,1-2.12-3.4A2.83,2.83,0,0,1,365.22,144.43Z"/><path class="cls-1" d="M356.94,142.52a2.84,2.84,0,1,1-2.13-3.39A2.83,2.83,0,0,1,356.94,142.52Z"/><path class="cls-1" d="M348.65,140.62a2.84,2.84,0,1,1-2.13-3.4A2.83,2.83,0,0,1,348.65,140.62Z"/><path class="cls-1" d="M340.36,138.72a2.84,2.84,0,1,1-2.13-3.4A2.84,2.84,0,0,1,340.36,138.72Z"/><path class="cls-1" d="M332.07,136.82a2.83,2.83,0,1,1-2.13-3.4A2.83,2.83,0,0,1,332.07,136.82Z"/><path class="cls-1" d="M371.61,154.62a2.84,2.84,0,1,1-2.13-3.4A2.84,2.84,0,0,1,371.61,154.62Z"/><path class="cls-1" d="M363.32,152.71a2.83,2.83,0,1,1-2.13-3.39A2.83,2.83,0,0,1,363.32,152.71Z"/><path class="cls-1" d="M355,150.81a2.83,2.83,0,1,1-2.12-3.4A2.83,2.83,0,0,1,355,150.81Z"/><path class="cls-1" d="M346.75,148.91a2.84,2.84,0,1,1-2.13-3.4A2.85,2.85,0,0,1,346.75,148.91Z"/><path class="cls-1" d="M338.46,147a2.84,2.84,0,1,1-2.13-3.4A2.84,2.84,0,0,1,338.46,147Z"/><path class="cls-1" d="M330.17,145.1a2.84,2.84,0,1,1-2.13-3.39A2.83,2.83,0,0,1,330.17,145.1Z"/><path class="cls-1" d="M321.88,143.2a2.84,2.84,0,1,1-2.13-3.4A2.83,2.83,0,0,1,321.88,143.2Z"/><path class="cls-1" d="M378,164.81a2.84,2.84,0,1,1-2.13-3.4A2.84,2.84,0,0,1,378,164.81Z"/><path class="cls-1" d="M369.71,162.9a2.84,2.84,0,1,1-2.13-3.39A2.83,2.83,0,0,1,369.71,162.9Z"/><path class="cls-1" d="M361.42,161a2.84,2.84,0,1,1-2.13-3.39A2.83,2.83,0,0,1,361.42,161Z"/><path class="cls-1" d="M353.13,159.1a2.83,2.83,0,1,1-2.13-3.4A2.83,2.83,0,0,1,353.13,159.1Z"/><path class="cls-1" d="M344.84,157.2a2.83,2.83,0,1,1-2.13-3.4A2.84,2.84,0,0,1,344.84,157.2Z"/><path class="cls-1" d="M336.55,155.29a2.83,2.83,0,1,1-2.12-3.39A2.83,2.83,0,0,1,336.55,155.29Z"/><path class="cls-1" d="M328.27,153.39a2.84,2.84,0,1,1-2.13-3.39A2.83,2.83,0,0,1,328.27,153.39Z"/><path class="cls-1" d="M320,151.49a2.84,2.84,0,1,1-2.13-3.4A2.83,2.83,0,0,1,320,151.49Z"/><path class="cls-1" d="M376.09,173.1a2.83,2.83,0,1,1-2.12-3.4A2.83,2.83,0,0,1,376.09,173.1Z"/><path class="cls-1" d="M367.8,171.19a2.83,2.83,0,1,1-2.12-3.39A2.83,2.83,0,0,1,367.8,171.19Z"/><path class="cls-1" d="M359.52,169.29a2.84,2.84,0,1,1-2.13-3.4A2.83,2.83,0,0,1,359.52,169.29Z"/><path class="cls-1" d="M351.23,167.39a2.84,2.84,0,1,1-2.13-3.4A2.84,2.84,0,0,1,351.23,167.39Z"/><path class="cls-1" d="M342.94,165.49a2.84,2.84,0,1,1-2.13-3.4A2.83,2.83,0,0,1,342.94,165.49Z"/><path class="cls-1" d="M334.65,163.58a2.83,2.83,0,1,1-2.13-3.39A2.83,2.83,0,0,1,334.65,163.58Z"/><path class="cls-1" d="M326.36,161.68a2.83,2.83,0,1,1-2.12-3.4A2.83,2.83,0,0,1,326.36,161.68Z"/><path class="cls-1" d="M374.19,181.38a2.83,2.83,0,1,1-2.13-3.39A2.83,2.83,0,0,1,374.19,181.38Z"/><path class="cls-1" d="M365.9,179.48a2.83,2.83,0,1,1-2.13-3.4A2.83,2.83,0,0,1,365.9,179.48Z"/><path class="cls-1" d="M357.61,177.58a2.83,2.83,0,1,1-2.12-3.4A2.84,2.84,0,0,1,357.61,177.58Z"/><path class="cls-1" d="M349.33,175.68a2.84,2.84,0,1,1-2.13-3.4A2.84,2.84,0,0,1,349.33,175.68Z"/><path class="cls-1" d="M341,173.77a2.84,2.84,0,1,1-2.13-3.39A2.83,2.83,0,0,1,341,173.77Z"/><path class="cls-1" d="M332.75,171.87a2.84,2.84,0,1,1-2.13-3.4A2.83,2.83,0,0,1,332.75,171.87Z"/><path class="cls-1" d="M324.46,170a2.83,2.83,0,1,1-2.13-3.4A2.84,2.84,0,0,1,324.46,170Z"/><path class="cls-1" d="M364,187.77a2.84,2.84,0,1,1-2.13-3.4A2.83,2.83,0,0,1,364,187.77Z"/><path class="cls-1" d="M355.71,185.87a2.83,2.83,0,1,1-2.13-3.4A2.84,2.84,0,0,1,355.71,185.87Z"/><path class="cls-1" d="M347.42,184a2.83,2.83,0,1,1-2.12-3.39A2.83,2.83,0,0,1,347.42,184Z"/><path class="cls-1" d="M339.13,182.06a2.83,2.83,0,1,1-2.12-3.39A2.83,2.83,0,0,1,339.13,182.06Z"/><path class="cls-1" d="M330.85,180.16a2.84,2.84,0,1,1-2.13-3.4A2.83,2.83,0,0,1,330.85,180.16Z"/><path class="cls-1" d="M322.56,178.26a2.84,2.84,0,1,1-2.13-3.4A2.84,2.84,0,0,1,322.56,178.26Z"/><path class="cls-1" d="M314.27,176.35a2.84,2.84,0,1,1-2.13-3.39A2.83,2.83,0,0,1,314.27,176.35Z"/><path class="cls-1" d="M362.1,196.06a2.84,2.84,0,1,1-2.13-3.4A2.84,2.84,0,0,1,362.1,196.06Z"/><path class="cls-1" d="M353.81,194.16a2.84,2.84,0,1,1-2.13-3.4A2.83,2.83,0,0,1,353.81,194.16Z"/><path class="cls-1" d="M345.52,192.25a2.83,2.83,0,1,1-2.13-3.39A2.83,2.83,0,0,1,345.52,192.25Z"/><path class="cls-1" d="M337.23,190.35a2.83,2.83,0,1,1-2.13-3.4A2.83,2.83,0,0,1,337.23,190.35Z"/><path class="cls-1" d="M328.94,188.45a2.83,2.83,0,1,1-2.12-3.4A2.84,2.84,0,0,1,328.94,188.45Z"/><path class="cls-1" d="M320.66,186.55a2.84,2.84,0,1,1-2.13-3.4A2.84,2.84,0,0,1,320.66,186.55Z"/><path class="cls-1" d="M312.37,184.64a2.84,2.84,0,1,1-2.13-3.39A2.83,2.83,0,0,1,312.37,184.64Z"/><path class="cls-1" d="M360.19,204.35a2.83,2.83,0,1,1-2.12-3.4A2.84,2.84,0,0,1,360.19,204.35Z"/><path class="cls-1" d="M351.91,202.44a2.84,2.84,0,1,1-2.13-3.39A2.83,2.83,0,0,1,351.91,202.44Z"/><path class="cls-1" d="M343.62,200.54a2.84,2.84,0,1,1-2.13-3.4A2.83,2.83,0,0,1,343.62,200.54Z"/><path class="cls-1" d="M335.33,198.64a2.84,2.84,0,1,1-2.13-3.4A2.84,2.84,0,0,1,335.33,198.64Z"/><path class="cls-1" d="M327,196.74a2.83,2.83,0,1,1-2.13-3.4A2.84,2.84,0,0,1,327,196.74Z"/><path class="cls-1" d="M318.75,194.83a2.83,2.83,0,1,1-2.12-3.39A2.83,2.83,0,0,1,318.75,194.83Z"/><path class="cls-1" d="M310.46,192.93a2.83,2.83,0,1,1-2.12-3.4A2.83,2.83,0,0,1,310.46,192.93Z"/><path class="cls-1" d="M350,210.73a2.83,2.83,0,1,1-2.12-3.39A2.83,2.83,0,0,1,350,210.73Z"/><path class="cls-1" d="M341.72,208.83a2.84,2.84,0,1,1-2.13-3.4A2.84,2.84,0,0,1,341.72,208.83Z"/><path class="cls-1" d="M333.43,206.93a2.84,2.84,0,1,1-2.13-3.4A2.84,2.84,0,0,1,333.43,206.93Z"/><path class="cls-1" d="M325.14,205a2.84,2.84,0,1,1-2.13-3.39A2.83,2.83,0,0,1,325.14,205Z"/><path class="cls-1" d="M316.85,203.12a2.83,2.83,0,1,1-2.13-3.39A2.83,2.83,0,0,1,316.85,203.12Z"/><path class="cls-1" d="M308.56,201.22a2.83,2.83,0,1,1-2.13-3.4A2.83,2.83,0,0,1,308.56,201.22Z"/><path class="cls-1" d="M300.27,199.32a2.83,2.83,0,1,1-2.12-3.4A2.84,2.84,0,0,1,300.27,199.32Z"/><path class="cls-1" d="M339.81,217.12a2.83,2.83,0,1,1-2.13-3.4A2.84,2.84,0,0,1,339.81,217.12Z"/><path class="cls-1" d="M331.52,215.22a2.83,2.83,0,1,1-2.12-3.4A2.83,2.83,0,0,1,331.52,215.22Z"/><path class="cls-1" d="M323.24,213.31a2.84,2.84,0,1,1-2.13-3.39A2.83,2.83,0,0,1,323.24,213.31Z"/><path class="cls-1" d="M315,211.41a2.84,2.84,0,1,1-2.13-3.4A2.83,2.83,0,0,1,315,211.41Z"/><path class="cls-1" d="M306.66,209.51a2.84,2.84,0,1,1-2.13-3.4A2.84,2.84,0,0,1,306.66,209.51Z"/><path class="cls-1" d="M298.37,207.61a2.83,2.83,0,1,1-2.13-3.4A2.83,2.83,0,0,1,298.37,207.61Z"/><path class="cls-1" d="M290.08,205.7a2.83,2.83,0,1,1-2.13-3.39A2.83,2.83,0,0,1,290.08,205.7Z"/><path class="cls-1" d="M329.62,223.5a2.83,2.83,0,1,1-2.13-3.39A2.83,2.83,0,0,1,329.62,223.5Z"/><path class="cls-1" d="M321.33,221.6a2.83,2.83,0,1,1-2.12-3.4A2.83,2.83,0,0,1,321.33,221.6Z"/><path class="cls-1" d="M313.05,219.7a2.84,2.84,0,1,1-2.13-3.4A2.85,2.85,0,0,1,313.05,219.7Z"/><path class="cls-1" d="M304.76,217.8a2.84,2.84,0,1,1-2.13-3.4A2.84,2.84,0,0,1,304.76,217.8Z"/><path class="cls-1" d="M296.47,215.89a2.84,2.84,0,1,1-2.13-3.39A2.83,2.83,0,0,1,296.47,215.89Z"/><path class="cls-1" d="M288.18,214a2.84,2.84,0,1,1-2.13-3.4A2.83,2.83,0,0,1,288.18,214Z"/><path class="cls-1" d="M279.89,212.09a2.83,2.83,0,1,1-2.13-3.4A2.84,2.84,0,0,1,279.89,212.09Z"/><path class="cls-1" d="M327.72,231.79a2.84,2.84,0,1,1-2.13-3.39A2.83,2.83,0,0,1,327.72,231.79Z"/><path class="cls-1" d="M319.43,229.89a2.83,2.83,0,1,1-2.13-3.4A2.83,2.83,0,0,1,319.43,229.89Z"/><path class="cls-1" d="M311.14,228a2.83,2.83,0,1,1-2.13-3.4A2.84,2.84,0,0,1,311.14,228Z"/><path class="cls-1" d="M302.85,226.08a2.83,2.83,0,1,1-2.12-3.39A2.83,2.83,0,0,1,302.85,226.08Z"/><path class="cls-1" d="M294.57,224.18a2.84,2.84,0,1,1-2.13-3.39A2.83,2.83,0,0,1,294.57,224.18Z"/><path class="cls-1" d="M286.28,222.28a2.84,2.84,0,1,1-2.13-3.4A2.83,2.83,0,0,1,286.28,222.28Z"/><path class="cls-1" d="M278,220.38a2.84,2.84,0,1,1-2.13-3.4A2.84,2.84,0,0,1,278,220.38Z"/><path class="cls-1" d="M269.7,218.47a2.83,2.83,0,1,1-2.13-3.39A2.83,2.83,0,0,1,269.7,218.47Z"/><path class="cls-1" d="M236.55,210.86a2.84,2.84,0,1,1-2.13-3.39A2.83,2.83,0,0,1,236.55,210.86Z"/><path class="cls-1" d="M325.82,240.08a2.84,2.84,0,1,1-2.13-3.4A2.83,2.83,0,0,1,325.82,240.08Z"/><path class="cls-1" d="M317.53,238.18a2.84,2.84,0,1,1-2.13-3.4A2.84,2.84,0,0,1,317.53,238.18Z"/><path class="cls-1" d="M309.24,236.28a2.84,2.84,0,1,1-2.13-3.4A2.83,2.83,0,0,1,309.24,236.28Z"/><path class="cls-1" d="M301,234.37a2.83,2.83,0,1,1-2.13-3.39A2.83,2.83,0,0,1,301,234.37Z"/><path class="cls-1" d="M292.66,232.47a2.83,2.83,0,1,1-2.12-3.4A2.83,2.83,0,0,1,292.66,232.47Z"/><path class="cls-1" d="M284.38,230.57a2.84,2.84,0,1,1-2.13-3.4A2.85,2.85,0,0,1,284.38,230.57Z"/><path class="cls-1" d="M276.09,228.66a2.84,2.84,0,1,1-2.13-3.39A2.83,2.83,0,0,1,276.09,228.66Z"/><path class="cls-1" d="M267.8,226.76a2.84,2.84,0,1,1-2.13-3.39A2.83,2.83,0,0,1,267.8,226.76Z"/><path class="cls-1" d="M259.51,224.86a2.84,2.84,0,1,1-2.13-3.4A2.83,2.83,0,0,1,259.51,224.86Z"/><path class="cls-1" d="M251.22,223a2.83,2.83,0,1,1-2.13-3.4A2.84,2.84,0,0,1,251.22,223Z"/><path class="cls-1" d="M234.65,219.15a2.84,2.84,0,1,1-2.13-3.39A2.84,2.84,0,0,1,234.65,219.15Z"/><path class="cls-1" d="M315.63,246.47a2.84,2.84,0,1,1-2.13-3.4A2.84,2.84,0,0,1,315.63,246.47Z"/><path class="cls-1" d="M307.34,244.56a2.84,2.84,0,1,1-2.13-3.39A2.83,2.83,0,0,1,307.34,244.56Z"/><path class="cls-1" d="M299.05,242.66a2.84,2.84,0,1,1-2.13-3.4A2.83,2.83,0,0,1,299.05,242.66Z"/><path class="cls-1" d="M290.76,240.76a2.83,2.83,0,1,1-2.13-3.4A2.84,2.84,0,0,1,290.76,240.76Z"/><path class="cls-1" d="M282.47,238.86a2.83,2.83,0,1,1-2.13-3.4A2.82,2.82,0,0,1,282.47,238.86Z"/><path class="cls-1" d="M274.18,237a2.83,2.83,0,1,1-2.12-3.39A2.83,2.83,0,0,1,274.18,237Z"/><path class="cls-1" d="M265.9,235.05a2.84,2.84,0,1,1-2.13-3.4A2.83,2.83,0,0,1,265.9,235.05Z"/><path class="cls-1" d="M257.61,233.15a2.84,2.84,0,1,1-2.13-3.4A2.84,2.84,0,0,1,257.61,233.15Z"/><path class="cls-1" d="M249.32,231.25a2.84,2.84,0,1,1-2.13-3.4A2.83,2.83,0,0,1,249.32,231.25Z"/><path class="cls-1" d="M241,229.34A2.83,2.83,0,1,1,238.9,226,2.83,2.83,0,0,1,241,229.34Z"/><path class="cls-1" d="M232.74,227.44a2.83,2.83,0,1,1-2.13-3.4A2.83,2.83,0,0,1,232.74,227.44Z"/><path class="cls-1" d="M322,256.66a2.83,2.83,0,1,1-2.13-3.4A2.84,2.84,0,0,1,322,256.66Z"/><path class="cls-1" d="M313.72,254.75a2.83,2.83,0,1,1-2.12-3.39A2.83,2.83,0,0,1,313.72,254.75Z"/><path class="cls-1" d="M305.44,252.85a2.84,2.84,0,1,1-2.13-3.39A2.84,2.84,0,0,1,305.44,252.85Z"/><path class="cls-1" d="M297.15,251a2.84,2.84,0,1,1-2.13-3.4A2.83,2.83,0,0,1,297.15,251Z"/><path class="cls-1" d="M288.86,249.05a2.84,2.84,0,1,1-2.13-3.4A2.84,2.84,0,0,1,288.86,249.05Z"/><path class="cls-1" d="M280.57,247.14a2.84,2.84,0,1,1-2.13-3.39A2.83,2.83,0,0,1,280.57,247.14Z"/><path class="cls-1" d="M272.28,245.24a2.83,2.83,0,1,1-2.13-3.4A2.83,2.83,0,0,1,272.28,245.24Z"/><path class="cls-1" d="M264,243.34a2.83,2.83,0,1,1-2.12-3.4A2.83,2.83,0,0,1,264,243.34Z"/><path class="cls-1" d="M255.7,241.44a2.83,2.83,0,1,1-2.12-3.4A2.84,2.84,0,0,1,255.7,241.44Z"/><path class="cls-1" d="M247.42,239.53a2.84,2.84,0,1,1-2.13-3.39A2.83,2.83,0,0,1,247.42,239.53Z"/><path class="cls-1" d="M239.13,237.63a2.84,2.84,0,1,1-2.13-3.4A2.83,2.83,0,0,1,239.13,237.63Z"/><path class="cls-1" d="M230.84,235.73a2.84,2.84,0,1,1-2.13-3.4A2.84,2.84,0,0,1,230.84,235.73Z"/><path class="cls-1" d="M320.11,265a2.84,2.84,0,1,1-2.13-3.4A2.83,2.83,0,0,1,320.11,265Z"/><path class="cls-1" d="M311.82,263a2.83,2.83,0,1,1-2.13-3.39A2.83,2.83,0,0,1,311.82,263Z"/><path class="cls-1" d="M303.53,261.14a2.83,2.83,0,1,1-2.13-3.4A2.83,2.83,0,0,1,303.53,261.14Z"/><path class="cls-1" d="M295.24,259.24a2.83,2.83,0,1,1-2.12-3.4A2.84,2.84,0,0,1,295.24,259.24Z"/><path class="cls-1" d="M287,257.34a2.84,2.84,0,1,1-2.13-3.4A2.84,2.84,0,0,1,287,257.34Z"/><path class="cls-1" d="M278.67,255.43a2.84,2.84,0,1,1-2.13-3.39A2.83,2.83,0,0,1,278.67,255.43Z"/><path class="cls-1" d="M270.38,253.53a2.84,2.84,0,1,1-2.13-3.4A2.83,2.83,0,0,1,270.38,253.53Z"/><path class="cls-1" d="M262.09,251.63a2.83,2.83,0,1,1-2.13-3.4A2.84,2.84,0,0,1,262.09,251.63Z"/><path class="cls-1" d="M253.8,249.73a2.83,2.83,0,1,1-2.13-3.4A2.83,2.83,0,0,1,253.8,249.73Z"/><path class="cls-1" d="M245.51,247.82a2.83,2.83,0,1,1-2.12-3.39A2.83,2.83,0,0,1,245.51,247.82Z"/><path class="cls-1" d="M237.23,245.92a2.84,2.84,0,1,1-2.13-3.4A2.84,2.84,0,0,1,237.23,245.92Z"/><path class="cls-1" d="M228.94,244a2.84,2.84,0,1,1-2.13-3.4A2.84,2.84,0,0,1,228.94,244Z"/><path class="cls-1" d="M318.21,273.23a2.84,2.84,0,1,1-2.13-3.39A2.83,2.83,0,0,1,318.21,273.23Z"/><path class="cls-1" d="M309.92,271.33a2.84,2.84,0,1,1-2.13-3.4A2.83,2.83,0,0,1,309.92,271.33Z"/><path class="cls-1" d="M301.63,269.43a2.84,2.84,0,1,1-2.13-3.4A2.84,2.84,0,0,1,301.63,269.43Z"/><path class="cls-1" d="M293.34,267.53a2.83,2.83,0,1,1-2.13-3.4A2.84,2.84,0,0,1,293.34,267.53Z"/><path class="cls-1" d="M285.05,265.62a2.83,2.83,0,1,1-2.12-3.39A2.83,2.83,0,0,1,285.05,265.62Z"/><path class="cls-1" d="M276.76,263.72a2.83,2.83,0,1,1-2.12-3.4A2.83,2.83,0,0,1,276.76,263.72Z"/><path class="cls-1" d="M268.48,261.82a2.84,2.84,0,1,1-2.13-3.4A2.84,2.84,0,0,1,268.48,261.82Z"/><path class="cls-1" d="M260.19,259.92a2.84,2.84,0,1,1-2.13-3.4A2.84,2.84,0,0,1,260.19,259.92Z"/><path class="cls-1" d="M251.9,258a2.84,2.84,0,1,1-2.13-3.39A2.83,2.83,0,0,1,251.9,258Z"/><path class="cls-1" d="M243.61,256.11a2.83,2.83,0,1,1-2.13-3.4A2.83,2.83,0,0,1,243.61,256.11Z"/><path class="cls-1" d="M235.32,254.21a2.83,2.83,0,1,1-2.12-3.4A2.84,2.84,0,0,1,235.32,254.21Z"/><path class="cls-1" d="M227,252.31a2.83,2.83,0,1,1-2.12-3.4A2.82,2.82,0,0,1,227,252.31Z"/><path class="cls-1" d="M308,279.62a2.84,2.84,0,1,1-2.13-3.4A2.84,2.84,0,0,1,308,279.62Z"/><path class="cls-1" d="M299.73,277.72a2.84,2.84,0,1,1-2.13-3.4A2.84,2.84,0,0,1,299.73,277.72Z"/><path class="cls-1" d="M283.15,273.91a2.83,2.83,0,1,1-2.13-3.39A2.83,2.83,0,0,1,283.15,273.91Z"/><path class="cls-1" d="M274.86,272a2.83,2.83,0,1,1-2.13-3.4A2.83,2.83,0,0,1,274.86,272Z"/><path class="cls-1" d="M266.57,270.11a2.83,2.83,0,1,1-2.12-3.4A2.84,2.84,0,0,1,266.57,270.11Z"/><path class="cls-1" d="M258.29,268.2a2.84,2.84,0,1,1-2.13-3.39A2.84,2.84,0,0,1,258.29,268.2Z"/><path class="cls-1" d="M250,266.3a2.84,2.84,0,1,1-2.13-3.4A2.83,2.83,0,0,1,250,266.3Z"/><path class="cls-1" d="M241.71,264.4a2.84,2.84,0,1,1-2.13-3.4A2.83,2.83,0,0,1,241.71,264.4Z"/><path class="cls-1" d="M233.42,262.5a2.83,2.83,0,1,1-2.13-3.4A2.84,2.84,0,0,1,233.42,262.5Z"/><path class="cls-1" d="M225.13,260.59A2.83,2.83,0,1,1,223,257.2,2.83,2.83,0,0,1,225.13,260.59Z"/><path class="cls-1" d="M297.82,286a2.83,2.83,0,1,1-2.12-3.4A2.82,2.82,0,0,1,297.82,286Z"/><path class="cls-1" d="M273,280.3a2.84,2.84,0,1,1-2.13-3.4A2.84,2.84,0,0,1,273,280.3Z"/><path class="cls-1" d="M264.67,278.4a2.83,2.83,0,1,1-2.13-3.4A2.83,2.83,0,0,1,264.67,278.4Z"/><path class="cls-1" d="M256.38,276.49a2.83,2.83,0,1,1-2.12-3.39A2.83,2.83,0,0,1,256.38,276.49Z"/><path class="cls-1" d="M248.09,274.59a2.83,2.83,0,1,1-2.12-3.4A2.83,2.83,0,0,1,248.09,274.59Z"/><path class="cls-1" d="M239.81,272.69a2.84,2.84,0,1,1-2.13-3.4A2.84,2.84,0,0,1,239.81,272.69Z"/><path class="cls-1" d="M231.52,270.79a2.84,2.84,0,1,1-2.13-3.4A2.83,2.83,0,0,1,231.52,270.79Z"/><path class="cls-1" d="M223.23,268.88a2.84,2.84,0,1,1-2.13-3.39A2.83,2.83,0,0,1,223.23,268.88Z"/><path class="cls-1" d="M271.06,288.59a2.84,2.84,0,1,1-2.13-3.4A2.84,2.84,0,0,1,271.06,288.59Z"/><path class="cls-1" d="M246.19,282.88a2.83,2.83,0,1,1-2.13-3.4A2.84,2.84,0,0,1,246.19,282.88Z"/><path class="cls-1" d="M237.9,281a2.83,2.83,0,1,1-2.12-3.4A2.84,2.84,0,0,1,237.9,281Z"/><path class="cls-1" d="M229.62,279.07a2.84,2.84,0,1,1-2.13-3.39A2.84,2.84,0,0,1,229.62,279.07Z"/><path class="cls-1" d="M226.36,217.25a2.84,2.84,0,1,1-2.13-3.4A2.83,2.83,0,0,1,226.36,217.25Z"/><path class="cls-1" d="M224.45,225.54a2.83,2.83,0,1,1-2.12-3.4A2.84,2.84,0,0,1,224.45,225.54Z"/><path class="cls-1" d="M222.55,233.83a2.83,2.83,0,1,1-2.13-3.4A2.84,2.84,0,0,1,222.55,233.83Z"/><path class="cls-1" d="M214.26,231.92a2.83,2.83,0,1,1-2.12-3.39A2.83,2.83,0,0,1,214.26,231.92Z"/><path class="cls-1" d="M220.65,242.11a2.84,2.84,0,1,1-2.13-3.39A2.83,2.83,0,0,1,220.65,242.11Z"/><path class="cls-1" d="M212.36,240.21a2.83,2.83,0,1,1-2.13-3.39A2.83,2.83,0,0,1,212.36,240.21Z"/><path class="cls-1" d="M204.07,238.31a2.83,2.83,0,1,1-2.13-3.4A2.83,2.83,0,0,1,204.07,238.31Z"/><path class="cls-1" d="M179.21,232.6a2.84,2.84,0,1,1-2.13-3.4A2.83,2.83,0,0,1,179.21,232.6Z"/><path class="cls-1" d="M170.92,230.7a2.84,2.84,0,1,1-2.13-3.4A2.83,2.83,0,0,1,170.92,230.7Z"/><path class="cls-1" d="M162.63,228.8a2.83,2.83,0,1,1-2.13-3.4A2.84,2.84,0,0,1,162.63,228.8Z"/><path class="cls-1" d="M154.34,226.89a2.83,2.83,0,1,1-2.13-3.39A2.83,2.83,0,0,1,154.34,226.89Z"/><path class="cls-1" d="M146.05,225a2.83,2.83,0,1,1-2.12-3.4A2.83,2.83,0,0,1,146.05,225Z"/><path class="cls-1" d="M218.75,250.4a2.84,2.84,0,1,1-2.13-3.39A2.83,2.83,0,0,1,218.75,250.4Z"/><path class="cls-1" d="M210.46,248.5a2.84,2.84,0,1,1-2.13-3.4A2.83,2.83,0,0,1,210.46,248.5Z"/><path class="cls-1" d="M202.17,246.6a2.84,2.84,0,1,1-2.13-3.4A2.84,2.84,0,0,1,202.17,246.6Z"/><path class="cls-1" d="M193.88,244.7a2.83,2.83,0,1,1-2.13-3.4A2.83,2.83,0,0,1,193.88,244.7Z"/><path class="cls-1" d="M185.59,242.79a2.83,2.83,0,1,1-2.12-3.39A2.83,2.83,0,0,1,185.59,242.79Z"/><path class="cls-1" d="M177.3,240.89a2.83,2.83,0,1,1-2.12-3.4A2.83,2.83,0,0,1,177.3,240.89Z"/><path class="cls-1" d="M169,239a2.84,2.84,0,1,1-2.13-3.4A2.84,2.84,0,0,1,169,239Z"/><path class="cls-1" d="M160.73,237.09a2.84,2.84,0,1,1-2.13-3.4A2.83,2.83,0,0,1,160.73,237.09Z"/><path class="cls-1" d="M152.44,235.18a2.84,2.84,0,1,1-2.13-3.39A2.83,2.83,0,0,1,152.44,235.18Z"/><path class="cls-1" d="M144.15,233.28a2.83,2.83,0,1,1-2.13-3.4A2.83,2.83,0,0,1,144.15,233.28Z"/><path class="cls-1" d="M135.86,231.38a2.83,2.83,0,1,1-2.12-3.4A2.84,2.84,0,0,1,135.86,231.38Z"/><path class="cls-1" d="M127.57,229.47a2.83,2.83,0,1,1-2.12-3.39A2.83,2.83,0,0,1,127.57,229.47Z"/><path class="cls-1" d="M119.29,227.57a2.84,2.84,0,1,1-2.13-3.39A2.83,2.83,0,0,1,119.29,227.57Z"/><path class="cls-1" d="M111,225.67a2.84,2.84,0,1,1-2.13-3.4A2.83,2.83,0,0,1,111,225.67Z"/><path class="cls-1" d="M216.84,258.69a2.83,2.83,0,1,1-2.12-3.4A2.83,2.83,0,0,1,216.84,258.69Z"/><path class="cls-1" d="M208.56,256.79a2.84,2.84,0,1,1-2.13-3.4A2.85,2.85,0,0,1,208.56,256.79Z"/><path class="cls-1" d="M200.27,254.89a2.84,2.84,0,1,1-2.13-3.4A2.84,2.84,0,0,1,200.27,254.89Z"/><path class="cls-1" d="M192,253a2.84,2.84,0,1,1-2.13-3.39A2.83,2.83,0,0,1,192,253Z"/><path class="cls-1" d="M183.69,251.08a2.83,2.83,0,1,1-2.13-3.4A2.83,2.83,0,0,1,183.69,251.08Z"/><path class="cls-1" d="M175.4,249.18a2.83,2.83,0,1,1-2.13-3.4A2.84,2.84,0,0,1,175.4,249.18Z"/><path class="cls-1" d="M167.11,247.28a2.83,2.83,0,1,1-2.12-3.4A2.84,2.84,0,0,1,167.11,247.28Z"/><path class="cls-1" d="M158.83,245.37A2.84,2.84,0,1,1,156.7,242,2.84,2.84,0,0,1,158.83,245.37Z"/><path class="cls-1" d="M150.54,243.47a2.84,2.84,0,1,1-2.13-3.4A2.83,2.83,0,0,1,150.54,243.47Z"/><path class="cls-1" d="M142.25,241.57a2.84,2.84,0,1,1-2.13-3.4A2.84,2.84,0,0,1,142.25,241.57Z"/><path class="cls-1" d="M134,239.67a2.83,2.83,0,1,1-2.13-3.4A2.83,2.83,0,0,1,134,239.67Z"/><path class="cls-1" d="M125.67,237.76a2.83,2.83,0,1,1-2.13-3.39A2.83,2.83,0,0,1,125.67,237.76Z"/><path class="cls-1" d="M117.38,235.86a2.83,2.83,0,1,1-2.12-3.4A2.83,2.83,0,0,1,117.38,235.86Z"/><path class="cls-1" d="M109.1,234a2.84,2.84,0,1,1-2.13-3.4A2.85,2.85,0,0,1,109.1,234Z"/><path class="cls-1" d="M100.81,232.06a2.84,2.84,0,1,1-2.13-3.4A2.83,2.83,0,0,1,100.81,232.06Z"/><path class="cls-1" d="M92.52,230.15a2.84,2.84,0,1,1-2.13-3.39A2.83,2.83,0,0,1,92.52,230.15Z"/><path class="cls-1" d="M214.94,267a2.83,2.83,0,1,1-2.13-3.4A2.83,2.83,0,0,1,214.94,267Z"/><path class="cls-1" d="M206.65,265.08a2.83,2.83,0,1,1-2.13-3.4A2.84,2.84,0,0,1,206.65,265.08Z"/><path class="cls-1" d="M198.36,263.17a2.83,2.83,0,1,1-2.12-3.39A2.83,2.83,0,0,1,198.36,263.17Z"/><path class="cls-1" d="M190.08,261.27a2.84,2.84,0,1,1-2.13-3.39A2.83,2.83,0,0,1,190.08,261.27Z"/><path class="cls-1" d="M181.79,259.37a2.84,2.84,0,1,1-2.13-3.4A2.83,2.83,0,0,1,181.79,259.37Z"/><path class="cls-1" d="M173.5,257.47a2.84,2.84,0,1,1-2.13-3.4A2.84,2.84,0,0,1,173.5,257.47Z"/><path class="cls-1" d="M165.21,255.56a2.83,2.83,0,1,1-2.13-3.39A2.83,2.83,0,0,1,165.21,255.56Z"/><path class="cls-1" d="M156.92,253.66a2.83,2.83,0,1,1-2.13-3.4A2.83,2.83,0,0,1,156.92,253.66Z"/><path class="cls-1" d="M148.63,251.76a2.83,2.83,0,1,1-2.12-3.4A2.83,2.83,0,0,1,148.63,251.76Z"/><path class="cls-1" d="M140.35,249.86a2.84,2.84,0,1,1-2.13-3.4A2.84,2.84,0,0,1,140.35,249.86Z"/><path class="cls-1" d="M132.06,248a2.84,2.84,0,1,1-2.13-3.39A2.83,2.83,0,0,1,132.06,248Z"/><path class="cls-1" d="M123.77,246.05a2.84,2.84,0,1,1-2.13-3.4A2.83,2.83,0,0,1,123.77,246.05Z"/><path class="cls-1" d="M115.48,244.15a2.83,2.83,0,1,1-2.13-3.4A2.84,2.84,0,0,1,115.48,244.15Z"/><path class="cls-1" d="M107.19,242.25a2.83,2.83,0,1,1-2.13-3.4A2.84,2.84,0,0,1,107.19,242.25Z"/><path class="cls-1" d="M98.9,240.34A2.83,2.83,0,1,1,96.78,237,2.83,2.83,0,0,1,98.9,240.34Z"/><path class="cls-1" d="M90.62,238.44a2.84,2.84,0,1,1-2.13-3.4A2.83,2.83,0,0,1,90.62,238.44Z"/><path class="cls-1" d="M82.33,236.54a2.84,2.84,0,1,1-2.13-3.4A2.84,2.84,0,0,1,82.33,236.54Z"/><path class="cls-1" d="M204.75,273.37a2.83,2.83,0,1,1-2.13-3.4A2.83,2.83,0,0,1,204.75,273.37Z"/><path class="cls-1" d="M196.46,271.46a2.83,2.83,0,1,1-2.13-3.39A2.83,2.83,0,0,1,196.46,271.46Z"/><path class="cls-1" d="M188.17,269.56a2.83,2.83,0,1,1-2.12-3.4A2.83,2.83,0,0,1,188.17,269.56Z"/><path class="cls-1" d="M179.89,267.66a2.84,2.84,0,1,1-2.13-3.4A2.85,2.85,0,0,1,179.89,267.66Z"/><path class="cls-1" d="M138.44,258.15a2.83,2.83,0,1,1-2.12-3.4A2.83,2.83,0,0,1,138.44,258.15Z"/><path class="cls-1" d="M130.16,256.24a2.84,2.84,0,1,1-2.13-3.39A2.84,2.84,0,0,1,130.16,256.24Z"/><path class="cls-1" d="M121.87,254.34a2.84,2.84,0,1,1-2.13-3.4A2.83,2.83,0,0,1,121.87,254.34Z"/><path class="cls-1" d="M113.58,252.44a2.84,2.84,0,1,1-2.13-3.4A2.84,2.84,0,0,1,113.58,252.44Z"/><path class="cls-1" d="M105.29,250.53a2.84,2.84,0,1,1-2.13-3.39A2.83,2.83,0,0,1,105.29,250.53Z"/><path class="cls-1" d="M97,248.63a2.83,2.83,0,1,1-2.13-3.39A2.83,2.83,0,0,1,97,248.63Z"/><path class="cls-1" d="M88.71,246.73a2.83,2.83,0,1,1-2.12-3.4A2.83,2.83,0,0,1,88.71,246.73Z"/><path class="cls-1" d="M80.43,244.83a2.84,2.84,0,1,1-2.13-3.4A2.85,2.85,0,0,1,80.43,244.83Z"/><path class="cls-1" d="M72.14,242.92A2.84,2.84,0,1,1,70,239.53,2.83,2.83,0,0,1,72.14,242.92Z"/><path class="cls-1" d="M211.14,283.56a2.84,2.84,0,1,1-2.13-3.4A2.84,2.84,0,0,1,211.14,283.56Z"/><path class="cls-1" d="M202.85,281.65a2.84,2.84,0,1,1-2.13-3.39A2.83,2.83,0,0,1,202.85,281.65Z"/><path class="cls-1" d="M194.56,279.75a2.84,2.84,0,1,1-2.13-3.4A2.83,2.83,0,0,1,194.56,279.75Z"/><path class="cls-1" d="M186.27,277.85a2.83,2.83,0,1,1-2.13-3.4A2.84,2.84,0,0,1,186.27,277.85Z"/><path class="cls-1" d="M178,276a2.83,2.83,0,1,1-2.13-3.4A2.84,2.84,0,0,1,178,276Z"/><path class="cls-1" d="M86.81,255a2.83,2.83,0,1,1-2.13-3.4A2.84,2.84,0,0,1,86.81,255Z"/><path class="cls-1" d="M209.23,291.85a2.83,2.83,0,1,1-2.12-3.4A2.83,2.83,0,0,1,209.23,291.85Z"/><path class="cls-1" d="M201,289.94a2.84,2.84,0,1,1-2.13-3.39A2.84,2.84,0,0,1,201,289.94Z"/><path class="cls-1" d="M192.66,288a2.84,2.84,0,1,1-2.13-3.4A2.83,2.83,0,0,1,192.66,288Z"/><path class="cls-1" d="M184.37,286.14a2.84,2.84,0,1,1-2.13-3.4A2.84,2.84,0,0,1,184.37,286.14Z"/><path class="cls-1" d="M176.08,284.23a2.84,2.84,0,1,1-2.13-3.39A2.83,2.83,0,0,1,176.08,284.23Z"/><path class="cls-1" d="M190.75,296.33a2.83,2.83,0,1,1-2.12-3.4A2.84,2.84,0,0,1,190.75,296.33Z"/><path class="cls-1" d="M182.47,294.43a2.84,2.84,0,1,1-2.13-3.4A2.83,2.83,0,0,1,182.47,294.43Z"/><path class="cls-1" d="M153.12,270.24a2.84,2.84,0,1,1-2.13-3.4A2.84,2.84,0,0,1,153.12,270.24Z"/><path class="cls-1" d="M144.83,268.34a2.84,2.84,0,1,1-2.13-3.4A2.84,2.84,0,0,1,144.83,268.34Z"/><path class="cls-1" d="M159.5,280.43a2.83,2.83,0,1,1-2.12-3.4A2.83,2.83,0,0,1,159.5,280.43Z"/><path class="cls-1" d="M151.22,278.53a2.84,2.84,0,1,1-2.13-3.4A2.85,2.85,0,0,1,151.22,278.53Z"/><path class="cls-1" d="M142.93,276.62a2.84,2.84,0,1,1-2.13-3.39A2.83,2.83,0,0,1,142.93,276.62Z"/><path class="cls-1" d="M134.64,274.72a2.84,2.84,0,1,1-2.13-3.4A2.83,2.83,0,0,1,134.64,274.72Z"/><path class="cls-1" d="M126.35,272.82a2.84,2.84,0,1,1-2.13-3.4A2.83,2.83,0,0,1,126.35,272.82Z"/><path class="cls-1" d="M118.06,270.92a2.83,2.83,0,1,1-2.13-3.4A2.84,2.84,0,0,1,118.06,270.92Z"/><path class="cls-1" d="M109.77,269a2.83,2.83,0,1,1-2.12-3.39A2.83,2.83,0,0,1,109.77,269Z"/><path class="cls-1" d="M157.6,288.72a2.83,2.83,0,1,1-2.13-3.4A2.84,2.84,0,0,1,157.6,288.72Z"/><path class="cls-1" d="M149.31,286.82a2.83,2.83,0,1,1-2.13-3.4A2.83,2.83,0,0,1,149.31,286.82Z"/><path class="cls-1" d="M141,284.91a2.83,2.83,0,1,1-2.12-3.39A2.83,2.83,0,0,1,141,284.91Z"/><path class="cls-1" d="M132.74,283a2.84,2.84,0,1,1-2.13-3.4A2.83,2.83,0,0,1,132.74,283Z"/><path class="cls-1" d="M124.45,281.11a2.84,2.84,0,1,1-2.13-3.4A2.84,2.84,0,0,1,124.45,281.11Z"/><path class="cls-1" d="M116.16,279.21a2.84,2.84,0,1,1-2.13-3.4A2.83,2.83,0,0,1,116.16,279.21Z"/><path class="cls-1" d="M107.87,277.3a2.83,2.83,0,1,1-2.13-3.39A2.83,2.83,0,0,1,107.87,277.3Z"/><path class="cls-1" d="M99.58,275.4a2.83,2.83,0,1,1-2.13-3.4A2.83,2.83,0,0,1,99.58,275.4Z"/><path class="cls-1" d="M155.7,297a2.84,2.84,0,1,1-2.13-3.4A2.84,2.84,0,0,1,155.7,297Z"/><path class="cls-1" d="M147.41,295.1a2.84,2.84,0,1,1-2.13-3.39A2.83,2.83,0,0,1,147.41,295.1Z"/><path class="cls-1" d="M139.12,293.2a2.83,2.83,0,1,1-2.13-3.4A2.83,2.83,0,0,1,139.12,293.2Z"/><path class="cls-1" d="M130.83,291.3a2.83,2.83,0,1,1-2.12-3.4A2.84,2.84,0,0,1,130.83,291.3Z"/><path class="cls-1" d="M122.54,289.4a2.83,2.83,0,1,1-2.12-3.4A2.84,2.84,0,0,1,122.54,289.4Z"/><path class="cls-1" d="M114.26,287.49a2.84,2.84,0,1,1-2.13-3.39A2.83,2.83,0,0,1,114.26,287.49Z"/><path class="cls-1" d="M106,285.59a2.84,2.84,0,1,1-2.13-3.4A2.83,2.83,0,0,1,106,285.59Z"/><path class="cls-1" d="M112.35,295.78a2.83,2.83,0,1,1-2.12-3.4A2.83,2.83,0,0,1,112.35,295.78Z"/><path class="cls-1" d="M68.33,259.5a2.83,2.83,0,1,1-2.13-3.4A2.83,2.83,0,0,1,68.33,259.5Z"/><path class="cls-1" d="M60,257.6a2.83,2.83,0,1,1-2.12-3.4A2.84,2.84,0,0,1,60,257.6Z"/><path class="cls-1" d="M83,271.59a2.84,2.84,0,1,1-2.13-3.39A2.83,2.83,0,0,1,83,271.59Z"/><path class="cls-1" d="M74.72,269.69a2.84,2.84,0,1,1-2.13-3.39A2.83,2.83,0,0,1,74.72,269.69Z"/><path class="cls-1" d="M66.43,267.79a2.84,2.84,0,1,1-2.13-3.4A2.83,2.83,0,0,1,66.43,267.79Z"/><path class="cls-1" d="M58.14,265.89a2.83,2.83,0,1,1-2.13-3.4A2.84,2.84,0,0,1,58.14,265.89Z"/><path class="cls-1" d="M49.85,264a2.83,2.83,0,1,1-2.13-3.39A2.83,2.83,0,0,1,49.85,264Z"/><path class="cls-1" d="M41.56,262.08a2.83,2.83,0,1,1-2.12-3.4A2.83,2.83,0,0,1,41.56,262.08Z"/><path class="cls-1" d="M89.39,281.79a2.83,2.83,0,1,1-2.13-3.4A2.82,2.82,0,0,1,89.39,281.79Z"/><path class="cls-1" d="M81.1,279.88A2.83,2.83,0,1,1,79,276.49,2.83,2.83,0,0,1,81.1,279.88Z"/><path class="cls-1" d="M72.81,278a2.83,2.83,0,1,1-2.12-3.4A2.83,2.83,0,0,1,72.81,278Z"/><path class="cls-1" d="M64.53,276.08a2.84,2.84,0,1,1-2.13-3.4A2.84,2.84,0,0,1,64.53,276.08Z"/><path class="cls-1" d="M56.24,274.18a2.84,2.84,0,1,1-2.13-3.4A2.83,2.83,0,0,1,56.24,274.18Z"/><path class="cls-1" d="M48,272.27a2.84,2.84,0,1,1-2.13-3.39A2.83,2.83,0,0,1,48,272.27Z"/><path class="cls-1" d="M39.66,270.37a2.83,2.83,0,1,1-2.13-3.4A2.83,2.83,0,0,1,39.66,270.37Z"/><path class="cls-1" d="M31.37,268.47a2.83,2.83,0,1,1-2.12-3.4A2.84,2.84,0,0,1,31.37,268.47Z"/><path class="cls-1" d="M87.49,290.07a2.84,2.84,0,1,1-2.13-3.39A2.83,2.83,0,0,1,87.49,290.07Z"/><path class="cls-1" d="M79.2,288.17a2.83,2.83,0,1,1-2.13-3.4A2.83,2.83,0,0,1,79.2,288.17Z"/><path class="cls-1" d="M70.91,286.27a2.83,2.83,0,1,1-2.13-3.4A2.84,2.84,0,0,1,70.91,286.27Z"/><path class="cls-1" d="M62.62,284.37A2.83,2.83,0,1,1,60.5,281,2.84,2.84,0,0,1,62.62,284.37Z"/><path class="cls-1" d="M54.34,282.46a2.84,2.84,0,1,1-2.13-3.39A2.84,2.84,0,0,1,54.34,282.46Z"/><path class="cls-1" d="M46.05,280.56a2.84,2.84,0,1,1-2.13-3.4A2.83,2.83,0,0,1,46.05,280.56Z"/><path class="cls-1" d="M37.76,278.66a2.84,2.84,0,1,1-2.13-3.4A2.84,2.84,0,0,1,37.76,278.66Z"/><path class="cls-1" d="M29.47,276.76a2.83,2.83,0,1,1-2.13-3.4A2.84,2.84,0,0,1,29.47,276.76Z"/><path class="cls-1" d="M85.59,298.36A2.84,2.84,0,1,1,83.46,295,2.83,2.83,0,0,1,85.59,298.36Z"/><path class="cls-1" d="M77.3,296.46a2.84,2.84,0,1,1-2.13-3.4A2.83,2.83,0,0,1,77.3,296.46Z"/><path class="cls-1" d="M69,294.56a2.84,2.84,0,1,1-2.13-3.4A2.84,2.84,0,0,1,69,294.56Z"/><path class="cls-1" d="M60.72,292.65a2.83,2.83,0,1,1-2.13-3.39A2.83,2.83,0,0,1,60.72,292.65Z"/><path class="cls-1" d="M52.43,290.75a2.83,2.83,0,1,1-2.12-3.4A2.83,2.83,0,0,1,52.43,290.75Z"/><path class="cls-1" d="M75.4,304.75a2.84,2.84,0,1,1-2.13-3.4A2.85,2.85,0,0,1,75.4,304.75Z"/><path class="cls-1" d="M67.11,302.85a2.84,2.84,0,1,1-2.13-3.4A2.83,2.83,0,0,1,67.11,302.85Z"/><path class="cls-1" d="M58.82,300.94a2.84,2.84,0,1,1-2.13-3.39A2.83,2.83,0,0,1,58.82,300.94Z"/><path class="cls-1" d="M50.53,299a2.83,2.83,0,1,1-2.13-3.4A2.83,2.83,0,0,1,50.53,299Z"/><path class="cls-1" d="M42.24,297.14a2.83,2.83,0,1,1-2.13-3.4A2.84,2.84,0,0,1,42.24,297.14Z"/><path class="cls-1" d="M73.49,313a2.83,2.83,0,1,1-2.13-3.4A2.84,2.84,0,0,1,73.49,313Z"/><path class="cls-1" d="M65.2,311.13a2.83,2.83,0,1,1-2.12-3.39A2.83,2.83,0,0,1,65.2,311.13Z"/><path class="cls-1" d="M56.92,309.23a2.84,2.84,0,1,1-2.13-3.4A2.83,2.83,0,0,1,56.92,309.23Z"/><path class="cls-1" d="M48.63,307.33a2.84,2.84,0,1,1-2.13-3.4A2.84,2.84,0,0,1,48.63,307.33Z"/><path class="cls-1" d="M40.34,305.43a2.84,2.84,0,1,1-2.13-3.4A2.84,2.84,0,0,1,40.34,305.43Z"/><path class="cls-1" d="M71.59,321.32a2.83,2.83,0,1,1-2.13-3.39A2.83,2.83,0,0,1,71.59,321.32Z"/><path class="cls-1" d="M63.3,319.42A2.83,2.83,0,1,1,61.17,316,2.83,2.83,0,0,1,63.3,319.42Z"/><path class="cls-1" d="M55,317.52a2.83,2.83,0,1,1-2.12-3.4A2.83,2.83,0,0,1,55,317.52Z"/><path class="cls-1" d="M46.73,315.62a2.84,2.84,0,1,1-2.13-3.4A2.85,2.85,0,0,1,46.73,315.62Z"/><path class="cls-1" d="M38.44,313.71a2.84,2.84,0,1,1-2.13-3.39A2.83,2.83,0,0,1,38.44,313.71Z"/><path class="cls-1" d="M53.11,325.81a2.83,2.83,0,1,1-2.13-3.4A2.84,2.84,0,0,1,53.11,325.81Z"/><path class="cls-1" d="M36.53,322a2.83,2.83,0,1,1-2.12-3.39A2.83,2.83,0,0,1,36.53,322Z"/><path class="cls-1" d="M28.25,320.1a2.84,2.84,0,1,1-2.13-3.4A2.83,2.83,0,0,1,28.25,320.1Z"/><rect class="cls-2" width="510.24" height="340.16"/></g></g></svg>