<svg xmlns="http://www.w3.org/2000/svg" xmlns:xlink="http://www.w3.org/1999/xlink" width="24" height="24" viewBox="0 0 24 24">
  <defs>
    <clipPath id="clip-path">
      <rect id="長方形_14845" data-name="長方形 14845" width="24" height="24" transform="translate(1346.758 38.861)" fill="none"/>
    </clipPath>
  </defs>
  <g id="マスクグループ_29" data-name="マスクグループ 29" transform="translate(-1346.758 -38.861)" clip-path="url(#clip-path)">
    <path id="favorite_FILL1_wght300_GRAD-25_opsz40" d="M11.581,19l-.767-.68q-3.354-3.069-5.4-5.349a6.916,6.916,0,0,1-2.05-4.6A4.12,4.12,0,0,1,7.569,4.16a4.817,4.817,0,0,1,2.071.5,5.017,5.017,0,0,1,1.94,1.8,5.622,5.622,0,0,1,1.962-1.8,4.587,4.587,0,0,1,2.05-.5A4.12,4.12,0,0,1,19.8,8.369a6.916,6.916,0,0,1-2.05,4.6q-2.05,2.28-5.4,5.349Z" transform="translate(1347.177 39.28)" fill="#ccc"/>
  </g>
</svg>
