<svg xmlns="http://www.w3.org/2000/svg" xmlns:xlink="http://www.w3.org/1999/xlink" width="280" height="280" viewBox="0 0 280 280">
  <defs>
    <clipPath id="clip-path">
      <rect id="長方形_14834" data-name="長方形 14834" width="280" height="280" transform="translate(-0.148 -0.148)" fill="none"/>
    </clipPath>
  </defs>
  <g id="マスクグループ_28" data-name="マスクグループ 28" transform="translate(0.148 0.148)" clip-path="url(#clip-path)">
    <g id="グループ_4184" data-name="グループ 4184" transform="translate(38.471 32.604)">
      <path id="前面オブジェクトで型抜き_5" data-name="前面オブジェクトで型抜き 5" d="M102.887,192.14a185.739,185.739,0,0,1-37.779-3.767,127.99,127.99,0,0,1-32.956-11.3C11.118,166.12,0,150.49,0,131.871,0,103.663,5.714,76.3,16.525,52.75,27.058,29.8,41.865,11.563,59.345,0c13.131,12.051,28.186,18.421,43.542,18.421S133.3,12.051,146.428,0c17.483,11.564,32.288,29.805,42.82,52.75,10.811,23.553,16.525,50.912,16.525,79.121,0,18.619-11.118,34.25-32.152,45.2a127.99,127.99,0,0,1-32.956,11.3A185.739,185.739,0,0,1,102.887,192.14Z" transform="translate(0 117.115)" fill="#fff"/>
      <path id="パス_1707" data-name="パス 1707" d="M57.384,0a57.384,57.384,0,0,1,57.384,57.384c0,31.692-25.692,67.08-57.384,67.08S0,89.076,0,57.384A57.384,57.384,0,0,1,57.384,0Z" transform="translate(45.504)" fill="#fff"/>
    </g>
  </g>
</svg>
