<svg xmlns="http://www.w3.org/2000/svg" width="56" height="56" viewBox="0 0 56 56">
  <g id="グループ_442" data-name="グループ 442" transform="translate(-730 -231)">
    <circle id="楕円形_16" data-name="楕円形 16" cx="28" cy="28" r="28" transform="translate(730 231)" fill="none"/>
    <path id="パス_1705" data-name="パス 1705" d="M14-6.16V0H7.72V-6.16ZM1.28-19.36a11.431,11.431,0,0,1,.74-3.96,9.394,9.394,0,0,1,1.96-3.12A8.83,8.83,0,0,1,7.02-28.5,10.276,10.276,0,0,1,11-29.24a12.54,12.54,0,0,1,4.74.78,9.211,9.211,0,0,1,3.06,1.94,7.006,7.006,0,0,1,1.66,2.5,7.18,7.18,0,0,1,.5,2.5,8.531,8.531,0,0,1-.5,3.16,7.792,7.792,0,0,1-1.24,2.12,8.273,8.273,0,0,1-1.64,1.5q-.9.62-1.7,1.24a7.953,7.953,0,0,0-1.42,1.42,4.078,4.078,0,0,0-.78,2v1.52H8.28v-1.8a8.187,8.187,0,0,1,.66-2.88,8.264,8.264,0,0,1,1.26-1.98,10.067,10.067,0,0,1,1.52-1.42q.8-.6,1.48-1.2a5.37,5.37,0,0,0,1.1-1.32,3.277,3.277,0,0,0,.38-1.8,3.655,3.655,0,0,0-.9-2.72,3.424,3.424,0,0,0-2.5-.88,3.87,3.87,0,0,0-1.86.42,3.71,3.71,0,0,0-1.28,1.12,4.859,4.859,0,0,0-.74,1.64,8.145,8.145,0,0,0-.24,2.02Z" transform="translate(746.966 274.009)" fill="#fff"/>
  </g>
</svg>
