<svg xmlns="http://www.w3.org/2000/svg" width="23.992" height="24" viewBox="0 0 23.992 24">
  <g id="グループ_137" data-name="グループ 137" transform="translate(-1347.004 -39.004)">
    <rect id="長方形_14426" data-name="長方形 14426" width="23.992" height="24" transform="translate(1347.004 39.004)" fill="none"/>
    <path id="favorite_FILL0_wght700_GRAD0_opsz24" d="M9.829,18.121,8.2,16.657Q6.1,14.771,4.726,13.388A21.2,21.2,0,0,1,2.559,10.9,8.027,8.027,0,0,1,1.446,8.855a6.057,6.057,0,0,1-.321-1.966,4.971,4.971,0,0,1,1.454-3.65,4.919,4.919,0,0,1,3.64-1.464,5.291,5.291,0,0,1,1.945.361A5.12,5.12,0,0,1,9.829,3.2a5.12,5.12,0,0,1,1.665-1.063,5.291,5.291,0,0,1,1.945-.361A4.989,4.989,0,0,1,17.1,3.239a4.937,4.937,0,0,1,1.474,3.65,6.179,6.179,0,0,1-.31,1.945,7.512,7.512,0,0,1-1.114,2.036,22.848,22.848,0,0,1-2.186,2.486q-1.384,1.394-3.51,3.3Zm0-3.39q1.885-1.725,3.1-2.908a21.788,21.788,0,0,0,1.9-2.066,6.5,6.5,0,0,0,.953-1.544,3.588,3.588,0,0,0,.261-1.324A2.5,2.5,0,0,0,15.3,5.035,2.547,2.547,0,0,0,13.44,4.3a2.956,2.956,0,0,0-2.688,1.885H8.927A2.779,2.779,0,0,0,7.854,4.834,2.835,2.835,0,0,0,6.219,4.3,2.463,2.463,0,0,0,4.4,5.035a2.512,2.512,0,0,0-.732,1.855,3.667,3.667,0,0,0,.271,1.364,6.592,6.592,0,0,0,.963,1.564,22.182,22.182,0,0,0,1.885,2.055q1.193,1.174,3.038,2.858ZM9.87,9.517Z" transform="translate(1349.151 41.057)" fill="#fff"/>
  </g>
</svg>
