<svg id="コンポーネント_7_3" data-name="コンポーネント 7 – 3" xmlns="http://www.w3.org/2000/svg" width="48" height="48" viewBox="0 0 48 48">
  <rect id="長方形_1982" data-name="長方形 1982" width="48" height="48" fill="#fff"/>
  <g id="Layer_93" data-name="Layer 93" transform="translate(11.213 11.213)">
    <path id="パス_1522" data-name="パス 1522" d="M23.737,5.836H22.459V3.279a1.279,1.279,0,1,0-2.557,0V5.836H9.672V3.279a1.279,1.279,0,1,0-2.557,0V5.836H5.836A3.836,3.836,0,0,0,2,9.672v1.279H27.573V9.672A3.836,3.836,0,0,0,23.737,5.836Z" transform="translate(-2 -2)" fill="#ccc"/>
    <path id="パス_1523" data-name="パス 1523" d="M2,21.229a3.836,3.836,0,0,0,3.836,3.836h17.9a3.836,3.836,0,0,0,3.836-3.836V11H2Z" transform="translate(-2 0.508)" fill="#ccc"/>
  </g>
</svg>
