<svg id="notifications_black_24dp" xmlns="http://www.w3.org/2000/svg" width="24" height="24" viewBox="0 0 24 24">
  <path id="パス_9" data-name="パス 9" d="M0,0H24V24H0Z" fill="none"/>
  <path id="合体_5" data-name="合体 5" d="M9497.013,4750.929A7,7,0,0,1,9498,4737h6a7,7,0,1,1,0,14h-3l-3.986,3.986Zm-3.907-6.93a4.851,4.851,0,0,0,4.845,4.846h6.1a4.845,4.845,0,1,0,0-9.691h-6.1A4.851,4.851,0,0,0,9493.105,4744Zm10.894,0a1,1,0,1,1,1,1A1,1,0,0,1,9504,4744Zm-4,0a1,1,0,1,1,1,1A1,1,0,0,1,9500,4744Zm-4,0a1,1,0,1,1,1,1A1,1,0,0,1,9496,4744Z" transform="translate(-9489 -4733.999)" fill="#fff"/>
</svg>
