<svg xmlns="http://www.w3.org/2000/svg" width="24" height="24" viewBox="0 0 24 24">
  <g id="グループ_4192" data-name="グループ 4192" transform="translate(12630 -10575)">
    <rect id="長方形_53" data-name="長方形 53" width="24" height="24" transform="translate(-12630 10575)" fill="none"/>
    <path id="download_FILL1_wght700_GRAD0_opsz48" d="M7.105,17.009a1.486,1.486,0,0,1-1.1-.463,1.527,1.527,0,0,1-.455-1.109V12.326H7.105v3.111H16.19V12.326h1.555v3.111a1.513,1.513,0,0,1-.463,1.109,1.494,1.494,0,0,1-1.092.463Zm4.55-3.673L7.867,9.563,8.992,8.454l1.886,1.9V4.45h1.555v5.907l1.886-1.9,1.125,1.109Z" transform="translate(-12629.448 10576.038)" fill="#EF6500"/>
  </g>
</svg>
