<svg xmlns="http://www.w3.org/2000/svg" xmlns:xlink="http://www.w3.org/1999/xlink" width="24" height="24" viewBox="0 0 24 24">
  <defs>
    <clipPath id="clip-path">
      <rect id="長方形_14829" data-name="長方形 14829" width="24" height="24" transform="translate(1304 30)" fill="none"/>
    </clipPath>
  </defs>
  <g id="マスクグループ_27" data-name="マスクグループ 27" transform="translate(-1304 -30)" clip-path="url(#clip-path)">
    <g id="グループ_1" data-name="グループ 1" transform="translate(1307.271 32.766)">
      <path id="前面オブジェクトで型抜き_1" data-name="前面オブジェクトで型抜き 1" d="M8.859,16.544a15.993,15.993,0,0,1-3.253-.324,11.02,11.02,0,0,1-2.838-.973C.957,14.3,0,12.958,0,11.355A16.435,16.435,0,0,1,1.423,4.542,10.72,10.72,0,0,1,5.11,0,5.546,5.546,0,0,0,8.859,1.586,5.546,5.546,0,0,0,12.608,0,10.719,10.719,0,0,1,16.3,4.542a16.435,16.435,0,0,1,1.423,6.813c0,1.6-.957,2.949-2.768,3.892a11.02,11.02,0,0,1-2.838.973A15.993,15.993,0,0,1,8.859,16.544Z" transform="translate(0 10.084)" fill="#fff"/>
      <path id="パス_2" data-name="パス 2" d="M4.941,0A4.941,4.941,0,0,1,9.882,4.941c0,2.729-2.212,5.776-4.941,5.776S0,7.67,0,4.941A4.941,4.941,0,0,1,4.941,0Z" transform="translate(3.918)" fill="#fff"/>
    </g>
  </g>
</svg>
