<svg xmlns="http://www.w3.org/2000/svg" width="210" height="210" viewBox="0 0 210 210">
  <g id="グループ_14180" data-name="グループ 14180" transform="translate(93 83.154)">
    <rect id="長方形_14321" data-name="長方形 14321" width="210" height="210" transform="translate(-93 -83.154)" fill="#e4e4e4"/>
    <g id="add_photo_alternate_black_24dp" transform="translate(-18.258 -28.428)">
      <path id="パス_2065" data-name="パス 2065" d="M0,0H21.5V58.672H0Z" transform="translate(45.829)" fill="none"/>
      <path id="パス_2066" data-name="パス 2066" d="M40.843,16.543v8.7s-5.389.029-5.415,0v-8.7H27.3s.027-5.79,0-5.818h8.123V2h5.415v8.726h8.123v5.818ZM32.72,28.179V19.453H24.6V10.726H-11.585A5.643,5.643,0,0,0-17,16.544v34.9a5.643,5.643,0,0,0,5.415,5.818H35.427a5.643,5.643,0,0,0,5.415-5.818V28.179ZM-4.325,51.449,3.8,39.814,9.213,48.54,17.337,36.9l10.83,14.543Z" transform="translate(17 -0.638)" fill="#fff"/>
    </g>
    <rect id="長方形_14321-2" data-name="長方形 14321" width="210" height="210" transform="translate(-93 -83.154)" fill="none"/>
    <path id="パス_6237" data-name="パス 6237" d="M13.688-3.043H10.146l-5.239-9.2v9.2H1.343V-17.826H4.906l5.229,9.2v-9.2h3.553Zm15.6-7.086a8.719,8.719,0,0,1-.8,3.828,5.926,5.926,0,0,1-2.279,2.563,6.346,6.346,0,0,1-3.366.9,6.436,6.436,0,0,1-3.35-.868,5.917,5.917,0,0,1-2.279-2.482,8.465,8.465,0,0,1-.858-3.7v-.833a8.755,8.755,0,0,1,.8-3.832,5.913,5.913,0,0,1,2.284-2.563,6.391,6.391,0,0,1,3.385-.9,6.328,6.328,0,0,1,3.353.9,6.019,6.019,0,0,1,2.289,2.543A8.5,8.5,0,0,1,29.3-10.8Zm-3.624-.619a6.216,6.216,0,0,0-.736-3.345,2.361,2.361,0,0,0-2.107-1.142q-2.68,0-2.832,4.019l-.01,1.088A6.393,6.393,0,0,0,20.7-6.791a2.357,2.357,0,0,0,2.142,1.172,2.329,2.329,0,0,0,2.081-1.147,6.218,6.218,0,0,0,.742-3.3Zm16.1,7.7H38.212V-17.824h3.553Zm7.989-14.781,3.3,10.285,3.289-10.285h4.69V-3.043H57.46V-6.494l.34-7.066L54.232-3.043H51.876L48.293-13.57l.345,7.076v3.451H45.074V-17.824ZM72.525-5.8H67.641l-.853,2.761H62.982L68.4-17.824h3.35L77.214-3.043H73.387ZM68.5-8.551h3.178l-1.594-5.127ZM91.227-4.87A5.729,5.729,0,0,1,88.821-3.4a10.378,10.378,0,0,1-3.474.559,6.191,6.191,0,0,1-4.639-1.776A7.192,7.192,0,0,1,78.85-9.56l-.01-1.279a8.821,8.821,0,0,1,.772-3.814A5.729,5.729,0,0,1,81.82-17.16a6.245,6.245,0,0,1,3.325-.878,6.548,6.548,0,0,1,4.291,1.264A5.356,5.356,0,0,1,91.218-13H87.786a2.8,2.8,0,0,0-.792-1.766,2.555,2.555,0,0,0-1.726-.528A2.325,2.325,0,0,0,83.2-14.16a6.071,6.071,0,0,0-.741,3.248v.894a5.943,5.943,0,0,0,.756,3.325A2.675,2.675,0,0,0,85.6-5.582,3,3,0,0,0,87.668-6.2V-8.494H85.19v-2.447h6.036ZM103.3-9.306H97.7v3.523h6.619v2.741H94.126V-17.824h10.2v2.751H97.69v3.118h5.6Z" transform="translate(-40.834 52.374)" fill="#fff"/>
  </g>
</svg>
