<svg xmlns="http://www.w3.org/2000/svg" width="48" height="48" viewBox="0 0 48 48">
  <g id="グループ_14566" data-name="グループ 14566" transform="translate(-1108 -692)">
    <path id="pan_tool_alt_FILL0_wght400_GRAD0_opsz48" d="M21.25,42a3.98,3.98,0,0,1-1.6-.325,4.152,4.152,0,0,1-1.3-.875L8.05,30.5l2.8-2.9a5,5,0,0,1,1.575-1.075A2.74,2.74,0,0,1,14.25,26.4l3.9.9V11a4.951,4.951,0,0,1,5-5,4.951,4.951,0,0,1,5,5v8.6h1.3a.992.992,0,0,1,.45.1q.2.1.45.2l7.4,3.6a3.542,3.542,0,0,1,1.775,1.775A4.018,4.018,0,0,1,39.85,27.8l-1.8,10.9a3.778,3.778,0,0,1-1.4,2.375,4.039,4.039,0,0,1-2.6.925Zm-.4-3H34.9l2.15-12.45L27.9,22H25.15V11a2,2,0,1,0-4,0V30.95l-7.7-1.65L12.3,30.45Zm0,0h0Z" transform="translate(1101.188 701.652) rotate(-20)" fill="#bd62d8"/>
    <rect id="長方形_14542" data-name="長方形 14542" width="48" height="48" transform="translate(1108 692)" fill="none"/>
  </g>
</svg>
