<?xml version="1.0" encoding="UTF-8"?><svg id="_イヤー_2" xmlns="http://www.w3.org/2000/svg" viewBox="0 0 136.06 68.03"><defs><style>.cls-1{fill:none;}.cls-2{fill:#fff;}</style></defs><g id="_イヤー_1-2"><g><g><path class="cls-2" d="M16.05,26.84c-2.17-3.68-7.86-5.38-10.26-5.37-.43,0-.66,.32-.14,.55,.81,.38,5.13,2.34,8.19,6.74,.49,.72,1.07,.94,1.74,.42,.78-.6,.87-1.65,.48-2.35h0Z"/><path class="cls-2" d="M8.57,15.51c1.84,1.03,2.92,1.74,5.02,4.2,.3,.32,1.07,.85,1.82,0,.66-.76,.58-1.71-.03-2.29-1.77-1.73-4.96-2.45-6.7-2.39-.4,.02-.42,.32-.11,.49Z"/><path class="cls-2" d="M9.24,8.24c-.32,.04-.45,.38-.11,.49,1.52,.53,4.53,1.55,7.27,4.53,.5,.54,1.3,.59,1.85-.1h0c.69-.89,.4-1.8-.09-2.28-2.3-2.35-6.27-2.86-8.92-2.63Z"/><path class="cls-2" d="M36.21,20.22c.08,.06,.13,.2,.13,.38,0,3.51,0,5.65-.19,8.69-.05,.76,.26,1.07,.53,1.2,.15,.07,.31,.1,.47,.1h0c.32-.01,.64-.13,.82-.3l.03-.02c.28-.23,.86-.7,.73-2.65-.12-1.36-.17-4.48-.2-6.34,0-.53-.01-.96-.02-1.23-.02-.27,0-.46,.49-.57,2.81-.71,5.52-.69,6.54-.68h.22c.34,0,.95-.06,1.2-.51,.14-.24,.14-.66-.26-1.12-.27-.26-.61-.49-1.02-.66-.69-.33-1.23-.06-1.75,.21-.21,.11-.42,.22-.64,.29-1.64,.53-2.84,.73-3.63,.87-.23,.04-.43,.07-.59,.11-.25,.06-.43,.06-.54-.02s-.12-.21-.14-.3v-.02c-.08-1.52,0-3.76,0-3.79,0-.01-.02-.35,.33-.43l.4-.09c1.52-.36,2.97-.69,3.99-.67,.46,0,1.06-.06,1.36-.37,.12-.13,.18-.29,.17-.47-.02-.4-.27-.71-.88-1.1-.59-.36-1.18-.64-1.9-.14-1.07,.81-2.53,1.23-3.07,1.32h-.05c-.16,.04-.29,.06-.35,0-.06-.05-.09-.17-.09-.37,.01-.45,.04-1.03,.09-1.92,.02-.47,.09-.83,.14-1.12,.11-.62,.17-.97-.36-1.37-.65-.5-1.9-.51-2.48-.31-.42,.15-.68,.43-.71,.62-.05,.29,.14,.38,.35,.48,.3,.14,.71,.33,.84,1.23,.02,.19,.03,.75,.04,1.34,0,.58,.02,1.18,.04,1.58,.03,.43-.13,.56-.4,.63-.65,.19-1.84,.48-2.56,.62-1.67,.27-2.69,.14-3.06-.05-.27-.13-.48-.14-.63-.04-.27,.18-.24,.64-.23,.73,.02,.52,.19,.92,.5,1.21,.3,.27,.74,.42,1.2,.4,.25-.01,.42-.08,.71-.19,.32-.12,.8-.3,1.76-.56,.12-.03,.27-.08,.46-.14,.4-.14,1.02-.35,1.85-.51,.18-.05,.31-.05,.37,0,.06,.04,.06,.13,.07,.23v.04c.05,.97,.05,2.42,.05,3.2v.46c-.02,.25-.04,.53-.59,.67-2.52,.75-3.57,.97-4.67,1.2l-.36,.08c-2.1,.4-2.78,.34-3.62,.03-.12-.04-.32-.01-.47,.12-.1,.1-.21,.28-.14,.61,.14,.69,.56,1.23,1.18,1.54,.56,.27,1.19,.31,1.65,.08,.1-.05,.19-.09,.28-.13,1-.47,1.78-.84,6.37-2.08,.1-.03,.18-.02,.24,.03Z"/><path class="cls-2" d="M54.74,30.51h0c.07,0,.15,0,.24-.03,1.63-.45,11.02-4.96,16.3-15.69,.29-.6,.62-.98,1.31-1.51,.46-.37,.75-.97,.37-1.49-.21-.31-.44-.54-.95-1.02-.18-.17-.38-.37-.63-.61-.7-.7-1.07-.84-1.57-.61-.28,.13-.55,.27-.76,.39-.23,.12-.42,.23-.53,.26-1.96,.35-8.19,.82-8.95,.62-.46-.14-.61-.3-.8-.51-.08-.08-.16-.17-.27-.27-.53-.5-1.62-.52-1.89-.46-.26,.08-.4,.18-.45,.32-.04,.1,0,.21,.08,.33,.22,.25,.72,.85,.65,2.14,0,0-.02,.66-.56,3.72-.03,.19-.35,.74-.49,.98-.09,.16-.1,.16-.1,.18-.15,.68,.09,1.23,.59,1.36,.32,.07,.72-.05,1.09-.33,.49-.37,.81-.92,.85-1.49,.04-.59,.19-1.13,.35-1.7,.15-.54,.31-1.09,.38-1.74,.05-.43,.13-.67,.24-.74,.09-.06,.23-.03,.42,.02,.19,.05,.44,.11,.73,.08,.22-.02,.44-.06,.71-.11,.21-.04,.45-.09,.71-.12,.71-.08,1.28-.16,1.9-.24,1.13-.15,2.42-.32,4.96-.59,.44-.04,.72,.01,.84,.17,.11,.14,.11,.37,0,.72-2.43,8-10.77,15.29-14.7,17.41-.32,.15-.38,.33-.34,.44,.03,.09,.13,.15,.29,.15Z"/><path class="cls-2" d="M124.96,59.62c-.03-.07-.14-.23-.38-.23-5.07-.21-12.59-.8-19.39-3.47-7.2-2.83-12.14-7.47-14.67-13.82l6.41-.03c.61-.03,.82-.31,.9-.48,.13-.29,.05-.63-.23-.98-.16-.22-.38-.52-.86-1.01-.36-.36-.62-.59-.94-.57-.35,.02-.65,.33-1.17,1.02-.18,.24-.28,.36-.4,.49l-.02,.03c-.07,.08-.14,.16-.22,.27l-3.91,.02c.46-2.05,.82-4.39,1.03-5.8l.07-.46,8.24-.11c.45-.02,.78-.2,.91-.49,.14-.29,.06-.65-.22-1.01-.02-.03-.04-.05-.07-.08l-.07-.09c-.16-.19-.37-.45-.74-.81-.31-.32-.58-.61-.93-.58-.36,.02-.66,.34-1.2,1.04-.12,.16-.2,.26-.28,.35l-.04,.05c-.09,.11-.18,.21-.32,.4l-11.87,.17c-1.84,.03-2.74-.08-3.24-.14-.36-.04-.53-.06-.65,.03-.09,.04-.15,.11-.19,.22-.13,.38,.17,1.07,.17,1.07,.16,.3,.48,.26,1.13,.2,.4-.04,.94-.1,1.7-.12l5.45-.07c-.14,.99-.51,3.42-1.11,6.25l-3.02,.02c-1.79,.01-2.7-.1-3.19-.16h-.06c-.34-.05-.51-.07-.68,.04-.16,.12-.28,.36,.02,1.25,.15,.32,.5,.29,1.13,.23h.07c.39-.04,.92-.1,1.63-.11l3.76-.02c-1.05,3.16-3.69,6.46-7.44,9.31-3.88,2.94-8.55,5.06-13.14,5.97-.96,.19-1.03,.32-1.11,.46-.08,.12-.08,.26,0,.37,.11,.18,.37,.27,1.24,.17,1.01-.12,6.32-.87,11.5-3.76,1.88-1.05,8.17-4.98,10.9-11.77,4.51,13.54,20.05,17.51,32.32,18.45,.25,.03,.49,.04,.71,.04h.12c1-.03,1.75-.35,2.17-.93,.12-.17,.31-.55,.18-.82Z"/><path class="cls-2" d="M130.68,34.87c-.29-1.44-1.57-2.37-1.95-2.62-.3-.19-.7-.41-.87-.37-.09,.02-.14,.08-.16,.12-.09,.18,.04,.49,.27,1,.27,.64,.65,1.52,.79,2.58,.03,.25,.19,.58,.48,.75,.09,.05,.22,.1,.38,.1,.11,0,.23-.02,.37-.08,.63-.25,.82-.96,.69-1.49Z"/><polygon class="cls-2" points="129.62 36.44 129.62 36.44 129.62 36.44 129.62 36.44"/><path class="cls-2" d="M129.79,39.27c-.14-.17-.36-.44-.74-.79-.3-.29-.52-.48-.77-.47-.29,.01-.56,.29-1,.82-.14,.17-.25,.28-.35,.4-.1,.11-.2,.22-.33,.37h-1.38c.42-2.54,1.01-5.11,1.48-7.18l.2-.87c.86-.34,1.27-.63,1.29-.94,.01-.17-.09-.32-.32-.45-.43-.23-.98-.38-1.59-.43-.82-.11-.9,.18-.98,.71-.01,.11-.04,.23-.06,.37l-.17,.74c-.49,2.12-1.16,5.01-1.65,8.08l-3.29,.03c.53-.58,1.24-1.57,2.16-3.02,.01,0,.04,0,.06-.01,.33-.09,1.1-.3,1.1-.74,.01-.49-1.56-.89-1.58-.89-.92-.17-1.03,.05-1.19,.56-.02,.07-.05,.15-.08,.24-.84,2.37-1.37,3.42-1.61,3.88h-1.93c.58-.17,.83-.79,.82-1.33-.07-1.85-1.78-3.28-2.1-3.28-.07,0-.13,.04-.17,.1-.12,.17-.04,.5,.09,1.06,.14,.64,.35,1.53,.32,2.52,0,.27,.1,.64,.35,.84,.04,.03,.09,.06,.13,.08-1.31-.03-2.07-.11-2.48-.15-.4-.04-.53-.06-.61,.03-.21,.18,.02,.91,.1,1.06,.11,.22,.41,.19,1.12,.13,.48-.04,1.13-.1,2.03-.12l6.63-.05c-.52,3.43-.69,6.11-.53,8.22-2.45,3.1-4.24,4.51-5.1,5.19-.27,.22-.44,.35-.51,.45-.12,.19-.04,.3,0,.33,.04,.03,.1,.05,.18,.05h0c.7,0,2.93-1.22,5.72-4.06,.19,.88,.41,1.51,.7,2.05,.63,1.2,1.13,1.49,1.53,1.72,.04,.03,.08,.05,.13,.08,.53,.26,1.04,.27,1.39,.01,.32-.23,.46-.64,.39-1.14-.06-.28-.01-.88,.23-1.58,.12-.35,.27-.74,.41-1.11,.43-1.11,.59-1.58,.47-1.75-.03-.04-.08-.07-.12-.07-.23-.04-.45,.26-.87,.81-.32,.42-.75,1-1.31,1.57-.17,.17-.31,.24-.43,.21-.2-.05-.4-.4-.58-1.02-.14-.53-.24-1.06-.31-1.57,.98-1.14,1.97-2.44,2.93-3.87,.05-.02,.21-.06,.34-.1,.25-.07,.52-.14,.69-.22,.18-.07,.32-.23,.34-.35,.12-.42-1.15-1.05-1.5-1.18-.76-.22-.86-.15-1.17,.44-.11,.21-.27,.5-.52,.88-.42,.68-.84,1.29-1.23,1.84,0-1.69,.19-3.65,.55-5.84l4.3-.03c.33,0,.59-.14,.7-.37,.1-.22,.06-.48-.14-.73-.03-.03-.08-.08-.13-.15Z"/><path class="cls-2" d="M104.95,50.94c.28-.05,.54-.48,.74-.84,0-.01,.02-.03,.02-.04,1.06-.37,2.55-.9,3.77-1.43l-.94,5.08c-.04,.3,0,.56,.15,.73,.11,.14,.27,.22,.46,.23h.05c.5,0,1.09-.48,1.24-1.41,.11-.58,3.01-16.35,3.69-20.16l1.95-.03c.35,0,.63-.16,.74-.41,.1-.23,.05-.5-.15-.73-.15-.19-.46-.51-.92-.96-.29-.28-.51-.48-.77-.47-.29,.01-.57,.29-1.05,.86-.2,.26-.32,.4-.5,.6-.06,.07-.12,.14-.2,.23l-2.73,.04c-1.89,.03-2.81-.1-3.25-.16-.3-.04-.42-.06-.51,.04-.15,.2,.04,.87,.14,1.04,.1,.22,.23,.2,.59,.15,.2-.03,.49-.07,.92-.11l-2.75,15.03-.4,.06c-.38,.06-.74,.11-1.06,.14h-.06c-.14,0-.35,0-.39,.22-.02,.14,.61,1.93,.94,2.21,.08,.07,.17,.1,.27,.08Zm4.38-13.56l.77-4.22h0l2.24-.04-.78,4.23-2.23,.02Zm2.06,.9l-.72,3.91h-2.22l.71-3.89h0l2.23-.02Zm-.9,4.85l-.79,4.26c-.65,.15-1.49,.32-2.31,.5l.87-4.74h2.22Z"/><path class="cls-2" d="M118.29,51.6c.51,.08,1.22-.4,1.36-1.14,.03-.13,.06-.34,.12-.66,.17-.95,.47-2.71,1.05-5.75h.03c.39-.17,.87-.37,.96-.68,.04-.12,0-.25-.08-.37-.32-.47-.53-.66-.94-1.03-.58-.54-.76-.44-1.25-.05l-.15,.14c-.18,.17-.33,.31-.4,.36h-2.82c-.36-.23-.74-.44-.96-.55-.31-.14-.52-.17-.67-.08-.25,.14-.28,.53-.34,1.18-.04,.4-.08,.88-.19,1.46-.32,1.72-.66,3.45-.93,4.86-.3,1.57-.53,2.71-.57,3.01-.08,.48,.18,.71,.45,.76,.05,0,.1,.01,.15,.01h0c.49,0,1.07-.42,1.23-1.12,.03-.16,.14-.73,.3-1.5h3.15v.08c-.14,.89,.36,1.04,.51,1.07Zm-3.48-2.06l.52-2.78h3.15l-.53,2.78h-3.15Zm1.12-6.13h3.2c-.03,.17-.1,.55-.19,.98-.08,.41-.18,.91-.28,1.44h-3.16c.2-1.18,.38-2.14,.43-2.42h0Z"/><path class="cls-2" d="M114.8,33.75c-.16,.2,.04,.89,.14,1.05,.07,.14,.21,.18,.48,.18,.18,0,.41-.02,.72-.05,.47-.04,1.11-.09,1.97-.12l5.52-.07c.36-.02,.63-.17,.73-.4,.09-.21,.04-.46-.15-.7-.08-.09-.19-.21-.3-.34-.19-.22-.4-.45-.57-.63-.28-.27-.51-.47-.76-.45-.28,.02-.56,.29-1,.82-.19,.24-.31,.38-.45,.54-.07,.08-.14,.17-.23,.27h-.81l.47-2.46c1.04-.51,1.16-.8,1.15-.97,0-.09-.05-.23-.27-.32-.51-.28-1.16-.38-1.73-.45-.28-.04-.5-.05-.65,.06-.17,.13-.19,.38-.22,.79-.03,.29-.06,.64-.14,1.11l-.42,2.25c-1.55-.01-2.4-.1-2.86-.14-.38-.04-.51-.05-.61,.04Z"/><path class="cls-2" d="M85.82,21.2c.06-.12,.16-.19,.26-.21,.11-.02,.22,.01,.34,.1,.91,.7,2.69,3.33,3.25,4.91,.16,.45,.4,.74,.73,.87,.29,.12,.64,.09,.95-.08,.84-.47,1.1-1.28,.73-2.26-.39-1.24-1.92-2.98-3.27-4.52l-.18-.2c-.52-.59-.69-1.2-.28-1.63,.27-.29,.49-.55,.7-.79,.75-.84,1.29-1.45,2.94-3.47,.58-.71,.9-.93,1.17-1.1,.14-.09,.26-.17,.38-.31,.31-.36,.28-1.11-.25-1.66-1-1.04-2.06-1.37-2.48-1.39-.18-.02-.32,.02-.4,.13-.14,.18-.09,.48-.06,.55,.3,.59,.44,1.34-.48,2.83-1.25,1.99-2.2,3.05-3.22,4.14-.21,.22-.32,.3-.41,.3s-.2-.09-.35-.24c-1.28-1.13-3.82-2.66-5.57-3.15-.36-.1-.59-.08-.67,.06-.04,.06-.06,.21,.2,.43,2.18,1.3,3.97,3.01,4.56,3.96,.3,.47,.22,.7-.09,1.01h0c-15.72,16.59-30.9,24.09-49.93,31.36-.39,.19-.41,.36-.38,.44,.04,.11,.17,.17,.36,.17h0c.06,0,.13-.01,.21-.03,24.81-7.74,38.32-16.32,51.26-30.23Z"/></g><rect class="cls-1" width="136.06" height="68.03"/></g></g></svg>