<svg xmlns="http://www.w3.org/2000/svg" width="210" height="18" viewBox="0 0 210 18">
  <g id="グループ_14" data-name="グループ 14" transform="translate(-650.393 -472.084)">
    <rect id="長方形_57" data-name="長方形 57" width="210" height="18" transform="translate(650.393 472.084)" fill="#fff" opacity="0"/>
    <g id="グループ_13" data-name="グループ 13" transform="translate(653.138 474.927)">
      <g id="b" transform="translate(0 0.526)">
        <g id="c" transform="translate(0 0)">
          <g id="グループ_11" data-name="グループ 11">
            <path id="パス_11" data-name="パス 11" d="M.033,9.7A21.089,21.089,0,0,0,4.627,5.258h-2.3c-1.031,0-1.264.121-1.323,0C.961,5.183.843,4.9.943,4.841c.065-.05.355.087,1.541.087H5.4l.386-2.183H3.948c-1.021,0-1.264.109-1.323,0-.04-.084-.162-.355-.059-.43.062-.037.352.1,1.541.1H5.832l.109-.626C6.24.079,5.956-.092,6.489.02a2.643,2.643,0,0,1,.722.221c.174.087.47.258-.361.589,0,0-.14.735-.165.872-.04.234-.081.467-.125.71H8.342c.118-.159.174-.221.3-.38.349-.455.414-.442.688-.159.215.246.318.367.371.442a.25.25,0,0,1-.209.43H6.5c-.131.735-.249,1.473-.374,2.183h2.8c.115-.146.184-.209.3-.38.349-.455.424-.43.688-.146a4.046,4.046,0,0,1,.374.43c.168.2.072.43-.209.43H6.4A9.918,9.918,0,0,0,9.721,8.867c.159.109.193.184.016.3-.255.171-.336.2-.414.258-.408.283-.452.271-.853-.121a9.817,9.817,0,0,1-2.4-3.974c-.461,2.734-.822,4.979-.838,5.079-.084.48-.978.772-.847.037.056-.318.3-1.495.881-4.733C3.179,8.571-.359,10.337.033,9.7Z" transform="translate(-0.003 0.007)" fill="#fff"/>
            <path id="パス_12" data-name="パス 12" d="M51.333,5.707c.156.2.062.417-.209.417H47.1a8.883,8.883,0,0,0,3.214,3.323c.159.109.171.171,0,.3-.125.075-.2.109-.274.159-.411.3-.436.38-.931-.062A9.505,9.505,0,0,1,46.7,6.124c-.492,2.8-.66,4-.729,4.391-.084.48-.972.747-.825.037.069-.33.3-1.423.763-4.073-2.2,2.747-5.322,4.048-4.967,3.506a17.618,17.618,0,0,0,4.279-3.865H43.065c-1.04-.012-1.37.134-1.426.012-.04-.087-.1-.367-.047-.43a18.068,18.068,0,0,0,1.99.1h2.445l.6-3.385H44.563c-1.065,0-1.355.121-1.414,0A.758.758,0,0,1,43.087,2c.056-.062.286.087,2,.087h1.582L46.7,1.9c.3-1.716.028-1.878.548-1.766a2.708,2.708,0,0,1,.7.221c.165.087.371.246-.349.576,0,0-.14.663-.178.884-.019.1-.031.184-.047.271h2.005a4.271,4.271,0,0,0,.3-.367c.349-.455.427-.442.688-.159a4.045,4.045,0,0,1,.374.43c.168.2.059.43-.212.43H47.316C47.1,3.748,46.9,4.866,46.74,5.81h.595a22.043,22.043,0,0,0,1.523-2.6c.146-.318.121-.492.582-.305.159.062.71.43.713.6-.006.234-.682.246-.685.258a14.288,14.288,0,0,1-1.8,2.049h2.3c.115-.146.174-.221.3-.38.349-.455.427-.442.688-.159.224.246.315.38.371.442Zm-7.063-.638c-.159-1.461-.6-1.987-.424-2.049A2.182,2.182,0,0,1,45.055,4.81c.028.48-.156.688-.389.747-.212.05-.358-.134-.4-.492Z" transform="translate(-28.172 -0.074)" fill="#fff"/>
            <path id="パス_13" data-name="パス 13" d="M93.8,15.815a.637.637,0,0,1-.775.134,10.688,10.688,0,0,1-3.469-3.335.815.815,0,0,0-.638-.38,1.163,1.163,0,0,0-.713.3c-.607.455-.859.688-1.18.968-.916.8-1.177.944-1.489.944-.579-.025-.67-.968-.42-1.177.224-.184.019.6,1.753-.4.411-.234.707-.514,1.358-.894a1.237,1.237,0,0,1,1.594.109,9.488,9.488,0,0,0,3.643,2.8C93.99,15.1,94.083,15.472,93.8,15.815Z" transform="translate(-58.518 -8.071)" fill="#fff"/>
            <path id="パス_14" data-name="パス 14" d="M133.866,7.894a4.446,4.446,0,0,1-.922,3.961,5.2,5.2,0,0,1-3.712,1.974c-.227.012-.2-.159-.056-.2A5.055,5.055,0,0,0,133.1,9.364c.072-.6.125-3.127-2.155-3.348-.131-.012-.333-.025-.234.305a3.284,3.284,0,0,1,.09.638,7.084,7.084,0,0,1-2.6,5.079c-1.049.872-1.4.722-1.657.613a1.128,1.128,0,0,1-.508-.676,3.96,3.96,0,0,1,.034-2.354,5.912,5.912,0,0,1,2.111-3.08,4.233,4.233,0,0,1,2.438-.919,3.2,3.2,0,0,1,3.242,2.27Zm-3.457-.872A1.794,1.794,0,0,0,130.4,6.2c-.065-.2-.215-.171-.333-.146A4.962,4.962,0,0,0,126.732,9.7c-.23.993-.118,1.741.143,1.974.206.171.7.025,1.336-.589a7.191,7.191,0,0,0,2.2-4.061Z" transform="translate(-86.68 -3.868)" fill="#fff"/>
            <path id="パス_15" data-name="パス 15" d="M165.944,3.609c.121-.246.67-.3.937-.109.3.209.526.576.115,1.311-.243.417-.626,1.2-.825,1.569-.034.075-.047.134.034.121,1.445-.305,1.713.012,1.912.4a2.825,2.825,0,0,1-.044,1.828,6.43,6.43,0,0,1-1.632,2.834,2.054,2.054,0,0,1-1.5.713c-.6,0-.448-.258-.782-.847-.143-.271-.224-.38-.118-.48.125-.134.679.663,1.426.367a1.762,1.762,0,0,0,.536-.367,5.662,5.662,0,0,0,1.445-2.466,1.963,1.963,0,0,0,.019-1.569c-.3-.33-1.04-.075-1.51.05-.084.025-.125.062-.174.171a20.457,20.457,0,0,1-2.753,4.366c-.424.43-.779.539-.94.38a.329.329,0,0,1-.1-.343,1.484,1.484,0,0,1,.4-.526,12.244,12.244,0,0,0,2.638-3.643c.034-.075,0-.146-.1-.109-1.012.33-1.214.467-1.545.551-.542.084-.682-.258-.679-.6a.86.86,0,0,1,.193-.589c.178-.062.149.355,1.028.283a8.128,8.128,0,0,0,1.361-.209.279.279,0,0,0,.146-.134,16.816,16.816,0,0,0,.741-1.778c.327-.968-.33-.919-.218-1.177Zm5.135,5.138c-.427.134-.4-.171-.5-.305-.283-.367-.947-.221-.775-.43.084-.1.779-.025.891-.417a1.12,1.12,0,0,0-.944-1.569c-.1-.025-.121-.134.006-.159a1.607,1.607,0,0,1,1.881,1.974c-.1.564-.336.835-.564.906Z" transform="translate(-111.536 -2.33)" fill="#fff"/>
            <path id="パス_16" data-name="パス 16" d="M204.791,6.97a7.942,7.942,0,0,0,.66-3.36c-.025-.109-.09-.246.031-.3s.343.1.517.305c.212.258.579.906-.078,2.22a8.49,8.49,0,0,0-1.243,3.877c.006.283.153.4.536-.109.473-.651.638-.944.741-.9.165.075-.252.676-.526,1.644a3.051,3.051,0,0,0-.078,1.018c.065.33-.386.722-.707.38-.881-.919-.607-2.588.149-4.783Zm5.232.087c.022-.184.034-.258.053-.43,0-.087-.037-.109-.112-.134a8.235,8.235,0,0,0-1.1-.012,6.248,6.248,0,0,0-1.046.084c-.243.05-.258-.062-.037-.234a2.192,2.192,0,0,1,1.333-.5c.23-.037.769-.037.987-.062a.174.174,0,0,0,.149-.146c.315-1.716.181-2.108-.087-2.245-.156-.075.05-.283.221-.367a.718.718,0,0,1,.738.134.618.618,0,0,1,.162.676c-.025.146-.156.7-.327,1.728-.022.184.031.209.19.2.258,0,.629-.012.984.012.486.05.358.7-.156.747-.215.012-.685,0-.965,0-.125,0-.171.025-.2.171-.146.822-.42,2.133-.6,2.734-.713,2.27-2.613,3.31-2.613,3.055,0-.33,1.75-.772,2.423-5.409Z" transform="translate(-140.539 -2.035)" fill="#fff"/>
            <path id="パス_17" data-name="パス 17" d="M239.026,8.187A29.89,29.89,0,0,0,241.063,3.5c-.788.012-1.049.109-1.1-.012-.044-.075-.118-.355-.065-.392.115-.075.243.087,1.255.075h.09c.2-1.127.361-2.108.408-2.563,0-.271.006-.539.224-.514a2.479,2.479,0,0,1,.825.209c.149.109.131.283-.386.526L241.9,3.173h.349s.168-.2.283-.343c.305-.4.371-.392.617-.134a4.041,4.041,0,0,1,.33.417.23.23,0,0,1-.193.392h-1.445l-.237,1.336a1.7,1.7,0,0,1,.916,1.043.567.567,0,0,1-.246.688c-.249.134-.392-.062-.433-.221a4.226,4.226,0,0,0-.339-.944L241.156,7.4c-.1.564-.4,2.479-.511,3.092-.1.539-.623.735-.794.492a.946.946,0,0,1,.037-.526c.069-.33.178-.822.3-1.52.053-.3.305-1.607.582-3.114-.925,1.816-1.728,2.675-1.753,2.379Zm9.691-.993c-.258,1.461-.461,2.809-.489,2.955a1.2,1.2,0,0,1-1.021.9.223.223,0,0,1-.224-.121c-.162-.283-.283-.3-.4-.4-.134-.134-.274-.221-.224-.318.031-.05.283-.012.349,0a3.257,3.257,0,0,0,.533.037c.212.012.3-.062.377-.48,0,0,.392-2.22.489-2.905h-4.248a.321.321,0,0,0-.087.109l-.651,3.569c-.1.576-.813.676-.766.271.028-.159.343-1.619.561-2.871.274-1.557.118-1.816.386-1.741a3.253,3.253,0,0,1,.691.343h4.023c.081-.075.168-.2.209-.234.165-.171.271-.271.408-.146a2.351,2.351,0,0,1,.483.626c.084.221-.246.305-.4.417Zm1.015-2.329c.168.121.093.171,0,.234a3.459,3.459,0,0,1-.383.209c-.336.2-.4.234-.754-.246-.153-.209-.286-.417-.408-.6-.09.062-.212.121-.29.184-.075.417-.128.919-.146,1.018-.081.467-.856.6-.75.121l.028-.159h-1.949l-.025.146c-.1.626-.807.626-.738.246.025-.146.2-1.018.3-1.557.006-.037,0-.075.009-.121-1.13,1.14-1.943,1.423-1.766,1.115a14.709,14.709,0,0,0,2.454-2.734h-.4c-.841,0-1.152.109-1.211,0-.031-.075-.1-.343-.044-.392s.333.087,1.744.087h.112a11.122,11.122,0,0,0,.576-1.043c-1.439.159-2.286.121-2.018-.062a34.347,34.347,0,0,0,3.544-.835c.5-.171.685-.258.828-.318.112-.062.178-.05.293.05a2.312,2.312,0,0,1,.4.688c.022.075.022.134-.028.159-.121.05-.545-.087-.638-.062-.545.109-1.065.2-1.551.271-.243.417-.476.8-.719,1.152h2.388l.29-.367c.333-.43.4-.417.654-.146.206.234.308.355.352.417.146.184.053.392-.206.4H247.73a5.523,5.523,0,0,0,2,2.146ZM246.073,9.6l.019-.1h-1.423l-.056.318c-.1.626-.813.735-.729.258.04-.234.28-1.4.427-2.233.059-.343.016-.589.193-.526a2.947,2.947,0,0,1,.6.318h1.143a1.963,1.963,0,0,0,.265-.234c.227-.209.28-.184.414-.062a2.277,2.277,0,0,1,.445.526c.112.184-.234.305-.377.43-.065.367-.162,1.1-.174,1.177-.1.564-.878.722-.75.121Zm.072-.4.215-1.227h-1.423l-.215,1.227Zm1.582-5.543a5.383,5.383,0,0,1-.386-.931h-1.358c-.3.4-.585.772-.866,1.09a2.979,2.979,0,0,1,.283.171h1.759c.037-.025.131-.1.262-.209s.218-.146.3-.121Zm-.641,1.669.181-1.018h-1.949s-.012.012,0,.012l-.178,1.006h1.949Z" transform="translate(-164.588 -0.063)" fill="#fff"/>
          </g>
        </g>
      </g>
      <g id="b-2" data-name="b" transform="translate(89.657 0)">
        <g id="c-2" data-name="c" transform="translate(0)">
          <g id="グループ_12" data-name="グループ 12">
            <path id="パス_18" data-name="パス 18" d="M1.438,6.094c.044-.05.115-.146.277.025.1.109.315.305,1.053.318.716.012,1.772-.075,3.1-.2a.151.151,0,0,0,.143-.109c.044-.318.181-1.152.174-1.3a.729.729,0,0,0-.38-.71c-.059-.037-.2-.258.181-.38a1.16,1.16,0,0,1,1.2.283c.2.246.084.417-.078.822a5.458,5.458,0,0,0-.243,1.127c0,.075-.034.2.2.184a8.385,8.385,0,0,0,.959-.171c.221-.05.567-.221.794-.05.645.48.489.785.4.872a.477.477,0,0,1-.5.05,5,5,0,0,0-1.759-.075c-.218.025-.246.121-.265.221-.149.906-.729,4.512-.754,4.649a1.448,1.448,0,0,1-1.065,1.081.49.49,0,0,1-.492-.2c-.4-.589-1.4-.993-.984-1.152.037-.012.679.159,1.317.221.4.05.392-.184.486-.6.053-.246.389-1.753.554-3.139.044-.318-.106-.234-.165-.134C3.621,10.242-.362,12.058.03,11.419A16.648,16.648,0,0,0,5.094,7.053c.143-.184.1-.221-.031-.209-.613.05-1.526.2-1.722.234-1.1.171-1.7.467-1.918-.246A1.279,1.279,0,0,1,1.441,6.1Z" transform="translate(-0.003 -2.016)" fill="#fff"/>
            <path id="パス_19" data-name="パス 19" d="M48.062,8.569a19.193,19.193,0,0,1-6.67,6.244c-.8.392-.863.564-1.093.6a.671.671,0,0,1-.361-.109,1.817,1.817,0,0,1-.657-1.043c0-.134.14-.221.293-.134a1.1,1.1,0,0,0,.595.121c2.532-.492,6.365-4.182,7.661-5.739.286-.355.3-.062.237.062ZM40.5,7.943a2.971,2.971,0,0,1,2.42,1.411.8.8,0,0,1-.3,1.006c-.464.283-.638-.2-.676-.3C41.37,8.494,40.161,8.115,40.5,7.943Z" transform="translate(-27.049 -4.943)" fill="#fff"/>
            <path id="パス_20" data-name="パス 20" d="M85.3,5.3c-.04.3-.2,1.081-.2,1.081-.707,4.649-3.491,6.452-4.273,6.807-.3.159-.67.109-.05-.283A7.6,7.6,0,0,0,82.36,11.3a10.758,10.758,0,0,0,1.918-4.9c.121-.822.165-.993.212-1.52a.928.928,0,0,0-.364-.859c-.022-.012-.171-.3.218-.343.171-.012,1.345.184,1.23.785A5.919,5.919,0,0,0,85.3,5.3Zm-3.369.8c-.121.76-.364,2.074-.4,2.429-.087.688-.187.872-.4.981s-.726-.075-.48-.9c.1-.318.582-2.722.595-2.918a.852.852,0,0,0-.321-.859c-.069-.05-.1-.318.224-.318.134.012,1.109.075,1.053.7A5.016,5.016,0,0,0,81.934,6.095Z" transform="translate(-55.393 -2.004)" fill="#fff"/>
            <path id="パス_21" data-name="パス 21" d="M117.976,16.486c-.149.025-.673-.121-1.432-.146a39.494,39.494,0,0,0-3.983.146c-.523.037-.816.109-1.009.134a.5.5,0,0,1-.592-.33,1.168,1.168,0,0,1-.028-1.043.182.182,0,0,1,.221.012,1.667,1.667,0,0,0,1.267.442c.517-.012,2.482-.087,3.581-.159,1.33-.1,1.352-.221,1.657-.171a.863.863,0,0,1,.617.76.344.344,0,0,1-.3.355Z" transform="translate(-76.314 -9.954)" fill="#fff"/>
            <path id="パス_22" data-name="パス 22" d="M151.675,16.673c-.344,0-.182-.489.1-.539.929-.178,1.8-.195,1.953-1.078l1.3-7.38c.05-.294.108-.622-.025-.7a9.5,9.5,0,0,0-1.522-.1c-.439-.05-.224-.423,0-.489a4.6,4.6,0,0,0,2.4-1.405c.336-.394.792-.178.734.162l-1.754,9.946c-.145.9.63.916,1.356,1.028.336.05.216.556-.158.556h-4.374Z" transform="translate(-104.948 -4.77)" fill="#fff"/>
            <path id="パス_23" data-name="パス 23" d="M192.416,8.134a4.446,4.446,0,0,1-.922,3.961,5.2,5.2,0,0,1-3.712,1.974c-.227.012-.2-.159-.056-.2A5.055,5.055,0,0,0,191.65,9.6c.072-.6.125-3.127-2.155-3.348-.131-.012-.333-.025-.234.305a3.284,3.284,0,0,1,.09.638,7.084,7.084,0,0,1-2.6,5.079c-1.049.872-1.4.722-1.657.613a1.127,1.127,0,0,1-.508-.676,3.96,3.96,0,0,1,.034-2.354,5.894,5.894,0,0,1,2.111-3.08,4.234,4.234,0,0,1,2.438-.919,3.2,3.2,0,0,1,3.242,2.27Zm-3.457-.872a1.794,1.794,0,0,0-.012-.822c-.065-.2-.218-.171-.333-.146a4.962,4.962,0,0,0-3.332,3.643c-.23.993-.118,1.741.143,1.974.206.171.7.025,1.336-.589a7.191,7.191,0,0,0,2.2-4.061Z" transform="translate(-126.997 -3.514)" fill="#fff"/>
            <path id="パス_24" data-name="パス 24" d="M222.889,3.247c.162-.919-.034-1.323.486-1.1a2.89,2.89,0,0,1,.523.283h1.794c.115-.33.436-1.081.75-2.1.093-.343.1-.367.452-.271.012,0,.841.184.888.442.034.184-.121.246-.607.392-.3.38-.7,1.127-1,1.532h2.286c.05-.037.168-.184.311-.305.2-.184.308-.221.458-.062a3.483,3.483,0,0,1,.529.626c.131.209-.249.33-.452.467-.822,4.662-1.168,6.82-1.221,7.113-.087.5-.962.747-.828.062.006-.037.056-.258.115-.589h-4.864c-.084.48-.14.8-.149.847-.09.514-.9.613-.822.146.072-.4.592-3.164,1.352-7.48Zm4.54,6.169c.1-.551.227-1.289.364-2.074h-4.864c-.137.772-.265,1.5-.364,2.074Zm.763-4.329h-4.864c-.109.613-.224,1.277-.343,1.937h4.864C227.965,6.374,228.083,5.7,228.192,5.088Zm-4.453-2.329c-.028.159-.171.968-.355,2.012h4.864c.2-1.14.352-2,.355-2.012Z" transform="translate(-152.546 0.513)" fill="#fff"/>
            <path id="パス_25" data-name="パス 25" d="M260.234,5.119h-.561c-.94,0-1.168.087-1.224.012a.728.728,0,0,1-.028-.4c.04-.05.3.087,1.364.087h3.463a2.646,2.646,0,0,0,.252-.221c.249-.271.327-.2.461-.075a4.626,4.626,0,0,1,.476.48c.2.3-.125.38-.361.514a11.51,11.51,0,0,1-.835,3.264,4.245,4.245,0,0,1-1.694,2.049c-.361.2-.713.221-.794.109-.561-.7-1.439-.931-1.04-1.152.025-.012.881.146,1.376.146a.883.883,0,0,0,.523-.109,3.109,3.109,0,0,0,.754-.909,9.6,9.6,0,0,0,.959-3.79H261.05c-1.457,5.347-5.792,6.281-5.26,5.727a8.7,8.7,0,0,0,4.441-5.727Zm-3.921.564A14.832,14.832,0,0,0,260.088.862c.174-.355.168-.455.617-.258a1.878,1.878,0,0,1,.645.417c.115.171-.121.305-.62.4-2.684,3.974-4.718,4.758-4.416,4.257Zm5.6-4.478a.863.863,0,0,1-.056-.514c.059-.075.305.109,1.124.109h.3l.286-.343c.315-.392.436-.318.67-.05s.343.417.408.492a.209.209,0,0,1-.075.355c-.414.121-.856.025-.791.48.246,1.84,2.251,3.067,2.6,3.3.09.062.243.146.053.271-.3.184-.38.246-.5.318-.33.221-.364.087-.589-.1a5.4,5.4,0,0,1-1.968-4.341H262.8c-.732.012-.816.109-.891.025Z" transform="translate(-176.105 0.395)" fill="#fff"/>
            <path id="パス_26" data-name="パス 26" d="M304.537,5l-.383,2.171h1.367c.128-.146.177-.246.293-.392.339-.467.4-.48.663-.2.206.234.346.392.389.455a.268.268,0,0,1-.215.455h-2.557l-.258,1.473c-.143.81-.19,1.006.43,1.056a5.33,5.33,0,0,0,1.489-.05c.221-.05.358-.442.427-.638A3.58,3.58,0,0,1,306.6,8.3c.187-.05.121.514.149,1.068a1.089,1.089,0,0,0,.165.589c.224.258-.165.626-.775.71a11.627,11.627,0,0,1-1.85.062c-1.417-.1-1.392-.43-1.115-2l.218-1.239h-1.816c-1.682,3.631-4.926,4.1-4.422,3.656a7.981,7.981,0,0,0,3.659-3.656H299.58a6.208,6.208,0,0,1-1.158.025.826.826,0,0,1-.047-.442c.056-.062.688.1,1.495.1h1.087a8.484,8.484,0,0,0,.62-2.171h-.125a6.409,6.409,0,0,1-1.149.025.73.73,0,0,1-.056-.442c.056-.062.688.1,1.507.1h2.734c.115-.146.177-.246.293-.392.339-.467.4-.48.663-.2.206.234.346.392.389.455a.268.268,0,0,1-.215.455h-1.087Zm-6.649.514a18.034,18.034,0,0,0,2.781-2.037.339.339,0,0,1-.38-.2c-.626-1.214-1.224-1.323-.931-1.461.062-.037,1.3.246,1.573,1.006a.539.539,0,0,1,.022.392,13.416,13.416,0,0,0,1.781-2.086H301c-.66,0-.922.084-.987.012a.755.755,0,0,1-.047-.43c.056-.062.4.087,1.062.087H302.8a2.508,2.508,0,0,0,.23-.221c.355-.355.442-.146.685.121a2.578,2.578,0,0,1,.206.3c.106.159.075.283-.174.355a1.888,1.888,0,0,0-.392.184c-2.388,3.127-5.761,4.5-5.453,3.974ZM303.83,5h-1.479a11.321,11.321,0,0,1-.629,2.171h1.725Zm4.3.062c-.234.184-.234.171-.389.3-.3.221-.358.121-.794-.209-2.619-1.987-3.123-4.8-2.778-4.783.069,0,.227.688.794,1.594.268-.246.757-.676,1.361-1.3.221-.234.153-.355.486-.087a1.816,1.816,0,0,1,.321.4c.05.1.069.184.016.234-.128.146-.483.062-.57.109a10.62,10.62,0,0,1-1.473.847,7.068,7.068,0,0,0,.987,1.14c.318-.271.766-.663,1.249-1.165.221-.234.206-.4.486-.087a1.806,1.806,0,0,1,.293.367c.069.109.1.209.04.271-.128.146-.483.062-.57.109a13.9,13.9,0,0,1-1.252.735,8.439,8.439,0,0,0,1.865,1.239c.09.062.134.121-.084.283Z" transform="translate(-204.583 0.267)" fill="#fff"/>
            <path id="パス_27" data-name="パス 27" d="M337.965,11.745a8.251,8.251,0,0,0,4-3.9c.078-.184.134-.318.187-.417h-1c-.069.392-.118.663-.131.735-.106.6-.888.651-.838.234.016-.159.371-1.84,1.127-6.144.118-.663,0-.944.29-.884a3.25,3.25,0,0,1,.691.33h4.1l.221-.246c.206-.209.3-.283.452-.146a2.493,2.493,0,0,1,.536.651c.093.234-.277.305-.433.43-.526,2.98-.844,4.967-.9,5.309-.093.539-.775.71-.822.343a5.457,5.457,0,0,1,.087-.613h-.953l-.374,2.121c-.106.6-.153.919.458,1.018a6.311,6.311,0,0,0,1.6-.025c.234-.05.389-.43.467-.613a8.651,8.651,0,0,1,.526-1.336c.218-.146.053.772.081,1.323a.808.808,0,0,0,.118.48c.193.293-.218.722-.912.847a10.52,10.52,0,0,1-1.859.062c-1.339-.1-1.445-.318-1.18-1.828l.361-2.049h-1.031c.069.05.14.1.23.159.249.171.262.3.156.38a1.723,1.723,0,0,1-.576.221c-1.485,3.08-4.964,3.936-4.684,3.556ZM341.2,7.108H345.6a1.466,1.466,0,0,1,.047-.2l.227-1.289h-4.406c-.1.539-.187,1.056-.262,1.485Zm.318-1.8h4.406l.262-1.485h-4.416c-.081.467-.171.968-.249,1.485Zm.632-3.276a.21.21,0,0,0-.075.1c-.044.184-.134.7-.252,1.373h4.416l.258-1.473h-4.35Z" transform="translate(-232.71 -0.33)" fill="#fff"/>
          </g>
        </g>
      </g>
    </g>
  </g>
</svg>
