<?xml version="1.0" encoding="UTF-8"?><svg id="_レイヤー_2" xmlns="http://www.w3.org/2000/svg" viewBox="0 0 111.37 37.35"><defs><style>.cls-1{fill:#3f0030;}</style></defs><g id="_レイヤー_1-2"><g><g><path class="cls-1" d="M42.89,34.38c-.96-.48-1.87-1.04-2.73-1.68-.86-.64-1.65-1.37-2.37-2.19-.04-.04-.1-.06-.18-.08-.08,0-.14,.03-.18,.1-.16,.22-.28,.5-.35,.83-.07,.33-.1,.63-.1,.88,0,.3,.06,.63,.2,.98,.13,.35,.33,.67,.6,.96,.27,.29,.6,.54,1.01,.74,.4,.2,.87,.3,1.41,.3,.26,0,.63-.05,1.12-.15,.49-.1,1.02-.33,1.58-.69Zm6.31-7.52c.49-.89,1.04-1.93,1.63-3.12,.6-1.19,1.3-2.62,2.1-4.3-2.16,0-3.93,.24-5.29,.72-1.37,.48-2.44,1.05-3.23,1.69-.78,.65-1.32,1.31-1.62,1.98-.3,.67-.88,1.05-1.14,.92-.26-.13-.44-.44-.29-.78,.15-.34,.4-.71,.75-1.12,.35-.41,.82-.83,1.41-1.26,.59-.43,1.32-.83,2.21-1.19,.88-.36,1.92-.65,3.13-.89,1.21-.23,2.6-.34,4.19-.34,.3-.64,.59-1.21,.87-1.7,.28-.49,.6-.93,.98-1.32,.37-.39,.95-.94,1.29-1.04,.37-.1,.18,.58-.1,1.04-.28,.45-.55,.94-.82,1.48s-.56,1.09-.85,1.65c1.26,.08,2.43,.28,3.52,.58,1.09,.31,2.04,.75,2.85,1.32,.81,.57,1.44,1.27,1.9,2.11,.46,.84,.69,1.85,.69,3.03s-.24,2.26-.72,3.42c-.48,1.16-1.23,2.21-2.23,3.15-1.01,.94-2.3,1.71-3.87,2.31-1.57,.6-3.46,.9-5.66,.9-.36,0-.82-.02-1.4-.04-.57-.03-1.2-.1-1.88-.23-.68-.12-1.4-.28-2.16-.5-.76-.21-1.51-.49-2.25-.85-.46,.28-1.04,.58-1.73,.9s-1.5,.48-2.42,.48c-1.8,0-2.7-.81-2.7-2.43,0-.32,.03-.67,.1-1.05,.07-.38,.17-.77,.3-1.16,.13-.39,.28-.77,.45-1.15s.35-.73,.56-1.05c.08-.12,.23-.2,.45-.24,.72,.9,1.54,1.79,2.47,2.65,.93,.87,2,1.63,3.2,2.27,.46-.34,.9-.73,1.33-1.17,.43-.44,.81-.89,1.15-1.35,.5-.64,.97-1.3,1.41-1.98l.88,.36c-.32,.44-.65,.85-.99,1.23-.49,.56-1.02,1.08-1.58,1.56s-1.2,.98-1.92,1.5c.96,.5,2.04,.95,3.25,1.33,1.21,.39,2.57,.58,4.07,.58,1.18,0,2.37-.18,3.57-.55s2.28-.95,3.25-1.74c.97-.79,1.76-1.8,2.37-3.03,.61-1.23,.92-2.72,.92-4.46,0-.66-.1-1.35-.3-2.08-.2-.73-.57-1.4-1.11-2.02-.54-.62-1.29-1.15-2.25-1.58-.96-.43-2.2-.69-3.72-.77-.76,1.52-1.44,2.86-2.04,4.01-.6,1.15-1.15,2.17-1.65,3.06l-1.36,.24Z"/><path class="cls-1" d="M72.93,31.86c-.46,.56-.97,1.12-1.52,1.69-.55,.57-1.1,1.08-1.67,1.54-.56,.46-1.12,.83-1.67,1.11-.55,.28-1.06,.42-1.51,.42-.4,0-.68-.1-.84-.3-.16-.2-.24-.45-.24-.75,0-.28,.08-.65,.25-1.12,.17-.47,.42-.98,.77-1.51-.26,.34-.56,.7-.9,1.08-.34,.38-.69,.73-1.05,1.04-.36,.31-.72,.57-1.08,.78-.36,.21-.68,.31-.96,.31-.42,0-.63-.21-.63-.63,0-.46,.18-1.04,.54-1.74,.36-.7,.84-1.38,1.46-2.02,.61-.65,1.3-1.21,2.08-1.68,.78-.47,1.59-.71,2.43-.71,.1-.2,.19-.34,.27-.42,.08-.08,.16-.14,.24-.18l.84-.24,.06,.03c-.1,.1-.19,.23-.29,.38-.09,.15-.19,.31-.28,.47,.1,0,.25,.01,.45,.03,.2,.02,.35,.04,.45,.06,.1,.04,.15,.09,.15,.15s-.03,.09-.09,.09c-.12-.04-.3-.07-.54-.09-.24-.02-.42-.03-.54-.03-.92,1.62-1.6,2.91-2.02,3.85-.43,.95-.65,1.66-.65,2.11,0,.18,.04,.33,.13,.45,.09,.12,.27,.18,.56,.18,.32,0,.7-.12,1.14-.35,.44-.23,.91-.55,1.41-.96,.5-.41,1.02-.89,1.55-1.43,.53-.54,1.03-1.11,1.51-1.71,.04-.06,.08-.07,.12-.04,.04,.03,.06,.08,.06,.14Zm-4.68-2.28c-.68,0-1.33,.24-1.95,.72-.62,.48-1.17,1.05-1.65,1.69-.48,.65-.87,1.3-1.15,1.94-.29,.64-.44,1.11-.44,1.41,0,.16,.06,.24,.18,.24s.3-.08,.55-.24,.54-.38,.85-.65c.32-.27,.65-.58,.98-.95,.33-.36,.63-.75,.92-1.17,.32-.48,.63-.99,.93-1.53,.3-.54,.57-1.02,.81-1.44l-.03-.03Z"/><path class="cls-1" d="M78.12,32.04c-.48,.62-1.03,1.21-1.65,1.77-.62,.56-1.19,1.01-1.71,1.35-.4,.26-.81,.46-1.23,.6-.42,.14-.8,.21-1.14,.21-.12,0-.26,0-.42-.03s-.31-.07-.43-.15c-.13-.08-.24-.18-.33-.31-.09-.13-.14-.3-.14-.52,0-.26,.1-.61,.3-1.06,.2-.45,.44-.92,.7-1.4,.27-.48,.54-.94,.81-1.38s.48-.77,.65-.99c.1-.16,.27-.29,.53-.4,.25-.11,.41-.17,.49-.17,.1,0,.15,.03,.15,.09,0,.04-.01,.1-.04,.18-.03,.08-.06,.14-.1,.18-.26,.4-.52,.84-.79,1.32-.27,.48-.52,.94-.73,1.4-.22,.45-.4,.87-.52,1.25-.13,.38-.2,.68-.2,.9,0,.24,.06,.42,.2,.52,.13,.11,.3,.17,.52,.17,.4,0,.84-.14,1.32-.41s.96-.59,1.43-.97c.47-.38,.9-.78,1.3-1.2,.4-.42,.71-.78,.93-1.08,.1-.1,.15-.12,.17-.07,0,.05,0,.12-.04,.22Zm-1.35-6.69c0,.24-.1,.48-.31,.72-.21,.24-.45,.36-.71,.36-.24,0-.36-.12-.36-.36,0-.26,.09-.51,.28-.75,.19-.24,.42-.36,.71-.36,.26,0,.39,.13,.39,.39Z"/><path class="cls-1" d="M80.91,30.48c-.06,.1-.11,.11-.15,.03-.12-.26-.37-.39-.75-.39-.28,0-.56,.08-.84,.24s-.42,.4-.42,.72c0,.16,.05,.32,.15,.48,.1,.16,.24,.37,.42,.63,.16,.24,.31,.48,.45,.72,.14,.24,.21,.49,.21,.75,0,.52-.12,.94-.36,1.27s-.52,.6-.85,.79c-.33,.2-.67,.33-1,.41-.34,.07-.61,.1-.81,.1-1.22,0-1.89-.41-2.01-1.23,.1-.06,.21-.14,.35-.23,.13-.09,.23-.17,.29-.25,.04,0,.07,.04,.09,.12,.1,.36,.29,.67,.57,.93,.28,.26,.61,.39,.99,.39,.16,0,.35-.02,.57-.04,.22-.03,.42-.1,.62-.21,.19-.11,.35-.27,.49-.47,.14-.2,.21-.47,.21-.81,0-.26-.05-.5-.15-.72-.1-.22-.21-.42-.33-.6-.12-.2-.24-.4-.36-.6-.12-.2-.18-.42-.18-.66s.08-.5,.25-.78c.17-.28,.38-.53,.65-.76,.26-.23,.54-.42,.85-.59,.31-.16,.61-.24,.92-.24,.32,0,.48,.1,.48,.3-.06,.1-.12,.22-.18,.35-.06,.13-.11,.25-.15,.34Z"/><path class="cls-1" d="M91.14,32.37c-.34,.48-.74,.99-1.2,1.52-.46,.53-.94,1.02-1.44,1.46s-1.01,.8-1.53,1.09c-.52,.29-1.01,.44-1.47,.44-.34,0-.6-.09-.79-.27-.19-.18-.28-.46-.28-.84,0-.18,.02-.38,.07-.62,.05-.23,.14-.48,.25-.76-.12,.14-.25,.31-.4,.49-.15,.19-.32,.37-.51,.54-.19,.17-.4,.31-.63,.42s-.48,.16-.76,.16c-.22,0-.4-.06-.54-.19-.14-.13-.21-.33-.21-.61,0-.16,.03-.36,.1-.6,.07-.24,.2-.56,.39-.98,.19-.41,.45-.92,.78-1.53s.75-1.37,1.27-2.27c.1-.2,.19-.3,.27-.3,.14,0,.29,.09,.44,.26s.23,.28,.23,.34-.06,.18-.18,.36c-.32,.48-.62,.96-.9,1.44-.28,.48-.52,.93-.73,1.35-.21,.42-.38,.8-.51,1.12-.13,.33-.19,.58-.19,.77,0,.3,.11,.45,.33,.45,.2,0,.47-.15,.82-.47,.35-.31,.77-.83,1.25-1.57,.18-.32,.36-.65,.56-1,.19-.35,.38-.69,.55-1.01,.18-.32,.35-.61,.51-.88,.16-.27,.28-.48,.36-.62,.1-.14,.18-.21,.24-.21,.08,0,.17,.09,.27,.25,.1,.17,.15,.38,.15,.62,0,.16-.04,.31-.12,.45-.24,.36-.5,.72-.77,1.06-.27,.35-.52,.72-.75,1.09-.23,.38-.43,.78-.58,1.2-.16,.42-.24,.88-.24,1.38,0,.44,.21,.66,.63,.66,.28,0,.61-.1,1-.31s.81-.5,1.27-.89c.46-.38,.93-.84,1.43-1.38,.49-.54,.95-1.13,1.4-1.77,.12-.04,.18,.01,.18,.15Z"/><path class="cls-1" d="M106.08,18.09c0,.22-.06,.44-.17,.66-.11,.22-.19,.47-.22,.75,0,.1-.04,.16-.11,.17-.07,.01-.1-.03-.1-.13,0-.06,.01-.11,.03-.17,.02-.05,.03-.1,.03-.17,0-.24-.06-.45-.18-.63-.12-.18-.28-.32-.47-.44-.19-.11-.4-.19-.61-.24-.22-.05-.43-.07-.63-.07-.46,0-1.04,.12-1.73,.36-.69,.24-1.44,.77-2.23,1.59-.74,.76-1.47,1.64-2.18,2.62-.71,.99-1.39,2.01-2.02,3.05-.4,.66-.85,1.42-1.35,2.26-.5,.85-.98,1.68-1.44,2.49-.46,.81-.87,1.53-1.23,2.16-.36,.63-.59,1.06-.69,1.28-.08,.16-.11,.24-.09,.24,.04,0,.12-.06,.24-.18,.34-.34,.69-.67,1.05-.99,.36-.32,.75-.67,1.17-1.05-.02-.08-.03-.21-.03-.39,0-.16,.12-.31,.38-.46,.25-.15,.44-.25,.58-.29,.04,0,.06,.04,.06,.12,0,.06,0,.11,.03,.15,.1-.08,.33-.27,.69-.58,.36-.31,.75-.63,1.17-.96s.8-.63,1.15-.9c.35-.27,.56-.41,.65-.41,.06,0,.11,.03,.17,.08,.05,.05,.1,.15,.17,.31,0,.12-.1,.21-.3,.27-.24,.08-.53,.22-.87,.42-.34,.2-.69,.43-1.04,.69-.35,.26-.69,.52-1.02,.78-.33,.26-.6,.48-.79,.66,.02,.26,.06,.55,.12,.87,.06,.32,.13,.64,.21,.96,.08,.32,.17,.64,.29,.94,.11,.31,.22,.58,.34,.83,.1,.22,.24,.38,.44,.48,.19,.1,.38,.15,.58,.15,.3,0,.63-.12,1-.36,.37-.24,.75-.54,1.12-.92,.38-.37,.75-.77,1.1-1.2,.35-.43,.65-.83,.92-1.21,.06-.1,.12-.12,.19-.06,.07,.06,.08,.12,.02,.18-.3,.4-.62,.8-.96,1.2-.34,.4-.69,.78-1.04,1.14-.35,.36-.69,.68-1.03,.96-.34,.28-.65,.5-.93,.66-.48,.24-.89,.36-1.23,.36-.26,0-.49-.06-.69-.18-.2-.12-.38-.33-.52-.65-.15-.31-.29-.74-.42-1.28-.13-.54-.27-1.23-.44-2.07-.64,.62-1.28,1.26-1.92,1.92-.64,.66-1.18,1.38-1.62,2.16-.04,.1-.12,.15-.24,.15-.14,0-.25-.09-.33-.25-.08-.17-.12-.32-.12-.46v-.12s.01-.08,.03-.12c.2-.28,.41-.62,.63-1.04,.22-.41,.5-.91,.83-1.5,.33-.59,.73-1.29,1.21-2.11,.48-.82,1.07-1.79,1.77-2.91,.32-.52,.69-1.08,1.1-1.69,.41-.61,.84-1.23,1.29-1.86,.45-.63,.91-1.25,1.38-1.86,.47-.61,.92-1.16,1.36-1.67,.32-.36,.67-.72,1.04-1.09,.37-.37,.75-.71,1.15-1.02s.81-.58,1.25-.83c.43-.24,.86-.41,1.31-.51,.2-.04,.39-.08,.58-.12,.19-.04,.38-.06,.55-.06,.16,0,.33,.03,.53,.08,.19,.05,.36,.12,.52,.21,.16,.09,.29,.21,.4,.34,.11,.14,.17,.31,.17,.51Zm5.29,17.56c0,.31-.09,.61-.26,.9s-.36,.52-.56,.72c-.1,.1-.16,.11-.18,.04-.02-.07,0-.13,.06-.19,.1-.1,.2-.22,.29-.35,.1-.14,.15-.28,.15-.44,0-.27-.15-.48-.46-.63-.3-.15-.8-.22-1.48-.22-.47,0-.99,.04-1.57,.12-.58,.08-1.18,.17-1.81,.28-.63,.11-1.27,.2-1.92,.28-.66,.08-1.3,.12-1.93,.12-1.12,0-1.9-.16-2.35-.47-.45-.31-.68-.79-.68-1.44,0-.53,.15-1.08,.46-1.65,.3-.57,.68-1.09,1.12-1.56s.92-.86,1.44-1.16c.52-.3,.99-.46,1.43-.46,.18,0,.32,.04,.44,.12,.12,.08,.18,.2,.18,.35,0,.47-.32,.96-.97,1.47-.65,.51-1.47,.93-2.47,1.26-.18,.06-.3,.2-.38,.41-.04,.08-.09,.25-.16,.5-.07,.25-.1,.49-.1,.71,0,.33,.1,.64,.29,.91,.2,.27,.45,.47,.76,.59,.41,.12,.89,.18,1.44,.18,.76,0,1.49-.07,2.19-.21s1.37-.29,2.01-.47c.65-.18,1.26-.33,1.85-.47,.59-.14,1.16-.21,1.7-.21,.45,0,.81,.08,1.07,.25,.26,.17,.4,.41,.4,.72Zm-8.61-5.47c0-.18-.07-.26-.21-.26-.2,0-.43,.11-.69,.34-.26,.23-.51,.48-.75,.76-.23,.28-.43,.56-.59,.82-.16,.26-.24,.45-.24,.54,0,.04,.02,.06,.06,.06,.18,0,.4-.07,.68-.21,.27-.14,.54-.31,.79-.53,.25-.22,.47-.46,.66-.73,.19-.27,.28-.54,.28-.79Z"/></g><g><path class="cls-1" d="M0,22.04c.1-.19,.19-.36,.27-.51,.08-.15,.16-.25,.24-.33,.51-.02,1.05-.05,1.63-.09,.58-.04,1.08-.08,1.49-.13,1.21-.12,2.44-.5,3.68-1.12,1.25-.63,2.29-1.51,3.14-2.65-.41-.56-.77-1.05-1.09-1.47-.31-.42-.57-.83-.78-1.22-.21-.39-.36-.79-.47-1.2-.11-.41-.16-.88-.16-1.41,0-.8,.21-1.73,.63-2.81,.42-1.08,1.09-2.12,2.01-3.12,.92-1,2.12-1.87,3.61-2.61,1.49-.74,3.29-1.15,5.42-1.25l.76-1.49c.12-.24,.25-.61,.56-.63,.29-.02,.31,.41,.24,.53l-.83,1.49c1.06-.02,2.05,0,2.96,.09,.91,.08,1.7,.27,2.39,.56,.69,.29,1.23,.71,1.61,1.27,.39,.56,.58,1.29,.58,2.21,0,.77-.21,1.53-.63,2.27-.42,.74-1,1.39-1.74,1.96-.74,.57-1.6,1.03-2.59,1.38-.99,.35-2.06,.53-3.19,.53-.1,0-.22,0-.36-.02-.15-.01-.24-.02-.29-.02,1.26,3.26,2.58,5.93,3.97,7.98,1.39,2.06,2.76,3.66,4.12,4.82,1.35,1.16,2.65,1.95,3.88,2.36,1.23,.41,2.32,.62,3.26,.62,.85,0,1.84-.16,2.99-.47,1.15-.31,2.33-.97,3.54-1.96,.09-.05,.2,.03,.22,.14,.01,.11,0,.21-.07,.26-.77,.58-1.77,1.12-2.97,1.61-1.21,.5-2.58,.74-4.1,.74-2.15,0-4.08-.37-5.77-1.11-1.69-.74-3.2-1.8-4.53-3.19-1.33-1.39-2.51-3.1-3.54-5.11-1.03-2.02-1.94-4.3-2.74-6.84-.05-.15-.07-.27-.07-.36,0-.12,.06-.18,.18-.18h.58c.15,0,.29,0,.44,.02,.15,.01,.25,.02,.33,.02,.07,.1,.13,.22,.18,.36,.12,.02,.3,.04,.54,.04,.85,0,1.65-.13,2.41-.4,.76-.27,1.44-.64,2.03-1.12,.59-.48,1.06-1.07,1.41-1.76,.35-.69,.53-1.47,.53-2.34,0-.41-.07-.85-.2-1.31-.13-.46-.41-.88-.83-1.27-.42-.39-1.01-.71-1.76-.96-.75-.25-1.74-.38-2.97-.38-1.11,2.03-2.14,3.88-3.08,5.55-.94,1.67-1.75,3.05-2.43,4.13-.68,1.09-1.28,1.98-1.8,2.67-.52,.69-1.02,1.32-1.51,1.9,.27,.36,.5,.76,.69,1.18,.19,.42,.29,.84,.29,1.25,0,.22-.07,.51-.2,.89-.13,.38-.34,.74-.63,1.09s-.67,.65-1.12,.91c-.46,.25-1.02,.38-1.67,.38-.29,0-.85-.01-1.67-.04-.82-.02-1.69-.06-2.61-.11-.92-.05-1.78-.08-2.59-.11-.81-.02-1.37-.04-1.69-.04l-.11-.07Zm11.72-2.43c0-.34-.1-.68-.31-1.03-.21-.35-.44-.71-.71-1.07-.56,.6-1.09,1.12-1.6,1.54-.51,.42-1.03,.79-1.56,1.09-.53,.3-1.07,.54-1.61,.73-.54,.18-1.13,.33-1.76,.45,.34,.05,.86,.11,1.58,.18,.71,.07,1.69,.11,2.92,.11,.82,0,1.54-.13,2.14-.38,.6-.25,.91-.79,.91-1.61ZM19.48,2.45c-1.62,.07-3.09,.38-4.41,.91-1.32,.53-2.44,1.2-3.37,2-.93,.8-1.65,1.69-2.16,2.67-.51,.98-.76,1.94-.76,2.88,0,.58,.08,1.14,.25,1.67,.17,.53,.37,1.03,.62,1.49s.5,.88,.76,1.27,.51,.74,.73,1.05c.48-.6,.98-1.29,1.49-2.07s1-1.57,1.49-2.39c.77-1.31,1.61-2.76,2.52-4.35s1.86-3.3,2.85-5.11Z"/><path class="cls-1" d="M35.96,17.54c-.58,.75-1.25,1.46-2,2.14-.75,.68-1.44,1.22-2.07,1.63-.48,.31-.98,.56-1.49,.73-.51,.17-.97,.25-1.38,.25-.15,0-.31-.01-.51-.04-.19-.02-.37-.08-.53-.18-.16-.1-.29-.22-.4-.38-.11-.16-.16-.37-.16-.63,0-.31,.12-.74,.36-1.29,.24-.54,.53-1.11,.85-1.69,.33-.58,.65-1.14,.98-1.67,.33-.53,.59-.93,.78-1.2,.12-.19,.33-.36,.63-.49,.3-.13,.5-.2,.6-.2,.12,0,.18,.04,.18,.11,0,.05-.02,.12-.05,.22-.04,.1-.08,.17-.13,.22-.31,.48-.63,1.02-.96,1.6-.33,.58-.62,1.14-.89,1.69-.27,.54-.48,1.05-.63,1.51-.16,.46-.24,.82-.24,1.09,0,.29,.08,.5,.24,.63,.16,.13,.37,.2,.63,.2,.48,0,1.02-.16,1.6-.49,.58-.33,1.15-.72,1.72-1.18,.57-.46,1.09-.94,1.58-1.45,.48-.51,.86-.94,1.12-1.31,.12-.12,.19-.15,.2-.09,.01,.06,0,.15-.05,.27Zm-1.63-8.09c0,.29-.13,.58-.38,.87s-.54,.44-.85,.44c-.29,0-.44-.15-.44-.44,0-.31,.11-.62,.34-.91,.23-.29,.51-.44,.85-.44,.31,0,.47,.16,.47,.47Z"/><path class="cls-1" d="M43.25,17.97c-.41,.51-.9,1.03-1.47,1.58-.57,.54-1.19,1.04-1.85,1.49-.67,.45-1.35,.81-2.07,1.09-.71,.28-1.42,.42-2.12,.42-1.14,0-1.7-.51-1.7-1.52,0-.68,.17-1.41,.53-2.19,.35-.79,.8-1.51,1.36-2.18,.56-.66,1.17-1.22,1.83-1.67,.67-.45,1.3-.67,1.9-.67,.34,0,.57,.06,.71,.18,.13,.12,.2,.28,.2,.47,0,.29-.09,.6-.27,.94-.18,.34-.45,.66-.82,.96-.36,.3-.82,.56-1.38,.76-.56,.21-1.22,.31-2,.31-.12,.22-.25,.56-.4,1.03-.15,.47-.22,.95-.22,1.43,0,.99,.45,1.49,1.34,1.49,.56,0,1.13-.13,1.72-.4,.59-.27,1.17-.6,1.72-1,.56-.4,1.07-.83,1.54-1.31,.47-.47,.86-.91,1.18-1.32,.05-.05,.1-.06,.16-.04,.06,.02,.09,.07,.09,.15Zm-3.81-2.83c0-.31-.16-.47-.47-.47-.24,0-.49,.09-.74,.27-.25,.18-.5,.42-.74,.71-.24,.29-.47,.6-.69,.94-.22,.34-.4,.67-.54,.98,.05,.02,.13,.04,.25,.05,.12,.01,.22,.02,.29,.02,.7,0,1.32-.25,1.85-.74,.53-.5,.8-1.08,.8-1.76Z"/></g><g><polygon class="cls-1" points="44.71 28.36 45.91 28.36 45.29 27.07 44.71 28.36"/><path class="cls-1" d="M53.8,29.39c-.18,.07-.38,.1-.63,.1h-1.48v-.07c.07,0,.11-.01,.13-.03,.02-.02,.03-.07,.03-.14v-2.21c0-.07,0-.12-.03-.14-.02-.02-.06-.03-.13-.03v-.07h1.48c.24,0,.45,.03,.63,.1,.15,.06,.26,.15,.36,.24v-.78h-10.02v2.49l.79-1.8s.03-.08,.03-.1-.01-.04-.03-.06c-.02-.02-.06-.03-.12-.03v-.06h.99v.07s-.06,0-.09,.02c-.03,.01-.05,.03-.05,.06,0,.02,0,.04,.02,.06s.02,.04,.03,.06l1.05,2.23s.03,.06,.06,.08c.02,.03,.07,.04,.13,.04v.07h-.77v-.07c.07,0,.12,0,.15-.02,.02-.01,.04-.03,.04-.06,0-.03,0-.05-.01-.07l-.02-.06-.25-.52h-1.49l-.21,.47s-.03,.07-.05,.1c-.02,.03-.03,.06-.03,.08,0,.02,.01,.04,.04,.06,.02,.01,.07,.02,.13,.02v.07h-.31v.42h10.02v-.77c-.1,.09-.22,.18-.36,.24Zm-3.21-2.52c-.07,0-.11,.01-.13,.03s-.03,.07-.03,.14v2.21c0,.07,.01,.12,.03,.14s.07,.03,.13,.03v.07h-.82v-.07c.08,0,.13,0,.15-.01,.02,0,.02-.02,.02-.04s0-.04-.02-.05c-.01-.01-.03-.03-.05-.06l-1.74-1.98v1.98c0,.07,.01,.12,.03,.14s.07,.03,.13,.03v.07h-.67v-.07c.07,0,.11-.01,.13-.03s.03-.07,.03-.14v-2.21c0-.07-.01-.12-.03-.14s-.07-.03-.13-.03v-.07h.9v.07c-.07,0-.11,0-.13,.02s-.03,.02-.03,.04c0,.01,.02,.05,.07,.1l1.66,1.91v-1.9c0-.07-.01-.12-.03-.14s-.07-.03-.13-.03v-.07h.67v.07Z"/><path class="cls-1" d="M53.58,27.22c-.13-.05-.3-.08-.49-.08h-.88v2.01h.88c.19,0,.35-.03,.49-.08,.13-.05,.24-.13,.33-.22,.08-.09,.15-.2,.18-.32,.04-.12,.06-.25,.06-.39s-.02-.27-.06-.39c-.04-.12-.1-.23-.18-.32-.08-.09-.19-.16-.33-.22Z"/></g></g></g></svg>