<?xml version="1.0" encoding="UTF-8"?><svg id="_イヤー_2" xmlns="http://www.w3.org/2000/svg" xmlns:xlink="http://www.w3.org/1999/xlink" viewBox="0 0 100 120"><defs><style>.cls-1,.cls-2{fill:none;}.cls-3{clip-path:url(#clippath);}.cls-4{fill:url(#_規パターンスウォッチ_1);}.cls-5{fill:#f480c3;}.cls-6{fill:#fff;}.cls-7{fill:#ffe159;}.cls-8{fill:#2e2e2e;}.cls-2{stroke:#ffe159;stroke-miterlimit:10;stroke-width:5px;}</style><clipPath id="clippath"><rect class="cls-1" width="100" height="120"/></clipPath><pattern id="_規パターンスウォッチ_1" x="0" y="0" width="25" height="25" patternTransform="translate(-5042.45 -8675.47) rotate(-45) scale(.21)" patternUnits="userSpaceOnUse" viewBox="0 0 25 25"><g><rect class="cls-1" width="25" height="25"/><rect class="cls-6" x="24.29" y="24.29" width="26.43" height="26.43"/><rect class="cls-6" x="-.71" y="24.29" width="26.43" height="26.43"/><rect class="cls-6" x="-25.71" y="24.29" width="26.43" height="26.43"/><g><rect class="cls-6" x="24.29" y="-.71" width="26.43" height="26.43"/><line class="cls-2" x1="23.61" y1="12.5" x2="51.39" y2="12.5"/></g><g><rect class="cls-6" x="-.71" y="-.71" width="26.43" height="26.43"/><line class="cls-2" x1="-1.39" y1="12.5" x2="26.39" y2="12.5"/></g><g><rect class="cls-6" x="-25.71" y="-.71" width="26.43" height="26.43"/><line class="cls-2" x1="-26.39" y1="12.5" x2="1.39" y2="12.5"/></g><rect class="cls-6" x="24.29" y="-25.71" width="26.43" height="26.43"/><rect class="cls-6" x="-.71" y="-25.71" width="26.43" height="26.43"/><rect class="cls-6" x="-25.71" y="-25.71" width="26.43" height="26.43"/></g></pattern></defs><g id="_イヤー_1-2"><g><rect class="cls-5" width="100" height="120"/><g class="cls-3"><path class="cls-7" d="M65.35,47.8v-.02c.01,.1,.02,.11,0,.02Z"/><path class="cls-7" d="M33.24,16.64h0Z"/><path class="cls-7" d="M33.26,16.63s0,0,.02,0c.01-.02,.02-.03,.03-.05-.01,.02-.03,.03-.05,.06Z"/><path class="cls-7" d="M33.23,16.65h0Z"/><path class="cls-4" d="M70.75,86.08l-.8,.39c-5.07,2.45-10.15,4.89-15.22,7.34,1.09,2.84,2.18,5.67,3.27,8.51,.22-.11,.43-.22,.65-.33,5.15-2.61,10.29-5.22,15.44-7.82,0,0,.01,0,.02,0-1.12-2.69-2.24-5.38-3.36-8.08Z"/><path class="cls-4" d="M47.82,93.24c-5.28-2.37-10.56-4.74-15.84-7.11-.59,2.26-1.18,4.52-1.76,6.78-.15,.59-.3,1.19-.44,1.79,.41,.19,.82,.37,1.22,.56,5.15,2.36,10.3,4.71,15.45,7.07,.9-2.83,1.8-5.67,2.7-8.5-.44-.2-.88-.4-1.33-.6Z"/><path class="cls-6" d="M51.87,91.79s.05,.03,.08,.05c.03-.01,.05-.03,.07-.05,.77-.37,1.55-.75,2.33-1.12,4.27-2.06,8.53-4.12,12.8-6.17-.21-1.73-.37-3.47-.5-5.21-.94,1.09-1.99,2.07-3.21,2.88-2.52,1.67-5.53,2.63-8.5,3.05-5.08,.72-10.63-.27-15.11-2.82-1.64-.94-3.07-2.12-4.32-3.46-.05,1.78-.19,3.56-.46,5.32,5.61,2.52,11.21,5.03,16.82,7.55Z"/><path class="cls-6" d="M46.3,81.73c.18,.04,.35,.08,.53,.12v-2.28c0-.84,.69-1.46,1.5-1.5,.37-.02,.8,.18,1.06,.44s.44,.68,.44,1.06v2.75c.26,.02,.51,.04,.77,.05v-2.8c0-.84,.69-1.46,1.5-1.5,.37-.02,.8,.18,1.06,.44,.27,.27,.44,.68,.44,1.06v2.75c.26-.02,.52-.05,.77-.08v-2.68c0-.84,.69-1.46,1.5-1.5,.37-.02,.8,.18,1.06,.44,.27,.27,.44,.68,.44,1.06v2.05c3.12-.92,5.93-2.68,7.93-5.45,2.11-2.92,4.28-6.59,4.89-10.18,.27-1.55,.42-3.58,.6-5.32,.06-.61,.41-1.34,1.1-1.45,2.64-.4,5.31-1.35,6.33-4.01,.58-1.52,.94-3.39,.45-4.98-.2-.66-.59-1.33-1.26-1.62-.43-.19-.76-.13-1.18,.01-.17,.06-.49,.34-.25,.13-.25,.22-.53,.33-.8,.36-.49,1.01-2.36,1.19-2.86-.23-.29-.81-.57-1.62-.86-2.44l-.23,.06c-1,.25-2,.5-3,.75,.02,.13,.03,.26,.05,.39,.03,.12,.05,.26,.05,.4-.06,3.28-2.93,5.63-6.01,6.11-2.95,.45-6.13-.45-7.95-2.92-.53-.72-.83-1.54-.95-2.37h-3.31c-.51,2.91-3.31,4.85-6.15,5.28-2.89,.43-6.23-.31-8.12-2.69-1.07-1.34-1.41-2.96-1.1-4.49-.94-.27-1.88-.55-2.83-.82-.23-.07-.42-.18-.58-.32-.18,.47-.39,.93-.62,1.38-.36,.67-.98,.84-1.54,.7-.28,.05-.59,.02-.9-.12-.17-.06-.34-.12-.51-.17-.44-.13-.89-.21-1.35-.16-1.6,.18-2.32,2.04-2.56,3.43-.32,1.81,.38,4.13,1.45,5.61,1.05,1.43,3.27,1.69,4.79,2.51,1.49,.8,1.52,3.03,1.87,4.53,.53,2.27,1,4.58,1.79,6.78,2.11,5.86,6.51,9.89,12.54,11.4Zm5.67-24.01c1.93,0,1.93,3,0,3s-1.93-3,0-3Zm-6.18,9.18c.57-.57,1.56-.58,2.12,0,.16,.16,.33,.3,.49,.45,0,0,0,0,0,0,.01,0,0,0,.03,.02,.09,.06,.17,.11,.25,.17,.17,.11,.35,.21,.53,.3,.09,.05,.19,.09,.28,.13-.28-.14-.03-.01,.04,.01,.4,.14,.8,.25,1.21,.33,.05,.01,.09,.02,.12,.02,.08,0,.16,.02,.24,.02,.21,.02,.42,.03,.64,.03,.24,0,.47-.02,.7-.03h.04c.11-.02,.21-.04,.32-.06,.4-.08,.79-.2,1.16-.35,.07-.04,.34-.16,.41-.2,.19-.1,.37-.22,.55-.34,.02-.01,.1-.08,.16-.12,.05-.05,.16-.14,.15-.13,.17-.15,.32-.31,.47-.47,.55-.6,1.57-.56,2.12,0,.59,.59,.55,1.52,0,2.12-3.06,3.34-8.88,3.45-12.05,.2-.57-.58-.58-1.54,0-2.12Z"/><path class="cls-6" d="M56.35,48.26c0,.05,.03,.22,.04,.26,.03,.12,.06,.23,.1,.35,.01,.04,.06,.14,.07,.18,.03,.06,.06,.13,.1,.19,.04,.07,.32,.48,.18,.3,.14,.18,.3,.34,.47,.5,.58,.55,1.41,.93,2.31,1.13,.86,.19,1.92,.16,2.79-.08,.87-.24,1.6-.64,2.19-1.26,.03-.03,.17-.2,.22-.25,.03-.05,.09-.14,.1-.15,.06-.1,.12-.21,.18-.32,0-.01,.03-.06,.05-.09,.07-.18,.13-.38,.17-.57,0-.02,.01-.08,.02-.13,0-.08,.01-.28,.01-.26,0-.1,0-.19-.01-.29-.02-.08-.03-.17-.05-.25-.04-.14-.08-.28-.13-.41,0-.02,0-.02-.01-.03-.01-.02-.02-.04-.04-.07-.08-.12-.15-.25-.22-.38,0-.01-.04-.06-.06-.09-.15-.18-.31-.36-.49-.51-.62-.57-1.63-1-2.58-1.15-1-.15-1.99-.04-2.96,.31-.69,.24-1.37,.68-1.9,1.34-.02,.04-.15,.22-.15,.23-.05,.08-.09,.17-.14,.25-.02,.03-.03,.05-.04,.07-.04,.1-.08,.21-.11,.31-.03,.12-.06,.23-.09,.35,0,0,0,.03,0,.04,0,.17,0,.33,0,.49Zm4.72-2.69c1.93,0,1.93,3,0,3s-1.93-3,0-3Z"/><path class="cls-7" d="M56.35,47.78c0,.08-.01,.17,0,0h0Z"/><path class="cls-6" d="M37.68,47.43c-.03,.09-.05,.19-.07,.29,0,.01,0,.04-.01,.07-.01,.16,0,.33,0,.49,.01,.06,.03,.23,.04,.27,.02,.1,.05,.19,.08,.28l.02,.08s.01,.02,.02,.04c.04,.09,.09,.18,.14,.26,.15,.25,.16,.26,.26,.38,.14,.16,.29,.31,.45,.45,.61,.55,1.5,.93,2.44,1.13,.98,.21,2.07,.17,3.05-.09,.52-.14,.86-.27,1.3-.51,.46-.26,.65-.38,1.01-.75,.31-.32,.43-.45,.65-.94-.08,.18,.09-.31,.11-.41,0-.02,.02-.09,.03-.14,0-.08,.01-.29,.01-.27,0-.09,0-.19-.01-.28-.02-.09-.04-.19-.06-.28-.01-.04-.08-.24-.1-.3-.03-.05-.07-.14-.08-.16-.26-.45-.38-.61-.84-1.01-.18-.16-.22-.18-.5-.35-.21-.13-.5-.28-.67-.36-.43-.19-1.08-.36-1.58-.44-1.04-.16-2.12-.04-3.12,.29-.84,.28-1.55,.71-2.13,1.42-.02,.03-.03,.04-.03,.04,0,.01-.02,.03-.05,.09-.07,.11-.13,.21-.19,.32,0,.01-.04,.09-.07,.14-.02,.07-.1,.27-.09,.25Zm4.97-1.86c1.93,0,1.93,3,0,3s-1.93-3,0-3Z"/><path class="cls-7" d="M52.53,68.36s.03,0,0,0h0Z"/><path class="cls-6" d="M46.42,24.77c.1,.97-.64,2.02-1.81,1.61-2.27-.81-4.74-.69-6.86,.51-1.18,.67-2.19,1.62-2.97,2.73-.24,.35-.47,.72-.67,1.1-.11,.2-.21,.4-.31,.6-.03,.07-.06,.12-.08,.17-.11,.33-.18,.66-.25,1-.65,3.47-.57,7.25-1.35,10.76,.2-.03,.4-.02,.6,.04,.17,.05,.34,.1,.51,.15,.98,.29,1.97,.57,2.95,.86,.07-.07,.12-.15,.19-.21,2.23-2.13,5.7-2.71,8.62-1.9,2,.56,3.84,1.87,4.71,3.71h4.15c.3-.69,.72-1.33,1.28-1.88,2.12-2.05,5.46-2.66,8.25-1.82,1.43,.43,2.72,1.26,3.64,2.37,.12-.07,.24-.13,.36-.16l.43-.11c.89-.22,1.79-.45,2.68-.67l-.07-.2c-.7-1.98-1.52-3.96-2.08-5.98-.91-3.32-.33-6.96-2.48-9.86-3.22-4.35-9.65-4.63-14.13-2.25-.94,.5-1.82-.07-2.14-.82-.93,.47-2.01,.39-3.18,.28Zm-.76,15.02c-.08,.36-.38,.71-.69,.9-.3,.18-.82,.28-1.16,.15-.43-.17-.87-.28-1.32-.35-.66-.07-1.32-.06-1.98,.02-.38,.06-.75,.12-1.12,.21-.82,.19-1.59-.25-1.85-1.05-.24-.75,.28-1.67,1.05-1.85,1.95-.46,4.1-.62,6.01,.13,.38,.15,.67,.34,.9,.69,.22,.34,.24,.77,.15,1.16Zm11.29-1.16c.21-.36,.52-.54,.9-.69,1.91-.75,4.06-.59,6.01-.13,.82,.19,1.22,1.08,1.05,1.85-.18,.81-1.08,1.23-1.85,1.05-.37-.09-.74-.15-1.12-.21-.66-.07-1.32-.09-1.98-.02-.45,.08-.89,.19-1.32,.35-.78,.31-1.62-.34-1.85-1.05-.12-.36-.04-.83,.15-1.16Z"/><path class="cls-8" d="M76.37,21.61c-.2-.78-.29-.91-.87-1.68-.68-.9-1.53-1.71-2.41-2.41-2.04-1.62-4.43-2.79-6.79-3.85-2.31-1.04-4.69-1.92-6.96-3.04-1.7-.84-3.62-1.39-5.51-1.57-3.76-.35-7.55,.8-8.67,4.76-.52,1.86-3.42,1.06-2.89-.8,.29-1.03,.72-1.94,1.26-2.74-1.96,.95-3.49,2.72-4.92,4.31,.07,.02,.15,.04,.22,.06,1.87,.48,1.07,3.38-.8,2.89-1.47-.38-3.06-.93-4.59-.93-.07,0-.12,0-.16,0,0,.02-.02,.02-.04,.03-.04,.05-.08,.1-.09,.11-.04,.06-.08,.12-.13,.18-.51,.71-1.05,1.36-1.74,1.91-1.15,.93-2.64,1.42-3.63,2.52-1.94,2.16-1.79,5.48-1.5,8.18,.53,4.93,1.57,9.79,2.22,14.71,.02,.15,0,.29-.04,.42,.08,.02,.16,.03,.23,.06,.71-1.82,.93-3.91,1.15-5.79,.27-2.18,.43-4.38,.75-6.55,.3-2.03,1.22-3.75,2.52-5.34,2.96-3.64,7.98-5.16,12.43-3.58,.65,.23,.96,.75,1.01,1.29,1.16,.12,2.25,.19,3.18-.28-.26-.62-.14-1.36,.62-1.77,3.18-1.69,6.8-2.31,10.35-1.63,2.9,.55,5.65,2.09,7.48,4.43,.96,1.23,1.67,2.62,2.09,4.13,.55,1.99,.48,4.1,.89,6.11,.49,2.41,1.55,4.78,2.37,7.1,.25,.72,.51,1.44,.76,2.15,1.18-4.03,1.76-8.29,2.17-12.45,.35-3.48,.89-7.5,.04-10.94Zm-13.55-7.61c-.23,.83-1.05,1.19-1.85,1.05-.35-.06-.97-.11-1.56-.09-.67,.02-1.03,.07-1.6,.18-1.27,.26-2.4,.66-3.5,1.24-2.36,1.25-4.27,3.1-5.39,5.55-.34,.74-1.41,.92-2.05,.54-.75-.44-.87-1.32-.54-2.05,2.54-5.59,9.36-9.32,15.44-8.26,.8,.14,1.25,1.12,1.05,1.85Z"/><path class="cls-4" d="M98.95,109.52c-1.79-1.15-3.6-2.26-5.45-3.33-5.75-3.33-11.74-6.19-17.81-8.86-.22-.1-.39-.22-.51-.36l-1.78,.9c-5.15,2.61-10.29,5.22-15.44,7.82-.93,.47-1.84,.04-2.2-.9-1.27-3.3-2.54-6.59-3.8-9.89l-3.15,9.89c-.32,.99-1.31,1.31-2.2,.9-.81-.37-1.61-.74-2.42-1.11-5.3-2.42-10.59-4.84-15.89-7.27-.64,.36-1.42,.59-2.04,.84-4.08,1.7-8.33,2.98-12.44,4.64-2.39,.97-4.77,1.98-7.14,3.01-1.84,.81-3.7,1.58-5.37,2.7-3.98,2.66-6.04,6.96-7.17,11.48H105.82c-1.12-2.43-1.95-4.98-3.43-7.23-.92-1.4-2.05-2.34-3.45-3.25Z"/><path class="cls-8" d="M61.07,48.57c1.93,0,1.93-3,0-3s-1.93,3,0,3Z"/><path class="cls-8" d="M51.98,60.72c1.93,0,1.93-3,0-3s-1.93,3,0,3Z"/><path class="cls-8" d="M57.85,68.82c.55-.6,.59-1.53,0-2.12-.56-.56-1.57-.6-2.12,0-.15,.16-.3,.32-.47,.47,0,0-.1,.09-.15,.13-.05,.04-.14,.11-.16,.12-.18,.12-.36,.24-.55,.34-.07,.04-.34,.16-.41,.2-.38,.15-.77,.27-1.16,.35-.11,.02-.21,.04-.32,.06h-.04c-.23,.02-.47,.04-.7,.04-.21,0-.43,0-.64-.03-.08,0-.16-.02-.24-.02-.03,0-.07-.01-.12-.02-.41-.09-.81-.19-1.21-.33-.07-.02-.33-.15-.04-.01-.09-.05-.19-.09-.28-.13-.18-.09-.36-.19-.53-.3-.09-.05-.17-.11-.25-.17-.02-.01-.02,0-.03-.02,0,0,0,0,0,0-.16-.16-.33-.29-.49-.45-.57-.58-1.55-.57-2.12,0-.58,.58-.57,1.54,0,2.12,3.17,3.25,8.99,3.13,12.05-.2Zm-5.31-.46s.03,0,0,0h0Z"/><path class="cls-8" d="M42.65,48.57c1.93,0,1.93-3,0-3s-1.93,3,0,3Z"/><path class="cls-8" d="M33.24,16.65s.03,0,.04-.03c-.01,0-.01,0-.02,0l-.02,.02Z"/><path class="cls-8" d="M44.61,37.94c-1.91-.75-4.06-.59-6.01-.13-.76,.18-1.29,1.1-1.05,1.85,.26,.8,1.03,1.24,1.85,1.05,.37-.09,.74-.15,1.12-.21,.66-.07,1.32-.09,1.98-.02,.45,.08,.89,.19,1.32,.35,.34,.13,.85,.03,1.16-.15,.31-.18,.61-.54,.69-.9,.09-.38,.07-.82-.15-1.16-.22-.35-.51-.54-.9-.69Z"/><path class="cls-8" d="M58.64,40.83c.43-.17,.87-.28,1.32-.35,.66-.07,1.32-.06,1.98,.02,.38,.06,.75,.12,1.12,.21,.76,.18,1.66-.24,1.85-1.05,.17-.77-.23-1.65-1.05-1.85-1.95-.46-4.1-.62-6.01,.13-.38,.15-.69,.33-.9,.69-.19,.32-.27,.8-.15,1.16,.23,.71,1.06,1.36,1.85,1.05Z"/><path class="cls-8" d="M46.87,22.47c.64,.38,1.72,.2,2.05-.54,1.11-2.45,3.02-4.3,5.39-5.55,1.1-.58,2.23-.98,3.5-1.24,.57-.11,.93-.16,1.6-.18,.6-.02,1.21,.03,1.56,.09,.8,.14,1.62-.21,1.85-1.05,.2-.72-.25-1.7-1.05-1.85-6.07-1.07-12.89,2.67-15.44,8.26-.34,.74-.21,1.61,.54,2.05Z"/><path class="cls-8" d="M108.7,119.09c-1.32-2.7-2.18-5.62-3.9-8.12-2.19-3.19-5.73-4.99-8.99-6.9-5.85-3.44-11.95-6.37-18.15-9.12,0,0,0-.02,0-.02-1.56-3.76-3.13-7.52-4.69-11.28-.39-.94-1.25-1.36-2.2-.9l-.77,.37c-.27-2.5-.44-5.02-.58-7.53,0-.06-.02-.12-.03-.18,.08-.14,.17-.27,.24-.41,1.62-2.81,3.18-5.86,3.6-9.11,.17-1.32,.31-2.64,.45-3.97,1.45-.32,2.9-.84,4.14-1.6,2.14-1.31,3.29-3.57,3.8-5.98,.5-2.37,.46-5.13-1.16-7.09-.87-1.05-2.08-1.63-3.33-1.71,1.14-4.01,1.7-8.22,2.14-12.35,.42-3.97,.98-8.45,0-12.38-.52-2.09-2.17-3.85-3.78-5.19-2.2-1.84-4.72-3.2-7.32-4.39-2.51-1.14-5.07-2.14-7.56-3.32-2.06-.97-4.23-1.59-6.49-1.83-5.2-.56-10.35,1.59-11.85,6.94-.52,1.86,2.37,2.66,2.89,.8,1.11-3.96,4.91-5.11,8.67-4.76,1.89,.18,3.81,.73,5.51,1.57,2.27,1.12,4.65,2,6.96,3.04,2.36,1.06,4.75,2.24,6.79,3.85,.89,.7,1.73,1.5,2.41,2.41,.58,.77,.67,.9,.87,1.68,.86,3.45,.31,7.46-.04,10.94-.41,4.16-1,8.42-2.17,12.45-.25-.72-.51-1.44-.76-2.15-.82-2.32-1.88-4.68-2.37-7.1-.41-2.02-.34-4.12-.89-6.11-.42-1.5-1.12-2.9-2.09-4.13-1.83-2.34-4.58-3.88-7.48-4.43-3.55-.68-7.17-.06-10.35,1.63-1.71,.91-.19,3.5,1.51,2.59,4.48-2.38,10.9-2.1,14.13,2.25,2.15,2.9,1.57,6.55,2.48,9.86,.55,2.03,1.38,4,2.08,5.98l.07,.2c-.89,.22-1.79,.45-2.68,.67l-.43,.11c-.12,.03-.24,.09-.36,.16-.92-1.11-2.21-1.94-3.64-2.37-2.79-.84-6.13-.23-8.25,1.82-.56,.54-.98,1.19-1.28,1.88h-4.15c-.86-1.84-2.7-3.16-4.71-3.71-2.91-.81-6.38-.23-8.62,1.9-.07,.07-.12,.14-.19,.21-.98-.29-1.97-.57-2.95-.86-.17-.05-.34-.1-.51-.15-.19-.06-.4-.06-.6-.04,.77-3.51,.7-7.29,1.35-10.76,.06-.34,.14-.67,.25-1,.02-.05,.05-.1,.08-.17,.1-.2,.2-.4,.31-.6,.21-.38,.43-.74,.67-1.1,.77-1.11,1.79-2.06,2.97-2.73,2.12-1.2,4.59-1.32,6.86-.51,1.82,.65,2.61-2.25,.8-2.89-4.45-1.58-9.47-.06-12.43,3.58-1.3,1.6-2.22,3.31-2.52,5.34-.32,2.18-.48,4.37-.75,6.55-.23,1.88-.45,3.97-1.15,5.79-.08-.02-.16-.04-.23-.06,.04-.14,.06-.28,.04-.42-.65-4.91-1.69-9.78-2.22-14.71-.29-2.7-.44-6.02,1.5-8.18,.99-1.11,2.48-1.59,3.63-2.52,.69-.55,1.23-1.2,1.74-1.91,.04-.06,.08-.12,.13-.18,.01-.02,.05-.06,.09-.11h0l.02-.02s.03-.04,.05-.06c0,.02-.02,.03-.03,.05,.03,0,.08,0,.16,0,1.53,0,3.12,.55,4.59,.93,1.87,.48,2.67-2.41,.8-2.89-2.04-.53-5.43-1.9-7.37-.41-.52,.4-1.03,1.24-1.25,1.5-.8,.95-1.81,1.44-2.86,2.06-6.11,3.56-4.26,11.97-3.37,17.69,.27,1.78,.57,3.55,.85,5.33,.12,.71,.23,1.42,.34,2.13,.04,.27,.09,.54,.13,.81,.02,.11,.12,.83,.08,.52,.02,.12,.04,.24,.08,.36-2.52,.59-4,3.06-4.48,5.48-.53,2.67,.27,5.85,1.86,8.06,1.39,1.94,3.57,2.41,5.6,3.38,.65,2.9,1.23,5.86,2.15,8.69,.53,1.64,1.22,3.22,2.06,4.7-.06,.16-.09,.32-.09,.51,.02,1.11,0,2.22-.03,3.33-.03,1.01-.08,2.02-.16,3.02-.03,.4-.07,.79-.12,1.19-.17-.07-.33-.15-.5-.22-.86-.38-1.94-.12-2.2,.9-.95,3.66-1.9,7.32-2.85,10.98-.05,.06-.09,.12-.13,.18-4.77,1.93-9.65,3.53-14.42,5.48-3.04,1.24-6.07,2.53-9.07,3.88-2.57,1.16-4.96,2.73-6.84,4.86-2.61,2.96-4.12,6.63-5.04,10.43-.05,.2-.05,.38-.03,.55h2.99c1.13-4.52,3.19-8.82,7.17-11.48,1.67-1.12,3.53-1.9,5.37-2.7,2.37-1.04,4.75-2.04,7.14-3.01,4.11-1.66,8.35-2.95,12.44-4.64,.61-.26,1.4-.48,2.04-.84,5.3,2.42,10.59,4.84,15.89,7.27,.81,.37,1.61,.74,2.42,1.11,.9,.41,1.89,.1,2.2-.9l3.15-9.89c1.27,3.3,2.54,6.59,3.8,9.89,.36,.94,1.28,1.37,2.2,.9,5.15-2.61,10.29-5.22,15.44-7.82l1.78-.9c.12,.14,.29,.27,.51,.36,6.08,2.68,12.06,5.54,17.81,8.86,1.84,1.07,3.66,2.17,5.45,3.33,1.4,.9,2.53,1.84,3.45,3.25,1.48,2.25,2.31,4.81,3.43,7.23h3.02c.04-.28,0-.59-.15-.91ZM33.24,16.64h0Zm32.1,31.16c.02,.1,.01,.08,0-.02v.02Zm-9-.03s0-.03,0-.04c.03-.12,.05-.23,.09-.35,.03-.1,.07-.21,.11-.31,.01-.02,.02-.03,.04-.07,.05-.08,.09-.17,.14-.25,0,0,.13-.19,.15-.23,.53-.66,1.21-1.1,1.9-1.34,.97-.34,1.96-.46,2.96-.31,.96,.15,1.96,.58,2.58,1.15,.17,.16,.34,.33,.49,.51,.02,.03,.06,.08,.06,.09,.08,.12,.15,.25,.22,.38,.02,.03,.03,.05,.04,.07,0,.01,0,.02,.01,.03,.05,.13,.09,.27,.13,.41,.02,.08,.04,.17,.05,.25,0,.1,.01,.19,.01,.29,0-.02-.01,.19-.01,.26,0,.05-.02,.12-.02,.13-.04,.19-.1,.38-.17,.57-.02,.03-.04,.08-.05,.09-.06,.1-.12,.21-.18,.32,0,.02-.07,.1-.1,.15-.04,.05-.18,.21-.22,.25-.59,.62-1.32,1.03-2.19,1.26-.88,.24-1.94,.27-2.79,.08-.9-.2-1.73-.58-2.31-1.13-.16-.15-.33-.32-.47-.5,.13,.17-.14-.23-.18-.3-.04-.06-.07-.13-.1-.19-.01-.03-.06-.14-.07-.18-.04-.12-.07-.23-.1-.35,0-.04-.03-.21-.04-.26,0-.16,0-.33,0-.49Zm0,0c-.01,.17,0,.08,0,0h0Zm-18.75,0s0-.05,.01-.07c.02-.1,.04-.19,.07-.29,0,.02,.07-.18,.09-.25,.03-.05,.06-.13,.07-.14,.06-.11,.13-.22,.19-.32,.04-.05,.05-.08,.05-.09,0,0,.01-.01,.03-.04,.59-.71,1.29-1.14,2.13-1.42,1.01-.33,2.08-.45,3.12-.29,.49,.07,1.15,.25,1.58,.44,.17,.08,.46,.23,.67,.36,.28,.17,.31,.19,.5,.35,.46,.4,.58,.56,.84,1.01,0,.02,.05,.11,.08,.16,.02,.06,.09,.26,.1,.3,.03,.09,.05,.18,.06,.28,0,.09,.01,.19,.01,.28,0-.02-.01,.19-.01,.27,0,.06-.02,.13-.03,.14-.02,.1-.2,.59-.11,.41-.22,.49-.34,.62-.65,.94-.37,.37-.55,.49-1.01,.75-.44,.24-.77,.37-1.3,.51-.98,.26-2.07,.3-3.05,.09-.94-.2-1.83-.58-2.44-1.13-.16-.14-.31-.29-.45-.45-.1-.12-.11-.13-.26-.38-.05-.09-.1-.17-.14-.26-.01-.02-.02-.03-.02-.04l-.02-.08c-.03-.09-.06-.19-.08-.28,0-.04-.03-.21-.04-.27,0-.16-.01-.33,0-.49Zm-5.62,15.77c-.35-1.5-.39-3.73-1.87-4.53-1.51-.82-3.74-1.08-4.79-2.51-1.08-1.48-1.78-3.8-1.45-5.61,.25-1.39,.96-3.25,2.56-3.43,.46-.05,.91,.03,1.35,.16,.17,.05,.34,.11,.51,.17,.31,.14,.62,.17,.9,.12,.56,.14,1.18-.02,1.54-.7,.24-.45,.44-.91,.62-1.38,.16,.14,.35,.26,.58,.32,.94,.27,1.89,.55,2.83,.82-.31,1.52,.03,3.15,1.1,4.49,1.9,2.38,5.24,3.13,8.12,2.69,2.85-.43,5.65-2.37,6.15-5.28h3.31c.12,.83,.42,1.64,.95,2.37,1.82,2.47,5.01,3.37,7.95,2.92,3.08-.47,5.95-2.83,6.01-6.11,0-.15-.02-.28-.05-.4-.01-.13-.02-.26-.05-.39,1-.25,2-.5,3-.75l.23-.06c.29,.81,.57,1.62,.86,2.44,.5,1.42,2.37,1.24,2.86,.23,.27-.04,.54-.15,.8-.36-.24,.21,.08-.07,.25-.13,.42-.14,.75-.2,1.18-.01,.67,.29,1.05,.96,1.26,1.62,.49,1.59,.13,3.46-.45,4.98-1.02,2.66-3.69,3.61-6.33,4.01-.69,.11-1.04,.84-1.1,1.45-.18,1.74-.34,3.77-.6,5.32-.62,3.59-2.78,7.26-4.89,10.18-2,2.77-4.82,4.53-7.93,5.45v-2.05c0-.38-.17-.79-.44-1.06-.26-.26-.69-.46-1.06-.44-.81,.04-1.5,.66-1.5,1.5v2.68c-.26,.03-.51,.06-.77,.08v-2.75c0-.38-.17-.79-.44-1.06-.26-.26-.69-.46-1.06-.44-.81,.04-1.5,.66-1.5,1.5v2.8c-.26-.01-.52-.03-.77-.05v-2.75c0-.38-.17-.79-.44-1.06s-.69-.46-1.06-.44c-.81,.04-1.5,.66-1.5,1.5v2.28c-.18-.04-.36-.07-.53-.12-6.03-1.51-10.43-5.55-12.54-11.4-.79-2.2-1.26-4.51-1.79-6.78Zm14.47,38.79c-5.15-2.36-10.3-4.71-15.45-7.07-.41-.19-.82-.37-1.22-.56,.15-.6,.29-1.2,.44-1.79,.59-2.26,1.18-4.52,1.76-6.78,5.28,2.37,10.56,4.74,15.84,7.11,.44,.2,.88,.4,1.33,.6-.9,2.83-1.8,5.67-2.7,8.5Zm5.58-10.55s-.05,.03-.07,.05c-.03-.01-.05-.03-.08-.05-5.61-2.52-11.21-5.03-16.82-7.55,.27-1.75,.41-3.53,.46-5.32,1.24,1.34,2.67,2.52,4.32,3.46,4.47,2.56,10.03,3.54,15.11,2.82,2.98-.42,5.98-1.37,8.5-3.05,1.22-.81,2.27-1.79,3.21-2.88,.13,1.74,.29,3.48,.5,5.21-4.27,2.06-8.53,4.12-12.8,6.17-.77,.37-1.55,.75-2.33,1.12Zm22.07,2.37c-5.15,2.61-10.29,5.22-15.44,7.82-.22,.11-.43,.22-.65,.33-1.09-2.84-2.18-5.67-3.27-8.51,5.07-2.45,10.15-4.89,15.22-7.34l.8-.39c1.12,2.69,2.24,5.38,3.36,8.08,0,0-.01,0-.02,0Z"/></g></g></g></svg>