<?xml version="1.0" encoding="UTF-8"?><svg id="_イヤー_2" xmlns="http://www.w3.org/2000/svg" xmlns:xlink="http://www.w3.org/1999/xlink" viewBox="0 0 100 120"><defs><style>.cls-1{fill:none;}.cls-2{clip-path:url(#clippath);}.cls-3{fill:#fc7e00;}.cls-4{fill:#fff;}.cls-5{fill:#ffe159;}.cls-6{fill:#2e2e2e;}</style><clipPath id="clippath"><rect class="cls-1" width="100" height="120"/></clipPath></defs><g id="_イヤー_1-2"><g><rect class="cls-3" width="100" height="120"/><g class="cls-2"><path class="cls-5" d="M63.11,43.09s-.1-.07-.15-.11c.05,.04,.08,.07,.12,.1h.02Z"/><path class="cls-6" d="M27.7,43.39c-.04-1.8-.07-3.61-.11-5.41-.02-1.15-.39-2.91,.14-3.99,.68-1.39,1.81-2.69,2.67-3.96,.89-1.32,1.78-2.64,2.67-3.97,.76-1.13,2.89-.83,2.78,.75-.04,.62-.09,1.24-.13,1.86,.59-1.5,1.19-3,1.78-4.5,.25-.62,.72-1.09,1.44-1.09,.74,0,1.48,0,2.22,0,1.07,0,1.57,.95,1.44,1.89-.13,.95-.26,1.9-.4,2.85,.89-1.42,1.75-2.9,2.77-4.21,.9-1.15,2.87-.75,4.18-.75,2.43,0,4.85,0,7.28,0,1.76,0,3.54-.07,5.31,0,1.28,.06,1.88,1.21,2.68,2.07,1.35,1.45,2.81,2.79,4.32,4.07,1.15,.97,2.33,1.92,3.54,2.82,.53,.39,1.23,.76,1.69,1.24,.86,.91,.54,3.33,.59,4.45,.08,1.74,.16,3.49,.24,5.23,.16-1.13,.33-2.26,.49-3.39,.29-2.04,.59-4.08,.88-6.12,.21-1.48,.5-2.59-.04-4.05-.99-2.33-2.03-4.65-3.08-6.96-.72-1.59-1.32-3.26-2.67-4.43-.58-.5-1.26-.85-1.95-1.17-1.62-.78-3.25-1.54-4.88-2.31-1.43-.68-2.73-1.3-4.16-1.78-1.39-.47-2.8-.88-4.22-1.23-.57-.14-1.15-.28-1.73-.37-.11,.06-.23,.11-.36,.14-2.68,.61-5.54,.57-8.35,.45,.16,.81-.4,1.67-1.42,1.79-1.67,.2-3.32,.21-4.96,.11-.06,.21-.17,.43-.34,.63-2.22,2.51-4.85,4.63-7.12,7.1-.93,1.01-1.82,2.07-2.49,3.27-.67,1.2-.93,2.6-1.15,3.94-.51,3.02-.47,6.15-.24,9.19,.15,1.94,.39,3.89,.72,5.83Z"/><path class="cls-4" d="M27.24,60.5c1.29,.5,2.67,.76,3.75,1.7,1.03,.9,1.22,2.15,1.52,3.42,.64,2.74,1.65,5.37,3.1,7.78,2.75,4.56,7.05,7.95,12.29,9.08,6.71,1.45,13.23-1.56,17.48-6.73,2.11-2.56,3.75-5.71,4.53-8.95,.37-1.54,.6-3.12,.87-4.68,.08-.45,.58-.97,1.04-1.04,2.66-.41,5.39-1.37,6.3-4.12,.51-1.56,.8-3.46,.17-5.03-.39-.96-1.2-1.54-2.09-1.53-.27,.18-.59,.29-.87,.29h-.18c-.06,.03-.11,.04-.17,.08-.64,.4-1.26,.25-1.67-.15-.7-.13-1.2-.73-1.23-1.46l-.64-14.27c-3.69-2.61-7.29-5.59-10.19-9.06-4.73,0-9.46,0-14.19,0-1.99,3.04-3.98,6.09-5.96,9.13-.98,1.51-2.95,.46-2.72-1.15,.27-1.95,.54-3.9,.81-5.85-1.39,3.52-2.79,7.04-4.18,10.56-.57,1.44-3.05,1.41-2.93-.4,.14-1.95,.27-3.91,.41-5.86-.54,.81-1.09,1.62-1.63,2.42-.05,.08-.17,.3-.28,.48,.03,.37-.04,.83-.03,1.14l.05,2.77c.06,3.16,.12,6.32,.18,9.47,.97,.98-.23,2.85-1.69,2.36-.06-.01-.12-.02-.18-.04-.27-.1-.57-.19-.88-.28-.13-.03-.27-.06-.41-.07-1.22-.1-1.99,.58-2.5,1.65-.78,1.62-.77,3.18-.27,4.88,.38,1.32,1.02,2.91,2.38,3.44Zm15.77-11.3c-1.92,0-1.92-2.98,0-2.98s1.92,2.98,0,2.98Zm18.29,0c-1.92,0-1.92-2.98,0-2.98s1.92,2.98,0,2.98Zm-2.61-8.97c1.39-.46,2.87-.58,4.3-.29,.75,.15,1.47,.45,2.07,.93,.65,.52,.5,1.57,0,2.11-.25,.27-.69,.44-1.05,.44s-.64-.13-.91-.33h-.02l.1,.07h0s.02,.02,.03,.02c.09,.05,.32,.25-.04-.02-.03-.02-.06-.04-.1-.06-.04-.02-.09-.04-.14-.07-.29-.11-.59-.19-.9-.24-.44-.04-.89-.04-1.33,0-.42,.07-.83,.17-1.23,.3-.79,.26-1.59-.3-1.83-1.04-.26-.79,.3-1.59,1.04-1.83Zm-6.84,18.06c1.92,0,1.92,2.98,0,2.98s-1.92-2.98,0-2.98Zm-4.33,8.89c.31,.2,.64,.38,.98,.53h.02c.1,.04,.19,.08,.29,.11,.18,.06,.36,.12,.55,.17,.4,.11,.81,.19,1.23,.26h.07c.09,.01,.18,.02,.27,.03,.2,.02,.41,.03,.61,.03,.43,.01,.86,0,1.29-.04,.02,0,.15-.02,.21-.02,.05,0,.11-.02,.12-.02,.22-.04,.43-.08,.65-.14,.19-.05,.38-.1,.56-.16,.08-.03,.16-.05,.24-.08,0,0,.13-.05,.19-.08,.06-.03,.13-.06,.15-.07,.07-.04,.15-.08,.22-.12,.18-.1,.35-.21,.52-.32,.66-.46,1.66-.12,2.04,.53,.43,.73,.13,1.58-.53,2.04-1.62,1.12-3.73,1.51-5.67,1.46-1.9-.05-3.92-.48-5.53-1.53-.67-.44-.96-1.31-.53-2.04,.39-.67,1.37-.98,2.04-.53Zm-8.67-26.3c.6-.48,1.32-.78,2.07-.93,1.43-.29,2.91-.17,4.3,.29,.79,.26,1.23,1.01,1.04,1.83-.17,.76-1.09,1.28-1.83,1.04-.4-.13-.81-.23-1.23-.3-.44-.05-.89-.05-1.33,0-.31,.05-.61,.13-.9,.24-.04,.02-.09,.04-.14,.07-.05,.03-.12,.08-.16,.1-.04,.03-.03,.03,0,0,.03-.02,.08-.06,.16-.13h0s.07-.06,.12-.1c-.32,.26-.64,.42-1.05,.44-.4,.02-.77-.18-1.05-.44-.27-.25-.44-.69-.44-1.05,0-.34,.16-.83,.44-1.05Z"/><path class="cls-5" d="M103.49,107.46c-.99-1.26-2.43-2.24-3.75-3.13-5.31-3.59-11.33-5.82-17.05-8.63,1.48,3.28,2.95,6.57,4.63,9.75,.73,1.38-.71,2.66-2.04,2.04-3.67-1.71-7.58-2.91-11.25-4.62-.42,3.96-1.27,7.91-2.16,11.76-.45,1.93-.9,3.88-1.53,5.76-.03,.08-.06,.17-.08,.25h37.85c-.5-3.12-1.33-6.22-2.48-9.16-.55-1.39-1.2-2.86-2.13-4.04Z"/><path class="cls-5" d="M82.92,103.3c-1.83-3.82-3.5-7.73-5.32-11.56-1.56-3.27-3.21-6.77-6.73-8.26-.74-.31-1.29-.98-1.04-1.83,.01-.04,.03-.08,.05-.13-.33-.32-.65-.65-.98-.95,.26,2.73,.66,5.48,1.54,8.03,.14,.42,.04,.86-.21,1.22,.24,.06,.47,.17,.67,.32-.02-.35-.03-.7-.06-1.05-.06-.81,.73-1.49,1.49-1.49,.85,0,1.43,.69,1.49,1.49,.27,3.47,.32,6.98,.21,10.48,2.85,1.49,5.89,2.57,8.89,3.74Z"/><path class="cls-5" d="M34.24,91.13c-.46-.37-.76-1.01-.53-1.56,.64-1.58,.93-3.31,1.13-4.97,.25-2.19,.37-4.39,.45-6.58-.02-.02-.03-.04-.04-.06-1.37,.4-1.96,1.79-2.64,2.79,.82,.43,1.29,1.53,.42,2.34-6.08,5.69-11.03,12.27-15.29,19.36,2.47-1.55,4.89-3.22,7.29-4.83,.51-.34,1.41-.25,1.81,.23,1.01,1.23,2.01,2.48,2.98,3.75-.11-1.42-.18-2.84-.22-4.26-.08-2.74-.21-5.82,.69-8.46,.62-1.81,3.5-1.03,2.87,.79-.3,.89-.47,1.84-.56,2.8,.65-.26,1.17-.7,1.63-1.34Z"/><path class="cls-4" d="M70.9,90.13c-.21-.15-.44-.26-.67-.32-.2,.29-.5,.52-.83,.62-.81,.22-1.57-.28-1.83-1.04-.62-1.79-.94-3.68-1.21-5.56-.2-1.39-.36-2.79-.49-4.19-.44,.43-.89,.85-1.36,1.24-5.7,4.78-13.53,6.3-20.5,3.53-2.17-.87-4.14-2.07-5.87-3.54-.08,1.31-.18,2.62-.34,3.92-.23,1.88-.49,3.8-1.21,5.56-.3,.75-.98,1.28-1.83,1.04-.18-.05-.36-.14-.51-.27-.46,.64-.99,1.08-1.63,1.34-.11,1.13-.1,2.29-.07,3.43,.3,.02,.61,.12,.89,.35,5.48,4.4,12.09,7.45,19.23,7.16,6.59-.27,12.68-3.37,17.72-7.46,.23-.19,.47-.29,.72-.33-.01-1.83-.08-3.66-.2-5.48Z"/><path class="cls-4" d="M67.2,120.38c-.07,.16,.07-.26,0,0h0c.04-.11,.08-.21,.12-.32,.22-.64,.42-1.28,.6-1.93,.52-1.84,.96-3.71,1.37-5.58,.58-2.63,1.15-5.29,1.54-7.97-.03-.11-.04-.23-.03-.35,.13-1.68,.21-3.37,.26-5.07-5.37,4.04-11.58,6.95-18.4,7.22-7.37,.3-14.17-2.66-19.97-6.98,.1,1.46,.25,2.93,.31,4.39,.06,.21,.09,.44,.14,.66,.24,1.13,.47,2.27,.71,3.4,.85,4.06,1.72,8.11,2.6,12.17,.05,.23,.05,.45,.01,.64h30.59c.04-.05,.07-.11,.11-.15,.01-.03,.02-.06,.04-.13Z"/><path class="cls-5" d="M30.9,108.32s-.03-.04-.05-.06c-1.58-2.58-3.45-5.01-5.36-7.37-3.59,2.41-7.2,4.91-11.04,6.88-1.32,.68-2.77-.7-2.04-2.04,1.71-3.15,3.55-6.22,5.53-9.19-1.91,.73-3.8,1.51-5.68,2.29-2.95,1.23-5.88,2.49-8.78,3.84-1.93,.9-3.77,1.67-5.12,3.39-1.93,2.47-3.19,5.53-4.29,8.44-.76,2.02-1.42,4.09-2.02,6.16H33.53c-.89-4.1-1.77-8.19-2.63-12.29v-.04Z"/><path class="cls-6" d="M23.62,61.28c.98,1.31,2.15,1.85,3.66,2.35,.55,.18,1.44,.39,1.82,.86,.46,.57,.49,1.71,.67,2.42,.39,1.55,.91,3.06,1.54,4.54,1.01,2.39,2.36,4.61,3.99,6.56-.09,2.2-.2,4.4-.45,6.58-.19,1.66-.49,3.39-1.13,4.97-.3,.75,.33,1.64,1.04,1.83,.85,.23,1.53-.29,1.83-1.04,.71-1.76,.98-3.69,1.21-5.56,.16-1.3,.26-2.61,.34-3.92,1.74,1.46,3.7,2.67,5.87,3.54,6.97,2.77,14.8,1.26,20.5-3.53,.47-.4,.92-.81,1.36-1.24,.14,1.4,.29,2.8,.49,4.19,.27,1.87,.59,3.76,1.21,5.56,.26,.76,1.02,1.26,1.83,1.04,.74-.2,1.31-1.07,1.04-1.83-1.33-3.84-1.57-8.1-1.87-12.12,1.38-1.9,2.5-3.99,3.36-6.18,.82-2.11,1.21-4.3,1.6-6.51,1.42-.3,2.83-.81,4.06-1.53,2.17-1.27,3.33-3.46,3.79-5.88,.46-2.36,.38-5.08-1.18-7.05-.8-1.01-1.92-1.64-3.11-1.84,.38-2.61,.75-5.22,1.13-7.83,.29-2.04,.59-4.08,.88-6.12,.26-1.78,.54-3.41-.12-5.18-.02-.07-.06-.12-.09-.18-.02-.06-.04-.12-.06-.17-1.09-2.58-2.24-5.13-3.4-7.67-.84-1.84-1.65-3.56-3.24-4.87-.75-.62-1.57-1.07-2.44-1.49-4.12-1.96-8.1-4-12.52-5.21-1.36-.37-2.93-.9-4.36-.87-.43,0-.81,.17-1.12,.4-1.68,.31-3.46,.29-5.16,.26-1.74-.04-3.49-.09-5.23-.14-1.19-.04-1.69,1.17-1.31,2.11-2.06-.01-4.1-.24-6.16-.55-1.46-.22-2.48,1.3-1.45,2.49,.54,.62,1.1,1.03,1.7,1.33-1.87,1.85-3.86,3.58-5.62,5.54-1.13,1.25-2.25,2.61-2.98,4.13-.73,1.51-1.06,3.2-1.3,4.85-.92,6.36-.15,12.98,1.26,19.22,.03,.11,.05,.23,.07,.34-.16,.06-.32,.11-.48,.19-3.11,1.45-3.98,5.7-3.37,8.75,.31,1.58,.92,3.2,1.89,4.5Zm3.61-32.92c.23-1.34,.49-2.74,1.15-3.94,.67-1.21,1.56-2.26,2.49-3.27,2.27-2.47,4.9-4.59,7.12-7.1,.18-.2,.28-.42,.34-.63,1.65,.1,3.3,.09,4.96-.11,1.02-.12,1.58-.98,1.42-1.79,2.81,.12,5.67,.16,8.35-.45,.13-.03,.25-.08,.36-.14,.58,.09,1.16,.23,1.73,.37,1.42,.35,2.83,.76,4.22,1.23,1.43,.48,2.73,1.1,4.16,1.78,1.63,.77,3.25,1.54,4.88,2.31,.69,.33,1.37,.67,1.95,1.17,1.35,1.17,1.95,2.84,2.67,4.43,1.05,2.31,2.08,4.62,3.08,6.96,.53,1.45,.25,2.56,.04,4.05-.29,2.04-.59,4.08-.88,6.12-.16,1.13-.33,2.26-.49,3.39-.08-1.74-.16-3.49-.24-5.23-.05-1.12,.27-3.55-.59-4.45-.46-.48-1.16-.85-1.69-1.24-1.21-.9-2.39-1.84-3.54-2.82-1.51-1.28-2.97-2.62-4.32-4.07-.81-.87-1.41-2.02-2.68-2.07-1.76-.08-3.54,0-5.31,0-2.43,0-4.85,0-7.28,0-1.3,0-3.28-.4-4.18,.75-1.02,1.31-1.88,2.79-2.77,4.21,.13-.95,.26-1.9,.4-2.85,.13-.94-.37-1.89-1.44-1.89-.74,0-1.48,0-2.22,0-.72,0-1.19,.47-1.44,1.09-.59,1.5-1.19,3-1.78,4.5,.04-.62,.09-1.24,.13-1.86,.11-1.58-2.02-1.88-2.78-.75-.89,1.32-1.78,2.64-2.67,3.97-.86,1.28-1.99,2.58-2.67,3.96-.53,1.08-.16,2.84-.14,3.99,.03,1.8,.07,3.6,.11,5.41-.33-1.93-.57-3.89-.72-5.83-.23-3.05-.27-6.17,.24-9.19Zm-2.09,23.8c.51-1.07,1.27-1.75,2.5-1.65,.14,.01,.27,.04,.41,.07,.31,.1,.61,.18,.88,.28,.06,.02,.12,.03,.18,.04,1.46,.48,2.66-1.39,1.69-2.36-.06-3.16-.12-6.32-.18-9.47l-.05-2.77c0-.31,.06-.76,.03-1.14,.11-.18,.23-.4,.28-.48,.54-.81,1.09-1.62,1.63-2.42-.14,1.95-.27,3.91-.41,5.86-.13,1.81,2.36,1.84,2.93,.4,1.39-3.52,2.79-7.04,4.18-10.56-.27,1.95-.54,3.9-.81,5.85-.22,1.61,1.74,2.66,2.72,1.15,1.99-3.04,3.98-6.09,5.96-9.13,4.73,0,9.46,0,14.19,0,2.9,3.46,6.51,6.44,10.19,9.06l.64,14.27c.03,.73,.53,1.33,1.23,1.46,.42,.4,1.03,.55,1.67,.15,.06-.04,.11-.05,.17-.08h.18c.28,.01,.6-.1,.87-.28,.9,0,1.7,.56,2.09,1.53,.63,1.57,.35,3.47-.17,5.03-.91,2.75-3.64,3.71-6.3,4.12-.46,.07-.96,.59-1.04,1.04-.28,1.56-.5,3.14-.87,4.68-.78,3.23-2.42,6.38-4.53,8.95-4.25,5.17-10.78,8.17-17.48,6.73-5.24-1.13-9.54-4.52-12.29-9.08-1.45-2.41-2.47-5.04-3.1-7.78-.3-1.27-.49-2.52-1.52-3.42-1.07-.94-2.46-1.2-3.75-1.7-1.36-.54-1.99-2.13-2.38-3.44-.5-1.7-.51-3.26,.27-4.88Z"/><path class="cls-6" d="M61.31,46.22c-1.92,0-1.92,2.98,0,2.98s1.92-2.98,0-2.98Z"/><path class="cls-6" d="M51.86,61.27c1.92,0,1.92-2.98,0-2.98s-1.92,2.98,0,2.98Z"/><path class="cls-6" d="M45.49,67.7c-.43,.73-.14,1.6,.53,2.04,1.61,1.05,3.63,1.48,5.53,1.53,1.94,.05,4.05-.34,5.67-1.46,.66-.46,.96-1.31,.53-2.04-.38-.65-1.38-1-2.04-.53-.17,.12-.34,.23-.52,.32-.07,.04-.15,.08-.22,.12-.02,0-.09,.04-.15,.07-.06,.02-.19,.08-.19,.08-.08,.03-.16,.06-.24,.08-.19,.06-.37,.11-.56,.16-.21,.05-.43,.1-.65,.14-.01,0-.07,.01-.12,.02-.07,0-.19,.02-.21,.02-.43,.04-.86,.05-1.29,.04-.2,0-.41-.02-.61-.03-.09,0-.18-.02-.27-.03h-.07c-.41-.07-.82-.15-1.23-.26-.18-.05-.37-.11-.55-.17-.1-.03-.2-.07-.29-.11h-.02c-.34-.16-.67-.33-.98-.54-.67-.44-1.65-.13-2.04,.53Z"/><path class="cls-6" d="M43.01,46.22c-1.92,0-1.92,2.98,0,2.98s1.92-2.98,0-2.98Z"/><path class="cls-6" d="M39.91,43.42c.42-.02,.73-.18,1.05-.44-.05,.04-.09,.07-.12,.1h0c-.08,.07-.13,.11-.16,.13,.04-.03,.1-.07,.16-.1,.04-.02,.09-.04,.14-.07,.29-.11,.59-.19,.9-.24,.44-.04,.89-.04,1.33,0,.42,.07,.83,.17,1.23,.3,.74,.24,1.66-.28,1.83-1.04,.19-.82-.25-1.57-1.04-1.83-1.39-.46-2.87-.58-4.3-.29-.75,.15-1.47,.45-2.07,.93-.28,.22-.44,.71-.44,1.05,0,.37,.16,.8,.44,1.05,.28,.26,.66,.45,1.05,.44Z"/><path class="cls-6" d="M40.68,43.21s-.04,.03,0,0h0Z"/><path class="cls-6" d="M63.22,43.19s-.02-.02-.03-.02h0c.35,.28,.12,.07,.04,.02Z"/><path class="cls-6" d="M59.49,43.1c.4-.13,.81-.23,1.23-.3,.44-.05,.89-.05,1.33,0,.31,.05,.61,.13,.9,.24,.04,.02,.09,.04,.14,.07,.03,.02,.06,.04,.1,.06l-.1-.08h.02c.27,.2,.55,.33,.91,.33s.8-.16,1.05-.44c.5-.54,.65-1.59,0-2.11-.6-.48-1.32-.78-2.07-.93-1.43-.29-2.91-.17-4.3,.29-.74,.24-1.3,1.04-1.04,1.83,.24,.74,1.04,1.3,1.83,1.04Zm3.62-.01h-.02s-.07-.07-.12-.11c.05,.04,.1,.07,.15,.11Z"/><path class="cls-6" d="M111.05,120.26c-.39-2.58-1.03-5.13-1.85-7.61-.85-2.56-1.87-5.21-3.6-7.3-1.77-2.15-4.45-3.75-6.83-5.14-2.76-1.61-5.66-2.99-8.57-4.33-2.92-1.34-5.89-2.61-8.72-4.14-.24-.13-.48-.19-.71-.19-.38-.81-.75-1.63-1.15-2.43-1.85-3.76-4.02-6.85-7.98-8.52-.75-.32-1.63,.34-1.83,1.04-.25,.86,.3,1.52,1.04,1.83,3.53,1.49,5.18,4.99,6.73,8.26,1.83,3.83,3.49,7.73,5.32,11.56-3-1.17-6.04-2.25-8.89-3.74,.11-3.5,.06-7-.21-10.48-.06-.8-.64-1.49-1.49-1.49-.76,0-1.55,.68-1.49,1.49,.17,2.17,.24,4.35,.26,6.53-.24,.04-.49,.14-.72,.33-5.04,4.09-11.13,7.19-17.72,7.46-7.14,.29-13.76-2.77-19.23-7.16-.28-.23-.59-.33-.89-.35-.06-2.1-.03-4.28,.63-6.22,.62-1.82-2.26-2.6-2.87-.79-.9,2.64-.77,5.72-.69,8.46,.04,1.42,.12,2.84,.22,4.26-.97-1.27-1.97-2.52-2.98-3.75-.39-.48-1.3-.57-1.81-.23-2.41,1.61-4.82,3.28-7.29,4.83,4.26-7.08,9.21-13.67,15.29-19.36,1.4-1.31-.71-3.42-2.11-2.11-3.73,3.49-7.05,7.31-10.06,11.38-.08,.01-.16,.03-.25,.06-6.12,2.03-12.1,4.69-17.95,7.37-2.1,.96-4.33,1.85-5.92,3.59-2.22,2.45-3.63,5.58-4.87,8.61-1.16,2.83-2.11,5.73-2.93,8.67h3.11c.6-2.08,1.26-4.14,2.02-6.16,1.09-2.91,2.35-5.97,4.29-8.44,1.35-1.72,3.19-2.49,5.12-3.39,2.9-1.35,5.83-2.61,8.78-3.84,1.88-.78,3.77-1.56,5.68-2.29-1.98,2.97-3.82,6.04-5.53,9.19-.73,1.34,.72,2.72,2.04,2.04,3.84-1.97,7.45-4.46,11.04-6.88,1.91,2.36,3.77,4.78,5.36,7.37,.01,.02,.03,.04,.05,.06v.04c.87,4.1,1.75,8.2,2.64,12.29h2.92c.04-.2,.04-.41-.01-.64-.88-4.05-1.75-8.11-2.6-12.17-.24-1.13-.48-2.27-.71-3.4-.04-.21-.07-.45-.14-.66-.06-1.46-.21-2.93-.31-4.39,5.8,4.32,12.6,7.28,19.97,6.98,6.82-.28,13.03-3.18,18.4-7.22-.05,1.69-.12,3.38-.26,5.07,0,.12,0,.24,.03,.35-.39,2.68-.96,5.35-1.54,7.97-.41,1.87-.85,3.74-1.37,5.58-.18,.65-.38,1.29-.6,1.93-.04,.11-.08,.21-.12,.32h0c-.02,.07-.03,.1-.04,.13-.04,.05-.07,.1-.11,.15h3.22c.03-.08,.06-.17,.08-.25,.62-1.89,1.08-3.83,1.53-5.76,.89-3.86,1.74-7.8,2.16-11.76,3.67,1.71,7.58,2.91,11.25,4.62,1.33,.62,2.77-.66,2.04-2.04-1.68-3.19-3.15-6.47-4.63-9.75,5.72,2.81,11.73,5.04,17.05,8.63,1.32,.89,2.76,1.87,3.75,3.13,.93,1.19,1.59,2.65,2.13,4.04,1.15,2.94,1.98,6.04,2.48,9.16h2.95c.01-.13,.01-.26,0-.4Zm-43.85,.2c.12-.17,.42-.42,.98-.41-.4,0-.73,.17-.98,.41Z"/></g></g></g></svg>