<?xml version="1.0" encoding="UTF-8"?><svg id="_イヤー_2" xmlns="http://www.w3.org/2000/svg" xmlns:xlink="http://www.w3.org/1999/xlink" viewBox="0 0 100 120"><defs><style>.cls-1,.cls-2{fill:none;}.cls-3{clip-path:url(#clippath);}.cls-4{fill:url(#_規パターンスウォッチ_1);}.cls-5{fill:#fff;}.cls-6{fill:#ffe159;}.cls-7{fill:#35db68;}.cls-8{fill:#2e2e2e;}.cls-2{stroke:#ffe159;stroke-miterlimit:10;stroke-width:5px;}</style><clipPath id="clippath"><rect class="cls-1" width="100" height="120"/></clipPath><pattern id="_規パターンスウォッチ_1" x="0" y="0" width="25" height="25" patternTransform="translate(-8041.77 -6285.41) rotate(45) scale(.22)" patternUnits="userSpaceOnUse" viewBox="0 0 25 25"><g><rect class="cls-1" width="25" height="25"/><rect class="cls-5" x="24.29" y="24.29" width="26.43" height="26.43"/><rect class="cls-5" x="-.71" y="24.29" width="26.43" height="26.43"/><rect class="cls-5" x="-25.71" y="24.29" width="26.43" height="26.43"/><g><rect class="cls-5" x="24.29" y="-.71" width="26.43" height="26.43"/><line class="cls-2" x1="23.61" y1="12.5" x2="51.39" y2="12.5"/></g><g><rect class="cls-5" x="-.71" y="-.71" width="26.43" height="26.43"/><line class="cls-2" x1="-1.39" y1="12.5" x2="26.39" y2="12.5"/></g><g><rect class="cls-5" x="-25.71" y="-.71" width="26.43" height="26.43"/><line class="cls-2" x1="-26.39" y1="12.5" x2="1.39" y2="12.5"/></g><rect class="cls-5" x="24.29" y="-25.71" width="26.43" height="26.43"/><rect class="cls-5" x="-.71" y="-25.71" width="26.43" height="26.43"/><rect class="cls-5" x="-25.71" y="-25.71" width="26.43" height="26.43"/></g></pattern></defs><g id="_イヤー_1-2"><g><rect class="cls-7" width="100" height="120"/><g class="cls-3"><path class="cls-6" d="M53.02,69.38s.03,0,0,0h0Z"/><path class="cls-5" d="M65.5,89.72c-.8-2.35-1.12-4.86-1.36-7.36-5.45,3.87-12.29,5.38-19.05,2.97-3.03-1.08-5.82-2.81-8.21-5-.11,.75-.39,1.46-.68,2.17,.17,0,.34,0,.52,0-.18,0-.35,0-.52,0-.25,.63-.5,1.26-.64,1.92,.26-.27,.61-.45,1.06-.44,.76,0,1.67,.72,1.56,1.56-.48,3.56-.98,7.46-2.99,10.54,5.71,7.08,11.61,14.01,17.83,20.64,3.34-4.04,6.86-7.93,10.23-11.94,2.3-2.74,4.74-5.55,6.82-8.55-2.12-1.74-3.69-3.89-4.59-6.52Z"/><path class="cls-5" d="M70.59,83.12c-.87-.78-.53-2.69,1.02-2.78,3.54-.2,7.21-1.46,9.37-4.41-1.43-1.2-2.67-2.73-3.66-4.26-1.1-1.69-2.03-3.49-2.85-5.35-.74,3.22-1.84,6.33-3.7,9.14-1.09,1.65-2.35,3.15-3.74,4.5,.11,1.21,.21,2.47,.35,3.72,1.26,.16,2.41,.31,3.21-.57Z"/><path class="cls-5" d="M41.07,13.61c.19,.74-.25,1.8-1.09,1.92-.4,.06-.78,.15-1.16,.26,0,.08-.02,.16-.02,.25,0-.09,.01-.17,.02-.25-4.29,1.23-6.96,5.56-8.85,9.37-2.13,4.3-3.57,8.92-4.86,13.53-1.64,5.88-3.47,11.73-4.9,17.67-1.27,5.27-2.96,12.07,.11,17.05,2.59,4.2,7.86,5.92,12.35,7.17,.89,.25,1.19,1.02,1.07,1.73,.78,.18,1.53,.21,2.48,.21,.28-.71,.56-1.42,.68-2.17-3.79-3.46-6.58-8.06-7.7-13.05-.36,.21-.75,.36-1.14,.43-.91,.16-1.76,.06-2.6-.33-.68-.31-1.26-.88-1.64-1.52-.39-.65-.61-1.49-.54-2.24,.05-.56,.2-1.06,.44-1.53-1.71-1.92-2.6-4.69-2.4-7.41,.2-2.68,1.28-6.07,3.8-7.43,1.08-.59,2.35-.62,3.5-.22,.22,.08,.44,.17,.66,.27,2.05-9.36,2.69-21.5,12.98-25.25,1.06-.39,1.77,.39,1.88,1.26h2.04c.04-.09,.09-.18,.16-.27,3.05-4.21,10.31-3.44,14.18-.89,4.22,2.78,6.44,7.63,8.02,12.25,1.97,5.77,3.06,11.83,4.59,17.72,1.45,5.58,3.1,11.26,5.93,16.32,.86,1.54,2.01,3.36,3.43,4.7,.81-2.22,.93-4.6,.71-7.05-.29-3.31-.79-6.61-1.18-9.91-.48-4.18-1.27-8.33-2.2-12.43-1.48-6.52-3.09-13.16-6.04-19.2-2.57-5.26-6.23-10.5-11.75-12.94-5.4-2.39-12.62-2.59-17.55,.99-.85,.62-1.68,.17-2.04-.56-.58,.35-1.16,.64-1.69,.96,.15,.16,.28,.36,.35,.62Z"/><path class="cls-5" d="M71.21,57c-1.79-6.1-3.01-12.35-4.68-18.48-1.2-4.4-2.85-9.32-6.22-12.56-1.54-1.47-3.44-2.39-5.56-2.63-1.67-.19-4.62-.28-5.75,1.28-1.1,1.52-3.57,.22-2.85-1.3h-2.04c.08,.69-.22,1.44-1.05,1.74-4.56,1.66-6.79,6.08-8.09,10.47-1.41,4.76-1.93,9.71-3.17,14.51-.19,.75-1.14,1.39-1.92,1.09-.9-.35-2.15-1.55-3.16-1.2-1.63,.56-2.26,3.57-2.32,5.06-.09,1.97,.49,3.87,1.68,5.1,.79-.23,1.64-.24,2.4,.04,.74,.28,1.33,.71,1.81,1.31,.81-.03,1.45,.82,1.46,1.56,.11,4.86,2.21,9.55,5.4,13.18,5.87,6.69,15.39,9.53,23.41,4.91,3.8-2.18,6.82-5.57,8.85-9.43,1.73-3.28,2.39-7.17,2.92-10.8,0-.04,.02-.07,.03-.11-.41-1.25-.79-2.5-1.16-3.74Zm-18.76,3.22c2.01,0,2,3.12,0,3.12s-2-3.12,0-3.12Zm-10.83-17.77c-.22,.04-.44,.1-.66,.17-.11,.03-.21,.07-.32,.11h0c-.4,.2-.79,.41-1.17,.65-.74,.47-1.69,.13-2.13-.56-.47-.72-.13-1.7,.56-2.13,.91-.57,1.91-1.06,2.97-1.26,1.38-.25,2.74-.13,4.1,.2,.85,.21,1.27,1.11,1.09,1.92-.19,.84-1.13,1.28-1.92,1.09-.32-.08-.63-.13-.95-.19-.03,0-.05,0-.08,0-.13-.01-.27-.02-.41-.03-.25-.01-.51-.01-.76,0-.03,0-.12,.01-.19,.02-.05,0-.11,.02-.14,.02Zm1.68,8.28c-2.01,0-2-3.12,0-3.12s2,3.12,0,3.12Zm15.24,19.13c-3.18,3.46-9.22,3.58-12.51,.21-.59-.6-.6-1.6,0-2.2,.59-.59,1.62-.6,2.2,0,.16,.17,.34,.31,.51,.47,0,0,0,0,0,0,.01,0,0,0,.03,.02,.09,.06,.17,.12,.26,.18,.18,.11,.36,.22,.55,.31,.1,.05,.19,.09,.29,.14-.29-.14-.03-.01,.05,.01,.41,.15,.83,.26,1.26,.35,.05,.01,.09,.02,.12,.02,.08,0,.16,.02,.25,.03,.22,.02,.44,.03,.66,.03,.24,0,.49-.02,.73-.04h.04c.11-.02,.22-.04,.33-.06,.41-.08,.82-.21,1.21-.36,.07-.04,.35-.17,.42-.21,.2-.11,.39-.23,.57-.35,.02-.01,.11-.08,.16-.12,.06-.05,.16-.14,.16-.14,.17-.15,.33-.32,.49-.49,.57-.62,1.63-.58,2.2,0,.61,.61,.57,1.58,0,2.2Zm2.79-19.13c-2.01,0-2-3.12,0-3.12s2,3.12,0,3.12Zm4.81-7.9c-.38,.73-1.44,1-2.13,.56-.38-.24-.78-.46-1.19-.65h-.03c-.1-.05-.21-.09-.32-.12-.2-.06-.41-.12-.62-.16-.06-.01-.13-.02-.19-.03h-.02c-.05,0-.11,0-.16,0-.25-.02-.51-.02-.76,0-.14,0-.27,.02-.41,.03h-.06c-.31,.07-.62,.12-.92,.2-.85,.21-1.65-.27-1.92-1.09-.25-.78,.3-1.72,1.09-1.92,1.36-.33,2.72-.45,4.1-.2,1.06,.19,2.07,.69,2.97,1.26,.74,.47,.96,1.36,.56,2.13Z"/><path class="cls-8" d="M103,120.58c-1.8-8.48-9.51-14.71-16.55-18.97-1.18-.71-2.39-1.34-3.61-1.95,.06-.14,.12-.28,.17-.43,.19-.5-.03-1.16-.4-1.52-2.36-2.3-4.72-4.59-7.08-6.89-.67-.65-2.01-.62-2.45,.32-.39,.83-.84,1.64-1.31,2.44-1.16-.99-2.15-2.16-2.83-3.59-.92-1.95-1.31-4.13-1.56-6.32-.51-.07-1.05-.13-1.58-.13v0c.53,0,1.06,.07,1.58,.13-.14-1.25-.24-2.51-.35-3.72,1.39-1.34,2.66-2.85,3.74-4.5,1.86-2.82,2.96-5.92,3.7-9.14,.82,1.86,1.75,3.66,2.85,5.35,.99,1.53,2.23,3.06,3.66,4.26-2.16,2.95-5.83,4.2-9.37,4.41-1.56,.09-1.9,2-1.02,2.78,.15-.16,.29-.36,.41-.61-.12,.24-.26,.44-.41,.61,.25,.22,.58,.36,1.02,.33,3.51-.2,7.07-1.21,9.83-3.47,.84-.69,1.56-1.5,2.2-2.39,1.71,.73,3.6,.9,5.64,.12,1.85-.72,1.05-3.73-.83-3-1.18,.46-2.28,.45-3.28,.13,.54-1.3,.91-2.67,1.08-4.03,.43-3.39-.21-6.79-.65-10.15-.57-4.37-.99-8.73-1.82-13.07-1.48-7.69-3.3-15.52-6.46-22.72-2.65-6.04-6.59-12.09-12.51-15.34-6.43-3.52-15.79-4.08-21.92,.38-.77,.56-.81,1.46-.47,2.13,.55-.33,1.1-.7,1.59-1.19-.49,.49-1.04,.86-1.59,1.19,.37,.73,1.19,1.18,2.04,.56,4.93-3.58,12.14-3.38,17.55-.99,5.52,2.44,9.19,7.68,11.75,12.94,2.95,6.04,4.57,12.67,6.04,19.2,.93,4.1,1.71,8.25,2.2,12.43,.38,3.3,.88,6.61,1.18,9.91,.22,2.45,.1,4.84-.71,7.05-1.42-1.34-2.57-3.16-3.43-4.7-2.83-5.05-4.47-10.74-5.93-16.32-1.53-5.9-2.62-11.95-4.59-17.72-1.58-4.63-3.8-9.47-8.02-12.25-3.87-2.55-11.13-3.32-14.18,.89-.07,.09-.12,.18-.16,.27h0c-.72,1.52,1.75,2.82,2.85,1.3,1.13-1.56,4.08-1.47,5.75-1.28,2.12,.24,4.02,1.16,5.56,2.63,3.38,3.24,5.02,8.15,6.22,12.56,1.67,6.13,2.89,12.38,4.68,18.48,.36,1.24,.75,2.49,1.16,3.74,0,.04-.02,.07-.03,.11-.54,3.64-1.19,7.53-2.92,10.8-2.04,3.86-5.05,7.24-8.85,9.43-8.03,4.62-17.54,1.78-23.41-4.91-3.19-3.63-5.29-8.32-5.4-13.18-.02-.73-.66-1.59-1.46-1.56-.49-.6-1.08-1.03-1.81-1.31-.75-.28-1.61-.28-2.4-.04-1.18-1.23-1.76-3.13-1.68-5.1,.06-1.49,.69-4.51,2.32-5.06,1.02-.35,2.26,.85,3.16,1.2,.78,.3,1.72-.34,1.92-1.09,1.24-4.8,1.76-9.75,3.17-14.51,1.3-4.39,3.53-8.81,8.09-10.47,.82-.3,1.13-1.05,1.05-1.74h0c-.1-.88-.82-1.65-1.88-1.26-10.29,3.75-10.93,15.89-12.98,25.25-.22-.1-.43-.19-.66-.27-1.15-.39-2.42-.36-3.5,.22-2.51,1.36-3.6,4.76-3.8,7.43-.2,2.73,.7,5.49,2.4,7.41-.24,.47-.39,.97-.44,1.53-.07,.76,.15,1.59,.54,2.24,.38,.64,.96,1.21,1.64,1.52,.84,.39,1.69,.49,2.6,.33,.39-.07,.78-.22,1.14-.43,1.12,4.99,3.9,9.59,7.7,13.05,.09-.62,.08-1.27-.16-1.98,.24,.71,.25,1.36,.16,1.98,2.39,2.18,5.18,3.92,8.21,5,6.76,2.41,13.6,.9,19.05-2.97,.24,2.49,.56,5.01,1.36,7.36,.9,2.63,2.46,4.78,4.59,6.52-2.08,3-4.52,5.81-6.82,8.55-3.37,4.01-6.9,7.9-10.23,11.94-6.22-6.64-12.12-13.57-17.83-20.64,2.01-3.08,2.51-6.98,2.99-10.54,.11-.84-.8-1.55-1.56-1.56-.45,0-.81,.17-1.06,.44-.14,.7-.15,1.43,.12,2.23-.27-.8-.26-1.53-.12-2.23-.27,.29-.44,.69-.49,1.11-.35,2.57-.7,5.55-1.94,7.96-.55-.69-1.11-1.38-1.66-2.07-.49-.62-1.71-.6-2.2,0-2.01,2.45-4.21,4.82-6.06,7.38-.21,.29-.32,.56-.37,.83-2.45,1.01-4.82,2.2-7.2,3.34-4.04,1.94-8.07,3.44-11.22,6.75-3.06,3.22-5.32,7.11-7.44,10.98H.54c1.65-2.96,3.42-5.87,5.71-8.37,1.36-1.49,2.88-2.83,4.7-3.74,2.22-1.12,4.53-2.09,6.78-3.17,1.93-.93,3.86-1.86,5.82-2.69,.2,.64,.39,1.27,.59,1.91,.62,2,1.26,3.99,1.91,5.97,.64,1.96,1.29,3.93,1.96,5.88,.45,1.31,2.08,1.5,2.85,.37,1.82-2.66,3.65-5.32,5.47-7.98,.95,1.23,1.95,2.43,3.1,3.42,.84,.72,1.89,.37,2.4-.31,.42-.55,.48-1.31-.2-1.89-1.54-1.32-2.81-3.04-4.02-4.66-.72-.96-1.98-1.03-2.69,0-1.64,2.39-3.28,4.78-4.92,7.17-1.37-4.11-2.69-8.23-3.95-12.38,1.44-1.75,2.88-3.51,4.32-5.26,5.61,7.07,11.41,14,17.48,20.67,1.22,1.34,2.43,2.69,3.67,4,.33,.35,.71,.49,1.08,.48,.54,.4,1.28,.45,1.84-.24,1.09-1.35,2.21-2.67,3.34-3.98,2.64-3.08,5.34-6.1,7.94-9.21,3.2-3.82,6.69-7.78,9.15-12.2,1.61,1.57,3.22,3.13,4.83,4.7-1.37,3.26-3.39,6.31-5.3,9.25-.9,1.39-1.82,2.76-2.76,4.12-1.1-1.34-2.37-2.57-3.69-3.65-1.45-1.18-3.5,.69-2.44,1.97,.07,.08,.14,.16,.23,.23,1.71,1.4,3.4,3.01,4.59,4.9,.66,1.05,2.01,.95,2.69,0,1.47-2.05,2.87-4.15,4.24-6.26,1.53-2.37,3.06-4.78,4.34-7.32,3.86,2.03,7.57,4.42,10.81,7.34,3.31,2.97,6.27,6.57,7.41,10.93h3.21s0-.09-.02-.14ZM28.04,63.91c-.02,.1-.05,.19-.08,.28-.04,.07-.07,.13-.11,.19-.04,.04-.08,.08-.12,.12-.06,.04-.13,.08-.19,.11-.07,.02-.14,.04-.21,.06-.08,0-.15,0-.23,0-.07-.02-.14-.04-.21-.06-.07-.04-.13-.07-.19-.11-.04-.04-.08-.08-.12-.12-.04-.06-.08-.13-.11-.19-.02-.07-.04-.14-.06-.21,0-.08,0-.15,0-.23,.02-.07,.04-.14,.06-.21,.04-.07,.07-.13,.11-.19,.04-.04,.08-.08,.12-.12,.06-.04,.13-.08,.19-.11,.07-.02,.14-.04,.21-.06,.08,0,.15,0,.23,0,.07,.02,.14,.04,.21,.06,.07,.04,.13,.07,.19,.11,.04,.04,.08,.08,.12,.12,.04,.06,.08,.13,.11,.19,.03,.09,.06,.19,.08,.28,0,.02,0,.03,0,.05,0,.02,0,.03,0,.05Z"/><path class="cls-8" d="M66.13,42.82c.41-.77,.18-1.67-.56-2.13-.91-.57-1.91-1.07-2.97-1.26-1.38-.25-2.74-.13-4.1,.2-.79,.19-1.34,1.13-1.09,1.92,.27,.82,1.07,1.3,1.92,1.09,.31-.07,.61-.13,.92-.19h.06c.14-.02,.27-.03,.41-.04,.25-.01,.51-.01,.76,0,.05,0,.1,0,.16,0h.02c.06,.02,.13,.03,.19,.04,.21,.04,.42,.09,.62,.16,.11,.03,.21,.07,.32,.11h.03c.41,.2,.8,.42,1.19,.66,.69,.44,1.75,.17,2.13-.56Z"/><path class="cls-8" d="M44.97,39.63c-1.36-.33-2.72-.45-4.1-.2-1.06,.19-2.06,.69-2.97,1.26-.69,.44-1.03,1.41-.56,2.13,.44,.69,1.39,1.02,2.13,.56,.38-.24,.77-.45,1.17-.65h0c.1-.04,.21-.08,.32-.12,.22-.07,.43-.13,.66-.17,.03,0,.08-.01,.14-.02,.07,0,.16-.02,.19-.02,.25-.02,.51-.02,.76,0,.14,0,.27,.02,.41,.03,.03,0,.05,0,.08,0,.32,.06,.64,.12,.95,.19,.79,.19,1.73-.25,1.92-1.09,.18-.8-.24-1.71-1.09-1.92Z"/><path class="cls-8" d="M61.33,47.61c-2,0-2.01,3.12,0,3.12s2.01-3.12,0-3.12Z"/><path class="cls-8" d="M52.45,63.34c2,0,2.01-3.12,0-3.12s-2.01,3.12,0,3.12Z"/><path class="cls-8" d="M49.04,68.53c-.09-.06-.17-.12-.26-.18-.02-.01-.02,0-.03-.02,0,0,0,0,0,0-.16-.16-.34-.3-.51-.47-.59-.6-1.61-.59-2.2,0-.6,.6-.59,1.6,0,2.2,3.29,3.38,9.33,3.25,12.51-.21,.57-.62,.61-1.59,0-2.2-.58-.58-1.63-.62-2.2,0-.16,.17-.32,.33-.49,.49,0,0-.11,.09-.16,.14-.06,.04-.15,.11-.16,.12-.18,.13-.38,.24-.57,.35-.07,.04-.35,.17-.42,.21-.39,.15-.8,.28-1.21,.36-.11,.02-.22,.04-.33,.06h-.04c-.24,.02-.49,.04-.73,.04-.22,0-.44,0-.66-.03-.08,0-.16-.02-.25-.03-.03,0-.07-.01-.12-.02-.43-.09-.84-.2-1.26-.35-.07-.03-.34-.16-.05-.01-.1-.05-.19-.09-.29-.14-.19-.1-.37-.2-.55-.31Zm3.98,.84s.03,0,0,0h0Z"/><path class="cls-8" d="M43.29,47.61c-2,0-2.01,3.12,0,3.12s2.01-3.12,0-3.12Z"/><path class="cls-5" d="M27.84,64.38c.04-.06,.08-.13,.11-.19,.03-.09,.06-.19,.08-.28,0-.02,0-.03,0-.05,0-.02,0-.03,0-.05-.02-.1-.05-.19-.08-.28-.04-.07-.07-.13-.11-.19-.04-.04-.08-.08-.12-.12-.06-.04-.13-.08-.19-.11-.07-.02-.14-.04-.21-.06-.08,0-.15,0-.23,0-.07,.02-.14,.04-.21,.06-.07,.04-.13,.07-.19,.11-.04,.04-.08,.08-.12,.12-.04,.06-.08,.13-.11,.19-.02,.07-.04,.14-.06,.21,0,.08,0,.15,0,.23,.02,.07,.04,.14,.06,.21,.04,.07,.07,.13,.11,.19,.04,.04,.08,.08,.12,.12,.06,.04,.13,.08,.19,.11,.07,.02,.14,.04,.21,.06,.08,0,.15,0,.23,0,.07-.02,.14-.04,.21-.06,.07-.04,.13-.07,.19-.11,.04-.04,.08-.08,.12-.12Z"/><path class="cls-8" d="M40.72,12.99c-.38-.41-.98-.55-1.57-.47-4.84,.69-8.29,4.75-10.63,8.74-2.72,4.64-4.47,9.83-5.96,14.97-1.75,6.03-3.54,12.08-5.09,18.17-1.56,6.15-3.34,13.56-.4,19.58,2.74,5.61,9.12,8.02,14.75,9.59,1.04,.29,1.76-.45,1.9-1.28-.65-.15-1.34-.39-2.2-.83,.86,.43,1.55,.68,2.2,.83,.12-.71-.18-1.48-1.07-1.73-4.49-1.25-9.76-2.97-12.35-7.17-3.07-4.98-1.38-11.77-.11-17.05,1.43-5.93,3.26-11.79,4.9-17.67,1.29-4.61,2.73-9.23,4.86-13.53,1.89-3.8,4.57-8.14,8.85-9.37,.09-1.43,.87-2.17,1.9-2.79Z"/><path class="cls-8" d="M40.72,12.99c-1.03,.62-1.81,1.36-1.9,2.79,.38-.11,.76-.2,1.16-.26,.84-.12,1.28-1.18,1.09-1.92-.07-.26-.2-.45-.35-.62Z"/><path class="cls-4" d="M92.4,109.79c-3.25-2.92-6.95-5.31-10.81-7.34-1.28,2.53-2.81,4.95-4.34,7.32-1.37,2.12-2.77,4.21-4.24,6.26-.68,.95-2.03,1.05-2.69,0-1.19-1.89-2.87-3.5-4.59-4.9-.09-.08-.17-.15-.23-.23-1.06-1.28,.99-3.15,2.44-1.97,1.32,1.08,2.59,2.31,3.69,3.65,.94-1.36,1.86-2.73,2.76-4.12,1.91-2.94,3.93-5.99,5.3-9.25-1.61-1.57-3.22-3.13-4.83-4.7-2.45,4.41-5.95,8.38-9.15,12.2-2.6,3.11-5.3,6.13-7.94,9.21-1.13,1.32-2.25,2.64-3.34,3.98-.56,.69-1.3,.64-1.84,.24-.37,.01-.74-.12-1.08-.48-1.24-1.32-2.45-2.66-3.67-4-6.07-6.68-11.87-13.61-17.48-20.67-1.44,1.75-2.88,3.51-4.32,5.26,1.26,4.14,2.58,8.27,3.95,12.38,1.64-2.39,3.28-4.78,4.92-7.17,.71-1.03,1.97-.96,2.69,0,1.21,1.62,2.48,3.34,4.02,4.66,.68,.58,.61,1.34,.2,1.89-.51,.68-1.56,1.03-2.4,.31-1.15-.99-2.16-2.19-3.1-3.42-1.82,2.66-3.65,5.32-5.47,7.98-.77,1.12-2.4,.94-2.85-.37-.67-1.95-1.32-3.92-1.96-5.88-.65-1.99-1.29-3.98-1.91-5.97-.2-.64-.39-1.27-.59-1.91-1.97,.83-3.89,1.76-5.82,2.69-2.24,1.08-4.55,2.05-6.78,3.17-1.81,.91-3.34,2.25-4.7,3.74-2.28,2.51-4.06,5.42-5.71,8.37H99.81c-1.14-4.36-4.1-7.96-7.41-10.93Z"/></g></g></g></svg>