<?xml version="1.0" encoding="UTF-8"?><svg id="_イヤー_2" xmlns="http://www.w3.org/2000/svg" xmlns:xlink="http://www.w3.org/1999/xlink" viewBox="0 0 100 120"><defs><style>.cls-1,.cls-2{fill:none;}.cls-3{clip-path:url(#clippath);}.cls-4{fill:url(#_規パターンスウォッチ_1);}.cls-5{fill:#fff;}.cls-6{fill:#ffe159;}.cls-7{fill:#40c6de;}.cls-8{fill:#2e2e2e;}.cls-2{stroke:#ffe159;stroke-miterlimit:10;stroke-width:5px;}</style><clipPath id="clippath"><rect class="cls-1" width="100" height="120"/></clipPath><pattern id="_規パターンスウォッチ_1" x="0" y="0" width="25" height="25" patternTransform="translate(-5362.46 -8285.87) rotate(-45) scale(.22)" patternUnits="userSpaceOnUse" viewBox="0 0 25 25"><g><rect class="cls-1" width="25" height="25"/><rect class="cls-5" x="24.29" y="24.29" width="26.43" height="26.43"/><rect class="cls-5" x="-.71" y="24.29" width="26.43" height="26.43"/><rect class="cls-5" x="-25.71" y="24.29" width="26.43" height="26.43"/><g><rect class="cls-5" x="24.29" y="-.71" width="26.43" height="26.43"/><line class="cls-2" x1="23.61" y1="12.5" x2="51.39" y2="12.5"/></g><g><rect class="cls-5" x="-.71" y="-.71" width="26.43" height="26.43"/><line class="cls-2" x1="-1.39" y1="12.5" x2="26.39" y2="12.5"/></g><g><rect class="cls-5" x="-25.71" y="-.71" width="26.43" height="26.43"/><line class="cls-2" x1="-26.39" y1="12.5" x2="1.39" y2="12.5"/></g><rect class="cls-5" x="24.29" y="-25.71" width="26.43" height="26.43"/><rect class="cls-5" x="-.71" y="-25.71" width="26.43" height="26.43"/><rect class="cls-5" x="-25.71" y="-25.71" width="26.43" height="26.43"/></g></pattern></defs><g id="_イヤー_1-2"><g><rect class="cls-7" width="100" height="120"/><g class="cls-3"><path class="cls-5" d="M65.55,49.52s-.03-.46-.02-.45c-.01-.09-.03-.18-.05-.26-.03-.16-.07-.31-.12-.46,0,0-.11-.29-.1-.29-.23-.52-.46-.85-.78-1.18-.76-.8-1.58-1.23-2.74-1.44-1.77-.32-3.85,.51-4.79,2-.13,.21-.25,.42-.35,.65-.02,.05-.06,.16-.07,.19-.04,.13-.08,.25-.11,.38-.03,.1-.05,.21-.07,.31-.01,.05-.02,.09-.03,.11,0,.03,0,.06,0,.12,0,.25-.01,.49,0,.74,0,.05,0,.06,0,.07,.01,.08,.03,.16,.04,.24,.02,.1,.05,.21,.08,.31,.04,.13,.08,.25,.12,.38,.01,.03,.02,.05,.02,.06l.04,.08c.1,.21,.23,.41,.35,.61,.14,.22,.08,.15,.29,.38,1.33,1.48,3.36,1.97,5.28,1.34,.8-.26,1.57-.76,2.19-1.55,.02-.04,.16-.24,.16-.24,.07-.11,.14-.22,.2-.34,.06-.11,.11-.21,.16-.32l.04-.1c.2-.59,.23-.84,.24-1.33Zm-4.39,.74c-1.98,0-1.98-3.07,0-3.07s1.98,3.07,0,3.07Z"/><path class="cls-5" d="M43.83,53.39c.89-.28,1.66-.79,2.3-1.52,.53-.62,.85-1.53,.86-2.34-.02-.93-.38-1.86-1.08-2.59-.78-.81-1.75-1.29-2.95-1.5-1.87-.33-4.13,.49-5.12,1.95-1.07,1.57-.9,3.4,.38,4.72,1.39,1.44,3.63,1.91,5.62,1.28Zm-1.52-6.2c1.98,0,1.98,3.07,0,3.07s-1.98-3.07,0-3.07Z"/><path class="cls-6" d="M52.43,68.65s.03,0,0,0h0Z"/><path class="cls-4" d="M95.08,109.79c-3.16-2.8-6.79-5.02-10.5-7.01-1.67-.9-3.39-1.72-5.11-2.54-.03,.02-.05,.04-.08,.05-2.86,1.55-6.42,1.89-9.59,2.27-9.07,1.09-18.32,1.11-27.44,.76-4.31-.16-8.63-.43-12.91-.97-2.86-.36-5.9-.69-8.59-1.79-2.99,1.07-5.91,2.34-8.69,3.91-6.65,3.75-12.01,9.17-15.1,16.1H102.95c-1.78-4.15-4.48-7.77-7.87-10.78Z"/><path class="cls-8" d="M71.64,75.31c-.57-.79-.46-2.1,.76-2.39,2.18-.53,4.3-2.26,5.79-4.18,1.58-2.03,2.4-4.57,2.76-7.08,.7-4.89-.12-9.97-1.18-14.74-.93-4.19-2.08-8.36-3.3-12.48-1.33-4.5-2.86-9-5.18-13.09-1.96-3.45-4.69-7-8.87-7.6-.82-.12-1.28-1.17-1.07-1.89,.09-.31,.27-.53,.47-.7-1.1-.86-2.33-1.39-3.62-1.67,.17,1.05-1.01,2.31-2.32,1.69-6.92-3.33-15.86-1.1-21.1,4.29-4.32,4.44-7.03,10.39-9.12,16.15-2.08,5.73-3.86,11.68-5.19,17.63-1.27,5.66-2.95,11.75-.64,17.35,1.73,4.2,5.17,7.31,9.48,7.98-2.88-1.69-4.98-4.32-6.05-7.48-.64-1.88,2.33-2.68,2.96-.82,.83,2.44,2.51,4.42,4.73,5.7,.76,.44,1.08,.65,1.69,.44-1.32-1.08-2.21-2.56-2.78-4.38-.86-2.7-1.7-5.38-1.78-8.23-.19-6.52,2.28-12.9,1.78-19.42-.07-.97,.63-1.46,1.38-1.47,.13-.09,.27-.16,.42-.22,1.29-.43,2.53-1.04,3.69-1.78,.15-.2,.35-.35,.62-.43,2.85-1.98,5.16-4.8,6.36-8,.29-.78,1.03-1.31,1.89-1.07,.75,.21,1.36,1.11,1.07,1.89-1.08,2.87-2.78,5.44-4.94,7.54,1.14,.1,2.27,.14,3.39,0,2.23-.25,4.2-1.51,5.9-2.91,4.38-3.61,7.3-8.66,8.34-14.23,.35-1.85,3.04-1.19,2.99,.55,.06,.03,.13,.05,.19,.08,8.58,4.63,12.41,15.58,12.47,25.05,.09-.02,.18-.04,.26-.05,1.67-.28,3.23,.19,4.48,1.34,2.15,1.99,2.54,5.23,2.03,7.97-.23,1.22-.75,2.44-1.43,3.55,.13,.4,.2,.82,.21,1.23,0,.11-.01,.22-.03,.33-.08,.85-.41,1.61-.96,2.27-.5,.6-1.3,1.07-2.07,1.21-.74,.13-1.43,.08-2.11-.15-.06,.32-.12,.65-.18,.97-.45,2.58-1.02,4.94-2.12,7.36-.85,1.89-1.95,3.68-3.22,5.33,1.24-.09,2.38-.41,3.15-1.44Z"/><path class="cls-5" d="M37.58,83.52c-.01,4.28-1.21,8.51-4.49,11.43-2.04,1.81-4.48,2.96-7.02,3.87,1.68,.3,3.4,.48,5.05,.66,8.91,.96,17.95,1.12,26.9,.83,4.17-.13,8.35-.36,12.48-.91,1.47-.19,2.94-.44,4.39-.78,.3-.07,.59-.14,.87-.22-.76-.39-1.52-.78-2.26-1.2-2.71-1.53-5.12-3.56-6.72-6.27-1.74-2.95-2.41-6.38-2.65-9.78-4.77,3.7-10.94,5.43-16.93,4.1-3.33-.74-6.29-2.62-9.13-4.44-.68-.44-1.31-.92-1.91-1.42v2.65c.73,.05,1.42,.54,1.41,1.47Z"/><path class="cls-5" d="M77.18,50.29c-.33-.83-.98-1.74-1.9-1.95-.49-.11-1.04,.02-1.5,.18-.12,.04-.27,.13-.39,.15-.08,.01-.14,.05-.19,.09-.19,.25-.16,.11,0,0,.05-.06,.1-.14,.18-.27-.72,1.14-2.68,.85-2.83-.52-.68,.16-1.35,.33-2.03,.49,.04,.22,.05,.45,.07,.68,.02,.12,.04,.24,.04,.37-.05,3.45-2.68,6.42-6.06,7.05-3.13,.58-6.37-.6-8.18-3.28-.57-.84-.89-1.77-1.02-2.72h-3.41c-.55,3.12-3.22,5.51-6.36,6.02-3.21,.52-6.55-.66-8.41-3.39-.94-1.38-1.24-3-1.02-4.56l-1.68-.54c-.49,3.27-1.16,6.53-1.3,9.81-.06,1.38-.05,2.79,.19,4.15,.23,1.27,.7,2.47,1.05,3.71,.65,2.29,1.28,4.32,3.76,5.11,1.45,.46,1.47,2.52,0,2.96,.27-.08-.31,.28-.38,.33-.01,0-.02,.01-.03,.02,1.15,2.29,3.3,3.64,5.5,4.95,2.77,1.65,5.39,3.16,8.67,3.43,5.59,.46,10.84-1.95,14.65-5.97,3.49-3.68,5.4-8.18,6.24-13.11,.13-.78,.22-1.59,.44-2.35,.08-.26,.17-.46,.29-.63-.13-.43-.19-.89-.15-1.32,.09-.89,.39-1.65,.97-2.34,.96-1.16,2.76-1.64,4.17-1.11,.08,.03,.16,.07,.24,.11,.03-.05,.05-.1,.08-.15,.8-1.6,.97-3.75,.31-5.42Zm-25.32,9.34c1.98,0,1.98,3.07,0,3.07s-1.98-3.07,0-3.07Zm6,9.5c-3.13,3.42-9.09,3.53-12.33,.21-.58-.6-.59-1.58,0-2.17,.58-.58,1.59-.59,2.17,0,.16,.16,.34,.3,.5,.46,0,0,0,0,0,0,.01,0,0,0,.03,.02,.09,.06,.17,.12,.26,.17,.18,.11,.36,.22,.55,.31,.09,.05,.19,.09,.29,.14-.29-.14-.03-.01,.04,.01,.41,.14,.81,.25,1.24,.34,.05,.01,.09,.02,.12,.02,.08,0,.16,.02,.24,.02,.22,.02,.43,.03,.65,.03,.24,0,.48-.02,.72-.04h.04c.11-.02,.22-.04,.33-.06,.41-.08,.8-.21,1.19-.36,.07-.04,.35-.17,.42-.2,.19-.11,.38-.22,.56-.35,.02-.01,.11-.08,.16-.12,.06-.05,.16-.14,.16-.14,.17-.15,.33-.31,.48-.48,.56-.61,1.6-.57,2.17,0,.6,.6,.56,1.56,0,2.17Z"/><path class="cls-5" d="M32.97,41.48c.03,1.18,0,2.36-.11,3.53,.79,.25,1.58,.51,2.38,.76,.2-.31,.43-.61,.69-.89,2.14-2.34,5.74-3.13,8.72-2.19,2.37,.75,4.3,2.52,5.05,4.81h3.91c.29-.93,.75-1.81,1.39-2.57,2-2.36,5.55-3.21,8.46-2.23,1.6,.54,2.95,1.57,3.87,2.89,1.08-.26,2.15-.52,3.23-.79-.21-8.06-3.29-17.22-10.31-21.44-1.54,5.05-4.57,9.67-8.69,12.97-2.11,1.69-4.42,3.13-7.14,3.5-2.49,.34-5-.05-7.48-.3-1.24,.78-2.57,1.43-3.97,1.93Zm24.72-2.84c1.18-.38,2.46-.62,3.69-.47,1.19,.14,2.27,.54,3.33,1.11,.76,.41,.93,1.39,.55,2.1-.4,.75-1.39,.93-2.1,.55-.21-.11-.42-.22-.64-.32l-.06-.03c-.08-.04-.17-.07-.26-.1-.2-.07-.41-.13-.62-.18-.1-.02-.2-.04-.3-.06h-.02c-.45-.04-.89,0-1.34,0-.05,0-.1,.02-.15,.03-.13,.02-.26,.05-.39,.08-.3,.07-.59,.15-.88,.25-.82,.26-1.64-.31-1.89-1.07-.26-.81,.31-1.65,1.07-1.89Z"/><path class="cls-8" d="M58.5,41.6c.29-.09,.58-.18,.88-.25,.13-.03,.26-.06,.39-.08,.05,0,.1-.02,.15-.03,.45-.02,.88-.05,1.34-.01h.02c.1,.02,.2,.04,.3,.07,.21,.05,.42,.11,.62,.18,.08,.03,.17,.06,.26,.1l.06,.03c.22,.1,.43,.21,.64,.32,.71,.38,1.7,.2,2.1-.55,.38-.71,.2-1.69-.55-2.1-1.06-.57-2.14-.96-3.33-1.11-1.24-.15-2.52,.09-3.69,.47-.76,.24-1.34,1.08-1.07,1.89,.25,.77,1.07,1.33,1.89,1.07Z"/><path class="cls-8" d="M61.16,47.19c-1.98,0-1.98,3.07,0,3.07s1.98-3.07,0-3.07Z"/><path class="cls-8" d="M51.86,62.7c1.98,0,1.98-3.07,0-3.07s-1.98,3.07,0,3.07Z"/><path class="cls-8" d="M55.69,66.96c-.15,.17-.31,.33-.48,.48,0,0-.1,.09-.16,.14-.06,.04-.15,.11-.16,.12-.18,.13-.37,.24-.56,.35-.07,.04-.35,.17-.42,.2-.39,.15-.78,.27-1.19,.36-.11,.02-.22,.04-.33,.06h-.04c-.24,.02-.48,.04-.72,.04-.22,0-.44,0-.65-.03-.08,0-.16-.02-.24-.02-.03,0-.07-.01-.12-.02-.42-.09-.83-.2-1.24-.34-.07-.02-.33-.16-.04-.01-.09-.05-.19-.09-.29-.14-.19-.09-.37-.2-.55-.31-.09-.06-.17-.12-.26-.17-.02-.01-.02,0-.03-.02,0,0,0,0,0,0-.16-.16-.34-.3-.5-.46-.58-.59-1.59-.58-2.17,0-.59,.59-.58,1.58,0,2.17,3.24,3.33,9.2,3.21,12.33-.21,.56-.61,.6-1.57,0-2.17-.57-.57-1.61-.61-2.17,0Zm-3.26,1.7s.03,0,0,0h0Z"/><path class="cls-8" d="M42.31,50.27c1.98,0,1.98-3.07,0-3.07s-1.98,3.07,0,3.07Z"/><path class="cls-8" d="M89.65,102.12c-3.71-2.24-7.63-4.12-11.52-6.01-2.76-1.34-5.55-2.73-7.57-5.13-2.74-3.26-3.34-7.72-3.45-11.83,0-.23-.06-.43-.14-.61,.54-.58,1.04-1.18,1.52-1.81-.52,.04-1.07,.04-1.61,.04,.54,0,1.09,0,1.61-.04,1.28-1.65,2.37-3.44,3.22-5.33,1.09-2.42,1.67-4.77,2.12-7.36,.06-.33,.12-.65,.18-.97,.68,.23,1.37,.28,2.11,.15,.77-.14,1.57-.61,2.07-1.21,.55-.66,.88-1.42,.96-2.27,.02-.1,.04-.21,.03-.33,0-.41-.08-.83-.21-1.23,.69-1.11,1.21-2.33,1.43-3.55,.51-2.74,.12-5.98-2.03-7.97-1.25-1.15-2.8-1.62-4.48-1.34-.08,.01-.17,.03-.26,.05-.06-9.47-3.89-20.42-12.47-25.05-.06-.03-.13-.05-.19-.08,.05-1.73-2.64-2.39-2.99-.55-1.04,5.57-3.96,10.62-8.34,14.23-1.69,1.4-3.67,2.66-5.9,2.91-1.12,.13-2.25,.09-3.39,0,2.15-2.1,3.86-4.67,4.94-7.54,.29-.78-.32-1.68-1.07-1.89-.86-.24-1.6,.29-1.89,1.07-1.21,3.2-3.51,6.02-6.36,8-.26,.08-.47,.23-.62,.43-1.16,.74-2.4,1.35-3.69,1.78-.15,.05-.29,.13-.42,.22-.75,.02-1.46,.5-1.38,1.47,.5,6.52-1.96,12.89-1.78,19.42,.08,2.85,.93,5.53,1.78,8.23,.58,1.82,1.46,3.3,2.78,4.38-.61,.21-.93,0-1.69-.44-2.23-1.28-3.9-3.26-4.73-5.7-.63-1.86-3.6-1.06-2.96,.82,1.08,3.16,3.17,5.79,6.05,7.48-4.31-.67-7.75-3.78-9.48-7.98-2.31-5.6-.63-11.69,.64-17.35,1.34-5.95,3.12-11.9,5.19-17.63,2.09-5.75,4.8-11.71,9.12-16.15,5.24-5.38,14.18-7.62,21.1-4.29,1.3,.63,2.48-.63,2.32-1.69-.85-.19-1.72-.28-2.59-.28,.87,0,1.74,.09,2.59,.28-.06-.38-.29-.74-.77-.96-6.93-3.33-15.82-2.26-21.99,2.31-5.54,4.1-8.93,10.53-11.5,16.77-2.59,6.29-4.56,12.97-6.14,19.58-.84,3.49-1.5,7.05-2.03,10.6-.45,3-.18,6.07,.84,8.93,2.34,6.61,8.25,11.68,15.53,11.03,.8-.07,1.27-.64,1.42-1.26,.7,1.11,1.59,2.06,2.61,2.92v0c.6,.5,1.22,.99,1.91,1.42,2.84,1.82,5.8,3.7,9.13,4.44,6,1.33,12.16-.39,16.93-4.1,.24,3.4,.91,6.82,2.65,9.78,1.59,2.71,4.01,4.74,6.72,6.27,.74,.42,1.5,.81,2.26,1.2-.28,.08-.57,.15-.87,.22-1.45,.34-2.92,.58-4.39,.78-4.13,.54-8.32,.77-12.48,.91-8.95,.29-17.99,.13-26.9-.83-1.65-.18-3.36-.36-5.05-.66,2.53-.91,4.98-2.06,7.02-3.87,3.28-2.92,4.48-7.15,4.49-11.43,0-.94-.69-1.42-1.41-1.47v0c-.81-.05-1.66,.43-1.66,1.47,0,3.62-.96,7.04-3.8,9.44-2.7,2.28-6.22,3.13-9.48,4.23-7.71,2.61-15.21,6.48-20.76,12.57-2.9,3.18-5.11,6.84-6.71,10.81H-2.93c3.09-6.93,8.45-12.35,15.1-16.1,2.78-1.57,5.7-2.84,8.69-3.91,2.69,1.1,5.73,1.43,8.59,1.79,4.28,.54,8.6,.81,12.91,.97,9.12,.35,18.37,.33,27.44-.76,3.17-.38,6.73-.72,9.59-2.27,.03-.02,.05-.04,.08-.05,1.72,.82,3.43,1.64,5.11,2.54,3.71,1.99,7.35,4.21,10.5,7.01,3.39,3.01,6.09,6.63,7.87,10.78h3.3c-3.16-8.11-9.23-14.02-16.61-18.46Zm-13.54-42.64c-.02,.09-.05,.19-.08,.28-.03,.06-.07,.13-.11,.19-.04,.04-.08,.08-.12,.12-.06,.04-.12,.08-.19,.11-.07,.02-.14,.04-.21,.06-.08,0-.15,0-.23,0-.07-.02-.14-.04-.21-.06-.06-.03-.13-.07-.19-.11-.04-.04-.08-.08-.12-.12-.04-.06-.08-.12-.11-.19-.02-.07-.04-.14-.06-.21,0-.08,0-.15,0-.23,.02-.07,.04-.14,.06-.21,.03-.06,.07-.13,.11-.19,.04-.04,.08-.08,.12-.12,.06-.04,.12-.08,.19-.11,.07-.02,.14-.04,.21-.06,.08,0,.15,0,.23,0,.07,.02,.14,.04,.21,.06,.06,.03,.13,.07,.19,.11,.04,.04,.08,.08,.12,.12,.04,.06,.08,.12,.11,.19,.03,.09,.06,.18,.08,.28,0,.02,0,.03,0,.05,0,.02,0,.03,0,.05Zm-43.14-17.99c1.4-.5,2.73-1.15,3.97-1.93,2.48,.24,5,.64,7.48,.3,2.72-.38,5.03-1.82,7.14-3.5,4.12-3.3,7.15-7.92,8.69-12.97,7.02,4.22,10.1,13.38,10.31,21.44-1.08,.26-2.15,.52-3.23,.79-.92-1.32-2.27-2.35-3.87-2.89-2.9-.98-6.45-.13-8.46,2.23-.65,.76-1.1,1.64-1.39,2.57h-3.91c-.76-2.29-2.68-4.07-5.05-4.81-2.99-.94-6.58-.15-8.72,2.19-.25,.28-.48,.58-.69,.89-.79-.25-1.58-.51-2.38-.76,.11-1.17,.14-2.35,.11-3.53Zm32.58,8.04c0,.49-.04,.74-.24,1.33l-.04,.1c-.05,.11-.1,.22-.16,.32-.06,.12-.13,.23-.2,.34,0,0-.14,.2-.16,.24-.62,.78-1.39,1.29-2.19,1.55-1.93,.62-3.95,.14-5.28-1.34-.2-.23-.15-.15-.29-.38-.12-.2-.25-.4-.35-.61l-.04-.08s0-.03-.02-.06c-.04-.12-.09-.25-.12-.38-.03-.1-.05-.21-.08-.31-.02-.08-.03-.16-.04-.24,0,0,0-.02,0-.07-.02-.25,0-.49,0-.74,0-.06,0-.09,0-.12,0-.03,.01-.06,.03-.11,.02-.1,.04-.21,.07-.31,.03-.13,.07-.25,.11-.38,0-.03,.05-.14,.07-.19,.1-.22,.22-.44,.35-.65,.94-1.48,3.03-2.32,4.79-2,1.15,.21,1.98,.63,2.74,1.44,.32,.33,.55,.66,.78,1.18,0,0,.1,.29,.1,.29,.05,.15,.09,.31,.12,.46,.02,.09,.04,.17,.05,.26,0,0,.02,.41,.02,.45Zm-18.56,0c-.01,.82-.33,1.73-.86,2.34-.64,.74-1.41,1.24-2.3,1.52-1.99,.63-4.22,.16-5.62-1.28-1.28-1.33-1.45-3.15-.38-4.72,.99-1.46,3.25-2.27,5.12-1.95,1.21,.21,2.17,.69,2.95,1.5,.7,.73,1.07,1.66,1.08,2.59Zm17.6,27.09c-3.81,4.02-9.06,6.43-14.65,5.97-3.28-.27-5.91-1.78-8.67-3.43-2.2-1.31-4.36-2.67-5.5-4.95,.01,0,.02-.01,.03-.02,.07-.05,.65-.41,.38-.33,1.47-.45,1.45-2.5,0-2.96-2.48-.79-3.11-2.81-3.76-5.11-.35-1.24-.82-2.44-1.05-3.71-.24-1.36-.25-2.77-.19-4.15,.14-3.28,.81-6.54,1.3-9.81l1.68,.54c-.22,1.56,.08,3.18,1.02,4.56,1.86,2.73,5.2,3.91,8.41,3.39,3.15-.51,5.82-2.9,6.36-6.02h3.41c.14,.95,.46,1.88,1.02,2.72,1.8,2.68,5.04,3.86,8.18,3.28,3.38-.63,6.01-3.59,6.06-7.05,0-.13-.01-.26-.04-.37-.02-.23-.03-.46-.07-.68,.68-.16,1.35-.33,2.03-.49,.15,1.36,2.11,1.66,2.83,.52-.08,.12-.13,.2-.18,.27,.05-.04,.12-.07,.19-.09,.12-.02,.27-.11,.39-.15,.46-.16,1.01-.29,1.5-.18,.92,.21,1.57,1.11,1.9,1.95,.66,1.68,.49,3.82-.31,5.42-.02,.05-.05,.1-.08,.15-.08-.04-.16-.08-.24-.11-1.42-.53-3.21-.05-4.17,1.11-.57,.69-.88,1.45-.97,2.34-.04,.43,.02,.89,.15,1.32-.11,.17-.21,.37-.29,.63-.22,.76-.31,1.57-.44,2.35-.85,4.93-2.75,9.43-6.24,13.11Z"/><path class="cls-8" d="M83.37,49.28c-.84-4.7-2.14-9.31-3.43-13.9-1.4-4.96-3.01-9.93-5.41-14.51-2.34-4.46-5.94-9.31-11.29-10.08-.53-.08-1.04,.05-1.42,.37,.73,.57,1.4,1.26,1.99,2.14-.59-.88-1.26-1.57-1.99-2.14-.21,.18-.39,.39-.47,.7-.21,.72,.25,1.77,1.07,1.89,4.18,.6,6.91,4.14,8.87,7.6,2.32,4.09,3.85,8.59,5.18,13.09,1.22,4.12,2.36,8.28,3.3,12.48,1.07,4.78,1.88,9.85,1.18,14.74-.36,2.52-1.18,5.05-2.76,7.08-1.49,1.91-3.61,3.65-5.79,4.18-1.22,.3-1.33,1.6-.76,2.39,.13-.17,.25-.35,.36-.57-.11,.22-.23,.4-.36,.57,.33,.45,.88,.74,1.58,.57,2.31-.56,4.19-2.01,5.91-3.63,1.92-1.8,3.25-4.14,4.06-6.63,1.69-5.24,1.15-11.02,.19-16.35Z"/><path class="cls-8" d="M73.2,48.76c-.16,.11-.19,.25,0,0h0Z"/><path class="cls-5" d="M75.8,58.8c-.06-.04-.12-.08-.19-.11-.07-.02-.14-.04-.21-.06-.08,0-.15,0-.23,0-.07,.02-.14,.04-.21,.06-.06,.03-.13,.07-.19,.11-.04,.04-.08,.08-.12,.12-.04,.06-.08,.12-.11,.19-.02,.07-.04,.14-.06,.21,0,.08,0,.15,0,.23,.02,.07,.04,.14,.06,.21,.03,.06,.07,.13,.11,.19,.04,.04,.08,.08,.12,.12,.06,.04,.12,.08,.19,.11,.07,.02,.14,.04,.21,.06,.08,0,.15,0,.23,0,.07-.02,.14-.04,.21-.06,.06-.03,.13-.07,.19-.11,.04-.04,.08-.08,.12-.12,.04-.06,.08-.12,.11-.19,.03-.09,.06-.18,.08-.28,0-.02,0-.03,0-.05,0-.02,0-.03,0-.05-.02-.09-.05-.19-.08-.28-.03-.06-.07-.13-.11-.19-.04-.04-.08-.08-.12-.12Z"/></g></g></g></svg>