<?xml version="1.0" encoding="UTF-8"?><svg id="_イヤー_2" xmlns="http://www.w3.org/2000/svg" xmlns:xlink="http://www.w3.org/1999/xlink" viewBox="0 0 100 120"><defs><style>.cls-1{fill:none;}.cls-2{clip-path:url(#clippath);}.cls-3{fill:#fff;}.cls-4{fill:#ffe159;}.cls-5{fill:#fcb500;}.cls-6{fill:#2e2e2e;}</style><clipPath id="clippath"><rect class="cls-1" width="100" height="120"/></clipPath></defs><g id="_イヤー_1-2"><g><rect class="cls-5" width="100" height="120"/><g class="cls-2"><path class="cls-4" d="M75.55,42.41h.02s.06,0,.09,0h-.11Z"/><path class="cls-4" d="M75.54,42.42l-.14,.02c.06,0,.11-.01,.16-.02h-.02Z"/><path class="cls-4" d="M44.85,42.83s.06,0,.08,0c-.09-.01-.11-.01-.08,0Z"/><path class="cls-4" d="M44.93,42.84h.03s.03,0,.05,0c-.03,0-.05,0-.08,0Z"/><path class="cls-3" d="M37.23,83.35c-.44,2.18-.87,4.45-1.61,6.55-.82,2.32-2.7,4.09-4.84,5.24,2.71,1.72,5.47,3.37,8.23,5,1.74,1.03,3.49,2.05,5.25,3.05,1.7,.97,3.44,2.09,5.29,2.71,3.98,1.34,8.35-1.33,11.63-3.37,3.99-2.48,7.94-5.03,11.89-7.56-1.87-1.39-3.27-3.2-4.19-5.57-1.3-3.34-1.75-7-2.15-10.6-2.03,2.24-4.48,4.07-7.34,5.27-5.05,2.11-10.41,1.97-15.43-.2-3.17-1.37-5.93-3.53-8.19-6.14l-.42,3.82c.93-.21,2.15,.55,1.9,1.8Z"/><path class="cls-3" d="M72.82,45.49c.59,.22,1.21,.39,1.84,.49,.09,0,.19,0,.28,0,.08-.23,.14-.46,.21-.69-.28-.03-.56-.07-.83-.13-.49-.11-.98-.26-1.46-.43-.41-.14-.82-.31-1.23-.46,.02,.44,.11,.86,.34,1.24,.28-.09,.6-.12,.84-.02Z"/><path class="cls-3" d="M31.03,45.94c-.26,.1-.52,.2-.79,.26-.02,0-.04,0-.06,0,.09,.17,.16,.34,.26,.51h.02c.05-.01,.1-.03,.15-.04,.06-.03,.12-.06,.18-.1,.17-.15,.37-.27,.59-.33,.13-.02,.26-.04,.39-.05,.3-.01,.58,.09,.82,.26v-1.23c-.51,.26-1.02,.51-1.55,.72Z"/><path class="cls-3" d="M71.94,40.19c-.64,.35-1.53,.33-2.08-.4-1.42-1.88-2.31-3.9-3.1-6.11-.9-2.51-2.01-4.81-3.77-6.84-3.07-3.53-8.06-7.01-12.75-4.17-.7,.43-1.38,.19-1.79-.3-.8,.69-1.21,1.52-1.87,2,0,.06,.02,.13,.02,.19,0,.86-.68,1.39-1.47,1.47-7.02,.75-11.65,7.93-11.43,14.6,.03,.82-.5,1.28-1.12,1.39v.46c.3,.12,.55,.35,.72,.62,.2,.31,.25,.78,.15,1.13-.09,.34-.36,.71-.68,.88-.06,.03-.13,.06-.19,.09v1.23c.08,.05,.15,.11,.22,.17,.14,.13,.24,.29,.3,.47,.09,.18,.13,.36,.13,.57,0,.2-.03,.39-.13,.57-.06,.18-.16,.34-.3,.47-.07,.07-.14,.12-.22,.18v0s-.06,.05-.09,.07c-.1,.08-.2,.16-.3,.22-.22,.14-.46,.23-.7,.32-.13,.05-.27,.08-.41,.1-.07,.01-.15,.02-.22,.03-.42,.42-1.07,.64-1.75,.32,.41,.19-.24-.08-.52-.15-.45-.12-.92-.17-1.39-.09-1.6,.29-2.29,2.51-2.35,3.91-.08,1.93,.83,4.17,2.35,5.39,1.01,.81,2.66,.96,3.9,1.23,.68,.15,1.01,.8,1.08,1.42,.14,1.2,.24,2.42,.47,3.61,.52,2.65,1.66,5.22,3.09,7.49,2.62,4.18,6.48,7.62,11.24,9.1,4.64,1.45,9.35,.84,13.53-1.63,4.07-2.41,6.47-6.31,8.4-10.5,1.31-2.84,1.83-5.8,2.4-8.86,.09-.47,.57-.93,1.03-1.03,1.4-.3,2.96-.48,4.11-1.42,1-.82,1.59-2.12,1.91-3.35,.34-1.31,.42-2.83-.23-4.06-.33-.62-.86-1.07-1.52-1.32-.08-.03-.14-.03-.22-.05-.46,.45-1.18,.55-1.76,.24-.03-.01-.05-.03-.07-.05-.63-.04-1.14-.55-1.31-1.15-.02,0-.04,0-.06-.01-.39-.1-.77-.22-1.15-.36-.25-.07-.47-.2-.65-.38l-.23-.3c-.22-.33-.23-.76-.15-1.13,.08-.35,.37-.7,.68-.88,.08-.05,.18-.09,.29-.12-.23-.38-.32-.8-.34-1.24-.2-.08-.41-.15-.61-.23-.25-.07-.47-.2-.65-.38l-.23-.3c-.22-.33-.23-.76-.15-1.13,.08-.35,.37-.7,.68-.88,.29-.17,.81-.29,1.13-.15,.05,.02,.1,.04,.16,.06,.03-.37,.03-.73-.03-1.08Zm-19.68,18.18c1.9,0,1.89,2.94,0,2.94s-1.89-2.94,0-2.94Zm-8.37-8.97c-1.9,0-1.89-2.94,0-2.94s1.89,2.94,0,2.94Zm1.25-6.53c-.06-.01-.12-.02-.18-.03-.05,0-.09,0-.11-.01-.08,0-.15-.02-.23-.02-.52-.05-1.04-.07-1.56-.05-.27,0-.53,.02-.8,.04-.1,0-.19,.02-.29,.03-.04,0-.07,.01-.11,.02-.41,.07-.82,.17-1.21,.32-.77,.3-1.58-.33-1.81-1.03-.11-.35-.04-.82,.15-1.13,.21-.35,.51-.53,.88-.68,1-.39,2.13-.49,3.19-.52,1.21-.03,2.45,.09,3.63,.39,.8,.2,1.2,1.05,1.03,1.81-.18,.79-1.06,1.22-1.81,1.03-.26-.06-.51-.12-.77-.17Zm12.58,26.82c-1.62,1.08-3.51,1.77-5.47,1.78-1.94,.02-3.84-.65-5.42-1.76-.67-.47-.93-1.26-.53-2.01,.35-.66,1.38-.97,2.01-.53,.69,.48,1.34,.84,1.98,1.05,.82,.27,1.13,.32,1.96,.31,.78,0,1.2-.08,2.04-.37,.6-.2,1.28-.57,1.94-1.01,.66-.44,1.63-.13,2.01,.53,.42,.72,.13,1.57-.53,2.01Zm3.45-20.29c-1.9,0-1.89-2.94,0-2.94s1.89,2.94,0,2.94Zm4.81-7.27c-.16,.72-1.09,1.31-1.81,1.03-.4-.16-.83-.26-1.25-.33-.02,0-.05,0-.08-.01-.11-.01-.22-.02-.33-.03-.25-.02-.5-.03-.75-.04-.54-.01-1.07,0-1.6,.06-.06,0-.13,.01-.19,.02h-.04l-.1,.02c-.06,.01-.13,.02-.19,.03-.24,.04-.49,.1-.73,.16-.8,.2-1.56-.26-1.81-1.03-.24-.75,.28-1.62,1.03-1.81,1.18-.3,2.42-.42,3.63-.39,1.06,.03,2.19,.13,3.19,.52,.77,.3,1.22,.97,1.03,1.81Z"/><path class="cls-3" d="M76.82,36.32c.28-5.12-.33-10.79-3.59-14.82-.5-.62-.61-1.47,0-2.08,.52-.52,1.58-.62,2.08,0,.12,.15,.23,.3,.34,.45,.35,0,1.06-1.01,1.06-1.52-.13,.07-.27,.14-.44,.17-3.7,.79-6.68-1.54-9.41-3.69-2.66-2.1-5.15-4.11-8.46-5.11-6.17-1.85-13.98-.66-17,5.68-.63,1.32-2.29,.73-2.63-.4-.39,.03-.74,.08-1.05,.18,.43,.25,.74,.69,.74,1.25,0,.76-.68,1.53-1.47,1.47-1.25-.09-2.16,.22-3.28,.95-1.02,.67-2.04,1.72-2.84,2.77-1.66,2.17-2.88,4.71-3.72,7.32,.88,0,1.79,.72,1.49,1.82-1.1,4.01-1.02,8.58,.32,12.62,.08-.01,.16-.02,.23-.01,.06,0,.13,0,.19,0,.27-.06,.52-.14,.78-.24,.38-.17,.76-.35,1.13-.55,.36-.19,.74-.24,1.13-.15,.06,.01,.11,.04,.16,.06v-.46c-.82,.15-1.79-.31-1.82-1.39-.27-8.42,5.77-16.62,14.38-17.54,.73-.08,1.35,.61,1.45,1.28,.66-.48,1.06-1.32,1.87-2-.53-.63-.61-1.69,.3-2.24,2.45-1.48,5.37-1.73,8.11-1.02,2.85,.74,5.17,2.49,7.2,4.57,2.22,2.27,3.84,4.84,4.99,7.79,.95,2.44,1.74,4.71,3.34,6.83,.58,.77,.2,1.53-.46,1.89,.06,.35,.06,.71,.03,1.08,.41,.17,.82,.33,1.23,.48,.73,.26,1.47,.52,2.24,.65,.07,0,.15,0,.22,0,.07-.76,.12-1.53,.16-2.34,.04-.82,.64-1.43,1.47-1.47,.14,0,.27,.02,.41,.06v-.99c-.51-.17-.91-.62-.87-1.33Zm-37-14.29c-.15,0-.3,0-.45,.01-.02,0-.18,.02-.25,.02-.07,.01-.22,.04-.24,.04-.12,.02-.24,.05-.36,.08-.58,.15-.85,.27-1.24,.47-.96,.5-1.49,.92-2.21,1.68-.75,.78-1.27,1.54-1.86,2.52-.58,.97-1.1,1.97-1.61,2.97-.37,.73-1.34,.88-2.01,.53-.73-.39-.88-1.33-.53-2.01,1.14-2.24,2.34-4.52,4.14-6.3,1.77-1.74,4.1-2.96,6.62-2.97,.82,0,1.44,.67,1.47,1.47,.04,.79-.7,1.47-1.47,1.47Zm23.9-3.21c-2.61-2.36-5.97-4.28-9.6-4.11-2.81,.14-5.79,1.79-6.77,4.54-.63,1.77-3.47,1-2.84-.78,1.39-3.89,5.07-6.25,9.08-6.66,4.56-.47,8.93,1.97,12.2,4.93,1.41,1.27-.68,3.35-2.08,2.08Zm9.4,16.38c-.83,.04-1.43-.7-1.47-1.47-.17-2.98-1.15-5.97-2.83-8.59-.45-.69-.12-1.6,.53-2.01,.69-.44,1.6-.12,2.01,.53,1.94,3.01,3.03,6.5,3.24,10.07,.05,.82-.71,1.44-1.47,1.47Z"/><path class="cls-4" d="M99.37,107.83c-3.79-2.58-8.19-4.45-12.36-6.33-3.68-1.66-7.42-3.2-11.1-4.86h0c-2.29,1.47-4.57,2.93-6.86,4.39-2.82,1.8-5.6,3.71-8.53,5.31-1.93,1.06-4,2.03-6.15,2.55-2.43,.59-4.68,.33-6.96-.69-3.74-1.66-7.28-3.97-10.79-6.06-3.06-1.82-6.12-3.66-9.1-5.62-2.09,.72-4.27,1.25-6.32,1.91-3.95,1.27-7.89,2.59-11.75,4.09-3.22,1.25-6.32,2.51-8.59,5.21-2.94,3.5-4.77,7.99-6.32,12.25H105.46c-.86-2.18-1.49-4.45-2.37-6.63-.82-2.02-1.87-4.28-3.73-5.54Z"/><path class="cls-6" d="M33.7,40.64c-.21-6.67,4.41-13.85,11.43-14.6,.79-.08,1.47-.62,1.47-1.47,0-.73-.68-1.56-1.47-1.47-8.6,.92-14.64,9.12-14.38,17.54,.06,1.89,3,1.9,2.94,0Z"/><path class="cls-6" d="M41.41,15.4c3.03-6.34,10.83-7.53,17-5.68,3.3,.99,5.8,3.01,8.46,5.11,2.73,2.16,5.71,4.48,9.41,3.69,1.85-.39,1.07-3.23-.78-2.84-1.94,.41-3.76-.83-5.25-1.93-1.32-.97-2.58-2.03-3.87-3.03-3.01-2.32-6.29-3.91-10.08-4.49-6.72-1.02-14.31,1.15-17.43,7.68-.81,1.7,1.72,3.2,2.54,1.49Z"/><path class="cls-6" d="M47.36,19.26c.98-2.74,3.96-4.4,6.77-4.54,3.63-.18,6.99,1.74,9.6,4.11,1.4,1.27,3.49-.81,2.08-2.08-3.27-2.96-7.64-5.39-12.2-4.93-4.02,.41-7.7,2.77-9.08,6.66-.64,1.79,2.2,2.56,2.84,.78Z"/><path class="cls-6" d="M79.77,36.32c.32-5.98-.6-12.13-4.46-16.9-.5-.62-1.56-.52-2.08,0-.61,.61-.5,1.46,0,2.08,3.26,4.03,3.87,9.7,3.59,14.82-.1,1.89,2.84,1.89,2.94,0Z"/><path class="cls-6" d="M69.86,39.79c1.13,1.49,3.68,.03,2.54-1.49-1.6-2.12-2.38-4.39-3.34-6.83-1.15-2.95-2.77-5.52-4.99-7.79-2.03-2.07-4.35-3.83-7.2-4.57-2.74-.71-5.67-.46-8.11,1.02-1.62,.98-.14,3.53,1.49,2.54,4.69-2.84,9.68,.64,12.75,4.17,1.76,2.03,2.86,4.33,3.77,6.84,.79,2.2,1.69,4.22,3.1,6.11Z"/><path class="cls-6" d="M61.17,46.46c-1.89,0-1.9,2.94,0,2.94s1.9-2.94,0-2.94Z"/><path class="cls-6" d="M52.26,58.37c-1.89,0-1.9,2.94,0,2.94s1.9-2.94,0-2.94Z"/><path class="cls-6" d="M46.83,69.72c1.58,1.11,3.48,1.78,5.42,1.76,1.96-.02,3.86-.7,5.47-1.78,.66-.44,.95-1.3,.53-2.01-.38-.65-1.35-.97-2.01-.53-.67,.45-1.34,.81-1.94,1.01-.85,.29-1.27,.36-2.04,.37-.83,0-1.14-.04-1.96-.31-.64-.21-1.29-.56-1.98-1.05-.63-.45-1.66-.13-2.01,.53-.4,.76-.15,1.54,.53,2.01Z"/><path class="cls-6" d="M43.89,46.46c-1.89,0-1.9,2.94,0,2.94s1.9-2.94,0-2.94Z"/><path class="cls-6" d="M44.93,42.84s-.06,0-.08,0c.02,0,.06,0,.11,.01h-.03Z"/><path class="cls-6" d="M47.72,42.01c.17-.76-.23-1.61-1.03-1.81-1.18-.3-2.42-.42-3.63-.39-1.06,.03-2.19,.13-3.19,.52-.37,.14-.67,.32-.88,.68-.18,.32-.26,.78-.15,1.13,.23,.7,1.04,1.33,1.81,1.03,.39-.15,.8-.25,1.21-.32,.04,0,.07-.01,.11-.02,.1-.01,.19-.02,.29-.03,.26-.02,.53-.04,.8-.04,.52-.01,1.04,0,1.56,.05,.08,0,.15,.02,.23,.02-.03,0,0,0,.08,0,.03,0,.05,0,.08,0-.02,0-.03,0-.05,0,.06,0,.12,.02,.18,.03,.26,.04,.52,.1,.77,.17,.74,.19,1.63-.24,1.81-1.03Z"/><path class="cls-6" d="M62.92,42.84c.43,.07,.85,.17,1.25,.33,.72,.28,1.65-.31,1.81-1.03,.19-.84-.26-1.51-1.03-1.81-1-.39-2.13-.49-3.19-.52-1.21-.03-2.45,.09-3.63,.39-.75,.19-1.27,1.06-1.03,1.81,.25,.77,1.01,1.23,1.81,1.03,.24-.06,.48-.11,.73-.16,.06-.01,.13-.02,.19-.03h.1l.04-.02c.06,0,.13-.01,.19-.02,.53-.05,1.07-.07,1.6-.06,.25,0,.5,.02,.75,.04,.11,0,.22,.02,.33,.03,.03,0,.05,0,.08,.01Z"/><path class="cls-6" d="M74.6,33.73c-.2-3.57-1.29-7.06-3.24-10.07-.42-.65-1.32-.97-2.01-.53-.65,.42-.97,1.32-.53,2.01,1.69,2.62,2.66,5.6,2.83,8.59,.04,.77,.65,1.51,1.47,1.47,.76-.03,1.52-.65,1.47-1.47Z"/><path class="cls-6" d="M33.21,26.87c.59-.98,1.12-1.74,1.86-2.52,.73-.76,1.26-1.18,2.21-1.68,.4-.21,.67-.32,1.24-.47,.12-.03,.24-.06,.36-.08,.02,0,.18-.03,.24-.04,.07,0,.23-.02,.25-.02,.15,0,.3-.01,.45-.01,.77,0,1.51-.68,1.47-1.47-.04-.8-.65-1.47-1.47-1.47-2.52,0-4.86,1.22-6.62,2.97-1.81,1.78-3,4.07-4.14,6.3-.35,.68-.2,1.63,.53,2.01,.67,.35,1.64,.2,2.01-.53,.51-1,1.03-2.01,1.61-2.97Z"/><path class="cls-6" d="M108.36,119.38c-1.55-3.89-2.41-8.2-4.95-11.62-1.3-1.75-3.02-2.81-4.9-3.86-2-1.12-4.04-2.14-6.11-3.13-4.1-1.96-8.29-3.74-12.46-5.55-2.89-1.25-5.9-2.32-7.55-5.2-1.06-1.85-1.55-3.98-1.94-6.06-.52-2.77-.81-5.57-1.16-8.36,0-.06-.03-.11-.04-.17,.38-.62,.75-1.25,1.08-1.91,1.11-2.21,2.28-4.51,2.83-6.93,.3-1.35,.56-2.72,.82-4.09,1.77-.4,3.47-.91,4.82-2.25,1.55-1.53,2.4-3.73,2.66-5.86,.26-2.1-.14-4.36-1.61-5.97-.56-.61-1.32-1.12-2.16-1.45,.74-2.21,.96-4.56,1.07-6.93,.03-.77-.7-1.51-1.47-1.47-.83,.04-1.43,.65-1.47,1.47-.04,.8-.08,1.58-.16,2.34-.07,0-.15,0-.22,0-.76-.13-1.51-.38-2.24-.65-.47-.17-.93-.34-1.38-.54-.33-.14-.84-.02-1.13,.15-.31,.18-.6,.53-.68,.88-.09,.38-.07,.8,.15,1.13l.23,.3c.18,.18,.4,.31,.65,.38,.6,.25,1.22,.48,1.83,.69,.48,.16,.96,.31,1.46,.43,.27,.06,.55,.1,.83,.13-.06,.23-.13,.46-.21,.69-.09,0-.19,0-.28,0-.63-.1-1.25-.27-1.84-.49-.34-.13-.83-.03-1.13,.15-.31,.18-.6,.53-.68,.88-.09,.38-.07,.8,.15,1.13l.23,.3c.18,.18,.4,.31,.65,.38,.38,.14,.76,.26,1.15,.36,.02,0,.04,0,.06,.01,.17,.6,.67,1.11,1.31,1.15,.02,.02,.05,.04,.07,.05,.58,.31,1.3,.21,1.76-.24,.07,.02,.14,.03,.22,.05,.66,.25,1.19,.7,1.52,1.32,.66,1.22,.57,2.75,.23,4.06-.32,1.23-.91,2.52-1.91,3.35-1.15,.94-2.71,1.12-4.11,1.42-.46,.1-.94,.56-1.03,1.03-.57,3.05-1.09,6.01-2.4,8.86-1.92,4.19-4.33,8.09-8.4,10.5-4.18,2.48-8.89,3.08-13.53,1.63-4.76-1.48-8.62-4.92-11.24-9.1-1.42-2.28-2.57-4.85-3.09-7.49-.23-1.19-.33-2.41-.47-3.61-.07-.62-.4-1.27-1.08-1.42-1.24-.27-2.89-.43-3.9-1.23-1.52-1.22-2.44-3.47-2.35-5.39,.06-1.4,.75-3.62,2.35-3.91,.47-.09,.94-.03,1.39,.09,.28,.07,.93,.35,.52,.15,.68,.32,1.33,.11,1.75-.32,.07-.01,.15-.02,.22-.03,.14-.02,.28-.05,.41-.1,.24-.09,.48-.18,.7-.32,.11-.07,.2-.15,.3-.22,.11-.08,.21-.16,.31-.25,.14-.13,.24-.29,.3-.47,.09-.18,.13-.36,.13-.57,0-.2-.03-.39-.13-.57-.06-.18-.16-.34-.3-.47-.28-.26-.65-.45-1.04-.43-.13,.02-.26,.04-.39,.05-.22,.06-.42,.18-.59,.33-.06,.04-.12,.07-.18,.1-.05,.02-.1,.03-.15,.04h-.02c-.09-.16-.17-.34-.26-.51,.02,0,.04,0,.06,0,.27-.06,.54-.16,.79-.26,.6-.24,1.17-.52,1.74-.81,.32-.16,.58-.54,.68-.88,.1-.35,.05-.82-.15-1.13-.2-.31-.5-.59-.88-.68-.4-.09-.77-.04-1.13,.15-.37,.19-.75,.38-1.13,.55-.25,.1-.51,.18-.78,.24-.06,0-.13,.01-.19,0-.07,0-.15,0-.23,.01-1.34-4.04-1.42-8.61-.32-12.62,.3-1.1-.61-1.82-1.49-1.82,.84-2.61,2.05-5.15,3.72-7.32,.81-1.05,1.82-2.1,2.84-2.77,1.12-.73,2.03-1.04,3.28-.95,.79,.05,1.47-.72,1.47-1.47,0-.84-.68-1.42-1.47-1.47-3.36-.23-6.24,2.09-8.21,4.59-2.25,2.86-3.88,6.25-4.84,9.76-.31,1.13,.66,1.86,1.57,1.82-1.14,5.13-.63,10.89,1.63,15.66-.21,.02-.43,.03-.64,.07-2.63,.54-4.06,3.2-4.48,5.66-.47,2.78,.55,5.74,2.37,7.84,1.33,1.54,3.1,2.09,4.98,2.52,.11,1,.22,1.99,.4,2.98,.44,2.45,1.46,4.89,2.64,7.07,2.57,4.72,6.57,8.8,11.53,10.95,5.02,2.17,10.38,2.31,15.43,.2,2.86-1.19,5.31-3.02,7.34-5.27,.4,3.6,.85,7.26,2.15,10.6,.93,2.37,2.33,4.18,4.19,5.57-3.95,2.54-7.9,5.08-11.89,7.56-3.28,2.04-7.65,4.71-11.63,3.37-1.86-.63-3.59-1.75-5.29-2.71-1.76-1-3.51-2.02-5.25-3.05-2.76-1.63-5.52-3.28-8.23-5,2.14-1.15,4.03-2.92,4.84-5.24,.74-2.1,1.17-4.37,1.61-6.55,.37-1.85-2.46-2.64-2.84-.78-.38,1.87-.82,3.73-1.32,5.58-.64,2.35-2.32,3.85-4.51,4.83-2.84,1.27-6.07,1.94-9.03,2.9-3.94,1.28-7.87,2.6-11.72,4.14-3.28,1.31-6.47,2.66-8.84,5.39-3.47,3.98-5.58,9.06-7.35,13.97-.08,.22-.11,.43-.09,.62h2.99c1.55-4.26,3.38-8.75,6.32-12.25,2.27-2.71,5.38-3.96,8.59-5.21,3.86-1.51,7.8-2.82,11.75-4.09,2.05-.66,4.24-1.2,6.32-1.91,2.97,1.96,6.04,3.8,9.1,5.62,3.51,2.09,7.05,4.4,10.79,6.06,2.29,1.01,4.53,1.28,6.96,.69,2.15-.52,4.22-1.49,6.15-2.55,2.93-1.6,5.72-3.51,8.53-5.31,2.29-1.46,4.58-2.92,6.86-4.38h0c3.68,1.66,7.42,3.2,11.1,4.86,4.16,1.88,8.57,3.75,12.36,6.33,1.86,1.27,2.91,3.52,3.73,5.54,.88,2.18,1.51,4.44,2.37,6.63h3c.01-.19-.02-.4-.11-.62ZM75.4,42.43l.14-.02h.02c-.05,0-.11,.01-.16,.02Zm.26-.03s-.06,0-.09,0h-.02l.11-.02h0Z"/></g></g></g></svg>