<?xml version="1.0" encoding="UTF-8"?><svg id="_イヤー_2" xmlns="http://www.w3.org/2000/svg" xmlns:xlink="http://www.w3.org/1999/xlink" viewBox="0 0 100 120"><defs><style>.cls-1,.cls-2{fill:none;}.cls-3{clip-path:url(#clippath);}.cls-4{fill:url(#_規パターンスウォッチ_1);}.cls-5{fill:#fff;}.cls-6{fill:#ffe159;}.cls-7{fill:#35db68;}.cls-8{fill:#2e2e2e;}.cls-2{stroke:#ffe159;stroke-miterlimit:10;stroke-width:5px;}</style><clipPath id="clippath"><rect class="cls-1" width="100" height="120"/></clipPath><pattern id="_規パターンスウォッチ_1" x="0" y="0" width="25" height="25" patternTransform="translate(-9207.57 -10879.32) rotate(-180) scale(.21)" patternUnits="userSpaceOnUse" viewBox="0 0 25 25"><g><rect class="cls-1" width="25" height="25"/><rect class="cls-5" x="24.29" y="24.29" width="26.43" height="26.43"/><rect class="cls-5" x="-.71" y="24.29" width="26.43" height="26.43"/><rect class="cls-5" x="-25.71" y="24.29" width="26.43" height="26.43"/><g><rect class="cls-5" x="24.29" y="-.71" width="26.43" height="26.43"/><line class="cls-2" x1="23.61" y1="12.5" x2="51.39" y2="12.5"/></g><g><rect class="cls-5" x="-.71" y="-.71" width="26.43" height="26.43"/><line class="cls-2" x1="-1.39" y1="12.5" x2="26.39" y2="12.5"/></g><g><rect class="cls-5" x="-25.71" y="-.71" width="26.43" height="26.43"/><line class="cls-2" x1="-26.39" y1="12.5" x2="1.39" y2="12.5"/></g><rect class="cls-5" x="24.29" y="-25.71" width="26.43" height="26.43"/><rect class="cls-5" x="-.71" y="-25.71" width="26.43" height="26.43"/><rect class="cls-5" x="-25.71" y="-25.71" width="26.43" height="26.43"/></g></pattern></defs><g id="_イヤー_1-2"><g><rect class="cls-7" width="100" height="120"/><g class="cls-3"><path class="cls-5" d="M43.48,51.71c.94-.28,1.74-.76,2.39-1.48,.57-.63,.85-1.4,.87-2.21,0-.46-.11-.95-.27-1.29-.27-.56-.45-.8-.89-1.22-.75-.72-1.8-1.2-2.92-1.38-1.05-.17-2.17-.04-3.21,.34-.41,.15-.94,.44-1.35,.76l-.12,.1c-.08,.07-.17,.15-.25,.23-.1,.1-.2,.2-.29,.31-.02,.02-.11,.14-.14,.18-1.05,1.48-.85,3.16,.43,4.43,1.42,1.4,3.76,1.83,5.76,1.24Zm-1.54-6.44c1.95,0,1.95,3.03,0,3.03s-1.95-3.03,0-3.03Z"/><path class="cls-5" d="M45.69,30.87c-1.98,2.06-3.95,4.13-5.9,6.23,.56-.06,1.11-.09,1.63-.12,.82-.03,1.64-.02,2.46,.05-.43-.46-.64-1.17-.32-1.83,.71-1.45,1.42-2.89,2.12-4.33Z"/><path class="cls-8" d="M26.11,40.29c.19,.55,.38,1.09,.59,1.63,.05,.12,.1,.24,.15,.36,.19,.36,.38,.72,.56,1.08,.1,.05,.2,.11,.29,.18,.41-1.39,.98-2.71,1.92-3.8,3.38-3.92,5.3-8.69,7.72-13.2,.82-1.54,3.22-.46,2.77,1.17-.5,1.81-.69,3.71-.93,5.6,3.62-3.85,7.33-7.63,11-11.43,1.26-1.3,3.1,.36,2.38,1.84-.51,1.05-1.03,2.09-1.54,3.14,1.45-1.62,2.9-3.23,4.35-4.85,.85-.95,2.68-.22,2.59,1.07-.21,2.9-1.16,5.79-2.4,8.54,2.73-2.26,5.04-4.98,6.37-8.31,.46-1.14,2.07-1.6,2.77-.36,1.75,3.11,3.51,6.21,5.3,9.3,1.22,2.09,2.42,4.12,3.26,6.41,.33,.89,.61,1.8,.87,2.71,1.85-4.81,2.69-10.44,.92-15.08-1.83-4.58-3.85-9.04-7.71-12.29-3.83-3.23-10.01-7.38-14.79-3.4-.53,.44-1.21,.6-1.84,.24-5.25-3.01-11.65,.44-16.05,3.5-3.6,2.5-6.47,5.9-8.7,9.65-2.06,3.46-1.9,7.77-1.14,11.59,.32,1.6,.75,3.17,1.27,4.72Z"/><path class="cls-6" d="M58.69,40.11h.02s.03,0,.04-.01c-.01,0-.04,0-.05,.01Z"/><path class="cls-5" d="M56.8,45.97c-1.03,1.51-.86,3.24,.36,4.51,1.34,1.38,3.48,1.83,5.4,1.23,.85-.27,1.58-.75,2.21-1.46,.51-.58,.81-1.46,.82-2.23-.01-.88-.36-1.77-1.04-2.47-.75-.78-1.67-1.23-2.84-1.43-1.78-.31-3.97,.47-4.92,1.86Zm4.29,2.32c-1.95,0-1.95-3.03,0-3.03s1.95,3.03,0,3.03Z"/><path class="cls-6" d="M58.65,40.11c-.17,.02-.12,.02-.05,.01,.03,0,.06,0,.08-.02h-.04Z"/><path class="cls-5" d="M71.46,43.07c-.32-1.23-.69-2.44-1.13-3.62-.78-2.12-1.97-3.99-3.09-5.94-1.27-2.2-2.52-4.41-3.77-6.61-2.64,4.6-6.76,8.09-11.39,10.79-1.3,.76-2.86-.77-2.07-2.07,1.3-2.17,2.64-4.6,3.61-7.12-2.56,2.85-5.11,5.7-7.67,8.55-.08,.09-.16,.16-.24,.22,.21,.05,.42,.1,.62,.18,.79,.31,1.26,1,1.06,1.86-.17,.74-1.12,1.34-1.86,1.06-.23-.09-.48-.15-.72-.19-.12-.02-.25-.06-.38-.07-.02,0-.04,0-.06,0-.1-.01-.19-.02-.29-.03-.84-.08-1.69-.09-2.53-.06-.47,.02-.94,.05-1.41,.1-.06,0-.23,.03-.24,.03-.04,0-.07,.01-.11,.02-.22,.04-.44,.08-.66,.13-.39,.09-.77,.2-1.15,.33h0c-.08,.04-.15,.07-.23,.11-.15,.08-.29,.17-.43,.27-.69,.5-1.66,.09-2.07-.54-.26-.41-.26-.86-.1-1.26-.21-.32-.29-.72-.11-1.15,.21-.51,.37-1.03,.51-1.56-.88,1.52-1.84,3-2.95,4.4-.64,.8-1.12,1.17-1.42,1.89,0,.02,0,.03-.02,.05,.1,0,.19,.02,.28,.04l.59,.14c1.07,.26,2.15,.52,3.22,.79,.07-.09,.13-.18,.21-.26,2.22-2.33,5.88-3.05,8.91-2.11,2.15,.67,3.98,2.17,4.85,4.16h4.4c.3-.75,.73-1.45,1.29-2.07,2.08-2.27,5.56-3.03,8.46-2.12,1.57,.49,2.94,1.46,3.89,2.73,.08-.04,.16-.07,.24-.09,.15-.04,.3-.08,.45-.11,1.07-.27,2.14-.54,3.22-.81,.1-.02,.2-.04,.29-.04Zm-3.63-2.6c-.36,.68-1.43,1.01-2.07,.54-.14-.1-.28-.19-.43-.27-.07-.04-.15-.07-.23-.11h0c-.4-.14-.79-.26-1.21-.35-.22-.05-.44-.09-.67-.12-.02,0-.08-.01-.14-.02-.07,0-.19-.02-.21-.03-.45-.05-.9-.08-1.36-.1-.86-.03-1.73-.01-2.58,.07-.08,0-.15,.02-.23,.02-.03,0-.07,.02-.1,.02-.12,.02-.24,.03-.35,.05-.24,.05-.49,.1-.72,.19-.79,.31-1.63-.34-1.86-1.06-.27-.83,.32-1.58,1.06-1.86,.67-.26,1.45-.32,2.16-.39,.91-.09,1.83-.11,2.75-.07,1.85,.08,4.1,.28,5.65,1.4,.69,.5,.96,1.29,.54,2.07Z"/><path class="cls-5" d="M46.85,83.08c3.94,1.06,7.87,.61,11.65-1.06,4.47-1.97,7.95-5.5,10.14-9.83,1.08-2.13,1.89-4.49,2.3-6.85,.01-.07,.07-.55,.11-.89,.06-.52,.12-1.04,.17-1.55,.06-.58,.12-1.15,.18-1.73,.05-.5,.24-1.08,.75-1.31,1.68-.74,3.48-1.52,4.71-2.93,1.3-1.49,1.99-3.78,1.99-5.73,0-1.67-.78-4.46-2.74-4.76-.34-.05-.68-.03-1.01,.03-.05,.1-.09,.2-.15,.3-.59,1.08-2.55,.94-2.77-.36h0c-.09-.12-.17-.24-.23-.36-.14,.04-.28,.07-.43,.11-1,.25-2.01,.5-3.01,.76,.04,.24,.06,.48,.08,.73,.03,.12,.04,.24,.04,.38-.06,3.51-2.89,6.3-6.28,6.85-3.11,.5-6.35-.63-8.16-3.28-.62-.91-.95-1.93-1.04-2.97h-3.43c-.37,3.29-3.24,5.73-6.46,6.24-3.19,.51-6.6-.56-8.52-3.25-1.08-1.51-1.34-3.34-.93-5.04-1.06-.26-2.12-.52-3.18-.77-.1-.02-.19-.06-.28-.1-.23,.96-.45,1.93-.63,2.9-.24,1.29-2.19,1.46-2.77,.36-.45-.84-.92-1.68-1.38-2.53-2.35,.81-3.18,4.18-2.62,6.63,.37,1.64,.99,3.19,2.23,4.36,1.19,1.12,2.76,1.79,4.23,2.44,.5,.22,.71,.81,.75,1.31,.16,2.14,.26,3.74,.82,5.7,.79,2.76,2.03,5.36,3.69,7.7,2.93,4.14,7.28,7.19,12.17,8.52Zm4.63-25.18c1.95,0,1.95,3.03,0,3.03s-1.95-3.03,0-3.03Zm-6.4,9.53c.57-.57,1.57-.59,2.14,0,.16,.17,.33,.32,.51,.47,.01,0,0,0,0,.01,.01,0,.01,0,.03,.02,.09,.06,.17,.12,.26,.18,.18,.11,.36,.22,.55,.31,.06,.03,.13,.06,.2,.09,.04,.02,.12,.05,.15,.06,.41,.15,.83,.26,1.26,.35,.05,.01,.1,.02,.13,.02,.08,0,.17,.02,.25,.03,.22,.02,.44,.03,.66,.03,.25,0,.49-.02,.73-.04h.04c.12-.02,.23-.04,.34-.06,.42-.09,.84-.21,1.24-.37l.04-.02c.12-.06,.24-.12,.36-.18,.2-.11,.39-.23,.57-.35,.02-.01,.11-.08,.17-.13,.05-.05,.17-.15,.17-.14,.17-.15,.33-.32,.49-.49,.56-.61,1.58-.56,2.14,0,.6,.6,.55,1.54,0,2.14-3.17,3.45-9.19,3.57-12.47,.21-.57-.59-.59-1.56,0-2.14Z"/><path class="cls-6" d="M53.58,68.56s-.04,.02,0,0h0Z"/><path class="cls-4" d="M90.72,101.67c-4.2-1.71-8.59-2.94-12.78-4.65-1.05-.43-2.22-.89-3.38-1.41,.06,4.38-.26,8.79-.47,13.16-.18,3.74-.37,7.49-.59,11.23h35.14c-1.39-3.43-3.29-7.14-5.55-10.22-2.99-4.08-7.81-6.25-12.37-8.1Z"/><path class="cls-5" d="M71.53,95.64c-6.58,2.39-13.49,3.77-20.52,3.62-7.28-.15-14.41-1.82-21.33-4,.04,.12,.08,.25,.1,.39,.12,1.03,.23,2.05,.35,3.08,.81,7.09,1.62,14.17,2.43,21.26h37.91c.21-3.74,.41-7.49,.59-11.23,.21-4.35,.53-8.76,.47-13.13Z"/><path class="cls-4" d="M26.75,95.66c-.01-.12-.01-.23,0-.34-.03,0-.05,.02-.08,.03-2.38,.8-4.78,1.51-7.19,2.22-4.75,1.41-9.54,2.82-14.02,4.98-1.78,.86-3.55,1.77-5.04,3.08-1.55,1.35-2.95,2.92-4.17,4.58-2.17,2.95-4.04,6.25-5.02,9.8H29.53c-.11-.98-.22-1.96-.34-2.93-.81-7.14-1.63-14.27-2.44-21.41Z"/><path class="cls-5" d="M67.68,88.88c-.57-2.93-.79-5.94-.95-8.94-2.58,2.57-5.73,4.54-9.25,5.7-4.49,1.47-8.99,1.37-13.43-.27-3.1-1.15-5.9-2.91-8.31-5.11-.08,2.21-.29,4.41-.68,6.59-.36,2-.6,4.38-2.21,5.82-.12,.1-.25,.19-.37,.29,6.03,1.8,12.22,3.14,18.53,3.28,6.57,.14,12.97-1.12,19.13-3.3-1.22-1.07-2.14-2.39-2.47-4.06Z"/><path class="cls-6" d="M52.05,68.97s.04,0,0,0h0Z"/><path class="cls-8" d="M61.1,48.3c1.95,0,1.95-3.03,0-3.03s-1.95,3.03,0,3.03Z"/><path class="cls-8" d="M51.48,60.93c1.95,0,1.95-3.03,0-3.03s-1.95,3.03,0,3.03Z"/><path class="cls-8" d="M57.55,69.37c.55-.6,.6-1.55,0-2.14-.56-.56-1.59-.61-2.14,0-.16,.17-.32,.33-.49,.49,0,0-.11,.09-.17,.14-.06,.04-.15,.11-.17,.13-.18,.13-.38,.25-.57,.35-.12,.06-.24,.12-.36,.18l-.04,.02c-.4,.16-.82,.28-1.24,.37-.11,.02-.23,.04-.34,.06h-.04c-.24,.02-.49,.04-.73,.04-.22,0-.44,0-.66-.03-.08,0-.17-.02-.25-.03-.03,0-.08-.01-.13-.02-.43-.09-.84-.2-1.26-.35-.03-.01-.11-.04-.15-.06-.07-.03-.13-.06-.2-.09-.19-.1-.38-.2-.55-.31-.09-.06-.18-.12-.26-.18-.02-.02-.02-.01-.03-.02,0,0,0,0,0-.01-.18-.15-.34-.3-.51-.47-.57-.59-1.57-.57-2.14,0-.59,.59-.57,1.55,0,2.14,3.28,3.36,9.3,3.24,12.47-.21Zm-3.97-.82s-.04,.02,0,0h0Zm-1.53,.41s.04,0,0,0h0Z"/><path class="cls-8" d="M41.94,48.3c1.95,0,1.95-3.03,0-3.03s-1.95,3.03,0,3.03Z"/><path class="cls-8" d="M67.29,38.39c-1.56-1.12-3.8-1.33-5.65-1.4-.92-.04-1.84-.02-2.75,.07-.71,.07-1.48,.13-2.16,.39-.74,.28-1.33,1.03-1.06,1.86,.23,.72,1.07,1.36,1.86,1.06,.23-.09,.48-.15,.72-.19,.1-.02,.23-.03,.35-.05-.08,0-.12,0,.05-.01h.04s.04,0,.05-.01c-.01,0-.02,0-.04,0,.08,0,.15-.02,.23-.02,.86-.08,1.72-.1,2.58-.07,.45,.02,.91,.05,1.36,.1,.02,0,.14,.02,.21,.03,.05,0,.12,.02,.14,.02,.22,.04,.44,.08,.67,.12,.41,.09,.81,.21,1.21,.35h0c.07,.04,.15,.07,.23,.11,.15,.08,.29,.17,.43,.27,.65,.47,1.72,.13,2.07-.54,.41-.78,.14-1.58-.54-2.07Z"/><path class="cls-8" d="M58.61,40.12s.06,0,.1-.02h-.02s-.05,.01-.08,.02Z"/><path class="cls-8" d="M107.23,110.52c-1.29-2.11-2.78-4.24-4.7-5.82-1.97-1.62-4.22-2.88-6.51-3.98-4.66-2.24-9.56-3.89-14.43-5.58-1.84-.64-3.05-1.13-4.74-1.89-1.16-.53-2.31-1.08-3.4-1.73-.89-.53-2.1-1.24-2.52-2.18-.36-.81-.43-1.85-.55-2.71-.18-1.32-.29-2.66-.4-3.99-.16-2.05-.27-4.09-.37-6.14,.17-.25,.36-.5,.53-.76,1.69-2.69,2.87-5.71,3.57-8.8,.35-1.55,.49-3.16,.64-4.75,2.09-.97,4.07-2.14,5.43-4.07,1.63-2.32,2.45-5.64,1.97-8.43-.45-2.64-1.98-5.54-4.79-6.16-.15-.03-.3-.03-.45-.05,.9-2.22,1.59-4.54,2-6.89,.65-3.65,.82-7.59-.52-11.11-2.25-5.62-4.75-10.86-9.7-14.59-2.55-1.92-5.4-4.12-8.61-4.69-2.89-.51-5.87-.03-8.3,1.56-5.05-2.34-10.71-.45-15.35,2.16-4.36,2.46-7.99,5.76-10.89,9.84-1.39,1.96-2.68,3.99-3.28,6.35-.56,2.19-.64,4.5-.44,6.75,.31,3.43,1.16,6.84,2.44,10.04,.11,.27,.24,.54,.36,.8-3.1,1.33-4.81,5.16-4.45,8.52,.26,2.38,1.07,4.79,2.63,6.64,1.28,1.52,3.04,2.49,4.83,3.31,.11,1.5,.23,3.01,.59,4.47,.69,2.82,1.81,5.56,3.33,8.03,.51,.83,1.07,1.61,1.67,2.37-.02,.11-.03,.22-.03,.35,.03,2.73-.08,5.48-.53,8.18-.25,1.49-.3,4.19-1.73,5.09-.95,.6-2.18,.91-3.23,1.28-1.14,.4-2.28,.78-3.43,1.14-2.33,.74-4.68,1.42-7.02,2.12-4.65,1.4-9.29,2.91-13.64,5.1-3.71,1.87-6.57,4.47-9.08,7.76-2.68,3.51-4.97,7.59-5.98,11.93h3.12c.98-3.55,2.85-6.85,5.02-9.8,1.22-1.66,2.61-3.22,4.17-4.58,1.5-1.3,3.26-2.22,5.04-3.08,4.48-2.15,9.27-3.56,14.02-4.98,2.4-.72,4.81-1.43,7.19-2.22,.03,0,.05-.02,.08-.03,0,.11,0,.22,0,.34,.81,7.14,1.63,14.27,2.44,21.41,.11,.98,.22,1.96,.34,2.93h3.03c-.81-7.09-1.62-14.17-2.43-21.26-.12-1.03-.23-2.05-.35-3.08-.02-.14-.05-.27-.1-.39,6.92,2.18,14.05,3.85,21.33,4,7.03,.15,13.94-1.23,20.52-3.62,.06,4.37-.26,8.77-.47,13.13-.18,3.74-.37,7.49-.59,11.23h3.03c.21-3.74,.41-7.49,.59-11.23,.21-4.36,.53-8.78,.47-13.16,1.16,.52,2.32,.98,3.38,1.41,4.2,1.72,8.58,2.94,12.78,4.65,4.57,1.86,9.39,4.02,12.37,8.1,2.25,3.08,4.15,6.79,5.55,10.22h3.25c-1.27-3.28-2.82-6.49-4.66-9.48ZM25.98,23.98c2.23-3.75,5.1-7.15,8.7-9.65,4.39-3.06,10.8-6.5,16.05-3.5,.63,.36,1.31,.2,1.84-.24,4.78-3.98,10.95,.17,14.79,3.4,3.86,3.25,5.87,7.7,7.71,12.29,1.77,4.64,.93,10.27-.92,15.08-.26-.92-.55-1.82-.87-2.71-.84-2.29-2.04-4.32-3.26-6.41-1.79-3.09-3.55-6.19-5.3-9.3-.7-1.24-2.31-.78-2.77,.36-1.34,3.34-3.65,6.06-6.37,8.31,1.24-2.75,2.19-5.64,2.4-8.54,.1-1.29-1.73-2.02-2.59-1.07-1.45,1.62-2.9,3.23-4.35,4.85,.51-1.05,1.03-2.09,1.54-3.14,.73-1.48-1.12-3.14-2.38-1.84-3.67,3.8-7.38,7.58-11,11.43,.24-1.89,.42-3.8,.93-5.6,.46-1.63-1.94-2.7-2.77-1.17-2.42,4.51-4.34,9.29-7.72,13.2-.93,1.08-1.51,2.4-1.92,3.8-.09-.07-.18-.13-.29-.18-.19-.36-.38-.72-.56-1.08-.05-.12-.1-.24-.15-.36-.21-.54-.41-1.08-.59-1.63-.52-1.54-.95-3.12-1.27-4.72-.76-3.82-.92-8.13,1.14-11.59Zm37.39,17.42c-2.89-.91-6.38-.15-8.46,2.12-.56,.61-.98,1.32-1.29,2.07h-4.4c-.87-2-2.7-3.5-4.85-4.16-3.03-.94-6.69-.21-8.91,2.11-.08,.08-.14,.18-.21,.26-1.07-.26-2.15-.52-3.22-.79l-.59-.14c-.09-.02-.19-.04-.28-.04,0-.02,0-.03,.02-.05,.3-.71,.78-1.09,1.42-1.89,1.12-1.4,2.07-2.88,2.95-4.4-.14,.53-.31,1.05-.51,1.56-.17,.43-.1,.83,.11,1.15-.16,.4-.17,.85,.1,1.26,.41,.64,1.39,1.04,2.07,.54,.14-.1,.28-.19,.43-.27,.07-.04,.15-.07,.23-.11h0c.38-.13,.76-.25,1.15-.34,.22-.05,.44-.09,.66-.13,.04,0,.07-.01,.11-.02,0,0,.18-.02,.24-.03,.47-.05,.94-.09,1.41-.1,.84-.03,1.69-.01,2.53,.06,.1,0,.19,.02,.29,.03,.02,0,.04,0,.06,0,.13,.01,.26,.05,.38,.07,.24,.05,.49,.1,.72,.19,.74,.29,1.69-.31,1.86-1.06,.2-.87-.26-1.56-1.06-1.86-.2-.08-.41-.13-.62-.18,.08-.06,.16-.13,.24-.22,2.56-2.85,5.11-5.7,7.67-8.55-.96,2.52-2.31,4.95-3.61,7.12-.78,1.31,.77,2.83,2.07,2.07,4.62-2.7,8.74-6.19,11.39-10.79,1.25,2.21,2.5,4.42,3.77,6.61,1.13,1.94,2.32,3.82,3.09,5.94,.43,1.18,.81,2.4,1.13,3.62-.1,0-.19,.02-.29,.04-1.07,.27-2.14,.54-3.22,.81-.15,.04-.3,.08-.45,.11-.08,.02-.16,.05-.24,.09-.95-1.27-2.32-2.23-3.89-2.73Zm2.22,6.61c-.01,.77-.32,1.65-.82,2.23-.62,.71-1.35,1.19-2.21,1.46-1.92,.6-4.06,.16-5.4-1.23-1.23-1.27-1.39-3-.36-4.51,.94-1.38,3.13-2.17,4.92-1.86,1.17,.21,2.09,.66,2.84,1.43,.67,.7,1.02,1.58,1.04,2.47Zm-18.86,0c-.01,.81-.3,1.58-.87,2.21-.65,.72-1.45,1.21-2.39,1.48-2,.59-4.34,.16-5.76-1.24-1.28-1.26-1.48-2.95-.43-4.43,.03-.04,.12-.16,.14-.18,.09-.11,.19-.21,.29-.31,.08-.08,.16-.16,.25-.23l.12-.1c.41-.32,.94-.61,1.35-.76,1.04-.39,2.16-.51,3.21-.34,1.13,.18,2.18,.66,2.92,1.38,.44,.42,.62,.66,.89,1.22,.17,.35,.26,.83,.27,1.29Zm-2.85-10.97c-.82-.07-1.64-.08-2.46-.05-.52,.02-1.07,.06-1.63,.12,1.95-2.09,3.91-4.17,5.9-6.23-.71,1.45-1.42,2.89-2.12,4.33-.32,.66-.12,1.37,.32,1.83Zm-12.9,29.82c-.56-1.95-.66-3.56-.82-5.7-.04-.49-.25-1.09-.75-1.31-1.47-.65-3.05-1.32-4.23-2.44-1.24-1.17-1.86-2.72-2.23-4.36-.55-2.45,.28-5.82,2.62-6.63,.46,.85,.93,1.69,1.38,2.53,.58,1.1,2.53,.93,2.77-.36,.18-.97,.4-1.94,.63-2.9,.09,.04,.18,.08,.28,.1,1.06,.26,2.12,.52,3.18,.77-.41,1.69-.15,3.52,.93,5.04,1.92,2.69,5.33,3.76,8.52,3.25,3.22-.52,6.09-2.95,6.46-6.24h3.43c.09,1.04,.42,2.06,1.04,2.97,1.81,2.65,5.05,3.78,8.16,3.28,3.39-.55,6.22-3.34,6.28-6.85,0-.14-.01-.26-.04-.38-.02-.24-.03-.49-.08-.73,1-.25,2.01-.5,3.01-.76,.14-.04,.28-.07,.43-.11,.06,.13,.14,.24,.23,.35h0c.22,1.32,2.18,1.45,2.77,.37,.05-.1,.1-.2,.15-.3,.33-.06,.66-.09,1.01-.03,1.96,.3,2.73,3.09,2.74,4.76,0,1.95-.69,4.24-1.99,5.73-1.23,1.41-3.03,2.19-4.71,2.93-.51,.22-.7,.81-.75,1.31-.06,.58-.12,1.15-.18,1.73-.06,.52-.11,1.04-.17,1.55-.04,.34-.1,.82-.11,.89-.41,2.36-1.22,4.72-2.3,6.85-2.19,4.34-5.67,7.86-10.14,9.83-3.78,1.67-7.71,2.12-11.65,1.06-4.89-1.32-9.24-4.38-12.17-8.52-1.66-2.34-2.9-4.94-3.69-7.7Zm20.02,29.37c-6.32-.14-12.5-1.47-18.53-3.28,.13-.1,.26-.19,.37-.29,1.61-1.44,1.85-3.82,2.21-5.82,.39-2.18,.6-4.38,.68-6.59,2.4,2.21,5.21,3.97,8.31,5.11,4.44,1.64,8.94,1.73,13.43,.27,3.53-1.15,6.67-3.12,9.25-5.7,.15,3,.37,6.01,.95,8.94,.33,1.67,1.25,2.99,2.47,4.06-6.16,2.18-12.56,3.44-19.13,3.3Z"/></g></g></g></svg>