<?xml version="1.0" encoding="UTF-8"?><svg id="_イヤー_2" xmlns="http://www.w3.org/2000/svg" xmlns:xlink="http://www.w3.org/1999/xlink" viewBox="0 0 100 120"><defs><style>.cls-1{fill:none;}.cls-2{clip-path:url(#clippath);}.cls-3{fill:#fc7e00;}.cls-4{fill:#fff;}.cls-5{fill:#ffe159;}.cls-6{fill:#2e2e2e;}</style><clipPath id="clippath"><rect class="cls-1" width="100" height="120"/></clipPath></defs><g id="_イヤー_1-2"><g><rect class="cls-3" width="100" height="120"/><g class="cls-2"><path class="cls-5" d="M40.89,39.35s-.07,.03-.07,.03l.07-.03Z"/><path class="cls-5" d="M52.8,67.1s.03,0,0,0h0Z"/><path class="cls-4" d="M79.05,50.35c-.37-1.46-1-3.34-2.79-3.31-.76,.01-1.4,.26-1.79,.49-.74,.41-1.45,.17-1.9-.32-.12-.07-.23-.15-.32-.23-.32-.32-.42-.68-.46-1.11-.06-.58-.12-1.15-.19-1.73-.13-.92-.35-1.82-.64-2.69-1.49-.44-2.88-1.08-4.18-1.86-1.62-.04-3.25-.15-4.87-.47-.23,.15-.52,.24-.87,.23-9.05-.3-15.5-9.29-17.48-17.37-.02-.07-.02-.14-.03-.21h-1.2c.25,.64,.12,1.42-.65,1.86-7.41,4.3-10.5,13.53-10,21.72,.1,1.64-2.15,2.04-2.93,.79,.09,.14,.15,.23,.2,.3,.13,.11,.15,.2,0,0-.05-.04-.13-.09-.21-.11-.13-.03-.27-.11-.4-.16-.43-.15-.93-.27-1.39-.2-.82,.12-1.44,.77-1.82,1.46-.79,1.41-.81,3.23-.42,4.76,.37,1.48,1.25,2.6,2.31,3.6,.58-.02,1.16,.06,1.71,.26,1.94,.73,3.23,2.5,3.26,4.59,0,.11-.01,.22-.03,.33-.05,.56-.19,1.1-.41,1.61,0,.02,0,.05,.01,.07,.29,1.68,.73,3.28,1.39,4.86,1.76,4.21,4.77,8.23,8.67,10.67,7.36,4.61,16.8,3.74,23.08-2.23,2.72-2.59,5.12-6.07,6.25-9.68,.4-1.29,.5-2.7,.64-4.04,.01-.14,.04-.27,.06-.39-.15-1.34,.25-2.71,1.14-3.79,1.22-1.48,3.46-2.08,5.26-1.4,.09,.03,.17,.08,.25,.12,.03-.05,.06-.1,.09-.16,1-1.95,1.21-4.15,.67-6.27Zm-26.82,6.88c2.03,0,2.02,3.15,0,3.15s-2.02-3.15,0-3.15Zm-9.24-8.97c-2.03,0-2.02-3.15,0-3.15s2.02,3.15,0,3.15Zm.66-8.77c-.13-.08-.27-.15-.41-.22-.03-.01-.06-.02-.09-.03-.21-.07-.42-.11-.63-.15-.23-.02-.46-.01-.7,0-.18,.03-.36,.06-.53,.12-.1,.03-.21,.07-.31,.1h0c-.21,.11-.41,.21-.61,.34-.05,.03-.09,.06-.14,.09-.05,.03-.06,.04-.07,.04-.04,.04-.07,.08-.09,.09-.66,.58-1.57,.61-2.23,0-.6-.55-.62-1.68,0-2.23,.94-.83,2.08-1.46,3.33-1.64,1.42-.21,2.82,0,4.06,.75,.75,.45,.97,1.39,.56,2.15-.39,.74-1.45,.99-2.15,.56Zm14.73,28.09c-3.21,3.5-9.31,3.62-12.63,.21-.59-.61-.61-1.62,0-2.23,.6-.6,1.63-.61,2.23,0,.16,.17,.35,.31,.51,.47,0,0,0,0,0,0,.01,0,0,0,.03,.02,.09,.06,.18,.12,.27,.18,.18,.11,.37,.22,.56,.32,.1,.05,.2,.09,.29,.14-.3-.15-.03-.01,.05,.01,.42,.15,.83,.26,1.27,.35,.05,.01,.09,.02,.12,.02,.08,0,.17,.02,.25,.03,.22,.02,.45,.03,.67,.03,.25,0,.49-.02,.74-.04h.04c.11-.02,.22-.04,.34-.06,.42-.08,.82-.21,1.22-.37,.07-.04,.36-.17,.43-.21,.2-.11,.39-.23,.58-.36,.02-.01,.11-.08,.17-.12,.06-.05,.17-.14,.16-.14,.17-.16,.34-.32,.49-.49,.58-.63,1.64-.58,2.23,0,.62,.62,.57,1.6,0,2.23Zm2.82-19.32c-2.03,0-2.02-3.15,0-3.15s2.02,3.15,0,3.15Z"/><path class="cls-4" d="M46.58,21.13c.93,3.79,2.74,7.36,5.39,10.25,2.38,2.6,5.43,4.69,9.06,4.81,1.67,.05,1.96,2.2,.87,2.92,1.62,.32,3.25,.43,4.87,.47-4.99-2.99-8.55-8.19-10.43-13.68-.28-.81,.32-1.72,1.1-1.94,.85-.23,1.66,.3,1.94,1.1,2.05,6,6.56,11.85,13.02,13.52,.51,.13,.83,.44,.99,.8,.22,.2,.36,.46,.47,.75,.48,1.29,.72,2.62,.89,3.97,.52-.12,1.06-.2,1.59-.2,1.11-3.83,1.2-7.93,.77-11.87-.44-4.04-1.55-8.17-3.61-11.7-1.88-3.21-4.71-5.72-7.91-7.56-6.08-3.51-14.54-5.24-20.76-1.12-1.38,.91-2.67-.71-2.21-1.95-.5,.56-1.24,.96-2,1.36,1.23,.52,.97,2.85-.73,3.05-5.37,.63-9.26,5.84-11.37,10.36-2.66,5.69-3.3,12.43-1.07,18.36,.36,0,.71,.02,1.06,.08,.17-8.61,3.98-17.59,11.6-22,.99-.57,1.92,.03,2.23,.86h1.2c-.23-1.82,2.6-2.53,3.06-.63Z"/><path class="cls-4" d="M26.5,118.35c-1.97,.48-2.8-2.55-.84-3.03,4.02-.99,2.98-5.47,1.24-8.04-1.88-2.77-4.37-5.04-6.69-7.45-.17,.34-.48,.63-.95,.76-5.27,1.48-9.81,4.78-13.5,8.75-2.91,3.13-5.39,6.81-6.98,10.8H23.72c1.13-.64,2.32-1.12,3.24-1.95-.16,.05-.3,.12-.47,.16Z"/><path class="cls-4" d="M35.6,102.93c-1.59-3.15-3.98-5.82-6-8.69-3.02-4.3-3.67-12.32,.62-16.06,1.52-1.33,3.75,.89,2.23,2.23-2.45,2.15-2.32,6.25-1.62,9.16,.12,.52,.32,1.01,.53,1.49,.37-.14,.72-.29,1.04-.47-.4-.61-.31-1.44,.2-1.98,.17-.18,.33-.36,.49-.54,.07-.08,.14-.17,.21-.25,.09-.11-.04,.07,.1-.13,.25-.35,.5-.71,.72-1.08,.24-.4,.46-.81,.66-1.23,.22-.47,.24-.52,.42-1.01,.34-.92,.59-1.87,.78-2.83,.19-.98,.27-1.68,.33-2.73,.01-.24,.08-.47,.18-.68-2.09-1.96-3.85-4.28-5.21-6.81,0-.01-.01-.03-.02-.04-3.8,2.05-7.57,4.55-10.13,8.09-2.29,3.16-3.7,7.37-2.99,11.28,.8,4.38,4.78,7.37,7.68,10.44,2.61,2.77,5.49,5.91,5.81,9.88,.27,3.31-1.51,6.22-4.65,7.22-.93,.84-2.11,1.31-3.24,1.95h4.36c3.57-.95,6.38-3.6,7.84-7.04,1.41-3.31,1.29-6.98-.33-10.18Z"/><path class="cls-4" d="M67.6,90.47c-1.97-3.02-2.88-6.56-3.41-10.11-1.65,1.17-3.44,2.14-5.39,2.82-5.02,1.77-10.59,1.39-15.49-.62-1.42-.58-2.75-1.33-4.01-2.19-.46,3.84-1.78,7.56-4.47,10.44-.58,.62-1.64,.59-2.23,0-.08-.08-.14-.16-.2-.25-.32,.18-.68,.33-1.04,.47,1.03,2.29,2.95,4.26,4.4,6.26,.3,.41,.59,.84,.88,1.26,.02,0,.03,0,.04,.01,5.8,2.16,12.41,2.41,18.52,2.17,6.56-.26,13.32-1.35,19.38-4.02-2.78-1.54-5.24-3.56-6.99-6.24Z"/><path class="cls-5" d="M75.97,99.54c-6.38,2.82-13.45,4.03-20.38,4.34-5.46,.24-11.35,.08-16.75-1.34,.59,1.39,1.01,2.84,1.17,4.38,.5,4.91-1.69,9.99-5.38,13.23h37.28c.12-.59,.23-1.19,.35-1.78,1.24-6.28,2.48-12.55,3.72-18.83Z"/><path class="cls-4" d="M79.25,99.11c-.09,.48-.19,.96-.28,1.44-1.29,6.53-2.58,13.06-3.87,19.59h26.21c-1.1-3.81-2.96-7.3-5.7-10.25-4.57-4.93-10.46-7.84-16.35-10.78Z"/><path class="cls-5" d="M40.31,39.68s-.04,.01-.06,.03c.03-.02,.05-.03,.06-.03Z"/><path class="cls-6" d="M41.17,36.02c-1.25,.18-2.39,.81-3.33,1.64-.62,.55-.6,1.67,0,2.23,.66,.61,1.57,.58,2.23,0,.02-.02,.05-.05,.09-.09,.01,0,.03-.01,.07-.04,.04-.03,.09-.06,.14-.09,.2-.13,.4-.24,.61-.34h0c.1-.04,.21-.07,.31-.11,.17-.05,.35-.08,.53-.12,.23-.02,.46-.02,.7,0,.21,.04,.43,.08,.63,.15,.03,.01,.06,.02,.09,.03,.14,.07,.27,.14,.41,.22,.71,.42,1.76,.18,2.15-.56,.4-.76,.19-1.7-.56-2.15-1.24-.75-2.64-.96-4.06-.75Zm-.92,3.69s.05-.03,.06-.03c-.01,0-.04,.01-.06,.03Zm.57-.33s.04-.02,.07-.03l-.07,.03Z"/><path class="cls-6" d="M61.19,48.26c2.02,0,2.03-3.15,0-3.15s-2.03,3.15,0,3.15Z"/><path class="cls-6" d="M52.22,60.38c2.02,0,2.03-3.15,0-3.15s-2.03,3.15,0,3.15Z"/><path class="cls-6" d="M48.78,66.25c-.09-.06-.18-.12-.27-.18-.02-.01-.02-.01-.03-.02,0,0,0,0,0,0-.17-.16-.35-.31-.51-.47-.59-.61-1.63-.6-2.23,0-.61,.61-.59,1.61,0,2.23,3.32,3.41,9.42,3.29,12.63-.21,.57-.63,.62-1.61,0-2.23-.58-.58-1.65-.63-2.23,0-.16,.17-.32,.34-.49,.49,0,0-.11,.09-.16,.14-.06,.04-.15,.11-.17,.12-.19,.13-.38,.25-.58,.36-.07,.04-.36,.17-.43,.21-.4,.15-.8,.28-1.22,.37-.11,.02-.22,.04-.34,.06h-.04c-.25,.02-.49,.04-.74,.04-.22,0-.45,0-.67-.03-.08,0-.17-.02-.25-.03-.03,0-.07-.01-.12-.02-.43-.09-.85-.2-1.27-.35-.07-.03-.34-.16-.05-.01-.1-.05-.2-.09-.29-.14-.19-.1-.38-.2-.56-.32Zm4.02,.85s.03,0,0,0h0Z"/><path class="cls-6" d="M42.98,48.26c2.02,0,2.03-3.15,0-3.15s-2.03,3.15,0,3.15Z"/><path class="cls-6" d="M59.75,38.55c.72,.24,1.43,.42,2.15,.56,1.08-.71,.79-2.86-.87-2.92-3.63-.12-6.68-2.21-9.06-4.81-2.65-2.89-4.45-6.46-5.39-10.25-.47-1.89-3.29-1.19-3.06,.63h0c0,.07,.01,.13,.03,.21,1.98,8.07,8.43,17.07,17.48,17.37,.35,.01,.64-.08,.87-.23-.72-.14-1.43-.32-2.15-.56Z"/><path class="cls-6" d="M28.94,46.44c.15,.2,.13,.11,0,0h0Z"/><path class="cls-6" d="M90.96,101.93c-3.45-2.32-7.18-4.2-10.92-6.01-3.04-1.47-6.14-2.86-8.46-5.4-3-3.29-4.03-7.9-4.52-12.2-.01-.11-.04-.2-.06-.3,1.2-1.15,2.29-2.42,3.27-3.79,1.53-2.14,2.9-4.62,3.69-7.13,.15-.49,.27-1,.36-1.51,.94,.45,2.03,.6,3.11,.4,2.13-.38,3.65-2.33,3.82-4.42,.02-.11,.03-.22,.03-.33-.01-.85-.24-1.63-.63-2.33,1.66-2.57,2.14-5.78,1.56-8.75-.39-1.99-1.26-4.14-2.89-5.33,1.13-3.8,1.33-7.91,1-11.84-.39-4.6-1.47-9.21-3.62-13.32-3.94-7.52-12.27-12.31-20.54-13.35-4.46-.56-9.15,.09-12.95,2.6-.32,.21-.52,.48-.62,.77,.14-.16,.27-.33,.37-.52-.1,.19-.23,.36-.37,.52-.46,1.24,.84,2.86,2.21,1.95,6.22-4.12,14.67-2.39,20.76,1.12,3.2,1.85,6.04,4.36,7.91,7.56,2.06,3.53,3.17,7.66,3.61,11.7,.43,3.94,.34,8.04-.77,11.87-.53,0-1.07,.08-1.59,.2-.17-1.35-.4-2.68-.89-3.97-.11-.29-.25-.55-.47-.75-.16-.37-.48-.67-.99-.8-6.46-1.67-10.97-7.52-13.02-13.52-.27-.8-1.08-1.33-1.94-1.1-.78,.22-1.38,1.13-1.1,1.94,1.87,5.48,5.44,10.69,10.43,13.68,.81,.02,1.61,.02,2.42,.02-.81,0-1.61,0-2.42-.02,1.3,.78,2.69,1.42,4.18,1.86,.29,.88,.51,1.78,.64,2.69,.07,.57,.13,1.15,.19,1.73,.04,.43,.15,.8,.46,1.11,.09,.09,.2,.17,.32,.23,.44,.49,1.15,.73,1.9,.32,.4-.22,1.03-.47,1.79-.49,1.79-.03,2.42,1.85,2.79,3.31,.54,2.12,.32,4.32-.67,6.27-.03,.05-.06,.1-.09,.16-.09-.04-.17-.08-.25-.12-1.8-.68-4.04-.08-5.26,1.4-.89,1.08-1.29,2.45-1.14,3.79-.02,.12-.05,.25-.06,.39-.14,1.34-.23,2.74-.64,4.04-1.13,3.61-3.53,7.09-6.25,9.68-6.28,5.98-15.73,6.84-23.08,2.23-3.9-2.44-6.91-6.46-8.67-10.67-.66-1.58-1.1-3.18-1.39-4.86,0-.02,0-.05-.01-.07,.23-.51,.37-1.05,.41-1.61,.02-.11,.03-.22,.03-.33-.03-2.09-1.33-3.86-3.26-4.59-.54-.2-1.12-.28-1.71-.26-1.06-1-1.94-2.12-2.31-3.6-.39-1.54-.37-3.35,.42-4.76,.39-.69,1.01-1.34,1.82-1.46,.46-.07,.96,.05,1.39,.2,.13,.05,.27,.12,.4,.16,.09,.02,.16,.07,.21,.11-.05-.07-.11-.15-.2-.3,.79,1.24,3.03,.84,2.93-.79-.5-8.2,2.59-17.42,10-21.72,.77-.45,.89-1.22,.65-1.86h0c-.32-.82-1.25-1.43-2.23-.86-7.62,4.42-11.42,13.4-11.6,22-.35-.05-.7-.08-1.06-.08-2.23-5.93-1.59-12.66,1.07-18.36,2.11-4.52,6-9.74,11.37-10.36,1.7-.2,1.96-2.54,.73-3.05-1.41,.74-2.87,1.5-2.87,3.36,0-1.86,1.46-2.62,2.87-3.36-.2-.09-.45-.13-.73-.09-6.45,.75-11.24,6.03-13.94,11.61-3.13,6.49-4.11,14.27-1.53,21.11-2.05,1.38-2.98,3.84-3.08,6.23-.11,2.81,.93,5.15,2.56,7.1-.15,.14-.3,.28-.43,.44-1.31,1.6-1.6,3.85-.52,5.66,1.08,1.81,3.15,2.64,5.19,2.27,.26-.05,.5-.12,.74-.21,.26,1.11,.62,2.19,1.06,3.25-.06,.03-.12,.04-.19,.08-6.7,3.62-13.14,8.93-14.57,16.83-.8,4.45,0,8.61,2.92,12.13,.04,.05,.09,.1,.13,.15-5.68,1.65-10.69,5.19-14.68,9.49-3.48,3.75-6.38,8.18-8.11,13.03H-1.22c1.59-4,4.07-7.67,6.98-10.8,3.69-3.98,8.23-7.27,13.5-8.75,.48-.13,.79-.42,.95-.76,2.32,2.41,4.81,4.68,6.69,7.45,1.74,2.57,2.78,7.06-1.24,8.04-1.97,.48-1.13,3.52,.84,3.03,.17-.04,.31-.11,.47-.16,.56-.5,1.02-1.14,1.32-2.02-.3,.89-.76,1.52-1.32,2.02,3.13-1,4.91-3.92,4.65-7.22-.32-3.97-3.2-7.11-5.81-9.88-2.9-3.07-6.88-6.06-7.68-10.44-.71-3.92,.7-8.12,2.99-11.28,2.56-3.54,6.34-6.04,10.13-8.09,0,.01,.01,.03,.02,.04,1.36,2.52,3.12,4.85,5.21,6.81-.1,.21-.17,.44-.18,.68-.06,1.05-.14,1.75-.33,2.73-.19,.96-.44,1.91-.78,2.83-.18,.49-.2,.55-.42,1.01-.2,.42-.42,.83-.66,1.23-.22,.37-.46,.73-.72,1.08-.14,.2,0,.02-.1,.13-.07,.08-.14,.17-.21,.25-.16,.19-.32,.37-.49,.54-.51,.54-.6,1.37-.2,1.98,.65-.37,1.13-.86,1.13-1.68,0,.82-.48,1.31-1.13,1.68,.06,.09,.12,.17,.2,.25,.59,.59,1.64,.62,2.23,0,2.7-2.88,4.02-6.6,4.47-10.44,1.25,.86,2.59,1.6,4.01,2.19,4.89,2.01,10.46,2.39,15.49,.62,1.95-.69,3.74-1.65,5.39-2.82,.53,3.55,1.44,7.08,3.41,10.11,1.75,2.68,4.21,4.71,6.99,6.24-6.05,2.67-12.82,3.76-19.38,4.02-6.12,.24-12.72,0-18.52-2.17-.02,0-.03,0-.04-.01-.28-.43-.58-.85-.88-1.26-1.45-1.99-3.37-3.96-4.4-6.26-.79,.3-1.59,.56-2.03,.99,.44-.44,1.24-.69,2.03-.99-.22-.48-.41-.97-.53-1.49-.71-2.91-.84-7.02,1.62-9.16,1.53-1.34-.71-3.55-2.23-2.23-4.29,3.75-3.63,11.77-.62,16.06,2.02,2.87,4.41,5.54,6,8.69,1.61,3.2,1.73,6.87,.33,10.18-1.46,3.44-4.28,6.09-7.84,7.04h6.54c3.69-3.24,5.88-8.32,5.38-13.23-.16-1.55-.58-3-1.17-4.38,5.4,1.42,11.3,1.58,16.75,1.34,6.93-.31,14-1.51,20.38-4.34-1.24,6.28-2.48,12.55-3.72,18.83-.12,.59-.23,1.19-.35,1.78h3.2c1.29-6.53,2.58-13.06,3.87-19.59,.1-.48,.19-.96,.28-1.44,5.89,2.94,11.78,5.85,16.35,10.78,2.74,2.95,4.61,6.45,5.7,10.25h3.27c-1.98-7.71-6.98-13.76-13.61-18.21Zm-16.22-40.98v-.02s.01-.03,.02-.04c.03-.11,.06-.22,.1-.33,.04-.07,.07-.14,.11-.21,.03-.04,.05-.08,.08-.13-.01,0-.02,.01-.03,.02,.01,0,.02-.03,.04-.04l.03-.04c.05-.09,.09-.1,.09-.07,.05-.06,.09-.12,.14-.16,.02-.02,.07-.06,.11-.08,.12-.07,.27-.13,.38-.21,.06-.02,.11-.04,.17-.05,.05-.01,.22-.04,.29-.06,.07,0,.15,0,.22,0,.06,0,.12,0,.18,0,.15,.04,.3,.08,.45,.12,.07,.04,.15,.07,.21,.12,.05,.03,.1,.06,.15,.09h.02v.02c.1,.1,.2,.2,.3,.3,.04,.06,.08,.11,.11,.17,.04,.07,.07,.14,.11,.21,.04,.13,.08,.27,.11,.4,0-.03,0-.05,0-.09,0,.03,0,.07,0,.11,0,.02,0,.03,.01,.05,.02,.07,0,.11,0,.09,0,.04,0,.08,0,.12,0,.07,0,.13,0,.19-.04,.11-.05,.25-.08,.36-.01,.04-.03,.08-.04,.12-.07,.13-.15,.26-.23,.39-.04,.04-.07,.08-.11,.12-.04,.04-.08,.08-.12,.12,0,0-.01,.01-.02,.02,.03-.02,.04-.02,.08-.04-.12,.07-.24,.16-.36,.23-.05,.03-.1,.05-.14,.08-.13,.04-.25,.08-.38,.11,.03,0,.04,0,.07,0-.06,0-.12,0-.18,.01-.01,0-.03,0-.03,0h-.01c-.13,0-.26,0-.39,0-.07-.02-.15-.03-.22-.05-.05-.01-.1-.03-.16-.05,.02,.01,.03,.01,.04,.03-.02-.01-.04-.02-.06-.03-.03,0-.05-.02-.08-.03-.09-.03-.09-.06-.04-.04-.07-.03-.14-.07-.2-.1-.03-.02-.06-.04-.1-.07-.07-.07-.15-.16-.22-.24,.04,.06,.01,.08-.04,0-.02-.03-.03-.05-.05-.08-.01-.01-.03-.03-.04-.04,.01,0,.02,.02,.03,.03-.03-.04-.06-.08-.08-.13-.03-.05-.06-.1-.08-.15h0s0,.03,.02,.06c0-.04-.03-.09-.04-.13,0-.02-.02-.04-.02-.06-.03-.08-.06-.15-.08-.23-.01-.05-.02-.1-.03-.15h0c0-.14-.01-.28,0-.41h0s0,.03-.02,.06c.02-.06,.02-.12,.03-.17Zm-45.91-.31c0,.07,0,.13,0,.2-.04,.11-.05,.25-.08,.36-.01,.04-.03,.08-.04,.12-.07,.13-.15,.26-.23,.39-.04,.04-.07,.08-.11,.12-.04,.04-.08,.08-.12,.12,0,0-.02,.01-.02,.02,.03-.02,.04-.02,.08-.04-.12,.07-.24,.16-.36,.23-.05,.03-.1,.05-.14,.08-.13,.04-.25,.08-.38,.11,.03,0,.04,0,.07,0-.06,0-.12,0-.18,.01,0,0-.02,0-.03,0h-.01c-.13,0-.26,0-.39,0-.07-.02-.14-.03-.22-.05-.05-.01-.1-.03-.16-.05,.02,.01,.03,.01,.04,.03-.02-.01-.04-.02-.06-.03-.03,0-.05-.02-.08-.03-.09-.03-.09-.06-.04-.04-.07-.03-.14-.07-.2-.1-.03-.02-.06-.04-.1-.07-.07-.07-.15-.16-.22-.24,.04,.06,.01,.08-.04,0-.02-.03-.03-.05-.05-.08-.01-.01-.03-.03-.04-.04,.01,.01,.02,.02,.03,.03-.03-.04-.06-.08-.08-.13-.03-.05-.06-.1-.08-.15h0s0,.03,.02,.06c0-.04-.03-.09-.04-.13,0-.02-.01-.04-.02-.06-.03-.08-.06-.15-.08-.23-.01-.05-.02-.1-.03-.15h0c0-.14-.01-.28,0-.41h0s0,.03-.02,.06c.02-.06,.02-.12,.03-.17v-.02l.02-.04c.03-.11,.06-.22,.1-.33,.04-.07,.07-.14,.11-.21,.03-.04,.05-.08,.08-.13-.01,0-.02,.01-.03,.02,.01,0,.02-.03,.04-.04l.03-.04c.05-.09,.09-.1,.09-.07,.05-.06,.09-.12,.14-.16,.02-.02,.07-.06,.11-.08,.12-.07,.27-.13,.38-.21,.06-.02,.11-.04,.17-.05,.05-.01,.22-.04,.29-.06,.07,0,.15,0,.22,0,.06,0,.12,0,.18,0,.15,.04,.3,.08,.45,.12,.07,.04,.15,.07,.21,.11,.05,.03,.1,.06,.15,.09h.02v.02c.1,.1,.2,.2,.3,.3,.04,.06,.08,.11,.11,.17,.04,.07,.08,.14,.11,.21,.04,.13,.08,.27,.11,.4,0-.03,0-.05,0-.09,0,.03,0,.07,0,.11,0,.02,0,.03,.01,.05,.02,.07,0,.11,0,.09,0,.04,0,.08,0,.12Z"/><path class="cls-4" d="M75.71,62.81s.05,.02,.08,.03c-.04-.02-.08-.05-.12-.07-.05-.01-.05,.02,.04,.04Z"/><path class="cls-4" d="M76.62,62.95c.06,0,.12-.02,.18-.01-.03,0-.05,0-.07,0-.01,0-.02,0-.04,.01-.03,0-.05,0-.07,0Z"/><path class="cls-4" d="M75.85,62.87s-.03-.02-.04-.03h-.02s.04,.02,.06,.03Z"/><path class="cls-4" d="M76.62,62.95h-.03s.02,0,.03,0Z"/><path class="cls-4" d="M75.17,60.1s-.03-.01-.09,.07l-.03,.04s.08-.07,.12-.11Z"/><path class="cls-4" d="M74.9,62.05s-.01-.04-.02-.07c-.01-.02-.02-.04-.02-.06,.01,.04,.03,.09,.04,.13Z"/><path class="cls-4" d="M75.11,62.35c.06,.09,.08,.07,.04,0-.03-.03-.06-.06-.09-.09,.02,.03,.03,.05,.05,.08Z"/><path class="cls-4" d="M74.86,61.92s-.01-.04-.02-.06c0,.02,0,.03,.02,.06Z"/><path class="cls-4" d="M78.13,60.88s0,.06,0,.09v.02s0-.07,0-.11Z"/><path class="cls-4" d="M78.14,61.04s0-.03-.01-.05c0,.05,0,.09,0,.14,.01,.01,.02-.03,0-.09Z"/><path class="cls-4" d="M75.02,62.24s.03,.03,.04,.04h0s-.02-.03-.03-.04Z"/><path class="cls-4" d="M75.02,60.26s.02-.02,.03-.02h0s-.02,.02-.04,.02Z"/><path class="cls-4" d="M76.66,59.54c-.06,0-.12,0-.18,0-.07,0-.15,0-.22,0-.07,.02-.24,.05-.29,.06-.06,.02-.11,.04-.17,.05-.11,.08-.26,.14-.38,.21-.03,.03-.09,.07-.11,.08-.05,.04-.09,.1-.14,.16,0,.02-.04,.07-.12,.13-.03,.04-.06,.08-.08,.13-.04,.07-.08,.14-.11,.21-.03,.11-.07,.22-.1,.33,.01-.04,.01,0-.03,.17h0c0,.14,0,.28,0,.42h0c.01,.05,.02,.1,.03,.16,.02,.08,.05,.15,.08,.23,0-.05,0-.04,.04,.12h0c.03,.06,.06,.11,.08,.16,.03,.04,.06,.09,.08,.13,.05,.04,.08,.07,.1,.1,.08,.08,.15,.17,.22,.24,.03,.02,.06,.04,.1,.07,.06,.04,.13,.07,.2,.1,.03,0,.07,.03,.13,.07,.05,.02,.1,.04,.16,.05,.07,.02,.14,.04,.22,.05,.13,0,.26,.02,.39,.01h.01c-.06,0-.03-.03,.14-.02,.13-.03,.25-.07,.38-.11,.05-.03,.1-.05,.14-.08,.12-.07,.24-.17,.36-.23-.04,.02-.05,.03-.08,.04-.1,.08-.19,.11,0,0,0,0,.02-.01,.02-.02,.04-.04,.08-.08,.12-.12,.04-.04,.07-.08,.11-.12,.08-.13,.16-.25,.23-.39,.02-.04,.03-.08,.04-.12,.03-.11,.05-.25,.08-.36,0-.06,0-.13,0-.19,0-.04,0-.08,0-.12,0,0-.02-.07-.01-.16-.03-.14-.07-.27-.11-.4-.04-.07-.07-.14-.11-.21-.03-.06-.07-.11-.11-.17-.1-.1-.2-.2-.3-.3h0l-.02-.02s-.1-.06-.15-.09c-.07-.04-.14-.08-.21-.12-.15-.05-.29-.09-.45-.12Z"/><path class="cls-4" d="M74.75,60.93s0-.02,.01-.04c0,0,0,.02-.01,.04Z"/><path class="cls-4" d="M74.74,60.95c-.01,.06-.02,.12-.03,.17,0-.03,.01-.04,.02-.07,0-.04,.01-.09,.02-.13v.02Z"/><path class="cls-6" d="M75.79,62.84h.02c-.06-.04-.11-.06-.13-.07,.04,.02,.08,.05,.12,.07Z"/><path class="cls-6" d="M76.58,62.96h.03s.04,0,.07,0c.01,0,.02,0,.04-.01-.17,0-.2,.01-.14,.02Z"/><path class="cls-6" d="M77.53,62.56c-.19,.11-.1,.08,0,0h0Z"/><path class="cls-6" d="M78.14,61.13s0-.09,0-.14v-.02c0,.09,0,.15,0,.16Z"/><path class="cls-6" d="M74.76,60.89s0,.02-.01,.04c0,.04-.02,.08-.02,.13,.05-.17,.05-.2,.03-.17Z"/><path class="cls-6" d="M75.17,60.1s-.08,.08-.12,.11h0c.08-.05,.12-.09,.12-.11Z"/><path class="cls-6" d="M74.84,61.86s.01,.04,.02,.06c0,.02,.01,.04,.02,.06-.04-.16-.05-.17-.04-.12Z"/><path class="cls-6" d="M75.05,62.26h0s.06,.06,.09,.1c-.02-.03-.05-.06-.1-.1Z"/><path class="cls-4" d="M26.39,62.21s.05,.02,.08,.03c-.04-.02-.08-.05-.12-.07-.05-.01-.05,.02,.04,.04Z"/><path class="cls-4" d="M26.53,62.27s-.03-.02-.04-.03h-.02s.04,.02,.06,.03Z"/><path class="cls-4" d="M27.29,62.35h-.03s.02,0,.03,0Z"/><path class="cls-4" d="M25.7,59.65s.02-.02,.03-.02h0s-.02,.02-.04,.02Z"/><path class="cls-4" d="M25.43,60.32s0-.02,.01-.04v.04Z"/><path class="cls-4" d="M27.29,62.35c.06,0,.13-.02,.18-.01-.03,0-.05,0-.07,0-.01,0-.02,0-.04,.01-.03,0-.05,0-.08,0Z"/><path class="cls-4" d="M25.85,59.5s-.03-.01-.09,.07l-.03,.04s.08-.07,.12-.11Z"/><path class="cls-4" d="M25.79,61.75c.06,.09,.08,.07,.04,0-.03-.03-.06-.06-.09-.09,.02,.03,.03,.05,.05,.08Z"/><path class="cls-4" d="M25.7,61.63s.03,.03,.04,.04h0s-.02-.03-.03-.04Z"/><path class="cls-4" d="M25.58,61.44s-.01-.04-.02-.07c-.01-.02-.02-.04-.02-.06,.01,.04,.03,.09,.04,.13Z"/><path class="cls-4" d="M25.54,61.31s-.01-.04-.02-.06c0,.02,0,.03,.02,.06Z"/><path class="cls-4" d="M25.42,60.34c-.01,.06-.02,.12-.03,.17,0-.03,.01-.04,.02-.07,0-.04,.01-.09,.02-.13v.02Z"/><path class="cls-4" d="M27.26,62.35c-.06,0-.03-.03,.14-.02,.13-.03,.25-.07,.38-.11,.05-.03,.1-.05,.14-.08,.12-.07,.24-.17,.36-.23-.04,.02-.05,.03-.08,.04-.1,.08-.19,.11,0,0,0,0,.02-.01,.02-.02,.04-.04,.08-.08,.12-.12,.04-.04,.07-.08,.11-.12,.08-.13,.16-.25,.23-.39,.02-.04,.03-.08,.04-.12,.03-.11,.05-.25,.08-.36,0-.06,0-.13,0-.2,0-.04,0-.08,0-.12,0,0-.02-.07-.01-.16-.03-.14-.07-.27-.11-.4-.04-.07-.07-.14-.11-.21-.03-.06-.07-.11-.11-.17-.1-.1-.2-.2-.3-.3h0l-.02-.02s-.1-.06-.15-.09c-.07-.04-.14-.08-.21-.11-.15-.05-.29-.09-.45-.12-.06,0-.12,0-.18,0-.07,0-.15,0-.22,0-.07,.02-.24,.05-.29,.06-.06,.02-.11,.04-.17,.05-.11,.08-.26,.14-.38,.21-.03,.03-.09,.07-.11,.08-.05,.04-.09,.1-.14,.16,0,.02-.04,.07-.12,.13-.03,.04-.06,.08-.08,.13-.04,.07-.08,.14-.11,.21-.03,.11-.07,.22-.1,.33,.01-.04,.01,0-.03,.17h0c0,.14,0,.28,0,.42h0c.01,.05,.02,.1,.03,.16,.02,.08,.05,.15,.08,.23,0-.05,0-.04,.04,.12h0c.03,.06,.06,.11,.08,.16,.03,.04,.06,.09,.08,.13,.05,.04,.08,.07,.1,.1,.08,.08,.15,.17,.22,.24,.03,.02,.06,.04,.1,.07,.06,.04,.13,.07,.2,.1,.03,0,.07,.03,.13,.07,.05,.02,.1,.04,.16,.05,.07,.02,.14,.04,.22,.05,.13,0,.26,.02,.39,.01h.01Z"/><path class="cls-4" d="M28.82,60.43s0-.03-.01-.05c0,.05,0,.09,0,.14,.01,.01,.02-.03,0-.09Z"/><path class="cls-4" d="M28.81,60.28s0,.06,0,.09v.02s0-.07,0-.11Z"/><path class="cls-6" d="M26.47,62.23h.02c-.06-.04-.11-.06-.13-.07,.04,.02,.08,.05,.12,.07Z"/><path class="cls-6" d="M28.21,61.96c-.19,.11-.1,.08,0,0h0Z"/><path class="cls-6" d="M25.44,60.29s0,.02-.01,.04c0,.04-.02,.08-.02,.13,.05-.17,.05-.2,.03-.17Z"/><path class="cls-6" d="M25.52,61.25s.01,.04,.02,.06c0,.02,.01,.04,.02,.06-.04-.16-.05-.17-.04-.12Z"/><path class="cls-6" d="M25.73,61.66h0s.06,.06,.09,.1c-.02-.03-.05-.06-.1-.1Z"/><path class="cls-6" d="M27.26,62.35h.03s.04,0,.08,0c.01,0,.02,0,.04-.01-.17,0-.2,.01-.14,.02Z"/><path class="cls-6" d="M25.85,59.5s-.08,.08-.12,.11h0c.08-.05,.12-.09,.12-.11Z"/><path class="cls-6" d="M28.82,60.52s0-.09,0-.14v-.02c0,.09,0,.15,0,.16Z"/></g></g></g></svg>