<?xml version="1.0" encoding="UTF-8"?><svg id="_イヤー_2" xmlns="http://www.w3.org/2000/svg" xmlns:xlink="http://www.w3.org/1999/xlink" viewBox="0 0 100 120"><defs><style>.cls-1{fill:none;}.cls-2{clip-path:url(#clippath);}.cls-3{fill:#f480c3;}.cls-4{fill:#fff;}.cls-5{fill:#ffe159;}.cls-6{fill:#2e2e2e;}</style><clipPath id="clippath"><rect class="cls-1" width="100" height="120"/></clipPath></defs><g id="_イヤー_1-2"><g><rect class="cls-3" width="100" height="120"/><g class="cls-2"><path class="cls-4" d="M37.89,95.51c-.13,.48-.27,.97-.43,1.48,.4-.18,.87-.2,1.35,.03,4.08,1.99,9.26,2.09,13.7,1.94,4.37-.15,9.46-.63,13.24-3.06-.05-.43-.08-.87-.1-1.3-.02-.05-.04-.09-.06-.14-.72-2.3-1.27-4.66-1.77-7.02-.37-1.76-.76-3.58-.95-5.41-4.33,2.82-9.54,4.16-14.76,3.37-3.41-.51-6.97-1.98-9.89-4.18,.18,.67,.35,1.35,.49,2.03,.84,4.03,.24,8.33-.83,12.27Z"/><path class="cls-5" d="M52.2,68.45s.03,0,0,0h0Z"/><path class="cls-5" d="M81.62,102.17c1.12,2.65,3.93,3.87,6.64,4.22,.84,.11,1.59,.63,1.58,1.58,0,.77-.73,1.69-1.58,1.58-1.2-.16-2.38-.43-3.51-.82-.6,.07-1.2,.11-1.82,.14,.81,.89,.45,2.72-1.1,2.68-3.34-.08-6.6-1.01-9.3-3.02-3.1-2.32-5.13-5.69-6.14-9.36-4.12,2.25-9.33,2.79-13.88,2.95-5.05,.18-10.67-.12-15.29-2.37-.25-.12-.43-.28-.56-.46-2.54,6.62-7.45,14.07-14.96,13.15-.82-.1-1.3-.69-1.45-1.33-1.47-.07-2.9-.41-4.06-1.47-1.1-.1-2.18-.5-3.19-1.27-.67-.52-1.05-1.35-.57-2.16,.4-.67,1.48-1.09,2.16-.57,1.84,1.42,3.71,.96,5.34-.58,1.61-1.53,1.64-3.42,1.27-5.49-.63,.14-1.26,.13-1.89,.07,.39,.81,.19,1.94-.92,2.27-3.06,.91-6.12,1.9-8.91,3.49-2.05,1.17-3.7,2.86-5.19,4.67-2.56,3.12-4.55,6.66-6.49,10.2H102.2c-.52-1.05-1-2.12-1.53-3.15-1.12-2.2-2.31-4.4-3.8-6.37-1.5-1.98-3.47-3.42-5.55-4.73-2.35-1.49-4.82-2.81-7.35-3.95-.78-.35-.97-1.49-.57-2.16,.09-.15,.19-.26,.31-.37-.87-.09-1.8-.13-2.65-.56-.02,1.09,.14,2.17,.57,3.18Z"/><path class="cls-4" d="M55.82,23.38c-3.58,11.06-13.11,20.72-24.49,23.33-.02,.18-.06,.37-.15,.56-2.86,6.23-1,13.08,1.31,19.15,.86,2.28,1.86,4.53,2.82,6.8,.26,.12,.49,.34,.66,.67,2.52,4.94,8.6,8.21,14.03,8.55,5.84,.36,11.27-2.27,15.16-6.52,2.02-2.2,3.64-4.82,4.73-7.6,.75-1.92,1.07-3.76,1.37-5.77,.1-.65,.14-1.36,.35-1.98,.09-.27,.23-.47,.38-.65,.15-.26,.31-.52,.51-.77,.71-.86,1.82-1.39,2.95-1.5,.92-.93,1.71-2.12,2.17-3.17,.72-1.64,.86-3.84,.13-5.5-.35-.79-1-1.64-1.89-1.84-.5-.11-1.07,.02-1.54,.19-.01,0-.31,.14-.4,.16-.08,.02-.14,.05-.2,.09-.19,.26-.16,.12,0,0,.05-.07,.11-.15,.19-.27-.79,1.25-3.05,.84-2.95-.8,.56-9.13-2.61-20.81-11.21-25.45-.52-.28-.74-.7-.78-1.14-1.4,.93-2.03,2.37-3.17,3.48Zm-4.2,35.25c2.04,0,2.03,3.16,0,3.16s-2.03-3.16,0-3.16Zm-9.29-9.19c-2.04,0-2.03-3.16,0-3.16s2.03,3.16,0,3.16Zm15.47,19.51c-3.22,3.52-9.35,3.64-12.69,.21-.6-.61-.61-1.62,0-2.24,.6-.6,1.64-.61,2.24,0,.16,.17,.35,.31,.51,.48,0,0,0,0,0,0,.01,0,.01,0,.03,.02,.09,.06,.18,.12,.27,.18,.18,.12,.37,.22,.56,.32,.1,.05,.2,.09,.29,.14-.3-.15-.03-.01,.05,.01,.42,.15,.84,.26,1.27,.35,.05,.01,.09,.02,.12,.02,.08,0,.17,.02,.25,.03,.22,.02,.45,.03,.67,.03,.25,0,.49-.02,.74-.04h.04c.11-.02,.23-.04,.34-.06,.42-.09,.83-.21,1.23-.37,.07-.04,.36-.17,.43-.21,.2-.11,.39-.23,.58-.36,.02-.01,.11-.08,.17-.12,.06-.05,.17-.14,.16-.14,.17-.16,.34-.32,.5-.5,.58-.63,1.65-.58,2.24,0,.62,.62,.58,1.61,0,2.24Zm2.83-19.51c-2.04,0-2.03-3.16,0-3.16s2.03,3.16,0,3.16Zm4.91-9c.73,.5,.99,1.36,.57,2.16-.38,.72-1.48,1.04-2.16,.57-.29-.2-.58-.38-.88-.55-.15-.08-.31-.16-.46-.24-.03-.01-.26-.12-.32-.14-.09-.04-.24-.09-.27-.1-.16-.06-.33-.11-.5-.16-.31-.09-.63-.17-.95-.23-.15-.03-.3-.07-.45-.08,.42,.03-.15-.01-.23-.02-.35-.03-.69-.04-1.04-.03-.3,0-.62,0-.91,.07,.41-.09-.15,.03-.22,.04-.17,.03-.34,.07-.51,.11-.86,.21-1.67-.27-1.95-1.1-.26-.79,.3-1.75,1.1-1.95,3.12-.75,6.53-.19,9.18,1.65Z"/><path class="cls-6" d="M53.76,7.89c.16,.13,.29,.28,.37,.44,.7-.1,1.37-.15,1.84-.62-.47,.47-1.14,.52-1.84,.62,.51,1.11-.82,2.75-2.3,2.06-3.52-1.65-8.23-.36-11.61,1.02-3.77,1.54-6.52,4.21-8.63,7.67-2.04,3.35-3.4,7.02-4.68,10.71-1.59,4.58-3.05,9.2-4.51,13.82-1.46,4.62-2.91,9.24-4.48,13.83-1.52,4.46-3.27,9-3.52,13.75-.26,4.75,1.47,8.74,3.82,12.76,2.24,3.84,4.33,7.5,5.37,11.86,.85,3.54,1.89,7.65-.71,10.72-1.72,2.03-4.23,3.34-6.71,3.11,1.16,1.06,2.59,1.4,4.06,1.47-.22-.93,.25-1.98,1.45-1.83,4.28,.52,7.46-2.76,9.54-6.12,2.29-3.68,3.72-7.91,4.4-12.18,.29-1.81,.4-3.68,.24-5.5-.2-2.34-1.04-4.65-1.84-6.84-3.83-10.48-10.74-21.72-5.57-32.98,.07-.16,.16-.29,.26-.4-.04-.65,.3-1.28,1.13-1.45,11.69-2.39,21.24-12.79,23.76-24.29,.44-1.99,3.48-1.14,3.05,.84-.22,1.02-.51,2.02-.84,3.02,1.14-1.11,1.77-2.55,3.17-3.48-.07-1.09,1.1-2.27,2.37-1.59,8.83,4.76,12.77,16.04,12.84,25.78,.09-.02,.18-.04,.27-.05,1.63-.27,3.12,.14,4.39,1.19,2.24,1.87,2.79,5.04,2.41,7.8-.3,2.15-1.31,3.95-2.6,5.62,1.01,.83,1.64,2.04,1.66,3.43,0,.11-.01,.23-.03,.33-.17,1.9-1.55,3.67-3.49,4.02-1.01,.18-1.96,.07-2.9-.36-.03-.01-.05-.03-.08-.05-.3,1.35-.67,2.68-1.24,4.04-1.36,3.23-3.3,6.21-5.76,8.72-.29,.3-.59,.59-.9,.87-.04,2.37,.45,4.59,.95,6.95,1.5-4.27,4.14-8.17,6.8-11.9,1.18-1.64,3.92-.06,2.73,1.6-4.47,6.24-9,13.08-7.23,21.11,1.38,6.26,6.11,10.84,12.66,10.99,.48,.01,.85,.2,1.1,.48,.62-.02,1.22-.07,1.82-.14-2.17-.76-4.09-2.02-5.38-4.08-1.78-2.85-1.73-6.45-.85-9.59,1.92-6.81,7.74-12.17,8.53-19.36,.48-4.41-.48-8.84-1.59-13.08-1.24-4.73-2.58-9.44-3.88-14.15-1.31-4.77-2.62-9.54-3.94-14.31-1.18-4.25-2.39-8.55-4.34-12.52-1.68-3.41-3.94-6.76-6.75-9.34-2.51-2.31-5.46-3.14-8.82-2.77-1.93,.21-2-2.64-.27-3.11-1.19-.15-2.35,.34-3.68,1.46Z"/><path class="cls-6" d="M82.93,108.88c-.85,.03-1.73,.04-2.72,.04,.99,0,1.87,0,2.72-.04-.25-.28-.62-.47-1.1-.48-6.55-.15-11.28-4.74-12.66-10.99-1.77-8.02,2.76-14.86,7.23-21.11,1.19-1.66-1.56-3.24-2.73-1.6-2.66,3.72-5.3,7.62-6.8,11.9-.5-2.36-.99-4.57-.95-6.95,.31-.28,.6-.57,.9-.87,2.46-2.51,4.4-5.49,5.76-8.72,.57-1.36,.95-2.69,1.24-4.04,.03,.01,.05,.03,.08,.05,.94,.43,1.89,.54,2.9,.36,1.94-.35,3.32-2.12,3.49-4.02,.02-.11,.03-.22,.03-.33-.02-1.38-.65-2.6-1.66-3.43,1.28-1.67,2.29-3.47,2.6-5.62,.38-2.75-.17-5.93-2.41-7.8-1.26-1.05-2.76-1.46-4.39-1.19-.09,.01-.18,.03-.27,.05-.06-9.74-4.01-21.02-12.84-25.78-1.28-.69-2.45,.5-2.37,1.59,.34-.23,.73-.43,1.19-.58-.46,.15-.85,.35-1.19,.58,.03,.44,.26,.87,.78,1.14,8.61,4.65,11.77,16.32,11.21,25.45-.1,1.64,2.16,2.05,2.95,.8-.08,.13-.14,.21-.19,.27,.05-.04,.12-.07,.2-.09,.09-.02,.39-.15,.4-.16,.47-.16,1.05-.3,1.54-.19,.89,.2,1.54,1.05,1.89,1.84,.73,1.66,.59,3.86-.13,5.5-.46,1.06-1.25,2.24-2.17,3.17-1.13,.11-2.23,.64-2.95,1.5-.2,.25-.37,.5-.51,.77-.16,.17-.29,.38-.38,.65-.22,.62-.26,1.34-.35,1.98-.3,2.02-.63,3.85-1.37,5.77-1.08,2.78-2.71,5.4-4.73,7.6-3.9,4.25-9.32,6.88-15.16,6.52-5.43-.34-11.51-3.6-14.03-8.55-.17-.33-.4-.55-.66-.67-.96-2.27-1.95-4.53-2.82-6.8-2.31-6.08-4.17-12.93-1.31-19.15,.09-.19,.13-.38,.15-.56,11.38-2.61,20.91-12.27,24.49-23.33-.51,.5-1.13,.93-1.96,1.21,.84-.28,1.45-.71,1.96-1.21,.32-1,.61-2,.84-3.02,.43-1.98-2.61-2.83-3.05-.84-2.52,11.5-12.06,21.9-23.76,24.29-.83,.17-1.17,.81-1.13,1.45-.1,.11-.19,.24-.26,.4-5.17,11.26,1.74,22.5,5.57,32.98,.8,2.19,1.64,4.5,1.84,6.84,.16,1.83,.04,3.7-.24,5.5-.68,4.27-2.11,8.5-4.4,12.18-2.09,3.36-5.27,6.64-9.54,6.12-1.19-.15-1.67,.9-1.45,1.83,1.4,.07,2.84-.1,4.1-.1-1.27,0-2.7,.16-4.1,.1,.15,.64,.63,1.23,1.45,1.33,7.51,.91,12.42-6.53,14.96-13.15,.13,.18,.31,.34,.56,.46,4.62,2.26,10.24,2.55,15.29,2.37,4.55-.16,9.77-.7,13.88-2.95,1.02,3.67,3.04,7.04,6.14,9.36,2.69,2.02,5.96,2.94,9.3,3.02,1.55,.04,1.92-1.79,1.1-2.68Zm-7.47-48.04s-.09,.03-.16,.06c.06-.04,.12-.06,.16-.06Zm-.88,1.07c0-.11,.05-.24,.03-.1,.02-.08,.05-.16,.07-.24,.03-.05,.06-.11,.09-.16,.02-.03,.04-.06,.06-.09-.02,.02-.02,.03-.05,.05,.02-.02,.04-.04,.05-.06,.01-.02,.02-.04,.04-.05,.05-.08,.1-.11,.08-.06,.03-.03,.06-.07,.09-.1,.01-.01,.04-.03,.06-.05,.05-.03,.11-.08,.18-.12h.02c.07-.03,.14-.06,.22-.08,.03,0,.11-.02,.17-.04,.08,0,.19-.01,.23-.01,.04,0,.08,0,.13,0,.12,.03,.23,.06,.35,.1,.05,.03,.11,.05,.16,.09,.04,.02,.08,.05,.11,.07,.08,.08,.16,.16,.24,.24,.03,.04,.05,.08,.08,.12,.03,.05,.06,.1,.08,.15,.03,.11,.06,.22,.09,.33,0-.04,0-.07,0-.12,0,.05,0,.09,0,.14,0,.02,0,.03,.01,.05,0,.02,0,.03,0,.05,0,.02,0,.04,0,.06v-.03s0,.04,0,.05c0,.08,0,.16,0,.24h0c-.02,.08-.05,.15-.06,.19,0,.01,0,.04-.01,.05-.06,.11-.13,.22-.19,.32-.02,.03-.05,.05-.07,.08-.11,.12-.45,.31-.02,.05-.11,.07-.2,.14-.31,.2-.03,.02-.06,.03-.1,.05-.1,.03-.2,.06-.3,.09,.04,0,.06,0,.11,0-.05,0-.09,0-.14,.01h-.01c-.09,.02-.15,.01-.11,0-.08,0-.17,0-.25,0-.05-.01-.11-.02-.16-.04-.04-.01-.08-.03-.12-.04,.02,.01,.04,.02,.07,.04-.03-.02-.05-.03-.08-.04-.03,0-.06-.02-.09-.03-.08-.03-.11-.06-.04-.04-.04-.02-.09-.04-.13-.07-.02-.01-.04-.02-.05-.04-.05-.05-.1-.1-.15-.15,.06,.07,.01,.07-.04-.01-.02-.03-.04-.06-.06-.09-.02-.02-.03-.04-.05-.05,.02,.02,.03,.03,.05,.05-.02-.03-.04-.06-.06-.1-.02-.04-.05-.08-.07-.13,.01,.03,.02,.05,.03,.1-.01-.04-.02-.08-.04-.11-.04-.08-.05-.15-.04-.13-.01-.04-.03-.08-.04-.12,0-.03-.02-.07-.02-.1,0-.11,0-.22,0-.33,0,.03-.01,.06-.02,.09,0-.04,.02-.08,.02-.12Zm-22.08,37.06c-4.44,.15-9.61,.05-13.7-1.94-.49-.24-.96-.21-1.35-.03,.16-.51,.3-1,.43-1.48,1.07-3.93,1.67-8.23,.83-12.27-.14-.68-.31-1.36-.49-2.03,2.92,2.2,6.48,3.66,9.89,4.18,5.22,.79,10.43-.55,14.76-3.37,.19,1.83,.58,3.65,.95,5.41,.5,2.36,1.05,4.72,1.77,7.02,.02,.05,.04,.1,.06,.14,.02,.44,.05,.87,.1,1.3-3.78,2.43-8.87,2.91-13.24,3.06Z"/><path class="cls-6" d="M51.75,9.83c.59-1.18,1.5-1.37,2.38-1.49-.12-.27-.35-.5-.7-.67-3.32-1.56-7.1-1.29-10.57-.42-3.37,.84-6.71,2.28-9.36,4.57-5.94,5.12-8.39,13.36-10.79,20.53-3.08,9.24-5.97,18.54-9.04,27.78-1.44,4.31-2.7,8.87-2.43,13.47,.27,4.63,2.29,8.65,4.61,12.58,1.28,2.16,2.62,4.32,3.57,6.66,.85,2.1,1.35,4.41,1.76,6.63,0,.04,.01,.08,.02,.13,.7-.16,1.4-.5,2.09-1.2-.7,.7-1.4,1.05-2.09,1.2,.37,2.07,.34,3.96-1.27,5.49-1.63,1.54-3.5,2-5.34,.58-.68-.53-1.76-.1-2.16,.57-.49,.81-.11,1.64,.57,2.16,1.01,.78,2.09,1.17,3.19,1.27-.5-.45-.94-1.03-1.32-1.79,.38,.76,.83,1.34,1.32,1.79,2.47,.23,4.99-1.08,6.71-3.11,2.6-3.07,1.56-7.18,.71-10.72-1.04-4.36-3.13-8.02-5.37-11.86-2.35-4.02-4.08-8.01-3.82-12.76,.26-4.75,2-9.3,3.52-13.75,1.57-4.58,3.02-9.21,4.48-13.83,1.46-4.62,2.92-9.24,4.51-13.82,1.28-3.69,2.64-7.36,4.68-10.71,2.1-3.46,4.85-6.13,8.63-7.67,3.39-1.39,8.1-2.68,11.61-1.02,1.48,.69,2.81-.95,2.3-2.06-.88,.12-1.79,.31-2.38,1.49Z"/><path class="cls-6" d="M88.26,106.4c-2.7-.36-5.51-1.57-6.64-4.22-.43-1.01-.59-2.09-.57-3.18-.3-.15-.58-.35-.85-.62,.27,.27,.55,.47,.85,.62,.04-1.82,.59-3.67,1.29-5.27,1.38-3.19,3.37-6.15,4.97-9.24,1.83-3.52,3-7.03,3.02-11.04,.02-4.41-1.04-8.78-2.18-13.01-1.3-4.78-2.63-9.55-3.94-14.32-1.29-4.7-2.57-9.41-3.89-14.11-1.17-4.15-2.46-8.29-4.39-12.16-1.86-3.72-4.46-7.52-7.66-10.23-3.02-2.55-6.61-3.67-10.55-3.25-2,.22-2.02,3.38,0,3.16,3.37-.36,6.31,.47,8.82,2.77,2.82,2.58,5.08,5.93,6.75,9.34,1.95,3.97,3.17,8.27,4.34,12.52,1.32,4.77,2.63,9.54,3.94,14.31,1.3,4.71,2.65,9.42,3.88,14.15,1.11,4.25,2.07,8.67,1.59,13.08-.79,7.19-6.61,12.55-8.53,19.36-.88,3.14-.94,6.74,.85,9.59,1.29,2.06,3.22,3.32,5.38,4.08,1.21-.14,2.44-.4,3.89-.88-1.45,.48-2.68,.74-3.89,.88,1.12,.39,2.31,.66,3.51,.82,.85,.11,1.57-.81,1.58-1.58,0-.95-.74-1.47-1.58-1.58Z"/><path class="cls-6" d="M73.74,47.56c-.16,.12-.19,.26,0,0h0Z"/><path class="cls-6" d="M62.6,42.38c.16,.08,.31,.15,.46,.24,.31,.17,.6,.35,.88,.55,.68,.47,1.79,.15,2.16-.57,.43-.81,.16-1.66-.57-2.16-2.65-1.83-6.06-2.4-9.18-1.65-.8,.19-1.36,1.15-1.1,1.95,.27,.84,1.08,1.31,1.95,1.1,.17-.04,.34-.08,.51-.11,.08-.01,.63-.13,.22-.04,.29-.06,.61-.06,.91-.07,.35,0,.7,0,1.04,.03,.08,0,.65,.05,.23,.02,.15,.01,.3,.05,.45,.08,.32,.06,.64,.14,.95,.23,.17,.05,.33,.1,.5,.16,.02,0,.17,.06,.27,.1,.06,.03,.29,.13,.32,.14Z"/><path class="cls-6" d="M60.63,46.27c-2.03,0-2.04,3.16,0,3.16s2.04-3.16,0-3.16Z"/><path class="cls-6" d="M51.62,61.79c2.03,0,2.04-3.16,0-3.16s-2.04,3.16,0,3.16Z"/><path class="cls-6" d="M48.16,67.59c-.09-.06-.18-.12-.27-.18-.02-.01-.02-.01-.03-.02,0,0,0,0,0,0-.17-.16-.35-.31-.51-.48-.6-.61-1.64-.6-2.24,0-.61,.61-.6,1.62,0,2.24,3.34,3.43,9.47,3.3,12.69-.21,.58-.63,.62-1.61,0-2.24-.58-.58-1.66-.63-2.24,0-.16,.17-.32,.34-.5,.5,0,0-.11,.09-.16,.14-.06,.04-.15,.11-.17,.12-.19,.13-.38,.25-.58,.36-.07,.04-.36,.17-.43,.21-.4,.16-.81,.28-1.23,.37-.11,.02-.23,.04-.34,.06h-.04c-.25,.02-.49,.04-.74,.04-.22,0-.45,0-.67-.03-.08,0-.17-.02-.25-.03-.03,0-.07-.01-.12-.02-.44-.09-.85-.2-1.27-.35-.07-.03-.34-.16-.05-.01-.1-.05-.2-.09-.29-.14-.19-.1-.38-.2-.56-.32Zm4.04,.86s.03,0,0,0h0Z"/><path class="cls-6" d="M42.33,49.43c2.03,0,2.04-3.16,0-3.16s-2.04,3.16,0,3.16Z"/><path class="cls-6" d="M103.28,115.31c-1.19-2.32-2.49-4.6-4.09-6.67-1.65-2.12-3.75-3.72-6-5.16-2.43-1.56-4.99-2.94-7.62-4.13-.64-.29-1.35-.25-1.85,.2,1.21,.13,2.29,.38,2.82,1.98-.54-1.61-1.62-1.85-2.82-1.98-.11,.1-.22,.22-.31,.37-.4,.67-.21,1.81,.57,2.16,2.54,1.14,5,2.47,7.35,3.95,2.08,1.32,4.05,2.75,5.55,4.73,1.49,1.97,2.68,4.17,3.8,6.37,.53,1.04,1.01,2.11,1.53,3.15h3.58c-.94-1.6-1.65-3.33-2.5-4.98Z"/><path class="cls-6" d="M19.31,99.64c-.78-.07-1.56-.22-2.34-.22,.78,0,1.56,.14,2.34,.22-.29-.61-.92-1.03-1.76-.78-3.19,.95-6.39,2.01-9.32,3.62-2.33,1.28-4.28,3.09-5.98,5.12-3.18,3.8-5.57,8.13-7.93,12.46-.04,.08-.07,.15-.09,.22H-2.2c1.93-3.54,3.93-7.08,6.49-10.2,1.49-1.81,3.14-3.5,5.19-4.67,2.79-1.59,5.85-2.58,8.91-3.49,1.11-.33,1.32-1.47,.92-2.27Z"/><path class="cls-4" d="M77.14,61.76c0,.06,0,.09,0,.12v.02s0-.09,0-.14Z"/><path class="cls-4" d="M75.46,63.32s-.04-.03-.07-.04h-.01s.06,.02,.08,.04Z"/><path class="cls-4" d="M75.29,63.25s.06,.02,.09,.03c-.04-.02-.08-.05-.12-.07-.07-.02-.04,.01,.04,.04Z"/><path class="cls-4" d="M76.04,63.36h.01s-.04,0-.06,0c-.02,0-.04,0-.07,0-.04,0,.03,.02,.11,0Z"/><path class="cls-4" d="M74.89,62.94c.05,.08,.09,.08,.04,.01-.03-.03-.06-.07-.1-.1,.02,.03,.04,.06,.06,.09Z"/><path class="cls-4" d="M74.78,62.8s.04,.04,.05,.05h0s-.03-.03-.05-.05Z"/><path class="cls-4" d="M77.16,62.05s0-.04,0-.06c0-.02,0-.03,0-.05,0-.02,0-.03-.01-.05,0,.04,0,.08,0,.12v.03Z"/><path class="cls-4" d="M76.38,63.27s.07-.03,.1-.05c.11-.06,.21-.14,.31-.2-.43,.26-.1,.07,.02-.05,.02-.03,.05-.05,.07-.08,.07-.11,.13-.21,.19-.32,0-.02,.01-.04,.01-.05,.01-.04,.04-.11,.06-.18h0c0-.09,0-.17,0-.25,0-.02,0-.04,0-.05,0-.02,0-.07-.01-.14-.03-.11-.06-.22-.09-.33-.03-.05-.05-.1-.08-.15-.02-.04-.05-.08-.08-.12-.08-.08-.16-.16-.24-.24-.04-.03-.08-.05-.11-.07-.05-.03-.11-.06-.16-.09-.11-.04-.23-.07-.35-.1-.04,0-.08,0-.13,0-.04,0-.14,0-.23,.01-.07,.01-.14,.03-.17,.04-.07,.02-.15,.05-.22,.07h-.02c-.07,.05-.13,.1-.18,.13-.02,.02-.05,.04-.06,.05-.03,.03-.06,.06-.09,.1-.01,.02-.05,.06-.12,.13-.02,.03-.04,.06-.06,.09-.03,.05-.06,.1-.09,.16-.03,.08-.05,.16-.07,.24,0,.03-.02,.07-.03,.13,0,.11,0,.22,0,.33,0,.03,.01,.07,.02,.1,.01,.04,.03,.08,.04,.12,0,0,.02,.06,.05,.15,.02,.04,.05,.09,.07,.13,.02,.03,.04,.06,.06,.1,.05,.04,.08,.08,.1,.11,.05,.05,.1,.1,.15,.15,.02,.01,.04,.03,.05,.04,.04,.03,.08,.05,.13,.07,.03,0,.07,.03,.14,.07,.04,.01,.08,.03,.12,.04,.05,.01,.11,.03,.16,.04,.08,0,.17,0,.25,0,.02,0,.07,0,.15-.01,.1-.02,.2-.05,.3-.09Z"/><path class="cls-4" d="M76.19,63.35c-.05,0-.07,0-.11,0h-.03s.09,0,.14,0Z"/><path class="cls-4" d="M74.69,62.61s.03,.08,.04,.11c-.01-.05-.02-.06-.03-.1h0v-.02Z"/><path class="cls-4" d="M74.69,62.61s-.03-.09-.04-.13c-.01-.02,0,.05,.04,.13Z"/><path class="cls-4" d="M74.58,61.9s-.01,.08-.02,.12c0-.04,.02-.06,.02-.09,0,0,0,0,0-.01h0Z"/><path class="cls-4" d="M74.61,61.8c.03-.14-.02-.01-.03,.1v-.03s.02-.05,.03-.07Z"/><path class="cls-4" d="M74.87,61.24s-.02,.04-.04,.05c.04-.04,.08-.08,.11-.12,.02-.04-.03-.02-.08,.06Z"/><path class="cls-4" d="M74.78,61.35s.03-.03,.05-.05h0s-.03,.03-.05,.05Z"/><path class="cls-4" d="M75.46,60.83s-.1,.02-.16,.06c.07-.03,.16-.06,.16-.06Z"/><path class="cls-6" d="M74.69,62.61h0v.02c-.02-.09-.04-.14-.05-.15,.01,.04,.03,.09,.04,.13Z"/><path class="cls-6" d="M75.38,63.28h.01c-.06-.03-.11-.06-.14-.07,.04,.02,.08,.05,.12,.07Z"/><path class="cls-6" d="M76.05,63.36h.03c-.08,0-.14,0-.15,0,.02,0,.04,0,.07,0,.02,0,.04,0,.06,0Z"/><path class="cls-6" d="M77.15,61.9v-.02c0,.07,0,.12,0,.14,0-.04,0-.08,0-.12Z"/><path class="cls-6" d="M74.83,62.84h0s.06,.07,.1,.11c-.02-.02-.05-.06-.1-.11Z"/><path class="cls-6" d="M74.94,61.18s-.07,.08-.11,.12h0c.07-.05,.11-.1,.12-.12Z"/><path class="cls-6" d="M74.59,61.87v.03h0s0,.02,0,.03c.01-.05,.02-.1,.03-.13,0,.02-.01,.04-.02,.07Z"/></g></g></g></svg>