<?xml version="1.0" encoding="UTF-8"?><svg id="_イヤー_2" xmlns="http://www.w3.org/2000/svg" xmlns:xlink="http://www.w3.org/1999/xlink" viewBox="0 0 100 120"><defs><style>.cls-1{fill:none;}.cls-2{clip-path:url(#clippath);}.cls-3{fill:#fff;}.cls-4{fill:#ffe159;}.cls-5{fill:#40c6de;}.cls-6{fill:#2e2e2e;}</style><clipPath id="clippath"><rect class="cls-1" width="100" height="120"/></clipPath></defs><g id="_イヤー_1-2"><g><rect class="cls-5" width="100" height="120"/><g class="cls-2"><path class="cls-3" d="M72.28,59.79c1.29-.36,2.94-.58,4.09-1.27,1.59-.94,2.32-3.72,2.38-5.43,.06-1.59-.66-4.26-2.53-4.56-.42-.07-.83-.01-1.23,.08-.2,.49-.39,.99-.61,1.47-.53,1.16-2.57,.88-2.78-.36-.26-1.49-.52-2.99-.78-4.48-.37-2.12-.74-4.24-1.11-6.36-.11-.65-.27-1.3-.34-1.96,0-.02-.01-.06-.02-.11-.1-.13-.27-.43-.32-.49-.71-1.04-1.42-2.1-2.08-3.17-.63-1.02-1.1-2.15-1.83-3.1-.88-1.13-1.97-2.1-2.87-3.22-.44-.54-.82-1.1-1.18-1.68-2.93,3.83-8,6.33-12.28,7.95-1.27,.48-2.37-1.17-1.72-2.24,.3-.49,.59-.98,.89-1.47-2.02,1.13-4.13,2.11-6.24,3.05-3.19,1.42-6.41,2.79-9.63,4.15-.35,4.09-.69,8.19-1.04,12.28-.15,1.75-2.38,2.02-2.99,.4-.11-.3-.22-.6-.34-.91-.11-.04-.23-.09-.34-.16-1.35-.85-2.76-.24-3.37,1.15-.66,1.48-.58,3.34-.24,4.88,.37,1.66,1.02,2.98,2.56,3.82,1.01,.55,2.17,.91,3.31,1.07,.46,.07,.99,.6,1.06,1.06,.75,4.76,1.9,9.57,4.7,13.58,5.23,7.51,15.93,10.66,24.16,6.33,7.29-3.84,10.44-11.55,11.65-19.27,.08-.51,.6-.93,1.06-1.06Zm-19.76-3.34c1.96,0,1.96,3.05,0,3.05s-1.96-3.05,0-3.05Zm-9.54-9.28c-1.96,0-1.96-3.05,0-3.05s1.96,3.05,0,3.05Zm2.75-6.12c-.26-.07-.53-.13-.8-.18-.09-.02-.36-.02-.43-.07-.04,0-.07,0-.11-.01-.53-.05-1.07-.07-1.61-.06-.28,0-.55,.02-.82,.05-.03,0-.1,.01-.17,.02-.07,.01-.2,.03-.24,.04-.43,.08-.85,.19-1.25,.36-.79,.33-1.65-.36-1.87-1.06-.12-.37-.04-.85,.15-1.17,.22-.37,.53-.54,.91-.7,1.02-.43,2.2-.54,3.3-.57,1.25-.03,2.54,.1,3.76,.43,.82,.22,1.25,1.07,1.06,1.87-.18,.8-1.11,1.27-1.87,1.06Zm11.58,27.87c-3.02,2.46-7.66,2.59-10.66,0-.64-.56-.52-1.58,0-2.15,.58-.64,1.55-.52,2.15,0,.06,.05,.08,.07,.09,.08,.04,.03,.08,.06,.13,.09,.15,.1,.3,.19,.46,.27,.04,.02,.34,.16,.34,.17,.1,.04,.19,.07,.29,.1,.35,.12,.71,.18,1.08,.26-.32-.07,.11,.01,.15,.02,.19,.02,.37,.03,.56,.03,.2,0,.39,0,.59-.01,.04,0,.17-.02,.24-.03,.37-.06,.73-.15,1.08-.26,.09-.03,.18-.06,.27-.1l.08-.03s.28-.14,.33-.16c.16-.08,.32-.18,.47-.27,.07-.05,.14-.09,.21-.14h0c.66-.54,1.5-.61,2.15,0,.56,.52,.62,1.65,0,2.15Zm3.32-21.75c-1.96,0-1.96-3.05,0-3.05s1.96,3.05,0,3.05Zm5.21-7.05c-.08,.36-.38,.73-.7,.91-.3,.18-.84,.29-1.17,.15-.42-.17-.85-.29-1.3-.36-.05,0-.1-.02-.15-.02-.09,0-.18-.02-.27-.03-.26-.02-.52-.04-.78-.05-.55-.01-1.11,0-1.66,.06-.04,0-.09,0-.13,.01-.13,.02-.27,.04-.4,.07-.25,.05-.5,.11-.75,.17-.82,.22-1.62-.28-1.87-1.06-.25-.78,.3-1.66,1.06-1.87,1.21-.33,2.5-.46,3.76-.43,1.1,.03,2.28,.14,3.3,.57,.39,.16,.68,.34,.91,.7,.22,.35,.24,.78,.15,1.17Z"/><path class="cls-4" d="M44.51,40.79c.06,.03,.3,.03,.09,0h-.09Z"/><path class="cls-4" d="M51.7,23.11c.03-.06,.05-.12,.09-.17,.09-.11,.09-.22,.06-.25-.03,.04-.07,.08-.1,.12-.02,.07-.04,.16-.05,.3Z"/><path class="cls-4" d="M54.21,24.63c-.01,.06-.05,.11-.1,.17,.07-.02,.13-.04,.18-.05,.05-.08,.1-.16,.14-.25-.11,.02-.21,.06-.22,.13Z"/><path class="cls-6" d="M28.61,41.66l.51-6.08c.06-.74,.44-1.18,1.12-1.47,3.43-1.44,7.1-3,10.58-4.57,2.66-1.2,5.32-2.46,7.77-4.06,.98-.64,1.91-1.33,2.73-2.17,.14-.15,.29-.32,.43-.5,.04-.11,.08-.15,.1-.12,.27-.32,.56-.61,.96-.7,.99-.23,1.89,.46,1.93,1.47,.01,.34-.13,.7-.31,1.04,.24-.04,.51,.04-.14,.25-.13,.23-.27,.45-.39,.65-.53,.91-1.07,1.81-1.61,2.72,.22-.12,.44-.23,.66-.35,2.5-1.43,5.62-3.36,6.77-6.15,.58-1.4,2.39-1.48,2.94,0,1.24,3.35,4.38,5.27,5.99,8.37,.99,1.9,2.45,3.54,3.43,5.42,.52,.99,.52,2.41,.71,3.49,.27,1.55,.54,3.1,.81,4.65,1.04-3.28,1.85-6.66,2.19-10.09,.35-3.48,.92-13.26-4.88-12.85-.7,.05-1.25-.52-1.47-1.12-.81-2.25-2.05-4.66-3.91-6.21-4.55-3.28-10.43-4.41-15.95-4.21-5.04,.18-9.76,1.87-13.83,4.85-1.93,1.42-3.66,3.12-5.18,4.96-1.24,1.5-2.59,3.21-3.15,5.11-1.22,4.17-.69,9.06,.1,13.26,.28,1.49,.66,2.96,1.09,4.41Z"/><path class="cls-3" d="M35.72,81.41c-.8,3.38-.91,7.71-3.14,10.59,6.45,3.13,13.55,4.58,20.73,4.42,5.93-.13,12.69-.98,17.57-4.67-.54-.59-1.03-1.25-1.45-2-1.86-3.39-2.3-7.44-2.79-11.29-2.27,2.37-5,4.27-8.13,5.44-4.69,1.75-10.04,1.63-14.71-.1-3.86-1.43-7.28-3.84-9.89-6.99l-.19,2.75c.99-.27,2.3,.53,1.98,1.85Z"/><path class="cls-3" d="M97.75,104.77c-2.1-1.32-4.34-2.43-6.6-3.46-4.33-1.96-8.8-3.55-13.22-5.27-1.65-.64-3.25-1.35-4.67-2.29-5.47,4.32-12.77,5.52-19.57,5.71-8.25,.23-16.41-1.54-23.73-5.36-1.39,.66-2.97,1-4.42,1.4-2.54,.71-5.08,1.42-7.6,2.19-4.94,1.51-9.85,3.24-14.42,5.69-1.61,.86-2.89,1.78-4.1,3.16-1.33,1.52-2.44,3.24-3.48,4.97-1.67,2.76-3.1,5.64-4.61,8.49H108.55c-2.06-3.65-3.89-7.42-6.38-10.82-1.24-1.69-2.64-3.28-4.42-4.41Z"/><path class="cls-6" d="M54.43,24.51c-.04,.08-.09,.16-.14,.25,.65-.21,.39-.29,.14-.25Z"/><path class="cls-6" d="M51.75,22.82s.07-.08,.1-.12c-.02-.02-.07,.01-.1,.12Z"/><path class="cls-6" d="M42.99,44.12c-1.96,0-1.96,3.05,0,3.05s1.96-3.05,0-3.05Z"/><path class="cls-6" d="M52.52,59.49c1.96,0,1.96-3.05,0-3.05s-1.96,3.05,0,3.05Z"/><path class="cls-6" d="M55.16,66.76h0c-.07,.05-.14,.1-.21,.15-.15,.1-.31,.19-.47,.27-.04,.02-.35,.17-.33,.16l-.08,.03c-.09,.03-.18,.07-.27,.1-.35,.12-.71,.2-1.08,.26-.07,0-.2,.02-.24,.03-.2,.01-.39,.02-.59,.01-.19,0-.37-.01-.56-.03-.04,0-.47-.08-.15-.02-.36-.08-.72-.14-1.08-.26-.1-.03-.19-.07-.29-.1,0,0-.3-.14-.34-.17-.16-.08-.31-.18-.46-.27-.04-.03-.08-.06-.13-.09,0,0-.03-.03-.09-.08-.6-.52-1.57-.64-2.15,0-.52,.57-.64,1.6,0,2.15,3,2.59,7.64,2.46,10.66,0,.62-.51,.56-1.64,0-2.15-.66-.6-1.49-.54-2.15,0Z"/><path class="cls-6" d="M60.64,44.12c-1.96,0-1.96,3.05,0,3.05s1.96-3.05,0-3.05Z"/><path class="cls-6" d="M64.79,38.24c-1.02-.43-2.2-.54-3.3-.57-1.25-.03-2.55,.1-3.76,.43-.77,.21-1.32,1.09-1.06,1.87,.25,.79,1.05,1.29,1.87,1.06,.25-.07,.5-.13,.75-.17,.13-.03,.27-.05,.4-.07,.04,0,.09-.01,.13-.01,.55-.06,1.11-.08,1.66-.06,.26,0,.52,.02,.78,.05,.09,0,.18,.02,.27,.03,.05,0,.1,.02,.15,.02,.44,.08,.88,.19,1.3,.36,.34,.14,.87,.02,1.17-.15,.32-.18,.62-.55,.7-.91,.09-.39,.07-.83-.15-1.17-.23-.36-.52-.54-.91-.7Z"/><path class="cls-6" d="M47.61,39.98c.18-.8-.24-1.65-1.06-1.87-1.21-.33-2.5-.46-3.76-.43-1.1,.03-2.28,.15-3.3,.57-.38,.16-.69,.33-.91,.7-.19,.33-.27,.81-.15,1.17,.23,.7,1.09,1.39,1.87,1.06,.4-.17,.83-.28,1.25-.36,.04,0,.17-.03,.24-.04,.07,0,.14-.02,.17-.02,.27-.03,.55-.04,.82-.05,.54-.01,1.08,0,1.61,.06,.04,0,.07,0,.11,.01,.07,.05,.34,.05,.43,.07,.27,.05,.54,.11,.8,.18,.77,.21,1.69-.26,1.87-1.06Zm-3.1,.81h.09c.22,.03-.02,.03-.09,0Z"/><path class="cls-6" d="M105.99,109.35c-1.27-1.92-2.65-3.84-4.34-5.41-1.64-1.54-3.66-2.63-5.65-3.66-4.51-2.33-9.27-4.14-14.01-5.94-3.12-1.18-6.95-2.16-9.12-4.89-1.21-1.54-1.79-3.46-2.2-5.34-.62-2.79-.93-5.64-1.34-8.47-.02-.14-.06-.26-.1-.37,.18-.27,.37-.53,.55-.8,2.32-3.69,3.52-7.75,4.25-11.99,1.76-.45,3.68-.9,4.95-2.16,2.02-2,3.11-5.59,2.78-8.37-.31-2.65-1.78-5.61-4.56-6.32-.33-.08-.66-.13-1-.15,.85-2.5,1.53-5.06,2.01-7.63,.99-5.22,1.68-11.44-.84-16.38-1.11-2.17-3.03-3.69-5.4-3.9-.99-2.45-2.39-4.97-4.43-6.59-.05-.04-.1-.07-.15-.1-.05-.05-.1-.1-.15-.14-4.39-3.23-10.06-4.55-15.44-4.73-5.52-.18-10.94,1.1-15.66,3.99-4.35,2.67-8.41,6.63-10.83,11.16-2.14,4-1.73,9.4-1.19,13.74,.43,3.41,1.29,6.68,2.36,9.91-1.56-.1-3.14,.48-4.22,1.73-1.62,1.87-1.94,4.6-1.66,6.98,.28,2.38,1.05,4.83,2.99,6.37,1.23,.98,2.78,1.65,4.35,2.01,.75,4.42,1.93,8.85,4.35,12.67,2.71,4.27,6.81,7.48,11.54,9.23,4.67,1.73,10.03,1.85,14.71,.1,3.13-1.17,5.86-3.06,8.13-5.44,.48,3.85,.92,7.9,2.79,11.29,.41,.75,.91,1.41,1.45,2-4.88,3.69-11.64,4.54-17.57,4.67-7.18,.16-14.28-1.29-20.73-4.42,2.22-2.89,2.34-7.22,3.14-10.59,.45-1.91-2.49-2.72-2.94-.81-.41,1.72-.64,3.48-1.02,5.2-.36,1.61-.78,3.52-1.95,4.77-.67,.72-1.67,1.02-2.58,1.29-1.24,.37-2.5,.7-3.75,1.05-2.48,.7-4.96,1.4-7.41,2.17-4.82,1.51-9.62,3.27-14.08,5.66-3.5,1.88-5.81,4.7-7.93,8.01-2.23,3.49-4.01,7.23-5.98,10.86-.07,.13-.11,.25-.15,.37h3.39c1.51-2.85,2.95-5.73,4.61-8.49,1.04-1.73,2.15-3.45,3.48-4.97,1.2-1.38,2.49-2.29,4.1-3.16,4.57-2.45,9.48-4.17,14.42-5.69,2.52-.77,5.06-1.48,7.6-2.19,1.44-.4,3.02-.74,4.42-1.4,7.32,3.82,15.48,5.6,23.73,5.36,6.8-.19,14.1-1.39,19.57-5.71,1.43,.94,3.03,1.65,4.67,2.29,4.42,1.72,8.9,3.31,13.22,5.27,2.26,1.03,4.5,2.13,6.6,3.46,1.79,1.13,3.19,2.71,4.42,4.41,2.49,3.41,4.32,7.17,6.38,10.82h3.52c-2.09-3.52-3.83-7.22-6.09-10.65ZM27.43,23.99c.55-1.9,1.91-3.61,3.15-5.11,1.52-1.84,3.25-3.54,5.18-4.96,4.06-2.98,8.78-4.67,13.83-4.85,5.52-.2,11.41,.93,15.95,4.21,1.86,1.56,3.1,3.96,3.91,6.21,.22,.6,.77,1.17,1.47,1.12,5.79-.41,5.22,9.36,4.88,12.85-.34,3.43-1.15,6.81-2.19,10.09-.27-1.55-.54-3.1-.81-4.65-.19-1.08-.19-2.5-.71-3.49-.98-1.88-2.44-3.52-3.43-5.42-1.61-3.1-4.75-5.02-5.99-8.37-.55-1.48-2.36-1.4-2.94,0-1.15,2.79-4.27,4.72-6.77,6.15-.22,.12-.44,.23-.66,.35,.54-.9,1.08-1.8,1.61-2.72,.11-.19,.25-.42,.39-.65-.05,.02-.11,.03-.18,.05,.05-.06,.08-.12,.1-.17,.02-.07,.12-.11,.22-.13,.18-.34,.32-.7,.31-1.04-.04-1.01-.94-1.7-1.93-1.47-.4,.09-.69,.39-.96,.7,.03,.03,.03,.14-.06,.25-.04,.05-.06,.11-.09,.17,0-.14,.03-.23,.05-.3-.14,.17-.28,.35-.43,.5-.82,.84-1.75,1.53-2.73,2.17-2.45,1.6-5.11,2.86-7.77,4.06-3.48,1.57-7.16,3.13-10.58,4.57-.68,.28-1.06,.72-1.12,1.47l-.51,6.08c-.44-1.45-.81-2.92-1.09-4.41-.79-4.2-1.31-9.09-.1-13.26Zm32.14,56.14c-8.22,4.33-18.92,1.18-24.16-6.33-2.8-4.01-3.95-8.82-4.7-13.58-.07-.46-.6-1-1.06-1.06-1.14-.16-2.3-.51-3.31-1.07-1.54-.85-2.19-2.16-2.56-3.82-.34-1.54-.42-3.4,.24-4.88,.61-1.38,2.03-2,3.37-1.15,.11,.07,.23,.12,.34,.16,.11,.3,.22,.6,.34,.91,.61,1.62,2.84,1.35,2.99-.4,.35-4.09,.69-8.19,1.04-12.28,3.22-1.36,6.44-2.73,9.63-4.15,2.11-.94,4.22-1.92,6.24-3.05-.3,.49-.59,.98-.89,1.47-.65,1.06,.45,2.72,1.72,2.24,4.28-1.63,9.36-4.12,12.28-7.95,.36,.58,.74,1.14,1.18,1.68,.9,1.12,1.99,2.09,2.87,3.22,.74,.95,1.21,2.08,1.83,3.1,.66,1.08,1.37,2.13,2.08,3.17,.05,.07,.22,.36,.32,.49,0,.04,.02,.08,.02,.11,.07,.65,.23,1.31,.34,1.96,.37,2.12,.74,4.24,1.11,6.36,.26,1.49,.52,2.99,.78,4.48,.22,1.25,2.25,1.52,2.78,.36,.22-.48,.41-.98,.61-1.47,.4-.09,.82-.15,1.23-.08,1.87,.3,2.58,2.97,2.53,4.56-.06,1.71-.79,4.48-2.38,5.43-1.16,.69-2.8,.91-4.09,1.27-.47,.13-.98,.56-1.06,1.06-1.21,7.72-4.37,15.43-11.65,19.27Z"/></g></g></g></svg>