<?xml version="1.0" encoding="UTF-8"?><svg id="_イヤー_2" xmlns="http://www.w3.org/2000/svg" xmlns:xlink="http://www.w3.org/1999/xlink" viewBox="0 0 100 120"><defs><style>.cls-1,.cls-2{fill:none;}.cls-3{clip-path:url(#clippath);}.cls-4{fill:url(#_規パターンスウォッチ_1);}.cls-5{fill:#fff;}.cls-6{fill:#ffe159;}.cls-7{fill:#9b7ffa;}.cls-8{fill:#2e2e2e;}.cls-2{stroke:#ffe159;stroke-miterlimit:10;stroke-width:5px;}</style><clipPath id="clippath"><rect class="cls-1" width="100" height="120"/></clipPath><pattern id="_規パターンスウォッチ_1" x="0" y="0" width="25" height="25" patternTransform="translate(-5721.18 -10509.22) rotate(-90) scale(.21)" patternUnits="userSpaceOnUse" viewBox="0 0 25 25"><g><rect class="cls-1" width="25" height="25"/><rect class="cls-5" x="24.29" y="24.29" width="26.43" height="26.43"/><rect class="cls-5" x="-.71" y="24.29" width="26.43" height="26.43"/><rect class="cls-5" x="-25.71" y="24.29" width="26.43" height="26.43"/><g><rect class="cls-5" x="24.29" y="-.71" width="26.43" height="26.43"/><line class="cls-2" x1="23.61" y1="12.5" x2="51.39" y2="12.5"/></g><g><rect class="cls-5" x="-.71" y="-.71" width="26.43" height="26.43"/><line class="cls-2" x1="-1.39" y1="12.5" x2="26.39" y2="12.5"/></g><g><rect class="cls-5" x="-25.71" y="-.71" width="26.43" height="26.43"/><line class="cls-2" x1="-26.39" y1="12.5" x2="1.39" y2="12.5"/></g><rect class="cls-5" x="24.29" y="-25.71" width="26.43" height="26.43"/><rect class="cls-5" x="-.71" y="-25.71" width="26.43" height="26.43"/><rect class="cls-5" x="-25.71" y="-25.71" width="26.43" height="26.43"/></g></pattern></defs><g id="_イヤー_1-2"><g><rect class="cls-7" width="100" height="120"/><g class="cls-3"><path class="cls-6" d="M62.67,42.72h0Z"/><path class="cls-6" d="M41.56,42.71c-.17,.02-.12,.02-.04,.01,.03,0,.05,0,.08-.02h-.03Z"/><path class="cls-6" d="M44.15,42.93s.01,0,.02,.01h.01s-.02,0-.03-.01Z"/><path class="cls-6" d="M41.59,42.7h0s.02,0,.03,0c-.01,0-.03,0-.04,0Z"/><path class="cls-6" d="M44.2,42.95h-.01s.08,.05,.13,.07c0-.01-.04-.04-.12-.07Z"/><path class="cls-6" d="M40.18,43.06s.03-.01,0,0h0Z"/><path class="cls-6" d="M40.11,43.09s-.06,.03-.09,.04c.03,0,.06-.02,.09-.04Z"/><path class="cls-6" d="M62.66,42.72s-.09-.01-.13-.03h.03s.07,.02,.1,.03Z"/><path class="cls-6" d="M64.57,43.39l-.03-.02c.08,.06,.18,.11,.03,.02Z"/><path class="cls-6" d="M59.97,42.95c-.17,.06-.14,.07-.07,.04,.03-.02,.06-.03,.08-.05h-.02Z"/><path class="cls-5" d="M78.52,50.48c-.6-1.4-2.06-1.95-3.38-1.09-.57,.37-1.12,.29-1.54-.02-.03,0-.07,.01-.1,.01-.89,0-1.4-.69-1.51-1.51-.57-4.34-.49-8.72-.67-13.09-.12-3.18-1.46-6.84-4.84-7.72-1.16-.3-1.29-1.51-.8-2.29-.55-.23-1.1-.42-1.65-.59-.07,.01-.14,.03-.21,.03-.36,.02-.68-.12-.93-.33-1.83-.42-3.69-.56-5.55-.54-.56,.59-1.56,.78-2.2,.09-1.57,.11-3.15,.29-4.71,.47-.26,.99-1.58,1.72-2.53,.78-.15-.15-.29-.3-.43-.44-1.89,.19-3.76,.3-5.59,.21,.16,.71-.27,1.7-1.06,1.8-3.04,.41-4.58,2.31-5.4,5.16-.56,1.95-.63,3.97-.86,5.99-.45,3.92-1.04,10.69-5.84,11.76-.14,.03-.27,.04-.4,.04-.38,.17-.84,.19-1.31-.07-1.08-.6-1.39,.48-1.8,1.35-.61,1.29-.61,2.68-.32,4.07,.33,1.61,1.06,3.3,2.43,4.3,.95,.7,2.29,.94,3.43,1.15,.69,.13,1.03,.83,1.11,1.45,.48,4.05,1.35,7.82,3.38,11.42,2.23,3.96,5.51,7.32,9.67,9.22,4.61,2.11,10,2.09,14.56-.13,5.04-2.45,8.52-7.22,10.36-12.43,.26-.73,.51-1.49,.68-2.25v-.04c.02-.06,.02-.13,.03-.19,.08-.75,.15-1.49,.21-2.24,.1-1.18,.2-2.35,.29-3.53,.05-.62,.42-1.34,1.11-1.45,2.7-.45,5.41-1.48,6.29-4.27,.5-1.58,.75-3.52,.08-5.09Zm-25.6,8.95c1.94,0,1.94,3.01,0,3.01s-1.94-3.01,0-3.01Zm-9.61-10.12c-1.94,0-1.94-3.01,0-3.01s1.94,3.01,0,3.01Zm1.41-6.06h0c-.07-.05-.13-.09-.2-.13-.06-.04-.13-.07-.2-.1,0,.02-.04,0-.15-.08-.07-.03-.15-.05-.22-.07-.14-.04-.28-.08-.43-.11-.08-.02-.16-.03-.24-.05-.02,0-.13-.02-.17-.02-.09,0-.19-.01-.28-.02-.33-.02-.66-.01-.99,.01-.08,0-.16,.01-.24,.02-.03,0-.06,.02-.09,.02-.12,.03-.26,.04-.38,.06-.3,.06-.6,.15-.89,.25-.04,.01-.08,.03-.12,.04h-.02c-.13,.07-.25,.14-.37,.21-.04,.03-.09,.06-.13,.08-.07,.07-.14,.13-.21,.2-.57,.62-1.55,.53-2.13,0-.62-.57-.53-1.55,0-2.13,1.12-1.23,2.97-1.66,4.56-1.77,1.76-.13,3.59,.26,4.96,1.42,.64,.55,.52,1.57,0,2.13-.56,.61-1.47,.51-2.07,.04Zm13.75,26.98c-3.11,3.39-8.8,3.1-11.93-.11-.57-.59-.58-1.55,0-2.13,.57-.57,1.56-.58,2.13,0,.16,.16,.32,.31,.49,.46,.02,.02,.04,.04,.06,.05,.08,.05,.15,.11,.23,.16,.17,.12,.35,.22,.53,.32,.09,.05,.18,.1,.28,.14,.02,0,.1,.05,.16,.07,.07,.02,.18,.07,.18,.07,.08,.03,.16,.06,.24,.08,.2,.07,.4,.12,.61,.17,.17,.04,.34,.07,.51,.1,.06,0,.19,.02,.22,.02,.08,0,.17,.01,.25,.01,.21,0,.42,0,.63,0,.11,0,.21-.01,.32-.02,.02,0,.04,0,.06,0,.41-.08,.81-.19,1.21-.31h.04v-.02c.1-.05,.2-.09,.29-.14,.19-.1,.38-.21,.55-.33,.02-.01,.1-.07,.16-.11,.05-.05,.16-.13,.16-.13,.17-.15,.32-.31,.48-.47,.55-.6,1.57-.56,2.13,0,.59,.59,.55,1.53,0,2.13Zm3.33-20.92c-1.94,0-1.94-3.01,0-3.01s1.94,3.01,0,3.01Zm5.08-5.75c-.53,.58-1.6,.58-2.13,0-.05-.06-.17-.14-.24-.22-.03-.02-.07-.04-.1-.06-.13-.08-.27-.15-.4-.21-.03-.01-.07-.03-.1-.04-.3-.11-.62-.2-.93-.26-.1-.02-.2-.03-.31-.05,.09,.03,.08,.05-.12-.02-.07,0-.15-.01-.22-.02-.34-.03-.69-.03-1.03,0-.08,0-.16,.01-.23,.02h-.02c-.26,.08-.13,.02,0,0,.02,0,.02,0,.05-.01-.14,.04-.3,.05-.45,.08-.16,.03-.32,.08-.47,.13-.06,.02-.12,.04-.18,.06-.03,.02-.06,.04-.09,.05-.1,.05-.2,.1-.29,.15-.06,.03-.11,.07-.17,.11-.64,.51-1.45,.53-2.08-.04-.57-.52-.6-1.62,0-2.13,1.36-1.16,3.2-1.54,4.96-1.42,1.59,.12,3.44,.55,4.56,1.77,.57,.62,.57,1.51,0,2.13Z"/><path class="cls-6" d="M47.48,24.25c-.69-.7-1.37-1.42-2.06-2.11-.48-.47-.96-.94-1.46-1.39-.24-.22-.49-.43-.74-.64-.15-.13-.31-.25-.46-.38-.04-.03-.06-.05-.07-.06-.02-.01-.04-.03-.09-.06-.53-.38-1.07-.75-1.64-1.04-.12-.06-.23-.11-.35-.17-.03-.01-.05-.02-.06-.03-.02,0-.05-.02-.1-.03-.25-.08-.5-.13-.75-.21h-.03s-.09-.01-.13-.02c-.1,0-.23,.01-.33,0h-.06s-.05,.01-.08,.02c-.1,.03-.21,.06-.31,.09h-.02s-.01,.02-.03,.03c-.09,.07-.2,.13-.3,.19-.04,.04-.14,.13-.16,.15-.04,.04-.38,.43-.21,.21-.5,.65-1.28,1-2.06,.54-.64-.37-1.04-1.42-.54-2.06,4.64-6,11.23,1.92,14.62,5.28,.43,.42,.52,.91,.4,1.36,1.57-.18,3.14-.37,4.71-.47-.08-.08-.15-.18-.21-.29-.63-1.09-1.27-2.18-1.96-3.24-.77-1.17-1.32-1.93-2.32-2.93-.23-.23-.46-.45-.71-.66-.03-.03-.24-.2-.27-.22-.1-.07-.2-.15-.3-.21-.26-.18-.52-.34-.8-.49-.13-.07-.25-.13-.38-.19-.03,0-.2-.08-.24-.1-1.23-.45-2.21-.46-3.43-.15-1.88,.48-2.68-2.43-.8-2.91,3.26-.82,6.32,.22,8.73,2.48,2.13,1.99,3.62,4.59,5.07,7.09,.38,.66,.21,1.29-.19,1.72,1.86-.02,3.72,.12,5.55,.54-.34-.29-.56-.72-.58-1.17,0-.18-.03-.36-.04-.54,0-.03,0-.05,0-.07,0-.02,0-.04-.01-.07-.05-.27-.1-.54-.17-.8-.07-.27-.15-.53-.23-.79-.05-.15-.11-.3-.17-.45-.01-.04-.03-.07-.04-.11,0,0,0,0-.02-.04-.26-.51-.51-1.02-.82-1.51-.13-.21-.27-.41-.42-.6-.04-.05-.16-.21-.19-.24-.09-.1-.17-.2-.26-.3-.35-.39-.74-.75-1.14-1.08-.05-.04-.11-.09-.14-.1-.12-.08-.24-.16-.36-.24-.22-.14-.45-.27-.68-.38-.04-.02-.16-.07-.2-.09-.06-.02-.13-.05-.19-.07-.21-.07-.43-.13-.66-.18-.06-.01-.11-.02-.14-.03-.09,0-.19-.02-.28-.02-.24,0-.47,0-.71,.03-.84,.09-1.47-.77-1.51-1.51-.04-.88,.73-1.42,1.51-1.51,2.53-.28,5,1.25,6.64,3.06,1.9,2.1,3.12,4.8,3.26,7.65,.04,.77-.59,1.35-1.29,1.48,.55,.17,1.11,.36,1.65,.59,.31-.49,.87-.8,1.6-.62,4.22,1.09,6.4,5.11,6.93,9.18,.29,2.28,.19,4.63,.26,6.92,.06,1.99,.15,3.98,.35,5.96,.39-.13,.79-.21,1.2-.24,.35-2.03,.62-4.07,.8-6.12,.42-4.68,.62-9.6-.45-14.21-.75-3.26-2.42-6.76-6.18-6.19-.81,.12-1.61-.2-1.85-1.05-.82-2.93-2.53-5.38-5.17-6.94-4.86-2.88-11.12-2.74-16.55-2.18-2.78,.29-5.7,.67-8.4,1.44-2.98,.86-5.71,3.94-5.65,7.13,.02,1.24-1.19,1.68-2.09,1.34v1.2c1.67-.06,2.28,2.55,.49,2.94-3.76,.82-4.56,6.19-4.73,9.37-.11,1.96,.18,3.84,.49,5.77,.41,2.58,.86,5.16,1.22,7.75,1.7-.41,2.39-2.57,2.81-4.22,.59-2.3,.8-4.67,1.05-7.02,.55-5.17,2.24-10.85,8.21-11.65,.8-.11,1.62,.18,1.85,1.05,0,.02,0,.03,0,.05,1.83,.09,3.7-.02,5.59-.21Z"/><path class="cls-4" d="M87.71,102.14c-3.3-1.64-6.63-3.23-9.98-4.79-3.5,2.15-7,4.31-10.49,6.46-.65,.4-1.72,.19-2.06-.54-1.13-2.41-2.27-4.82-3.4-7.23-.82-1.75,1.78-3.27,2.6-1.52,.91,1.94,1.83,3.89,2.74,5.83,2.81-1.73,5.62-3.46,8.43-5.19-1.46-2.78-2.93-5.61-4.1-8.53-.55,.46-1.11,.91-1.7,1.33-.92,.66-1.88,1.25-2.86,1.82-.68,.39-1.36,.76-2.05,1.12-.72,.37-1.53,.95-2.32,1.16,0,0-.42,.17-.51,.13-.21,.22-.38,.56-.55,.81-.65,.96-1.31,1.92-1.97,2.88-1.14,1.66-2.31,3.31-3.46,4.96,.06-.01,.12-.02,.19-.04,.27-.06,.55-.13,.81-.22,.15-.05,.29-.1,.44-.15,.07-.03,.14-.06,.21-.08h-.04c-.11,.06-.3,.09,0,.01h.02c.74-.35,1.44-.79,2.1-1.27,.68-.49,1.65-.09,2.06,.54,.47,.73,.1,1.6-.54,2.06-1.25,.91-2.67,1.66-4.18,2-.59,.13-1.2,.21-1.81,.27-.22,.02-.43,.04-.65,.06-.06,0-.11,.01-.17,.02h-.02s-.07,.02-.1,.02c-.19,.03-.37,.03-.54,.02,.08,.18,.13,.38,.13,.58,.07,2.55-.07,5.1,0,7.65,.02,.84-.71,1.47-1.51,1.51-.83,.04-1.48-.72-1.51-1.51-.07-2.55,.07-5.1,0-7.65,0-.22,.04-.43,.13-.62-.06-.09-.11-.19-.15-.29-2-2.37-3.91-4.81-5.81-7.27-.74-.95-1.47-1.91-2.2-2.87-.2-.26-.61-.65-.84-1.01-.13-.08-.27-.17-.39-.25-.65-.41-1.3-.82-1.95-1.22-2.25-1.41-4.51-2.83-6.76-4.24-1.1,2.8-2.2,5.61-3.3,8.41,1.54,2.23,3.08,4.47,4.61,6.7,1.37-3.13,2.73-6.26,4.1-9.39,.77-1.77,3.37-.24,2.6,1.52-.58,1.33-1.16,2.66-1.74,3.98,.15,.11,.29,.24,.41,.39h0c.05,.06,.1,.12,.15,.17,.09,.09,.18,.16,.27,.25,.03,.02,.06,.04,.09,.06,.12,.08,.24,.15,.37,.22,.13,.07,.26,.14,.39,.2,.05,.02,.09,.04,.14,.06h.02c.29,.11,.57,.22,.86,.31,1.35,.42,2.73,.69,4.09,1.07,.81,.23,1.23,1.05,1.05,1.85-.18,.79-1.1,1.27-1.85,1.05-2.43-.69-5.33-1.01-7.27-2.72-.7,1.6-1.4,3.2-2.09,4.8-.49,1.13-2.03,.82-2.6,0-.94-1.36-1.88-2.73-2.82-4.09-1.12-1.63-2.24-3.25-3.36-4.88-.07-.1-.14-.2-.2-.3-6.85,3.07-14.22,4.73-21.11,7.7-6.44,2.78-12.41,8.61-13.73,15.75H107.94c-.64-3.26-2.72-5.97-5.06-8.25-4.35-4.24-9.78-6.94-15.17-9.62Z"/><path class="cls-6" d="M59.98,42.95h0s.02-.01,.02-.02c0,0-.02,.01-.03,.02Z"/><path class="cls-6" d="M49.24,68.51c.06,.05,.08,.06,0,0h0Z"/><path class="cls-6" d="M54.58,104.01s-.05,0-.08,0h.08Z"/><path class="cls-6" d="M53.48,69.62c.08-.01,.1-.02,0,0h0Z"/><path class="cls-5" d="M67.8,85.27c-.24-1.87-.38-3.75-.46-5.64-2.37,2.65-5.29,4.75-8.8,5.98-5.4,1.89-11.38,1.22-16.37-1.51-2.22-1.21-4.2-2.82-5.91-4.68-.04,1.91-.17,3.81-.45,5.68,.29,.18,.57,.36,.86,.54,1.76,1.1,3.52,2.21,5.28,3.31,.89,.56,1.95,1.05,2.62,1.88,2.67,3.28,5.15,6.71,7.83,9.98,1.55-2.19,3.09-4.39,4.6-6.6,.66-.97,1.32-1.93,1.98-2.9,.3-.44,.59-.99,1-1.33,.71-.57,1.8-.9,2.62-1.32,.69-.35,1.37-.71,2.04-1.08,1.1-.61,2.18-1.26,3.22-1.97h0c-.03-.12-.06-.23-.07-.34Z"/><path class="cls-8" d="M61.8,46.3c-1.94,0-1.94,3.01,0,3.01s1.94-3.01,0-3.01Z"/><path class="cls-8" d="M52.92,59.44c-1.94,0-1.94,3.01,0,3.01s1.94-3.01,0-3.01Z"/><path class="cls-8" d="M58.48,70.23c.55-.6,.59-1.54,0-2.13-.56-.56-1.58-.6-2.13,0-.15,.17-.31,.33-.48,.47,0,0-.11,.09-.16,.13-.06,.04-.14,.1-.16,.11-.18,.12-.36,.23-.55,.33-.09,.05-.19,.09-.29,.14h0l-.04,.02c-.4,.13-.79,.24-1.21,.31-.02,0-.04,0-.06,0-.11,0-.21,.02-.32,.02-.21,.01-.42,.01-.63,0-.08,0-.17,0-.25-.01-.03,0-.16-.02-.22-.02-.17-.03-.34-.06-.51-.1-.21-.05-.41-.1-.61-.17-.08-.03-.16-.05-.24-.08,0,0-.11-.04-.18-.07-.06-.03-.14-.06-.16-.07-.09-.05-.19-.09-.28-.14-.18-.1-.36-.21-.53-.32-.08-.05-.15-.11-.23-.16-.02-.01-.04-.03-.06-.05-.17-.15-.34-.3-.49-.46-.57-.58-1.56-.57-2.13,0-.58,.58-.57,1.55,0,2.13,3.12,3.21,8.82,3.5,11.93,.11Zm-5-.61c.1-.02,.08-.01,0,0h0Zm-4.24-1.11c.08,.06,.06,.05,0,0h0Z"/><path class="cls-8" d="M43.31,46.3c-1.94,0-1.94,3.01,0,3.01s1.94-3.01,0-3.01Z"/><path class="cls-8" d="M46.79,43.21c.52-.56,.64-1.59,0-2.13-1.36-1.16-3.2-1.54-4.96-1.42-1.59,.12-3.44,.55-4.56,1.77-.53,.58-.62,1.56,0,2.13,.58,.53,1.56,.62,2.13,0,.07-.07,.14-.13,.21-.2,.04-.03,.08-.06,.13-.08,.12-.07,.25-.14,.37-.2h.02s.08-.04,.12-.05c.29-.1,.59-.19,.89-.25,.11-.02,.25-.04,.38-.06-.08,0-.13,0,.04-.01h.03s.03,0,.04-.01c0,0-.02,0-.03,0,.08,0,.16-.02,.24-.02,.33-.02,.66-.03,.99-.01,.09,0,.19,.01,.28,.02,.04,0,.15,.02,.17,.02,.08,.01,.16,.03,.24,.05,.14,.03,.29,.07,.43,.11,.07,.02,.15,.05,.22,.07,0,0-.01,0-.02-.01,0,0,.02,.01,.03,.02h.01c.08,.03,.11,.06,.12,.08,.07,.03,.14,.06,.2,.1,.07,.04,.14,.09,.2,.13h0c.6,.47,1.51,.57,2.07-.04Zm-6.78-.09s.06-.02,.09-.04c-.03,.01-.07,.03-.09,.04Zm.16-.07s.03-.01,0,0h0Z"/><path class="cls-8" d="M44.17,42.95c.11,.08,.15,.1,.15,.08-.05-.02-.09-.05-.13-.08h-.01Z"/><path class="cls-8" d="M41.52,42.72s.06,0,.09-.02h0s-.05,.01-.08,.02Z"/><path class="cls-8" d="M62.56,42.7h0c.21,.07,.21,.05,.12,.02h-.01s-.06-.02-.1-.02Z"/><path class="cls-8" d="M64.01,43.07c.14,.07,.27,.13,.4,.21,.03,.02,.07,.04,.1,.06,.07,.08,.18,.16,.24,.22,.53,.58,1.6,.58,2.13,0,.57-.62,.57-1.51,0-2.13-1.12-1.23-2.97-1.66-4.56-1.77-1.76-.13-3.59,.26-4.96,1.42-.6,.51-.57,1.61,0,2.13,.62,.57,1.44,.54,2.08,.04,.06-.04,.11-.07,.17-.11,.08-.05,.19-.09,.29-.15-.07,.03-.1,.02,.07-.04h.02s.02-.02,.03-.02c0,0-.02,0-.02,.02,.06-.02,.12-.04,.18-.06,.15-.05,.31-.09,.47-.13,.14-.03,.31-.04,.45-.08-.02,0-.03,0-.05,.01h.02c.08,0,.16-.02,.23-.02,.34-.02,.69-.02,1.03,0,.07,0,.15,.01,.22,.02h-.02s.09,.01,.13,.02h.01c.1,.02,.21,.03,.31,.05,.32,.07,.63,.15,.93,.26,.03,.01,.07,.03,.1,.04Zm.53,.3l.03,.02c.15,.09,.06,.04-.03-.02Z"/><path class="cls-8" d="M61.04,42.69c-.13,.02-.26,.08,0,0h0Z"/><path class="cls-8" d="M59.9,43s.06-.03,.09-.05h0s-.05,.04-.08,.05Z"/><path class="cls-8" d="M55.43,12.01c-.78,.09-1.55,.63-1.51,1.51,.03,.74,.67,1.6,1.51,1.51,.24-.03,.47-.04,.71-.03,.09,0,.19,.01,.28,.02,.03,0,.08,.01,.14,.03,.22,.05,.44,.11,.66,.18,.06,.02,.13,.05,.19,.07,.04,.02,.16,.07,.2,.09,.24,.12,.46,.25,.68,.38,.12,.08,.24,.16,.36,.24,.02,.02,.09,.07,.14,.1,.41,.33,.79,.69,1.14,1.08,.09,.1,.18,.2,.26,.3,.02,.03,.15,.19,.19,.24,.14,.2,.29,.4,.42,.6,.31,.49,.56,.99,.82,1.51,.01,.03,.01,.03,.02,.04,.01,.04,.03,.07,.04,.11,.06,.15,.11,.3,.17,.45,.09,.26,.17,.52,.23,.79,.07,.26,.12,.53,.17,.8,0,.03,.01,.05,.01,.07,0,.02,0,.03,0,.07,.01,.18,.03,.36,.04,.54,.04,.79,.67,1.54,1.51,1.51,.78-.04,1.55-.66,1.51-1.51-.14-2.84-1.36-5.54-3.26-7.65-1.64-1.81-4.1-3.34-6.64-3.06Z"/><path class="cls-8" d="M43.74,12.06c-1.88,.47-1.08,3.38,.8,2.91,1.23-.31,2.2-.3,3.43,.15,.04,.01,.21,.09,.24,.1,.13,.06,.26,.12,.38,.19,.28,.15,.54,.31,.8,.49,.1,.07,.2,.14,.3,.21,.02,.02,.24,.19,.27,.22,.25,.21,.48,.43,.71,.66,.99,.99,1.55,1.76,2.32,2.93,.69,1.05,1.33,2.15,1.96,3.24,.97,1.68,3.58,.16,2.6-1.52-1.45-2.5-2.94-5.09-5.07-7.09-2.41-2.26-5.47-3.3-8.73-2.48Z"/><path class="cls-8" d="M35.42,17.27c-.5,.64-.1,1.69,.54,2.06,.78,.46,1.56,.11,2.06-.54-.17,.22,.17-.17,.21-.21,.02-.02,.13-.11,.16-.15,.1-.06,.21-.12,.3-.19,.01-.01,.02-.02,.03-.02h.02c.1-.03,.21-.06,.31-.1,.03,0,.05,0,.08-.02h.06c.1,0,.23,0,.33,0,.04,0,.09,0,.13,.01h.03c.25,.08,.5,.14,.75,.21,.05,.02,.08,.02,.1,.03,.01,0,.03,.02,.06,.03,.12,.06,.24,.11,.35,.17,.58,.3,1.12,.66,1.64,1.04,.05,.04,.07,.05,.09,.06,.01,.01,.03,.03,.07,.06,.16,.12,.31,.25,.46,.38,.25,.21,.5,.42,.74,.64,.5,.45,.98,.92,1.46,1.39,.84,.84,1.65,1.72,2.5,2.55,1.38,1.37,3.51-.76,2.13-2.13-3.39-3.36-9.99-11.29-14.62-5.28Z"/><path class="cls-8" d="M110.93,119.62c-.99-6.45-6.85-11.43-12-14.81-4.95-3.26-10.5-5.71-15.84-8.25-1.5-.72-3.01-1.43-4.52-2.13-1.83-3.47-3.75-7.02-5.01-10.74-.38-1.12-1.64-1.43-2.52-.66-.15,.13-.29,.25-.43,.37-.23-2.39-.32-4.8-.34-7.19,0-.15-.03-.29-.08-.43,.4-.67,.78-1.35,1.13-2.06,1.21-2.44,2.08-4.94,2.34-7.65,.11-1.17,.2-2.35,.3-3.52,1.39-.33,2.78-.85,3.98-1.58,2.18-1.32,3.31-3.53,3.76-5.99,.43-2.4,.32-5.14-1.28-7.11-.41-.51-.91-.92-1.45-1.23,.81-4.68,1.26-9.47,1.16-14.21-.1-4.57-.51-10.34-3.87-13.82-1.48-1.53-3.37-2.15-5.38-2.13-2.16-5.91-7.49-9.17-13.68-10.08-3.4-.5-6.85-.46-10.27-.12-3.21,.32-6.76,.65-9.83,1.69-4.08,1.38-7.61,5.49-7.53,9.93,.04,1.94,3.05,1.94,3.01,0-.06-3.19,2.67-6.27,5.65-7.13,2.69-.78,5.61-1.15,8.4-1.44,5.43-.57,11.69-.71,16.55,2.18,2.64,1.56,4.35,4.01,5.17,6.94,.24,.85,1.04,1.17,1.85,1.05,3.76-.57,5.42,2.93,6.18,6.19,1.07,4.61,.86,9.53,.45,14.21-.18,2.05-.45,4.09-.8,6.12-.41,.03-.81,.11-1.2,.24-.19-1.98-.28-3.97-.35-5.96-.07-2.3,.03-4.64-.26-6.92-.53-4.07-2.71-8.09-6.93-9.18-1.88-.49-2.68,2.42-.8,2.91,3.38,.88,4.72,4.54,4.84,7.72,.17,4.37,.09,8.75,.67,13.09,.11,.81,.62,1.5,1.51,1.51,.03,0,.07,0,.1-.01,.41,.3,.97,.39,1.54,.02,1.32-.86,2.78-.31,3.38,1.09,.67,1.57,.42,3.51-.08,5.09-.88,2.79-3.59,3.82-6.29,4.27-.68,.11-1.06,.84-1.11,1.45-.09,1.18-.19,2.35-.29,3.53-.07,.75-.13,1.49-.21,2.24,0,.06-.01,.13-.02,.19v.04c-.18,.76-.43,1.52-.69,2.25-1.83,5.21-5.32,9.98-10.36,12.43-4.57,2.22-9.95,2.24-14.56,.13-4.16-1.91-7.44-5.27-9.67-9.22-2.03-3.6-2.89-7.37-3.38-11.42-.07-.62-.41-1.32-1.11-1.45-1.14-.21-2.48-.45-3.43-1.15-1.37-1-2.1-2.69-2.43-4.3-.28-1.39-.28-2.78,.32-4.07,.41-.87,.73-1.96,1.8-1.35,.47,.26,.93,.25,1.31,.07,.13,0,.26,0,.4-.04,4.8-1.06,5.39-7.83,5.84-11.76,.23-2.02,.3-4.04,.86-5.99,.82-2.85,2.36-4.75,5.4-5.16,.81-.11,1.24-1.14,1.05-1.85-.23-.87-1.05-1.16-1.85-1.05-5.98,.81-7.66,6.48-8.21,11.65-.25,2.35-.46,4.72-1.05,7.02-.42,1.65-1.1,3.82-2.81,4.22-.35-2.59-.8-5.16-1.22-7.75-.31-1.93-.6-3.82-.49-5.77,.17-3.18,.98-8.55,4.73-9.37,1.89-.41,1.09-3.32-.8-2.91-4.86,1.06-6.4,6.8-6.85,11.07-.52,4.93,.92,9.88,1.62,14.75-2.25,1.14-3.42,4.75-3.21,7.3,.2,2.49,1.05,4.99,2.8,6.83,1.21,1.27,2.8,1.91,4.47,2.31,.5,3.66,1.28,7.08,2.98,10.47,.4,.81,.86,1.59,1.35,2.36-.06,.16-.09,.32-.09,.5,.03,1.16,.01,2.31-.02,3.47-.03,1.03-.07,2.06-.15,3.09-.02,.25-.05,.5-.07,.75h-.01c-.9-.57-1.87,.03-2.21,.89-1.15,2.94-2.31,5.89-3.46,8.83-.05,.02-.11,.03-.16,.06-7.65,3.78-16.16,5.38-23.89,8.96-3.43,1.59-6.35,3.9-8.79,6.8-2.57,3.07-4.78,6.71-5.41,10.72-.02,.13-.02,.26-.01,.38h3c1.32-7.13,7.28-12.97,13.73-15.75,6.89-2.97,14.26-4.64,21.11-7.7,.07,.1,.13,.2,.2,.3,1.12,1.63,2.24,3.25,3.36,4.88,.94,1.36,1.88,2.73,2.82,4.09,.57,.82,2.11,1.13,2.6,0,.7-1.6,1.4-3.2,2.09-4.8,1.94,1.71,4.84,2.04,7.27,2.72,.76,.21,1.67-.26,1.85-1.05,.18-.8-.24-1.62-1.05-1.85-1.36-.38-2.74-.66-4.09-1.07-.29-.09-.58-.19-.86-.3h-.02s-.09-.05-.14-.07c-.13-.06-.27-.13-.39-.2-.12-.07-.25-.14-.37-.22-.03-.02-.06-.04-.09-.06-.09-.09-.19-.16-.27-.25-.05-.05-.1-.12-.15-.17h0c-.12-.15-.25-.29-.41-.39,.58-1.33,1.16-2.66,1.74-3.98,.77-1.76-1.83-3.3-2.6-1.52-1.37,3.13-2.73,6.26-4.1,9.39-1.54-2.23-3.08-4.47-4.61-6.7,1.1-2.8,2.2-5.61,3.3-8.41,2.25,1.41,4.51,2.83,6.76,4.24,.65,.41,1.3,.82,1.95,1.22,.13,.08,.26,.17,.39,.25,.23,.36,.64,.75,.84,1.01,.73,.96,1.46,1.91,2.2,2.87,1.9,2.45,3.81,4.9,5.81,7.27,.03,.1,.08,.2,.15,.29-.09,.19-.14,.39-.13,.62,.07,2.55-.07,5.1,0,7.65,.02,.79,.68,1.54,1.51,1.51,.8-.04,1.53-.66,1.51-1.51-.07-2.55,.07-5.1,0-7.65,0-.2-.05-.4-.13-.58,.17,.02,.35,.02,.54-.02,.03,0,.07-.01,.1-.02h.02c.06,0,.11-.01,.17-.02,.21-.02,.43-.04,.65-.06,.61-.06,1.21-.13,1.81-.27,1.52-.34,2.93-1.09,4.18-2,.64-.46,1.01-1.33,.54-2.06-.41-.63-1.38-1.03-2.06-.54-.66,.48-1.36,.92-2.1,1.26h.02c-.07,.01-.14,.05-.21,.08-.14,.06-.29,.11-.44,.15-.27,.09-.54,.16-.81,.22-.06,.01-.12,.02-.19,.04,1.16-1.65,2.32-3.3,3.46-4.96,.66-.96,1.32-1.92,1.97-2.88,.17-.25,.34-.58,.55-.81,.09,.04,.51-.13,.51-.13,.79-.21,1.6-.78,2.32-1.16,.69-.36,1.38-.73,2.05-1.12,.98-.56,1.94-1.16,2.86-1.82,.59-.42,1.15-.87,1.7-1.33,1.17,2.92,2.64,5.75,4.1,8.53-2.81,1.73-5.62,3.46-8.43,5.19-.91-1.94-1.83-3.89-2.74-5.83-.83-1.75-3.42-.23-2.6,1.52,1.13,2.41,2.27,4.82,3.4,7.23,.34,.73,1.42,.94,2.06,.54,3.5-2.15,7-4.31,10.49-6.46,3.35,1.55,6.67,3.15,9.98,4.79,5.39,2.68,10.81,5.38,15.17,9.62,2.34,2.28,4.42,4.99,5.06,8.25h3.01c0-.12,0-.25-.01-.38Zm-56.43-15.6s.05,0,.08,0c-.03,0-.05,0-.08,0Zm13.36-18.41c-1.04,.71-2.12,1.36-3.22,1.97-.67,.37-1.36,.73-2.04,1.08-.82,.42-1.91,.74-2.62,1.32-.41,.33-.7,.89-1,1.33-.66,.97-1.32,1.94-1.98,2.9-1.52,2.21-3.06,4.41-4.6,6.6-2.68-3.27-5.16-6.7-7.83-9.98-.67-.83-1.73-1.32-2.62-1.88-1.76-1.1-3.52-2.21-5.28-3.31-.29-.18-.57-.36-.86-.54,.29-1.87,.42-3.78,.45-5.68,1.71,1.86,3.69,3.47,5.91,4.68,4.99,2.73,10.97,3.4,16.37,1.51,3.51-1.22,6.43-3.32,8.8-5.98,.08,1.89,.22,3.77,.46,5.64,.01,.11,.04,.22,.07,.33h0Z"/><path class="cls-8" d="M57.65,100.34c-.3,.08-.11,.05,0,0h0Z"/></g></g></g></svg>