<?xml version="1.0" encoding="UTF-8"?><svg id="_イヤー_2" xmlns="http://www.w3.org/2000/svg" xmlns:xlink="http://www.w3.org/1999/xlink" viewBox="0 0 100 120"><defs><style>.cls-1{fill:none;}.cls-2{clip-path:url(#clippath);}.cls-3{fill:#fff;}.cls-4{fill:#ffe159;}.cls-5{fill:#9b7ffa;}.cls-6{fill:#2e2e2e;}</style><clipPath id="clippath"><rect class="cls-1" width="100" height="120"/></clipPath></defs><g id="_イヤー_1-2"><g><rect class="cls-5" width="100" height="120"/><g class="cls-2"><path class="cls-3" d="M22.98,60.08c-.26-.23-.52-.48-.76-.73-.02,.57-.05,1.15-.08,1.72,.28-.33,.56-.66,.84-.99Z"/><path class="cls-4" d="M51.91,66.94s.03,0,0,0h0Z"/><path class="cls-3" d="M25.04,57.81c.57-.27,1.37-.18,1.77,.29,.27,.32,.54,.64,.81,.96,.06,.01,.12,.03,.18,.04,.07-3.34,.06-6.68,.03-10.01,0-.5-.02-.99-.03-1.48-.09-.03-.18-.07-.28-.12-.36-.2-.21-.14-.8-.3-.62-.18-1.28-.25-1.91-.07-1.33,.38-2.06,1.7-2.37,3.06-.02,.99-.04,1.98-.06,2.98,.33,1.82,1.28,3.53,2.66,4.66Z"/><path class="cls-3" d="M26.82,68.47c-.5,.59-1.66,.6-2.16,0-.92-1.08-1.83-2.17-2.75-3.25-.79,11.52-2.65,22.96-5.51,34.15,2.04-.85,4.09-1.66,6.09-2.49,1.12-3.32,1.94-6.76,2.58-10.17,1.16-6.24,1.92-12.6,2.36-18.95-.2,.24-.4,.47-.6,.71Z"/><path class="cls-3" d="M78.79,61.08c-.07-1.01-.14-2.03-.2-3.05-.18,.25-.38,.49-.59,.71-.21,.22-.43,.42-.67,.61,.49,.57,.97,1.15,1.46,1.72Z"/><path class="cls-3" d="M80.95,78.08c-.91-4.28-1.45-8.61-1.84-12.96-.94,1.12-1.89,2.23-2.83,3.35-.5,.59-1.66,.6-2.16,0-.56-.66-1.11-1.31-1.67-1.97-.93,2.82-2.31,5.5-4.1,7.88-.6,.79-1.24,1.53-1.91,2.24,.01,.05,.03,.1,.03,.16,.44,4.45,1.07,9.3,3.62,13.1,1.92,2.88,4.91,4.22,7.93,5.67,3.39,1.64,6.76,3.33,10,5.25-3.01-7.34-5.42-14.99-7.06-22.73Z"/><path class="cls-3" d="M30.28,69.99c-.02,.18-.03,.37-.04,.55-.65,7.21-1.47,14.5-3.2,21.54-.25,1.02-.53,2.1-.85,3.22,2.27-1,4.64-2.14,6.17-4.08,1.96-2.49,2.38-6.04,2.79-9.07,.07-.51,.52-.89,1.01-1.04-.02-1.17-.17-2.35-.23-3.52-2.33-2.15-4.26-4.74-5.64-7.59Z"/><path class="cls-3" d="M30.17,98.81c.96,.59,1.92,1.19,2.89,1.78,6.5,4.02,13.01,8.03,19.51,12.05,.65-.44,1.3-.87,1.96-1.31,6.4-4.27,12.8-8.55,19.2-12.82,1.01-.67,1.97,.06,2.19,.98,.2-.38,.31-.85,.48-1.26-1.1-.54-2.2-1.09-3.27-1.67-6.58-3.56-8.57-10.52-9.45-17.44-5.59,4.33-12.83,6.01-19.88,3.36-2.9-1.09-5.57-2.79-7.86-4.91,.06,1.17,.21,2.35,.23,3.52,.29-.09,.61-.11,.87-.03,.87,.25,1.18,1.06,1.07,1.88-.5,3.68-1.18,7.58-3.64,10.51-1.82,2.17-4.48,3.45-7.03,4.6l1.35,.68c.4-.21,.89-.24,1.4,.07Z"/><path class="cls-4" d="M94.47,109.23c-3.13-2.87-6.76-5.15-10.46-7.19-2.49-1.37-5.07-2.56-7.62-3.8-.17,.41-.28,.88-.48,1.26,.14,.58-.01,1.24-.65,1.66-.9,.6-1.8,1.2-2.7,1.8-6.4,4.27-12.8,8.55-19.2,12.82-.44,.29-1.1,.27-1.55,0-.96-.59-1.92-1.19-2.89-1.78-6.77-4.18-13.54-8.36-20.32-12.54-1.17-.72-.77-2.22,.14-2.72l-1.35-.68c-.23,.1-.46,.21-.69,.31-.58,.26-1.17,.5-1.76,.75-2.76,7.83-7.5,15.87-16.09,16.14-1.97,.06-1.97-3,0-3.06,5.99-.19,9.61-5.91,11.84-10.8,.09-.2,.17-.41,.26-.62-2.41,.99-4.82,1.99-7.16,3.12-3.78,1.82-7.71,4.11-10.36,7.43-2.12,2.65-3.33,5.96-4.73,9.09H101.55c-1.14-4.42-3.73-8.13-7.07-11.2Z"/><path class="cls-3" d="M41.88,19.85c-.72-1.84,2.25-2.63,2.95-.81,3.47,8.93,12.69,15.1,22.23,15.13-2.13-4.99-5.27-9.44-10.05-12.21-1.71-.99-.16-3.63,1.55-2.64,8.88,5.14,12.8,15.4,14.66,25.06,1.23-.5,2.58-.72,3.8-.33,.23,.07,.44,.18,.65,.29-.51-5.75-1.29-11.46-2.81-17.06-1.54-5.65-5.72-10.23-10.5-13.43-3.71-2.48-8.99-5.22-13.61-4.1-1.04,.25-1.75-.5-1.88-1.32h-2.38c.14,.7-.15,1.44-1.07,1.6-6.23,1.06-11.4,5.54-15.07,10.47-3.68,4.95-5.78,10.49-6.82,16.54-.44,2.56-.7,5.14-.86,7.72,.38-.23,.77-.42,1.22-.56,1.22-.37,2.58-.3,3.82,.07-.05-2.3-.03-4.59,.36-6.9,1.03-6.11,3.54-12.85,8.64-16.7,.95-.72,1.88-.03,2.13,.89,.94-.6,1.95-1.21,3.1-1.58-.02-.04-.04-.08-.06-.13Z"/><path class="cls-3" d="M75.84,46.89c-.97-.18-2.3,.67-3.06,1.19-1.14,.78-2.23-.28-2.23-1.37,0-.03-.02-.05-.02-.07-.56-3.21-1.33-6.57-2.45-9.79-.24,.23-.57,.38-1,.38-10.96-.02-21.13-7.1-25.15-17.25-1.15,.37-2.16,.98-3.1,1.58,.16,.6,.03,1.29-.58,1.75-2.83,2.14-4.55,5.67-5.7,8.94-1.24,3.52-1.96,7.23-1.87,10.97,.14,5.59,.25,11.15,.12,16.72,.12,.23,.2,.48,.21,.72,.11,4.65,2.07,9.16,5.06,12.67,5.36,6.28,14.26,9.56,22.04,5.79,6.26-3.04,10.73-9.37,12.15-16.17,.02-.08,.02-.15,.05-.23,.19-.96,.32-1.93,.39-2.91,.06-.9,.66-1.44,1.53-1.53,.01,0-.04,.01-.07,.02l.18-.04c.34-.08,.69-.15,1.02-.25,.86-.26,1.69-.68,2.34-1.31,1.2-1.17,1.69-3.14,1.83-4.75,.09-1.01,.05-2.03-.24-3.01-.21-.71-.65-1.9-1.47-2.05Zm-24.5,11.05c1.97,0,1.97,3.06,0,3.06s-1.97-3.06,0-3.06Zm-8.99-9.33c-1.97,0-1.97-3.06,0-3.06s1.97,3.06,0,3.06Zm1.47-6.49c-.08-.01-.17-.03-.25-.04-.36-.02-.12-.02-.02,0h.04c-.13,0-.27-.03-.4-.04-.27-.03-.53-.04-.8-.05-.24,0-.49,0-.73,0-.12,0-.24,.01-.37,.02-.03,0-.11,.01-.17,.02-.06,0-.12,.02-.15,.02-.11,.02-.22,.04-.33,.07-.2,.05-.4,.1-.6,.16-.4,.12-.79,.27-1.17,.43-.37,.16-.84,.02-1.18-.15-.35-.19-.58-.54-.7-.91-.12-.37-.04-.85,.15-1.18,.22-.38,.53-.54,.91-.7,.95-.4,1.9-.64,2.92-.77,1.22-.15,2.45-.02,3.66,.18,.85,.14,1.24,1.15,1.07,1.88-.08,.36-.39,.73-.7,.91-.38,.22-.76,.22-1.18,.15Zm13.51,25.29c-3.12,3.4-9.06,3.52-12.29,.21-.58-.59-.59-1.57,0-2.16s1.59-.59,2.16,0c.16,.16,.34,.3,.5,.46,0,0,0,0,0,0,.01,0,0,0,.03,.02,.09,.06,.17,.12,.26,.17,.18,.11,.36,.21,.54,.31,.09,.05,.19,.09,.28,.14-.29-.14-.03-.01,.04,.01,.41,.14,.81,.25,1.23,.34,.05,.01,.09,.02,.12,.02,.08,0,.16,.02,.24,.02,.22,.02,.43,.03,.65,.03,.24,0,.48-.02,.72-.04h.04c.11-.02,.22-.04,.33-.06,.41-.08,.8-.2,1.19-.36,.07-.04,.35-.17,.41-.2,.19-.11,.38-.22,.56-.35,.02-.01,.11-.08,.16-.12,.05-.05,.16-.14,.16-.14,.17-.15,.33-.31,.48-.48,.56-.61,1.6-.57,2.16,0,.6,.6,.56,1.56,0,2.17Zm2.74-18.8c-1.97,0-1.97-3.06,0-3.06s1.97,3.06,0,3.06Zm5.49-6.97c-.08,.36-.39,.73-.7,.91-.3,.18-.84,.3-1.18,.15-.39-.17-.79-.32-1.2-.44-.2-.06-.4-.11-.6-.16-.11-.02-.22-.05-.33-.06-.02,0-.05,0-.09-.01-.07,0-.19-.02-.23-.02-.12-.01-.24-.02-.37-.02-.25-.01-.49-.01-.74,0-.27,0-.54,.03-.8,.05-.07,0-.13,.01-.2,.02-.02,0-.09,.01-.12,.02h-.04c-.07,.02-.15,.03-.22,.04-.85,.14-1.61-.21-1.88-1.07-.12-.37-.04-.85,.15-1.18,.17-.3,.56-.65,.91-.7,1.21-.2,2.44-.33,3.66-.18,1.02,.13,1.97,.37,2.92,.77,.39,.16,.68,.34,.91,.7,.22,.35,.24,.79,.15,1.18Z"/><path class="cls-6" d="M73.72,98.52c-6.4,4.27-12.8,8.55-19.2,12.82-.65,.44-1.3,.87-1.96,1.31-6.5-4.02-13.01-8.03-19.51-12.05-.96-.59-1.92-1.19-2.89-1.78-.51-.31-1-.29-1.4-.07,1.02,.51,2.03,1.02,3.05,1.53-1.02-.51-2.03-1.02-3.05-1.53-.92,.49-1.31,2-.14,2.72,6.77,4.18,13.54,8.36,20.32,12.54,.96,.59,1.92,1.19,2.89,1.78,.44,.27,1.11,.29,1.55,0,6.4-4.27,12.8-8.55,19.2-12.82,.9-.6,1.8-1.2,2.7-1.8,.63-.42,.79-1.08,.65-1.66-.23,.44-.56,.76-1.23,.76,.66,0,1-.33,1.23-.76-.22-.92-1.18-1.66-2.19-.98Z"/><path class="cls-6" d="M62.48,42.27c.41,.12,.81,.27,1.2,.44,.34,.14,.88,.02,1.18-.15,.32-.19,.62-.55,.7-.91,.09-.39,.07-.83-.15-1.18-.23-.36-.53-.54-.91-.7-.95-.4-1.9-.65-2.92-.77-1.22-.15-2.45-.02-3.66,.18-.36,.06-.74,.41-.91,.7-.19,.33-.27,.81-.15,1.18,.28,.86,1.03,1.21,1.88,1.07,.07-.01,.15-.02,.22-.03h.04s.1-.02,.12-.02c.07,0,.13-.01,.2-.02,.27-.03,.54-.05,.8-.05,.25,0,.49,0,.74,0,.12,0,.24,.01,.37,.02,.04,0,.16,.02,.23,.02,.04,0,.08,.01,.09,.01,.11,.02,.22,.04,.33,.06,.2,.04,.4,.1,.6,.16Z"/><path class="cls-6" d="M43.57,42.08h-.02c-.1-.02-.35-.02,.02,0Z"/><path class="cls-6" d="M44.63,39.17c-1.21-.2-2.44-.33-3.66-.18-1.02,.13-1.97,.37-2.92,.77-.39,.16-.69,.33-.91,.7-.19,.33-.27,.81-.15,1.18,.12,.37,.35,.73,.7,.91,.34,.18,.81,.31,1.18,.15,.38-.16,.77-.31,1.17-.43,.2-.06,.4-.11,.6-.16,.11-.02,.22-.05,.33-.07,.03,0,.09-.01,.15-.02,.06,0,.14-.02,.17-.02,.12-.01,.24-.02,.37-.02,.24-.01,.49-.01,.73,0,.27,0,.53,.03,.8,.05,.13,.01,.27,.04,.4,.04h-.02c.08,.01,.17,.03,.25,.04,.42,.07,.8,.07,1.18-.15,.32-.19,.62-.55,.7-.91,.17-.74-.22-1.75-1.07-1.88Z"/><path class="cls-6" d="M60.07,45.55c-1.97,0-1.97,3.06,0,3.06s1.97-3.06,0-3.06Z"/><path class="cls-6" d="M51.34,61c1.97,0,1.97-3.06,0-3.06s-1.97,3.06,0,3.06Z"/><path class="cls-6" d="M48,66.11c-.09-.06-.17-.12-.26-.17-.02-.01-.02,0-.03-.02,0,0,0,0,0,0-.16-.16-.34-.3-.5-.46-.58-.59-1.59-.58-2.16,0s-.58,1.57,0,2.16c3.23,3.32,9.17,3.2,12.29-.21,.56-.61,.6-1.56,0-2.17-.57-.57-1.6-.61-2.16,0-.15,.17-.31,.33-.48,.48,0,0-.1,.09-.16,.14-.06,.04-.15,.11-.16,.12-.18,.12-.37,.24-.56,.35-.07,.04-.35,.17-.41,.2-.39,.15-.78,.27-1.19,.36-.11,.02-.22,.04-.33,.06h-.04c-.24,.02-.48,.04-.72,.04-.22,0-.43,0-.65-.03-.08,0-.16-.02-.24-.02-.03,0-.07-.01-.12-.02-.42-.09-.83-.2-1.23-.34-.07-.02-.33-.16-.04-.01-.09-.05-.19-.09-.28-.14-.19-.09-.37-.2-.54-.31Zm3.91,.83s.03,0,0,0h0Z"/><path class="cls-6" d="M42.35,45.55c-1.97,0-1.97,3.06,0,3.06s1.97-3.06,0-3.06Z"/><path class="cls-6" d="M104.6,119.99c-1.64-6.92-6.44-12.15-12.04-16.21-.02-.06-.03-.11-.06-.17-3.6-7.97-6.39-16.43-8.31-24.96-1.96-8.69-2.44-17.48-2.95-26.35-.5-8.83-1.13-17.8-3.58-26.34-1.69-5.9-6.04-10.71-10.95-14.22-4.59-3.27-11.01-6.38-16.79-4.98-.88,.21-1.18,.95-1.07,1.63h0c.13,.82,.84,1.57,1.88,1.32,4.62-1.13,9.9,1.61,13.61,4.1,4.78,3.21,8.96,7.79,10.5,13.43,1.53,5.61,2.31,11.31,2.81,17.06-.21-.11-.42-.21-.65-.29-1.22-.39-2.57-.17-3.8,.33-1.87-9.66-5.78-19.91-14.66-25.06-1.71-.99-3.25,1.66-1.55,2.64,4.78,2.77,7.92,7.22,10.05,12.21-9.54-.03-18.75-6.2-22.23-15.13-.71-1.82-3.67-1.03-2.95,.81,.02,.04,.04,.08,.06,.13,.66-.21,1.36-.34,2.13-.34-.77,0-1.47,.13-2.13,.34,4.01,10.15,14.19,17.23,25.15,17.25,.43,0,.76-.15,1-.38,1.12,3.22,1.89,6.58,2.45,9.79,0,.03,.01,.05,.02,.07,0,1.09,1.09,2.15,2.23,1.37,.76-.52,2.09-1.37,3.06-1.19,.82,.15,1.26,1.34,1.47,2.05,.29,.98,.33,2,.24,3.01-.14,1.61-.64,3.58-1.83,4.75-.65,.63-1.48,1.05-2.34,1.31-.34,.1-.68,.17-1.02,.25l-.18,.04s.09-.02,.07-.02c-.87,.09-1.47,.63-1.53,1.53-.06,.97-.2,1.94-.39,2.91-.03,.08-.03,.15-.05,.23-1.42,6.8-5.9,13.13-12.15,16.17-7.78,3.78-16.69,.5-22.04-5.79-3-3.52-4.96-8.03-5.06-12.67,0-.24-.08-.49-.21-.72,.12-5.57,.01-11.13-.12-16.72-.09-3.74,.63-7.44,1.87-10.97,1.15-3.26,2.87-6.8,5.7-8.94,.61-.46,.74-1.15,.58-1.75-.66,.42-1.29,.83-1.92,1.14,.63-.31,1.26-.72,1.92-1.14-.24-.92-1.17-1.61-2.13-.89-5.1,3.85-7.61,10.59-8.64,16.7-.39,2.31-.41,4.6-.36,6.9-1.24-.38-2.61-.45-3.82-.07-.44,.13-.84,.33-1.22,.56,.16-2.59,.41-5.17,.86-7.72,1.05-6.05,3.14-11.59,6.82-16.54,3.67-4.94,8.84-9.42,15.07-10.47,.92-.16,1.21-.9,1.07-1.6h0c-.16-.79-.86-1.53-1.88-1.35-5.7,.97-10.67,4.64-14.46,8.87-3.91,4.37-6.87,9.55-8.44,15.21-1.69,6.09-2.11,12.4-2.3,18.69-.09,.45-.17,.91-.2,1.36-.05,.73,0,1.48,.11,2.21-.16,7.36-.54,14.69-1.44,22.01-1.07,8.62-2.78,17.15-5.04,25.53-4.15,1.94-8.06,4.29-11.09,7.71-3,3.39-4.41,7.79-6.39,11.79H-1.28c1.4-3.12,2.61-6.43,4.73-9.09,2.66-3.33,6.58-5.61,10.36-7.43,2.35-1.13,4.75-2.13,7.16-3.12-.09,.2-.17,.41-.26,.62-2.22,4.89-5.85,10.61-11.84,10.8-1.97,.06-1.97,3.12,0,3.06,8.59-.27,13.33-8.31,16.09-16.14,.59-.25,1.18-.49,1.76-.75,.23-.1,.46-.21,.69-.31-.57-.29-1.15-.57-1.72-.86,.57,.29,1.15,.57,1.72,.86,2.55-1.15,5.21-2.43,7.03-4.6,2.46-2.93,3.15-6.83,3.64-10.51,.11-.83-.2-1.63-1.07-1.88-.26-.08-.58-.06-.87,.03,.03,1.62-.19,3.25-1.27,4.87,1.08-1.62,1.3-3.25,1.27-4.87-.5,.15-.94,.52-1.01,1.04-.41,3.03-.83,6.58-2.79,9.07-1.52,1.93-3.9,3.08-6.17,4.08,.32-1.11,.6-2.19,.85-3.22,1.73-7.04,2.55-14.33,3.2-21.54,.02-.18,.03-.37,.04-.55,1.38,2.85,3.31,5.44,5.64,7.59-.01-.26-.02-.52-.02-.79,0,.26,0,.52,.02,.79,2.29,2.12,4.96,3.82,7.86,4.91,7.05,2.66,14.29,.97,19.88-3.36,.88,6.92,2.88,13.88,9.45,17.44,1.08,.58,2.17,1.13,3.27,1.67,.23-.57,.56-1.03,1.35-1.03-.8,0-1.12,.47-1.35,1.03,2.55,1.25,5.13,2.44,7.62,3.8,3.71,2.04,7.34,4.31,10.46,7.19,3.34,3.07,5.93,6.78,7.07,11.2h3.1c0-.14,0-.28-.04-.44ZM22.22,59.35c.24,.26,.49,.5,.76,.73-.28,.33-.56,.66-.84,.99,.03-.57,.06-1.15,.08-1.72Zm2.84,27.36c-.64,3.42-1.46,6.85-2.58,10.17-2,.83-4.05,1.64-6.09,2.49,2.86-11.19,4.71-22.63,5.51-34.15,.92,1.08,1.83,2.17,2.75,3.25,.5,.6,1.66,.59,2.16,0,.2-.24,.4-.47,.6-.71-.43,6.35-1.19,12.71-2.36,18.95Zm-.8-23.42l1.47-1.74c.49,.58,.98,1.16,1.47,1.74-.49,.58-.98,1.16-1.47,1.74l-1.47-1.74Zm3.55-4.2c-.06-.01-.12-.02-.18-.04-.27-.32-.54-.64-.81-.96-.4-.47-1.2-.56-1.77-.29-1.38-1.13-2.33-2.84-2.66-4.66,.02-.99,.04-1.98,.06-2.98,.31-1.35,1.04-2.67,2.37-3.06,.63-.18,1.29-.11,1.91,.07,.58,.16,.43,.1,.8,.3,.09,.05,.19,.09,.28,.12,.01,.49,.02,.99,.03,1.48,.03,3.34,.04,6.68-.03,10.01Zm50.19-.35c.21-.22,.4-.46,.59-.71,.06,1.02,.13,2.03,.2,3.05-.49-.57-.97-1.15-1.46-1.72,.23-.19,.46-.39,.67-.61Zm-2.81,2.8c.49,.58,.98,1.16,1.47,1.74-.49,.58-.98,1.16-1.47,1.74-.49-.58-.98-1.16-1.47-1.74,.49-.58,.98-1.16,1.47-1.74Zm2.81,34.02c-3.01-1.46-6-2.8-7.93-5.67-2.54-3.8-3.18-8.65-3.62-13.1,0-.06-.02-.11-.03-.16,.67-.71,1.32-1.45,1.91-2.24,1.79-2.38,3.17-5.06,4.1-7.88,.56,.66,1.11,1.31,1.67,1.97,.5,.6,1.66,.59,2.16,0,.94-1.12,1.89-2.23,2.83-3.35,.39,4.35,.93,8.68,1.84,12.96,1.64,7.74,4.05,15.39,7.06,22.73-3.24-1.92-6.61-3.61-10-5.25Z"/><path class="cls-3" d="M76.67,63.29c-.49-.58-.98-1.16-1.47-1.74-.49,.58-.98,1.16-1.47,1.74,.49,.58,.98,1.16,1.47,1.74,.49-.58,.98-1.16,1.47-1.74Z"/><path class="cls-3" d="M24.26,63.29l1.47,1.74c.49-.58,.98-1.16,1.47-1.74-.49-.58-.98-1.16-1.47-1.74l-1.47,1.74Z"/></g></g></g></svg>