<svg xmlns="http://www.w3.org/2000/svg" width="24" height="24" viewBox="0 0 24 24">
  <g id="グループ_9" data-name="グループ 9" transform="translate(-14 -230)">
    <path id="中マド_1" data-name="中マド 1" d="M-1450-226h-18v-18h18v18Zm-9-10.291c-2.448,0-4.44,2.489-4.44,5.549a1.98,1.98,0,0,0,1.387,1.724,7.516,7.516,0,0,0,3.052.575,7.516,7.516,0,0,0,3.052-.575,1.98,1.98,0,0,0,1.387-1.724C-1454.56-233.8-1456.552-236.29-1459-236.29Zm0-5.267a2.278,2.278,0,0,0-2.275,2.275,2.277,2.277,0,0,0,2.275,2.274,2.277,2.277,0,0,0,2.274-2.274A2.277,2.277,0,0,0-1459-241.557Z" transform="translate(1485 477)" fill="#fff"/>
    <rect id="長方形_14538" data-name="長方形 14538" width="24" height="24" transform="translate(14 230)" fill="none"/>
  </g>
</svg>
