<svg xmlns="http://www.w3.org/2000/svg" width="24" height="24" viewBox="0 0 24 24">
  <g id="グループ_8" data-name="グループ 8" transform="translate(-14 -230)">
    <rect id="長方形_14538" data-name="長方形 14538" width="24" height="24" transform="translate(14 230)" fill="none"/>
    <g id="アドレス帳のアイコン素材" transform="translate(-38.121 232.319)">
      <path id="パス_4" data-name="パス 4" d="M417.1,129.031h-.85v4.1h.85a.851.851,0,0,0,.851-.851v-2.4A.852.852,0,0,0,417.1,129.031Z" transform="translate(-345.795 -124.35)" fill="#fff"/>
      <path id="パス_5" data-name="パス 5" d="M417.1,352.344h-.85v4.1h.85a.852.852,0,0,0,.851-.851v-2.4A.851.851,0,0,0,417.1,352.344Z" transform="translate(-345.795 -340.082)" fill="#fff"/>
      <path id="パス_6" data-name="パス 6" d="M417.1,240.688h-.85v4.1h.85a.851.851,0,0,0,.851-.851v-2.4A.852.852,0,0,0,417.1,240.688Z" transform="translate(-345.795 -231.956)" fill="#fff"/>
      <path id="中マド_2" data-name="中マド 2" d="M12.579,19.3H0c0-.052,0-.241,0-2.55,0-2.011,0-6.2,0-14.371A2.424,2.424,0,0,1,.679.7,2.266,2.266,0,0,1,2.317,0H12.579c0,.038,0,.182-.006.364a6.04,6.04,0,0,0,.006.895H2.317a1.072,1.072,0,0,0-.771.329,1.14,1.14,0,0,0,0,1.584,1.074,1.074,0,0,0,.771.328H12.579c-.01.025-.009.9-.006,3.8v.048c0,2.455.006,6.164.006,11.952ZM6.3,10.807c-1.487,0-2.7,1.553-2.7,3.462,0,.691.844,1.435,2.7,1.435,1.3,0,2.7-.449,2.7-1.435C9,12.36,7.79,10.807,6.3,10.807Zm0-3.286A1.42,1.42,0,1,0,7.684,8.94,1.4,1.4,0,0,0,6.3,7.521Z" transform="translate(57.156 0)" fill="#fff"/>
    </g>
  </g>
</svg>
