<?xml version="1.0" encoding="UTF-8"?><svg id="_レイヤー_2" xmlns="http://www.w3.org/2000/svg" viewBox="0 0 226.77 113.39"><defs><style>.cls-1{fill:none;}.cls-2{fill:#190913;}</style></defs><g id="_レイヤー_1-2"><g><g><path class="cls-2" d="M65.95,78.57l-3.9,17.66h5.05l3.93-17.65h5.62s1.2-5.39,1.2-5.39h-16.35l-1.19,5.38h5.64Zm30.06,0c-.43,1.89-2.44,11.1-2.69,12.19s-.88,3.22-1.79,4.17c-.91,.95-1.83,1.29-2.78,1.29h-10.15c-.83,0-2.13-.56-2.55-1.68-.43-1.12-.54-1.99-.18-3.78,.2-1.04,2.7-12.19,2.7-12.19,.41-1.9,1.07-3.61,2.18-4.49,1.11-.89,1.88-.87,2.67-.87h9.53c1.07,0,2.2,.56,2.71,1.28,.53,.75,.77,2.2,.34,4.08Zm-5.05,0h-7.29l-2.71,12.19h7.3l2.7-12.19Zm85.5,0c-.43,1.89-2.44,11.1-2.69,12.19-.25,1.09-.88,3.22-1.79,4.17-.91,.95-1.83,1.29-2.78,1.29h-10.15c-.83,0-2.13-.56-2.55-1.68-.43-1.12-.54-1.99-.19-3.78,.2-1.04,2.71-12.19,2.71-12.19,.41-1.9,1.07-3.61,2.18-4.49,1.11-.89,1.88-.87,2.67-.87h9.54c1.07,0,2.2,.56,2.71,1.28,.53,.75,.77,2.2,.34,4.08Zm-5.05,0h-7.29l-2.71,12.19h7.3l2.7-12.19Zm-131.59,0c-.43,1.89-3.57,16.56-3.82,17.65h-5.05l1.78-8.19h-6.18l-1.77,8.2h-5.11c.2-1.04,3.81-17.66,3.81-17.66,.41-1.9,1.07-3.61,2.18-4.49,1.11-.89,1.88-.87,2.67-.87h8.44c1.07,0,2.2,.56,2.71,1.28,.53,.75,.77,2.2,.34,4.08Zm-5.05,0h-6.19l-.85,3.96h6.19l.86-3.96Zm105.81,0c-.43,1.89-3.57,16.56-3.82,17.65h-5.05l1.78-8.19h-6.18l-1.77,8.2h-5.11c.2-1.04,3.81-17.66,3.81-17.66,.41-1.9,1.07-3.61,2.18-4.49,1.11-.89,1.88-.87,2.67-.87h8.44c1.07,0,2.2,.56,2.71,1.28,.53,.75,.77,2.2,.34,4.08Zm-5.05,0h-6.19l-.85,3.96h6.19l.86-3.96Zm-30.31,3.21c-.43,1.89-.19,3.34,.34,4.08,.51,.72,1.65,1.28,2.71,1.28h7.06l-.83,3.71h-11.34c-.43,1.88-.19,3.34,.34,4.08,.51,.72,1.65,1.28,2.71,1.28h8.44c.79,0,1.56,.02,2.67-.87,1.11-.89,1.78-2.6,2.18-4.49l.86-3.71c.43-1.89,.19-3.34-.34-4.08-.51-.72-1.65-1.28-2.71-1.28h-7.1l.71-3.2h6.25s5.05,0,5.05,0c.43-1.89,.19-3.34-.34-4.08-.51-.72-1.65-1.28-2.71-1.28h-8.44c-.79,0-1.56-.02-2.67,.87-1.11,.89-1.78,2.6-2.18,4.49l-.66,3.21Zm-50.25-8.58h5.11c-.2,1.04-3.81,17.66-3.81,17.66-.41,1.9-1.07,3.61-2.18,4.49-1.11,.89-1.88,.87-2.67,.87h-8.44c-1.07,0-2.2-.56-2.71-1.28-.53-.75-.77-2.2-.34-4.08,.43-1.89,3.57-16.56,3.82-17.65h5.05l-3.83,17.65h6.19l3.81-17.66Zm89.15-.02l-5.09,23.04h14.31s1.28-5.46,1.28-5.46h-9.35s3.87-17.58,3.87-17.58h-5.02Zm35.67,23.04l2.74-12.4,4.03,12.47h5.05l5.1-23.11-5.03,.02-2.7,12.21-4.11-12.23h-5.02l-5.09,23.04h5.02Z"/><g><path class="cls-2" d="M135.88,28.15c1.9,0,3.5-.57,4.77-1.7,1.28-1.13,2.08-2.48,2.39-4.04,.32-1.56-.41-2.34-2.19-2.34-.98,0-2.17,.33-3.55,.98-1.38,.65-2.16,1.43-2.34,2.34-.64,3.17-.34,4.76,.91,4.76Z"/><path class="cls-2" d="M215.13,40.69c-.36,0-.73,.2-1.11,.6-.38,.4-.92,1.06-1.63,1.96-2.68,3.52-5.68,6.67-9,9.44-1.58,1.31-3.23,2.32-4.94,3.02-1.72,.71-3.56,1.06-5.53,1.06s-3.55-.72-4.73-2.15-1.72-3.13-1.58-5.1c4.81-.1,9.08-1.17,12.81-3.21,3.73-2.04,5.9-4.57,6.51-7.59,.33-1.61-.14-2.88-1.4-3.81-1.26-.93-3-1.4-5.23-1.4-4.79,0-8.99,1.41-12.57,4.23-2.88,2.26-4.94,5.39-6.23,9.36-2.15,2.59-4.24,4.78-6.24,6.53-2.39,2.09-4.15,3.16-5.28,3.21-.39,0-.48-.57-.25-1.7,.23-1.13,1.09-3.85,2.58-8.16,1.49-4.3,2.46-7.56,2.91-9.78,.21-1.06-.15-1.94-1.09-2.64-.94-.7-2.1-1.06-3.48-1.06s-3.09,.73-5.12,2.19c-2.04,1.46-4.62,3.75-7.74,6.87-3.13,3.12-4.85,4.83-5.17,5.14,.22-1.11,.79-3.1,1.7-5.97,1.79-2.37,2.96-4.88,3.5-7.55,.11-.55,.09-.93-.07-1.13-.16-.2-.61-.3-1.37-.3s-2.07,.48-3.93,1.43c-1.87,.96-3.18,1.69-3.94,2.19-.76,.5-1.38,1.96-1.87,4.38l-.9,4.45c-.07,.34-.16,.72-.25,1.13-2.37,2.92-4.66,5.37-6.86,7.29-2.39,2.09-4.15,3.16-5.28,3.21-.39,0-.45-.68-.18-2.04,1.42-7.05,2.73-11.4,3.92-13.06,.59-.65,1.21-1.71,1.87-3.17,.66-1.46,1.04-2.44,1.14-2.95,.39-1.91,.1-2.87-.85-2.87s-2.39,.55-4.33,1.66c-1.93,1.11-3.1,1.86-3.51,2.27-.41,.4-1.34,3.13-2.79,8.19-.29,1.01-.55,1.94-.8,2.83-1.98,2.33-3.89,4.31-5.75,5.93-2.39,2.09-4.15,3.16-5.28,3.21-.72,0-.77-1.55-.15-4.64,.63-3.1,1.46-6.73,2.5-10.91,6.82-8.1,10.9-15.43,12.22-21.97,.18-.91,.11-1.85-.22-2.83-.33-.98-1.08-1.47-2.26-1.47-5.06,0-9.08,4-12.08,12.01-3.05,8.22-5.21,14.98-6.5,20.3-2.09,2.49-4.12,4.62-6.07,6.32-2.39,2.09-4.15,3.16-5.28,3.21-.39,0-.48-.57-.25-1.7,.23-1.13,1.09-3.85,2.58-8.16,1.49-4.3,2.46-7.56,2.91-9.78,.21-1.06-.15-1.94-1.09-2.64-.94-.7-2.1-1.06-3.48-1.06s-3.09,.73-5.12,2.19c-2.04,1.46-4.62,3.75-7.74,6.87-3.13,3.12-4.85,4.83-5.17,5.14,.22-1.11,.79-3.1,1.7-5.97,1.79-2.37,2.96-4.88,3.5-7.55,.11-.55,.09-.93-.07-1.13-.16-.2-.61-.3-1.37-.3s-2.07,.48-3.93,1.43c-1.87,.96-3.18,1.69-3.94,2.19-.76,.5-1.38,1.96-1.87,4.38l-.32,1.59c-2.64,1.18-5.49,2.17-8.57,2.94,2.21-3.47,3.71-7.15,4.49-11.03,1.2-5.94,.32-10.76-2.64-14.46-2.96-3.7-7.53-5.55-13.7-5.55s-11.12,1.02-14.85,3.06-6.32,4.69-7.76,7.97c-3.59,2.16-6.55,4.9-8.9,8.19-2.34,3.3-3.85,6.63-4.53,10-1.06,5.24-.11,9.48,2.84,12.72,2.95,3.25,7.6,4.87,13.94,4.87s11.97-1.17,16.91-3.51c4.94-2.34,9.03-5.55,12.29-9.63,3.34-.63,6.67-1.69,10-3.18l-.09,.46c-.35,1.71-1.04,4.27-2.09,7.67-1.05,3.4-1.63,5.39-1.75,5.97-.12,.58,.51,1.03,1.89,1.36,1.38,.33,2.86,.49,4.43,.49,1.05,0,1.72-.7,2-2.11l.37-2.34c.32-1.56,.85-3.22,1.6-4.98,.39-.96,2.54-3.16,6.46-6.61,3.91-3.45,6.25-5.17,7-5.17s.97,.83,.63,2.49c-.34,1.66-1.02,4.17-2.06,7.51-1.04,3.35-1.71,5.77-2.01,7.25-.3,1.49-.26,2.4,.13,2.76,1.15,.81,3.01,1.21,5.57,1.21,2.97,0,7.12-2.98,12.45-8.92-.87,4.6-1.07,7.17-.59,7.72,.21,.25,.9,.52,2.06,.79,1.16,.28,2.46,.41,3.9,.41,2.85,0,6.79-2.74,11.8-8.21-.33,1.29-.58,2.37-.75,3.22-.44,2.17-.46,3.42-.07,3.78,1.15,.81,3.01,1.21,5.57,1.21,3.04,0,7.32-3.12,12.83-9.34-.15,.49-.3,1-.46,1.53-1.05,3.4-1.63,5.39-1.75,5.97-.12,.58,.51,1.03,1.89,1.36,1.38,.33,2.86,.49,4.43,.49,1.05,0,1.72-.7,2-2.11l.37-2.34c.32-1.56,.85-3.22,1.6-4.98,.39-.96,2.54-3.16,6.46-6.61,3.91-3.45,6.25-5.17,7-5.17s.97,.83,.63,2.49c-.34,1.66-1.02,4.17-2.06,7.51-1.04,3.35-1.71,5.77-2.01,7.25-.3,1.49-.26,2.4,.13,2.76,1.15,.81,3.01,1.21,5.57,1.21,3,0,7.19-3.03,12.58-9.07-.12,2.15,.52,4.11,1.95,5.87,1.73,2.14,4.44,3.21,8.12,3.21,6.37,0,12.26-2.69,17.69-8.08,5.02-5.03,7.79-8.81,8.3-11.33,.08-.4-.06-.6-.42-.6ZM127.48,17.58c.52,0,.62,.81,.3,2.42-.81,4.03-3.63,9.49-8.43,16.39,3.45-12.53,6.16-18.8,8.13-18.8ZM39.1,57.22c-4.79,0-8.51-1.65-11.16-4.95-2.65-3.3-3.51-7.24-2.58-11.82,.67-3.32,2.2-6.32,4.57-8.99,.01,5.14,2.6,9.29,7.77,12.46,5.17,3.17,11.69,4.76,19.57,4.76-4.24,5.69-10.29,8.53-18.17,8.53Zm22.56-18.58c-.56,2.77-1.5,5.29-2.81,7.55-7.48,0-13.53-1.82-18.15-5.47-4.61-3.65-6.66-8.04-6.15-13.18,4.53-2.92,9.62-4.38,15.26-4.38,.46,0,.94-.12,1.46-.38,.51-.25,.81-.6,.9-1.06,.15-.76-1.53-1.13-5.04-1.13s-7.13,.73-10.83,2.19c1.32-1.66,3.21-2.98,5.68-3.96,2.46-.98,4.84-1.47,7.14-1.47,5.38,0,9.12,2.07,11.21,6.19,2.09,4.13,2.53,9.16,1.33,15.1Zm129.51,.94c2.07-2.44,4.25-3.66,6.55-3.66,1.9,0,2.63,1.13,2.17,3.4-.46,2.27-1.73,4.1-3.82,5.51-2.09,1.41-5.12,2.37-9.1,2.87,.73-2.97,2.13-5.68,4.2-8.12Z"/></g></g><rect class="cls-1" width="226.77" height="113.39"/></g></g></svg>