<svg id="グループ_462" data-name="グループ 462" xmlns="http://www.w3.org/2000/svg" width="24" height="24" viewBox="0 0 24 24">
  <rect id="長方形_14650" data-name="長方形 14650" width="24" height="24" fill="none"/>
  <path id="gbadge_FILL0_wght500_GRAD0_opsz24" d="M7.85,19.775v-1.55h8.3v1.55Zm-2.075,3.65A2.091,2.091,0,0,1,3.7,21.35V4.75a2,2,0,0,1,.612-1.463,2,2,0,0,1,1.463-.612h4.15V1.125a1.025,1.025,0,0,1,1.05-1.05h2.05a1.025,1.025,0,0,1,1.05,1.05v1.55h4.15a2,2,0,0,1,1.463.612A2,2,0,0,1,20.3,4.75v16.6a2.091,2.091,0,0,1-2.075,2.075Zm0-2.075h12.45V4.75h-4.15a1.025,1.025,0,0,1-1.05,1.05h-2.05a1.025,1.025,0,0,1-1.05-1.05H5.775ZM12,12a2.015,2.015,0,0,1-1.462-.6,2.067,2.067,0,0,1,0-2.938,2.075,2.075,0,0,1,3.537,1.463,1.985,1.985,0,0,1-.612,1.475A2.019,2.019,0,0,1,12,12ZM7.85,16.15v-.6a2.028,2.028,0,0,1,1.275-1.9,6.913,6.913,0,0,1,1.388-.45,7.451,7.451,0,0,1,2.975,0,6.918,6.918,0,0,1,1.387.45,2.024,2.024,0,0,1,1.275,1.9v.6Z" transform="translate(0 0.25)" fill="#fff"/>
</svg>
