<svg id="グループ_461" data-name="グループ 461" xmlns="http://www.w3.org/2000/svg" width="24" height="24" viewBox="0 0 24 24">
  <rect id="長方形_14650" data-name="長方形 14650" width="24" height="24" fill="none"/>
  <path id="description_FILL0_wght500_GRAD0_opsz24" d="M8,18.025h8v-2.1H8Zm0-4h8v-2.1H8ZM6.075,22.2A2.262,2.262,0,0,1,3.8,19.925V4.075a2.2,2.2,0,0,1,.663-1.613A2.194,2.194,0,0,1,6.075,1.8h8L20.2,7.925v12A2.26,2.26,0,0,1,17.925,22.2Zm6.85-13.125v-5H6.075v15.85h11.85V9.075Zm-6.85-5v15.85h0V4.075Z" fill="#ff6c22"/>
</svg>
