<svg id="グループ_461" data-name="グループ 461" xmlns="http://www.w3.org/2000/svg" width="24" height="24" viewBox="0 0 24 24">
  <rect id="長方形_14650" data-name="長方形 14650" width="24" height="24" fill="none"/>
  <path id="stateful_FILL1_wght600_GRAD200_opsz24" d="M.95,23.275V16.75a2.475,2.475,0,0,1,.738-1.8,2.412,2.412,0,0,1,1.787-.75h3a2.561,2.561,0,0,1,2.55,2.55v6.525H7.25l-1-1H3.7l-1,1ZM4.125,20.85h1.7V19.1h1.75V17.375H5.825v-1.75h-1.7v1.75H2.375V19.1h1.75Zm10.85,2.425V16.75a2.561,2.561,0,0,1,2.55-2.55h3a2.412,2.412,0,0,1,1.787.75,2.475,2.475,0,0,1,.738,1.8v6.525H21.3l-1-1H17.75l-1,1Zm3.2-2.425h1.7V19.1h1.75V17.375h-1.75v-1.75h-1.7v1.75h-1.75V19.1h1.75ZM7.975,9.8V3.25a2.435,2.435,0,0,1,.738-1.788A2.433,2.433,0,0,1,10.5.725h3a2.437,2.437,0,0,1,1.788.737,2.437,2.437,0,0,1,.737,1.788V9.8H14.3l-1-1H10.7l-1,1Zm3.15-2.425h1.75V5.625h1.75V3.9h-1.75V2.15h-1.75V3.9H9.375V5.625h1.75ZM10.7,20.05a.82.82,0,0,1-.587-.225.757.757,0,0,1-.238-.575.813.813,0,0,1,.825-.825h2.6a.813.813,0,0,1,.825.825.757.757,0,0,1-.238.575.82.82,0,0,1-.587.225Zm-3.75-6.8a.73.73,0,0,1,0-1.1l1.4-1.4a.726.726,0,0,1,.563-.25.849.849,0,0,1,.587.225.834.834,0,0,1,.225.575.712.712,0,0,1-.25.55L8.05,13.25a.73.73,0,0,1-1.1,0Zm9,0-1.425-1.4a.712.712,0,0,1-.25-.55.834.834,0,0,1,.225-.575.851.851,0,0,1,.588-.225.725.725,0,0,1,.562.25l1.4,1.4a.778.778,0,1,1-1.1,1.1Z" fill="#ff6c22"/>
</svg>
