<svg id="notifications_black_24dp" xmlns="http://www.w3.org/2000/svg" width="25.001" height="24" viewBox="0 0 25.001 24">
  <path id="パス_9" data-name="パス 9" d="M0,0H24V24H0Z" fill="none"/>
  <path id="中マド_1" data-name="中マド 1" d="M12.4,11.2H5.6A5.6,5.6,0,1,1,5.6,0h6.8a5.6,5.6,0,1,1,0,11.2ZM5.772,1.724a3.877,3.877,0,0,0,0,7.753h6.458a3.877,3.877,0,0,0,0-7.753Z" transform="translate(7 8.013)" fill="#ff6c22"/>
  <path id="中マド_5" data-name="中マド 5" d="M8.606,11.2H5.6A5.6,5.6,0,1,1,5.6,0h6.8A5.607,5.607,0,0,1,18,5.6a5.886,5.886,0,0,1-.634,2.589c-.319.714-1,1.033-2.222,1.033-.5,0-1.046-.05-1.62-.1-.59-.054-1.2-.11-1.786-.11L8.606,11.2ZM5.772,1.724a3.877,3.877,0,1,0,0,7.753H9.365l2.5-1.222c.383,0,.78.036,1.165.071.368.034.717.065,1.037.065.688,0,1.087-.155,1.3-.5A4.139,4.139,0,0,0,16.105,5.6a3.881,3.881,0,0,0-3.877-3.876Z" transform="translate(0 0.412)" fill="#ff6c22"/>
  <path id="パス_34" data-name="パス 34" d="M12,17v2.99L9.013,17Z" transform="translate(6.492 2.013)" fill="#ff6c22"/>
  <path id="パス_285" data-name="パス 285" d="M9.013,17v2.99L12,17Z" transform="translate(-5.003 -5.883)" fill="#ff6c22"/>
  <circle id="楕円形_2" data-name="楕円形 2" cx="1" cy="1" r="1" transform="translate(11 12.613)" fill="#ff6c22"/>
  <circle id="楕円形_3" data-name="楕円形 3" cx="1" cy="1" r="1" transform="translate(15 12.613)" fill="#ff6c22"/>
  <circle id="楕円形_4" data-name="楕円形 4" cx="1" cy="1" r="1" transform="translate(19 12.613)" fill="#ff6c22"/>
</svg>
