<svg id="notifications_black_24dp" xmlns="http://www.w3.org/2000/svg" width="24" height="24" viewBox="0 0 24 24">
  <path id="パス_9" data-name="パス 9" d="M0,0H24V24H0Z" fill="none"/>
  <path id="person_add_FILL0_wght500_GRAD0_opsz24" d="M9.025,11.9a4.043,4.043,0,0,1-2.963-1.238A4.041,4.041,0,0,1,4.825,7.7,4.031,4.031,0,0,1,6.062,4.725,4.064,4.064,0,0,1,9.025,3.5a4.09,4.09,0,0,1,2.987,1.225A4.029,4.029,0,0,1,13.25,7.7a4.039,4.039,0,0,1-1.238,2.962A4.068,4.068,0,0,1,9.025,11.9Zm-8.2,8.4v-3A3.066,3.066,0,0,1,1.3,15.625a3.189,3.189,0,0,1,1.25-1.15,14.539,14.539,0,0,1,3.188-1.188A14.031,14.031,0,0,1,9.025,12.9a14.3,14.3,0,0,1,3.325.387,14.736,14.736,0,0,1,3.175,1.163,3.159,3.159,0,0,1,1.25,1.163A3.125,3.125,0,0,1,17.25,17.3v3ZM3.1,18.025H14.975v-.7a.943.943,0,0,0-.137-.5.8.8,0,0,0-.363-.325,12.1,12.1,0,0,0-2.687-1,11.852,11.852,0,0,0-5.513,0,11.559,11.559,0,0,0-2.675,1,.8.8,0,0,0-.363.325.943.943,0,0,0-.137.5Zm5.925-8.4A1.9,1.9,0,0,0,10.4,9.062a1.9,1.9,0,0,0,0-2.725,1.9,1.9,0,0,0-1.375-.562,1.869,1.869,0,0,0-1.35.562,1.9,1.9,0,0,0,0,2.725A1.867,1.867,0,0,0,9.025,9.625Zm0-1.925Zm0,7.475Z" transform="translate(3.012 0.1)" fill="#fff" opacity="0.998"/>
</svg>
