<svg id="グループ_462" data-name="グループ 462" xmlns="http://www.w3.org/2000/svg" width="24" height="24" viewBox="0 0 24 24">
  <rect id="長方形_14650" data-name="長方形 14650" width="24" height="24" fill="none"/>
  <path id="apartment_FILL0_wght300_GRAD200_opsz24" d="M1.35,22.525V5.925h4.8v-4.8H17.9v9.65h4.8v11.75H13.55v-4.8h-3.1v4.8Zm2.15-2.15H6.15v-2.65H3.5Zm0-4.8H6.15v-2.65H3.5Zm0-4.85H6.15V8.075H3.5Zm4.8,4.85h2.65v-2.65H8.3Zm0-4.85h2.65V8.075H8.3Zm0-4.8h2.65V3.275H8.3Zm4.8,9.65h2.65v-2.65H13.1Zm0-4.85h2.65V8.075H13.1Zm0-4.8h2.65V3.275H13.1Zm4.8,14.45h2.65v-2.65H17.9Zm0-4.8h2.65v-2.65H17.9Z" transform="translate(-0.024 0.175)" fill="#ff6c22"/>
</svg>
