<svg xmlns="http://www.w3.org/2000/svg" width="24" height="24" viewBox="0 0 24 24">
  <g id="グループ_715" data-name="グループ 715" transform="translate(2.662 2.662)">
    <rect id="長方形_14650" data-name="長方形 14650" width="24" height="24" transform="translate(-2.662 -2.662)" fill="none"/>
    <path id="mail_FILL0_wght600_GRAD200_opsz24" d="M3.516,16.653a2.523,2.523,0,0,1-1.78-.683A2.171,2.171,0,0,1,1,14.319V5.36a2.171,2.171,0,0,1,.736-1.651,2.523,2.523,0,0,1,1.78-.683H16.484a2.523,2.523,0,0,1,1.78.683A2.171,2.171,0,0,1,19,5.36v8.959a2.171,2.171,0,0,1-.736,1.651,2.523,2.523,0,0,1-1.78.683ZM10,11.339,3.516,7.561v6.757H16.484V7.561Zm0-2.126L16.586,5.36H3.414ZM3.414,7.561v6.757h0Z" transform="translate(-0.662 -0.501)" fill="#fff"/>
  </g>
</svg>
