<svg xmlns="http://www.w3.org/2000/svg" xmlns:xlink="http://www.w3.org/1999/xlink" viewBox="0 0 667.48 392.61"><defs><style>.cls-1,.cls-10,.cls-21,.cls-22,.cls-23,.cls-24,.cls-33,.cls-34,.cls-37,.cls-4{fill:none;}.cls-2{clip-path:url(#clip-path);}.cls-3{fill:#fcf0e9;}.cls-4{stroke:#1f1406;stroke-width:2.49px;}.cls-10,.cls-21,.cls-22,.cls-23,.cls-24,.cls-33,.cls-34,.cls-37,.cls-4{stroke-linecap:round;stroke-linejoin:round;}.cls-20,.cls-5{fill:#fff;}.cls-6{fill:#372d4f;}.cls-7{fill:#4c3e6e;}.cls-8{fill:#00a0dc;}.cls-9{fill:#7ec4ed;}.cls-10,.cls-34,.cls-37{stroke:#fff;}.cls-10{stroke-width:1px;}.cls-11{fill:#e5ddf5;}.cls-12,.cls-13{fill:#f07676;}.cls-13,.cls-14,.cls-15,.cls-16,.cls-17,.cls-18,.cls-19,.cls-20,.cls-21,.cls-22,.cls-25,.cls-33{fill-rule:evenodd;}.cls-14{fill:#663a24;}.cls-15{fill:#e3633d;}.cls-16{fill:#6752a1;}.cls-17{fill:#4e3e7a;}.cls-18,.cls-32{fill:#f0d1c1;}.cls-19{fill:#d65a5a;}.cls-21{stroke:#8b939c;stroke-width:0.97px;}.cls-22{stroke:#3d345d;stroke-width:2.23px;}.cls-23{stroke:#362519;stroke-width:2.3px;}.cls-24,.cls-33{stroke:#bfab9e;stroke-width:1.15px;}.cls-25{fill:#886dc2;}.cls-26{fill:#6d579c;}.cls-27{fill:#b88465;}.cls-28{fill:#e3a27d;}.cls-29{fill:#d99b78;}.cls-30{fill:#f5af87;}.cls-31{fill:#7d5739;}.cls-34{stroke-width:1.87px;}.cls-35{fill:#00a7cb;}.cls-36{fill:#74adc1;}.cls-37{stroke-width:2.78px;}</style><clipPath id="clip-path"><rect class="cls-1" width="667.48" height="392.61"/></clipPath></defs><g id="レイヤー_2" data-name="レイヤー 2"><g id="background"><g class="cls-2"><path class="cls-3" d="M662.94,309.57C726.37,97.48,540.75-108.59,324.54-61,259.36-46.72,198.88-9.58,162.72,69,51.48,310.78-134.34,218.5-141.87,350.88s247.33,256.77,392,76.39c105.72-131.84,319,136.6,390.46-52Q653.57,340.93,662.94,309.57Z"/><circle class="cls-4" cx="563.89" cy="67.89" r="7.63"/><rect class="cls-5" x="21.58" y="254.18" width="99.35" height="31.95" transform="translate(-24.97 7.86) rotate(-5.37)"/><polygon class="cls-5" points="384.13 329.62 384.28 331.21 295.15 339.59 295.02 338.27 384.13 329.62"/><path class="cls-6" d="M49.36,150.75l.82,212a39.86,39.86,0,0,0,40,39.71l439.45-1.83a39.86,39.86,0,0,0,39.7-40l-.81-212a39.86,39.86,0,0,0-40-39.7L89.07,110.74A39.85,39.85,0,0,0,49.36,150.75Z"/><path class="cls-7" d="M49.36,141.55l.82,212a39.86,39.86,0,0,0,40,39.71l439.45-1.83a39.86,39.86,0,0,0,39.7-40l-.81-212a39.86,39.86,0,0,0-40-39.7L89.07,101.54A39.85,39.85,0,0,0,49.36,141.55Z"/><path class="cls-8" d="M76.52,138.13l.84,217.61a22.6,22.6,0,0,0,22.69,22.51l432.18-1.8a22.6,22.6,0,0,0,22.51-22.69l-.84-217.6a22.59,22.59,0,0,0-22.68-22.51L99,115.45A22.59,22.59,0,0,0,76.52,138.13Z"/><path class="cls-9" d="M476.85,350.93V142.37a17.31,17.31,0,0,1,17.26-17.26h0a17.31,17.31,0,0,1,17.25,17.26V350.93a17.3,17.3,0,0,1-17.25,17.25h0A17.31,17.31,0,0,1,476.85,350.93Z"/><path class="cls-10" d="M502.34,324.91a5.35,5.35,0,1,1,4.09-6.36A5.35,5.35,0,0,1,502.34,324.91Z"/><line class="cls-10" x1="493.25" y1="326.88" x2="497.21" y2="323.23"/><rect class="cls-3" x="305.43" y="40.23" width="192.83" height="188.1" rx="11.95" transform="translate(536.13 -267.56) rotate(90)"/><rect class="cls-11" x="312.83" y="244.73" width="113.92" height="125.58" rx="11.22" transform="translate(677.31 -62.26) rotate(90)"/><rect class="cls-11" x="150.57" y="244.73" width="113.92" height="125.58" rx="11.22" transform="translate(515.05 99.99) rotate(90)"/><rect class="cls-11" x="150.57" y="119.28" width="113.92" height="125.58" rx="11.22" transform="translate(389.6 -25.45) rotate(90)"/><path class="cls-11" d="M77.36,355.74a22.53,22.53,0,0,0,1.79,8.74H96a11.25,11.25,0,0,0,11.22-11.22V261.78A11.25,11.25,0,0,0,96,250.56H77Z"/><path class="cls-11" d="M76.52,138.13,76.91,239H96a11.25,11.25,0,0,0,11.22-11.22V136.33A11.25,11.25,0,0,0,96,125.11H80.59A22.63,22.63,0,0,0,76.52,138.13Z"/><path class="cls-12" d="M485.93,235.24c-11.38,12-19.58,19.95-31.28,31.71l2.45,11.17c27-20.08,38.58-21.7,44.57-34.72C495.23,229.59,489.17,233.07,485.93,235.24Z"/><path class="cls-12" d="M458.25,265.72l-8.31.75a7,7,0,0,0-4.37,2.08l-4.7,4.84a3.35,3.35,0,0,0,1.08,5.42h0l10.38-1.52a10.49,10.49,0,0,0,6.22-3.53l2.85-3.22Z"/><path class="cls-13" d="M522.69,189.07s-35.9,39.32-41.2,54.93l6.45,2.61a6.77,6.77,0,0,0,10.68.19l20.7-25.53,4.14-4.87Z"/><path class="cls-14" d="M578.38,194.47a5.33,5.33,0,0,1,1.23-4.19c7.68-9.66-7.22-17.34-11.52-20.78-4.49-3.59,1.28-11.41-8.46-15.13s-13.17,1.33-13.63,1.15c-.68-.25.81,9.62.81,9.62s4.86,1.79,4.36,11.66-3.33,14.9,2.43,22.92,30.39-1,30.39-1C580,198.52,578.7,196.36,578.38,194.47Z"/><path class="cls-15" d="M548.13,400.37l47,72.23c7.87,2.73,7.86-1.66,4.94-8.68-12.32-30.46-10.47-49.05-38.65-76.21Z"/><path class="cls-16" d="M504.73,312.88c4.65,23.42,14.53,48.6,27.51,74.83a77.37,77.37,0,0,0,6.07,11.84l44.37,65.56L601,453.9c-8.36-31.36-16-46.48-40.7-76.69L543.83,304.5l-19.82.8Z"/><path class="cls-16" d="M569.92,257.47l-59.47,4.18c-10.63.13-8.2,42.78-5.72,51.23L544,320.94c18.17-.31,39.71,13.56,41.87-15.73C588.3,271.72,569.92,257.47,569.92,257.47Z"/><path class="cls-17" d="M585.49,308.43s-44.08,3.66-56.5-13.1L586.06,292S586.27,304.15,585.49,308.43Z"/><path class="cls-18" d="M522.86,188.29,544,185.82l5.79.23,22,7.68a16.19,16.19,0,0,1,8,20.09L574.44,239c5.73,19,9,28.83,14,49C557.19,299.6,508,302,498.13,287.63,499.79,248.47,507.65,213.5,522.86,188.29Z"/><path class="cls-13" d="M533.59,174.72s1.1,8.32,2,15.21a5.13,5.13,0,0,0,3.15,4.08,5,5,0,0,0,5.06-.78l1.35-1.11a6.59,6.59,0,0,0,2.24-6.65l-4.29-17.84-9.53,7.09Z"/><polygon class="cls-19" points="533.81 179.3 534.85 184.24 538.98 179.3 533.81 179.3"/><path class="cls-12" d="M532.46,187.23s-6.93,17.14,4.84,17.89,18.2-17.06,18.2-17.06l-8.59-3.82Z"/><path class="cls-13" d="M547.36,165.79a4.46,4.46,0,0,0-2.75-5.64l-8-2.74c-2.3-.78-4.46.62-5.59,2.8-1.33,2.57-2.82,8.35-3.39,12.68-.32,2.44.75,5.15,3.06,5.94,2.46.84,10.62,1,12.83-3.22a65.43,65.43,0,0,0,3.86-9.82Z"/><path class="cls-14" d="M554.25,177.19s-.06-12.62-3.08-16.73c-4-5.51-10.13-9.2-18.26-4.4,0,0,2.87,10.23,18.26,20.74Z"/><path class="cls-13" d="M546.8,175.92c-1.25,1.58-3.31,2-4.6,1s-1.32-3.17-.07-4.75,3.31-2,4.6-1S548.05,174.34,546.8,175.92Z"/><path class="cls-20" d="M529.14,171.46l4,1.28s-.95,2.76-2.82,1.91S529.14,171.46,529.14,171.46Z"/><path class="cls-21" d="M546.33,155.73s5.35-.33,6.44,7.23"/><path class="cls-15" d="M520.67,484.78s32.88-60.32,30.15-89.34L539.63,363,511.49,482.34C513,487.09,516.65,486.38,520.67,484.78Z"/><path class="cls-16" d="M541.15,314l-17.93,75.8L508.1,466.73,537,476.17s2-13.57,3.83-17.5,17.06-41.77,14.79-62.22l27.87-80.37Z"/><path class="cls-22" d="M526.53,375.81l14.12-59.69A1.71,1.71,0,0,0,539,314h-3"/><path class="cls-22" d="M552.84,421s2.78-18.58,2.91-25.05,5.41-15.61,5.41-15.61"/><polyline class="cls-23" points="277.09 341.84 430.79 312.66 418.33 413.21"/><path class="cls-24" d="M417.34,348.05c.4-1.7,3-24.62-9.74-26.72S397,345.71,397,345.71"/><polygon class="cls-25" points="432.11 338.86 438.85 416.38 391.82 417.79 372.73 411.78 381.56 340.06 432.11 338.86"/><polygon class="cls-26" points="390.19 417.77 391.44 339.83 381.56 340.06 371.12 417.8 390.19 417.77"/><rect class="cls-27" x="321.84" y="359.08" width="59.03" height="58.73"/><rect class="cls-28" x="294.48" y="359.08" width="45.34" height="58.73"/><rect class="cls-29" x="294.48" y="344.59" width="90.28" height="21.49"/><rect class="cls-30" x="292.17" y="344.59" width="47.65" height="21.49"/><line class="cls-23" x1="434.82" y1="283.8" x2="429.17" y2="324.27"/><line class="cls-23" x1="478.81" y1="286.44" x2="473.87" y2="321.86"/><polygon class="cls-23" points="322.24 346.19 474.68 317.41 459.19 417.77 320.17 417.77 322.24 346.19"/><polygon class="cls-23" points="275.87 343.84 322.24 346.19 320.17 417.77 273.5 417 275.87 343.84"/><line class="cls-23" x1="444.74" y1="324.27" x2="433.33" y2="416.68"/><line class="cls-23" x1="412.51" y1="329.15" x2="401.93" y2="417.77"/><line class="cls-23" x1="379.44" y1="335.34" x2="371.56" y2="417.77"/><line class="cls-23" x1="346.51" y1="341.61" x2="341.6" y2="417.77"/><line class="cls-23" x1="470.6" y1="343.84" x2="321.82" y2="368.74"/><line class="cls-23" x1="465.24" y1="378.56" x2="320.55" y2="393.29"/><line class="cls-23" x1="297.4" y1="344.9" x2="294.48" y2="416.68"/><line class="cls-23" x1="321.07" y1="369.65" x2="275.84" y2="369.65"/><line class="cls-23" x1="320.55" y1="393.25" x2="274.3" y2="392.27"/><path class="cls-31" d="M471.89,274.22H437.7a5.16,5.16,0,0,0-5.11,4.41l-.95,6.38h40.25a5.4,5.4,0,0,0,5.4-5.4h0A5.39,5.39,0,0,0,471.89,274.22Z"/><path class="cls-31" d="M516.54,277.22H482.35a5.17,5.17,0,0,0-5.12,4.41l-.94,6.38h40.25a5.4,5.4,0,0,0,5.4-5.4h0A5.39,5.39,0,0,0,516.54,277.22Z"/><path class="cls-12" d="M550.11,247.8c-13.29,9.81-22.75,16.24-36.33,25.78l.47,11.43c30.1-15.08,41.77-14.67,49.94-26.46C560.25,243.84,553.67,246.22,550.11,247.8Z"/><path class="cls-12" d="M514.54,275.43l-8.22,1.39a6.9,6.9,0,0,0-4.2,2.41l-4.32,5.18a3.37,3.37,0,0,0,1.49,5.33h0l10.24-2.32a10.45,10.45,0,0,0,5.93-4l2.59-3.42Z"/><path class="cls-13" d="M569.44,194.12s-21.87,48.53-22.05,65l7,.46c3.61,2.53,8.7.49,9.85-1.06l12.08-32.79,2.41-5.92Z"/><path class="cls-32" d="M487.51,225.18l17.22,15,18.13-51.9S518.2,185.59,487.51,225.18Z"/><path class="cls-32" d="M564.19,191.07l-16.8,49.12,31.29,7.05s4.55-32.94,1.84-42.1S564.19,191.07,564.19,191.07Z"/><path class="cls-33" d="M507.05,233.56c.28-.8,5.81-15.93,8.92-24.44a5.74,5.74,0,0,0-.89-5.68"/><polyline class="cls-33" points="549.84 233.04 554.25 211.38 556.27 208.88"/><path class="cls-4" d="M446.31,37.87H321.57s-13.78-.47-13.78,12-.79,50.74-.79,50.74"/><path class="cls-4" d="M356.88,37.87H481.62s13.77-.47,13.77,12,.8,50.74.8,50.74"/><rect class="cls-9" x="154.83" y="133.13" width="32.09" height="32.09" rx="6.49"/><rect class="cls-9" x="316.88" y="260.45" width="32.09" height="32.09" rx="6.49"/><rect class="cls-9" x="154.83" y="261.01" width="32.09" height="32.09" rx="6.49" transform="translate(447.93 106.18) rotate(90)"/><polyline class="cls-34" points="325.35 272.7 332 284.9 340.51 268.1"/><path class="cls-35" d="M387.08,104.87a50.2,50.2,0,0,0-44,26,50.21,50.21,0,0,0,88,0A50.2,50.2,0,0,0,387.08,104.87Z"/><path class="cls-35" d="M447.77,113.06c7.2,0,7.2,35.61,0,35.61s-13.45-7.19-16.7-17.81C434.32,120.25,440.58,113.06,447.77,113.06Z"/><path class="cls-36" d="M202.14,309.84a28.45,28.45,0,0,0-24.93,14.73,28.45,28.45,0,0,0,49.85,0A28.44,28.44,0,0,0,202.14,309.84Z"/><path class="cls-36" d="M236.52,314.48c4.08,0,4.08,20.18,0,20.18s-7.62-4.08-9.46-10.09C228.9,318.56,232.45,314.48,236.52,314.48Z"/><path class="cls-36" d="M201.11,181.83a28.44,28.44,0,0,0-24.92,14.73,28.45,28.45,0,0,0,49.85,0A28.45,28.45,0,0,0,201.11,181.83Z"/><path class="cls-36" d="M235.5,186.47c4.08,0,4.08,20.18,0,20.18s-7.62-4.07-9.46-10.09C227.88,190.55,231.42,186.47,235.5,186.47Z"/><rect class="cls-9" x="294.92" y="21.37" width="59.11" height="59.11" rx="11.95" transform="translate(375.4 -273.55) rotate(90)"/><line class="cls-37" x1="337.2" y1="50.62" x2="312.35" y2="50.84"/><line class="cls-37" x1="324.99" y1="63.01" x2="324.55" y2="38.45"/></g></g></g></svg>