<svg xmlns="http://www.w3.org/2000/svg" width="24" height="24" viewBox="0 0 24 24">
  <g id="コンポーネント_212" data-name="コンポーネント 212" transform="translate(-18 -20)">
    <g id="fact_check_black_24dp" transform="translate(17.999 20)">
      <g id="グループ_13883" data-name="グループ 13883" transform="translate(0 0)">
        <rect id="長方形_14263" data-name="長方形 14263" width="24" height="24" transform="translate(0 0)" fill="none"/>
      </g>
      <g id="グループ_13885" data-name="グループ 13885" transform="translate(1.715 2.823)">
        <g id="グループ_13884" data-name="グループ 13884">
          <path id="パス_6223" data-name="パス 6223" d="M20.463,3H4.051A2.052,2.052,0,0,0,2,5.04V19.323a2.052,2.052,0,0,0,2.051,2.04H20.463a2.052,2.052,0,0,0,2.051-2.04V5.04A2.052,2.052,0,0,0,20.463,3Zm0,16.323H4.051V5.04H20.463Z" transform="translate(-2 -3)" fill="#00c4e2"/>
          <path id="パス_6224" data-name="パス 6224" d="M19.971,10.528,18.444,9l-3.41,3.41-1.517-1.528L12,12.4l3.034,3.055Z" transform="translate(-2.243 -3.046)" fill="#00c4e2"/>
          <path id="パス_6228" data-name="パス 6228" d="M3,0H6.127V2.5H3Z" transform="translate(2.082 3.602)" fill="#00c4e2"/>
          <path id="パス_6229" data-name="パス 6229" d="M3,0H6.127V2.5H3Z" transform="translate(2.082 7.72)" fill="#00c4e2"/>
          <path id="パス_6230" data-name="パス 6230" d="M3,0H6.127V2.5H3Z" transform="translate(2.082 11.838)" fill="#00c4e2"/>
        </g>
      </g>
    </g>
  </g>
</svg>
