<svg id="phishing_black_24dp" xmlns="http://www.w3.org/2000/svg" width="24" height="24" viewBox="0 0 24 24">
  <g id="グループ_2599" data-name="グループ 2599">
    <rect id="長方形_14598" data-name="長方形 14598" width="24" height="24" fill="none"/>
  </g>
  <g id="グループ_2600" data-name="グループ 2600">
    <path id="パス_2686" data-name="パス 2686" d="M19,9a3.01,3.01,0,0,0-2-2.82V2H15V6.18a2.988,2.988,0,0,0,0,5.64V15a4,4,0,0,1-8,0V14h3L5,9v6a6,6,0,0,0,12,0V11.82A3.01,3.01,0,0,0,19,9Zm-3,2a1.9,1.9,0,0,1-2-2,1.951,1.951,0,0,1,2-2,2,2,0,0,1,2,2A1.945,1.945,0,0,1,16,11Z" stroke="#000" stroke-linecap="round" stroke-linejoin="round" stroke-width="1"/>
  </g>
</svg>
