<svg xmlns="http://www.w3.org/2000/svg" width="122" height="122" viewBox="0 0 122 122">
  <g id="グループ_2357" data-name="グループ 2357" transform="translate(-439 -1282)">
    <rect id="長方形_14567" data-name="長方形 14567" width="122" height="122" rx="61" transform="translate(439 1282)" fill="#469631"/>
    <g id="グループ_2356" data-name="グループ 2356" transform="translate(863 1337)">
      <rect id="長方形_14521" data-name="長方形 14521" width="100" height="60" transform="translate(-413 -24)" fill="none"/>
      <g id="グループ_14546" data-name="グループ 14546" transform="translate(-382.163 -7.824)">
        <path id="パス_7541" data-name="パス 7541" d="M205.194,367.257a5.859,5.859,0,1,1,5.859-5.859A5.859,5.859,0,0,1,205.194,367.257Zm0-8.923a3.063,3.063,0,1,0,3.063,3.064,3.063,3.063,0,0,0-3.063-3.064Z" transform="translate(-199.335 -355.539)" fill="#fff"/>
      </g>
      <path id="パス_7542" data-name="パス 7542" d="M291.189,329.211a41.334,41.334,0,0,0-30.724-13.889c-12.865,0-21.062,5.566-25.2,9.425a4.827,4.827,0,0,1,2.994,3.3,34.042,34.042,0,0,1,21.533-7.848c11.616,0,18.35,4.041,24.074,8.5,0,0-2.327,4.736-17.4,8.708l-5.777,5.147S277.19,343.574,291.189,329.211Z" transform="translate(-610.254 -331.175)" fill="#fff"/>
      <circle id="楕円形_325" data-name="楕円形 325" cx="1.715" cy="1.715" r="1.715" transform="translate(-335.756 -3.68)" fill="#fff"/>
      <g id="グループ_14547" data-name="グループ 14547" transform="translate(-355.774 -7.81)">
        <path id="パス_7543" data-name="パス 7543" d="M337.364,367.325a5.859,5.859,0,1,1,5.859-5.859,5.859,5.859,0,0,1-5.859,5.859Zm0-8.922a3.063,3.063,0,1,0,3.063,3.063A3.063,3.063,0,0,0,337.364,358.4Z" transform="translate(-331.505 -355.607)" fill="#fff"/>
      </g>
      <path id="パス_7544" data-name="パス 7544" d="M74.167,331.385a41.334,41.334,0,0,0,30.724,13.889c12.865,0,21.062-5.566,25.2-9.425a4.827,4.827,0,0,1-2.994-3.3,34.042,34.042,0,0,1-21.533,7.847c-11.616,0-18.35-4.04-24.074-8.5,0,0,2.326-4.736,17.4-8.708l5.777-5.147S88.167,317.022,74.167,331.385Z" transform="translate(-481.321 -333.337)" fill="#fff"/>
      <circle id="楕円形_326" data-name="楕円形 326" cx="1.715" cy="1.715" r="1.715" transform="translate(-393.894 -3.666)" fill="#fff"/>
      <g id="グループ_14548" data-name="グループ 14548" transform="translate(-371.843 -3.363)">
        <rect id="長方形_14520" data-name="長方形 14520" width="17.466" height="2.795" fill="#fff"/>
      </g>
      <path id="パス_2061" data-name="パス 2061" d="M3.615-5.805H2.336v-6.055H.288V-12.94H5.664v1.079H3.615ZM9.881-12.94a3.406,3.406,0,0,1,2.083.52,1.868,1.868,0,0,1,.674,1.579,1.885,1.885,0,0,1-.195.889,1.874,1.874,0,0,1-.51.615,3.014,3.014,0,0,1-.664.395l2.048,3.138H11.879L10.171-8.623H9.131v2.818H7.852V-12.94ZM9.8-11.871H9.131v2.2h.709a1.829,1.829,0,0,0,1.149-.285,1.025,1.025,0,0,0,.35-.844.91.91,0,0,0-.375-.824A2.172,2.172,0,0,0,9.8-11.871ZM19.813-5.805l-.65-1.889H16.476l-.64,1.889H14.477L17.1-12.97h1.459l2.618,7.165Zm-.979-2.988-.62-1.839q-.04-.13-.12-.375t-.15-.5q-.07-.255-.12-.425-.05.21-.125.47t-.14.49q-.065.23-.1.34l-.63,1.839ZM29.276-5.805H27.687L24.31-11.4h-.04q.02.45.045.964T24.36-9.4v3.6H23.211V-12.94H24.79l3.367,5.556h.03q-.01-.4-.035-.919t-.035-1.009V-12.94h1.159Zm7.1-1.949a1.814,1.814,0,0,1-.689,1.5,2.985,2.985,0,0,1-1.909.55,4.529,4.529,0,0,1-2-.4V-7.3a8.555,8.555,0,0,0,.994.365,3.758,3.758,0,0,0,1.094.165,1.429,1.429,0,0,0,.944-.255.826.826,0,0,0,.295-.655.82.82,0,0,0-.38-.7,6.353,6.353,0,0,0-1.109-.575,4.99,4.99,0,0,1-.844-.445,2.18,2.18,0,0,1-.66-.669,1.87,1.87,0,0,1-.255-1.014,1.735,1.735,0,0,1,.645-1.429,2.666,2.666,0,0,1,1.724-.52,4.59,4.59,0,0,1,1.064.12,5.565,5.565,0,0,1,.994.34l-.41,1.029a6.768,6.768,0,0,0-.854-.3,3.169,3.169,0,0,0-.834-.11,1.187,1.187,0,0,0-.789.23.761.761,0,0,0-.27.61.815.815,0,0,0,.15.495,1.369,1.369,0,0,0,.465.375q.315.17.814.39a5.952,5.952,0,0,1,.984.525,1.976,1.976,0,0,1,.62.65A1.855,1.855,0,0,1,36.381-7.754Zm4.577-5.186a2.961,2.961,0,0,1,2.023.575,2.053,2.053,0,0,1,.635,1.6,2.552,2.552,0,0,1-.26,1.139,1.966,1.966,0,0,1-.874.859,3.538,3.538,0,0,1-1.664.33h-.709v2.628H38.829V-12.94Zm-.08,1.059h-.769v2.388h.58a2.152,2.152,0,0,0,1.2-.285,1.042,1.042,0,0,0,.425-.934,1.076,1.076,0,0,0-.35-.879A1.69,1.69,0,0,0,40.877-11.881Zm11.611,2.5a4.746,4.746,0,0,1-.365,1.934A2.8,2.8,0,0,1,51.01-6.165a3.536,3.536,0,0,1-1.879.46,3.525,3.525,0,0,1-1.889-.46,2.808,2.808,0,0,1-1.1-1.289,4.782,4.782,0,0,1-.365-1.939,4.719,4.719,0,0,1,.365-1.924A2.774,2.774,0,0,1,47.248-12.6a3.582,3.582,0,0,1,1.894-.455,3.54,3.54,0,0,1,1.874.455,2.774,2.774,0,0,1,1.109,1.279A4.746,4.746,0,0,1,52.489-9.383Zm-5.366,0a3.255,3.255,0,0,0,.485,1.9,1.733,1.733,0,0,0,1.524.689,1.727,1.727,0,0,0,1.539-.689,3.335,3.335,0,0,0,.47-1.9,3.335,3.335,0,0,0-.47-1.9,1.716,1.716,0,0,0-1.529-.689,1.744,1.744,0,0,0-1.534.689A3.255,3.255,0,0,0,47.123-9.383ZM57.135-12.94a3.406,3.406,0,0,1,2.083.52,1.868,1.868,0,0,1,.674,1.579,1.885,1.885,0,0,1-.195.889,1.874,1.874,0,0,1-.51.615,3.014,3.014,0,0,1-.664.395l2.048,3.138H59.134L57.425-8.623H56.386v2.818H55.107V-12.94Zm-.08,1.069h-.669v2.2H57.1a1.829,1.829,0,0,0,1.149-.285,1.025,1.025,0,0,0,.35-.844.91.91,0,0,0-.375-.824A2.171,2.171,0,0,0,57.055-11.871Zm8.164,6.065H63.94v-6.055H61.892V-12.94h5.376v1.079H65.219Zm13.77-3.637A3.49,3.49,0,0,1,77.98-6.72a4.046,4.046,0,0,1-2.818.914H73.153V-12.94h2.218a4.289,4.289,0,0,1,1.919.4,2.88,2.88,0,0,1,1.254,1.179A3.82,3.82,0,0,1,78.989-9.443ZM77.65-9.4a2.593,2.593,0,0,0-.59-1.879,2.263,2.263,0,0,0-1.689-.6h-.939v5.006H75.2A2.2,2.2,0,0,0,77.65-9.4Zm9.173,3.6H85.364L83.615-8.653,81.857-5.805H80.5l2.368-3.7L80.648-12.94h1.409l1.619,2.658,1.609-2.658h1.369L84.425-9.453Z" transform="translate(-407.022 34.431)" fill="#fff"/>
    </g>
  </g>
</svg>
